<svg xmlns:xlink="http://www.w3.org/1999/xlink" xmlns="http://www.w3.org/2000/svg" stroke-width="0.501" stroke-linejoin="bevel" fill-rule="evenodd" version="1.1" overflow="visible" viewBox="0 0 75 93.75" x="0px" y="0px">
  <g fill="none" stroke="black" font-family="Times New Roman" font-size="16" transform="scale(1 -1)">
    <g transform="translate(0 -75)">
      <g>
        <path d="M 58.976,3.481 C 58.709,4.358 49.864,28.255 47.806,33.913 C 46.622,37.17 44.683,43.901 43.139,46.339 C 43.091,46.413 43.056,46.494 43.033,46.575 C 42.779,46.616 42.516,46.666 42.25,46.72 C 41.783,46.814 41.287,46.924 40.771,47.035 C 39.74,47.255 38.7,47.461 37.758,47.53 C 37.301,47.564 36.738,47.564 36.12,47.528 C 35.504,47.494 34.846,47.426 34.199,47.325 C 33.551,47.225 32.925,47.096 32.369,46.94 C 31.974,46.829 31.63,46.712 31.347,46.59 C 31.328,46.563 31.308,46.538 31.287,46.513 C 31.197,46.405 30.842,45.793 30.041,43.685 C 29.448,42.124 28.757,40.14 28.079,38.108 C 26.72,34.032 25.433,29.825 25.1,28.509 C 23.462,22.031 19.098,10.043 17.125,3.536 C 16.977,3.052 16.465,2.778 15.979,2.925 C 15.495,3.072 15.221,3.584 15.367,4.07 C 17.368,10.665 21.703,22.567 23.321,28.958 C 23.672,30.348 24.978,34.612 26.338,38.688 C 26.766,39.973 27.202,41.245 27.617,42.41 C 23.001,42.792 18.59,43.555 13.699,45.2 C 12.97,45.445 11.634,45.91 10.436,46.516 C 9.413,47.034 7.922,47.913 7.699,49.203 C 7.669,49.378 7.69,49.55 7.752,49.703 C 7.722,49.874 7.741,50.056 7.816,50.227 C 8.862,52.616 11.778,54.424 14.563,55.764 C 17.352,57.105 20.412,58.156 22.198,58.875 C 23.393,61.658 24.72,64.263 26.705,66.292 C 26.266,66.948 25.821,67.64 25.385,68.232 C 24.614,67.817 23.53,67.65 22.721,68.206 C 22.532,68.335 22.364,68.501 22.23,68.706 C 22.044,68.99 21.942,69.317 21.911,69.661 C 21.786,71.004 22.595,72.093 23.635,72.515 C 24.726,72.958 26.065,72.669 26.857,71.408 C 26.909,71.325 26.947,71.234 26.97,71.139 C 27.011,70.974 27.02,70.819 27.014,70.681 C 27.003,70.371 26.907,70.08 26.856,69.927 C 26.824,69.831 26.8,69.764 26.778,69.699 C 26.759,69.635 26.753,69.609 26.751,69.603 L 26.733,69.493 C 27.199,68.879 27.656,68.178 28.091,67.523 C 30.333,69.242 33.311,70.33 37.518,70.417 C 41.244,70.494 44.06,69.103 46.238,67.028 C 46.331,67.191 46.427,67.369 46.531,67.562 C 46.676,67.833 46.838,68.133 47.012,68.417 C 47.063,68.501 47.118,68.586 47.176,68.671 C 46.849,69.266 46.816,69.983 46.941,70.565 C 47.023,70.947 47.185,71.337 47.448,71.667 C 47.715,72.003 48.098,72.287 48.595,72.393 C 49.288,72.539 50.143,72.373 50.817,72.037 C 51.165,71.864 51.52,71.618 51.796,71.287 C 52.079,70.947 52.287,70.502 52.291,69.977 C 52.3,68.885 51.598,68.11 50.847,67.726 C 50.222,67.407 49.38,67.267 48.665,67.596 C 48.635,67.551 48.605,67.503 48.575,67.454 C 48.434,67.224 48.297,66.97 48.148,66.693 C 48.004,66.426 47.846,66.131 47.681,65.861 C 47.634,65.786 47.586,65.709 47.534,65.632 C 49.374,63.406 50.7,60.701 51.79,58.219 C 56.71,56.887 64.211,54.012 67.142,50.175 C 67.268,50.009 67.329,49.815 67.33,49.62 C 67.346,49.562 67.356,49.502 67.36,49.442 C 67.484,49.133 67.435,48.765 67.2,48.495 C 66.99,48.252 66.599,47.939 66.164,47.625 C 65.702,47.292 65.117,46.908 64.465,46.526 C 63.18,45.775 61.554,44.987 60.076,44.682 L 60.013,44.672 C 58.139,44.42 55.075,43.727 53.137,43.359 C 51.168,42.985 49.025,42.672 46.848,42.44 C 47.863,39.634 48.821,36.492 49.532,34.54 C 51.576,28.917 60.441,4.975 60.741,3.989 C 60.882,3.495 60.6,2.987 60.113,2.847 C 59.626,2.708 59.118,2.99 58.976,3.481 Z M 37.049,4.965 C 36.734,5.361 36.8,5.939 37.198,6.254 C 37.255,6.299 37.297,6.349 37.333,6.414 C 37.371,6.48 37.407,6.565 37.447,6.692 C 35.559,7.673 34.705,10.497 35.049,12.709 L 35.148,13.192 L 34.971,13.25 L 34.758,13.316 L 34.7,13.174 C 34.652,13.06 34.6,12.946 34.549,12.831 C 34.337,12.358 34.113,11.862 33.944,11.354 C 33.772,10.842 33.679,10.382 33.695,9.994 C 33.71,9.63 33.816,9.35 34.046,9.118 C 34.357,8.801 34.392,8.315 34.152,7.96 C 34.118,7.884 34.073,7.813 34.017,7.747 C 33.922,7.635 33.808,7.553 33.682,7.498 C 33.555,7.366 33.412,7.188 33.241,7.01 C 33.104,6.867 32.928,6.702 32.706,6.562 C 32.477,6.417 32.207,6.304 31.89,6.258 C 31.388,6.187 30.923,6.536 30.851,7.037 C 30.78,7.54 31.129,8.005 31.63,8.076 C 31.661,8.08 31.688,8.089 31.725,8.113 C 31.77,8.142 31.829,8.19 31.915,8.28 C 31.95,8.316 31.985,8.355 32.022,8.396 C 31.71,8.825 31.5,9.291 31.376,9.779 C 31.179,10.555 31.206,11.349 31.33,12.093 C 31.571,13.538 32.212,14.991 32.602,16.09 C 32.64,16.2 32.698,16.298 32.77,16.381 C 32.768,16.787 32.86,17.196 32.974,17.56 C 33.091,17.94 33.25,18.327 33.408,18.686 C 33.566,19.044 33.736,19.403 33.883,19.728 C 33.968,19.918 34.044,20.091 34.106,20.248 C 34.1,20.392 34.128,20.54 34.193,20.679 C 34.252,20.804 34.32,20.95 34.393,21.103 C 33.982,20.894 33.548,20.636 33.107,20.337 C 31.857,19.489 30.772,18.469 30.278,17.79 C 29.98,17.38 29.406,17.289 28.996,17.587 C 28.587,17.886 28.496,18.459 28.793,18.869 C 29.453,19.776 30.717,20.934 32.077,21.855 C 33.255,22.654 34.69,23.406 35.99,23.536 C 36.015,23.559 36.041,23.58 36.067,23.603 C 36.284,23.783 36.559,23.848 36.815,23.802 C 37.015,24.002 37.304,24.105 37.611,24.071 C 37.643,24.086 37.671,24.103 37.705,24.126 C 37.787,24.18 37.879,24.254 37.973,24.34 C 37.994,24.359 38.015,24.378 38.036,24.399 C 37.829,24.642 37.702,24.922 37.648,25.215 C 37.558,25.696 37.669,26.158 37.812,26.524 C 37.958,26.9 38.171,27.261 38.387,27.577 C 38.742,28.096 39.158,28.57 39.447,28.886 C 39.314,29.124 39.292,29.37 39.294,29.534 C 39.295,29.599 39.3,29.676 39.302,29.688 L 39.3,29.834 C 39.339,30.276 39.695,30.639 40.155,30.668 C 40.484,30.69 40.917,30.651 41.298,30.59 C 41.657,30.531 42.118,30.431 42.453,30.262 L 42.52,30.226 C 43.539,29.651 44.498,28.478 44.922,27.233 C 45.393,25.851 45.205,24.279 43.769,23.312 C 43.191,22.924 42.517,22.749 41.832,22.767 C 41.774,22.685 41.727,22.595 41.699,22.512 C 41.673,22.433 41.673,22.386 41.676,22.361 C 41.692,22.345 41.741,22.305 41.862,22.262 C 42.09,22.178 42.266,22.015 42.368,21.813 C 42.433,21.763 42.491,21.704 42.543,21.636 C 42.741,21.366 42.771,21.024 42.651,20.735 C 42.762,20.341 42.853,19.929 42.932,19.52 C 43.006,19.134 43.073,18.736 43.134,18.344 C 43.195,17.954 43.254,17.558 43.314,17.177 C 43.433,16.403 43.552,15.71 43.704,15.134 C 43.781,14.848 43.86,14.61 43.944,14.42 C 44.028,14.226 44.106,14.11 44.163,14.044 C 44.501,13.666 44.468,13.086 44.089,12.749 C 43.711,12.411 43.131,12.444 42.794,12.823 C 42.355,13.315 42.102,14.017 41.93,14.663 C 41.749,15.344 41.617,16.133 41.5,16.896 C 41.406,17.499 41.315,18.129 41.211,18.728 C 41.141,18.666 41.067,18.606 40.986,18.55 C 40.127,17.446 39.4,16.012 38.886,14.671 C 38.835,14.539 38.757,14.426 38.661,14.335 C 38.649,14.279 38.63,14.223 38.606,14.168 C 38.1,13.04 37.656,11.882 37.634,10.87 C 37.613,9.965 37.917,9.166 39.077,8.571 C 39.435,8.387 39.621,8 39.566,7.622 C 39.591,7.453 39.568,7.275 39.492,7.11 C 39.377,6.861 39.315,6.526 39.21,6.179 C 39.147,5.974 39.061,5.736 38.925,5.498 C 38.785,5.256 38.597,5.021 38.338,4.816 C 37.942,4.501 37.364,4.567 37.049,4.965 Z M 37.507,16.144 L 37.652,16.477 C 38.098,17.456 38.645,18.453 39.28,19.333 C 39.341,19.639 39.553,19.906 39.867,20.021 C 39.917,20.038 39.966,20.07 40.029,20.14 C 40.101,20.22 40.176,20.335 40.276,20.513 C 40.346,20.639 40.425,20.788 40.513,20.94 C 40.459,20.984 40.408,21.031 40.359,21.081 C 40.04,20.998 39.721,21.002 39.431,21.061 C 39.07,21.134 38.74,21.291 38.462,21.488 C 38.195,21.676 37.941,21.927 37.743,22.222 C 37.608,22.211 37.46,22.218 37.309,22.252 C 37.288,22.232 37.266,22.213 37.245,22.194 C 37.239,22.189 37.234,22.184 37.228,22.18 C 37.158,22.057 37.059,21.952 36.941,21.874 C 36.8,21.696 36.656,21.474 36.508,21.213 C 36.386,20.998 36.271,20.773 36.162,20.547 C 36.11,20.442 36.061,20.339 36.014,20.239 C 36.01,20.161 35.997,20.081 35.971,20.003 C 35.862,19.667 35.707,19.309 35.556,18.973 C 35.402,18.632 35.238,18.287 35.088,17.946 C 34.938,17.607 34.813,17.297 34.726,17.016 C 34.709,16.964 34.696,16.915 34.683,16.869 C 35.523,16.646 36.44,16.454 37.306,16.206 L 37.507,16.144 Z M 39.957,23.091 C 40.065,23.417 40.239,23.715 40.436,23.962 C 40.553,24.444 41.033,24.748 41.52,24.644 C 42.011,24.54 42.437,24.629 42.744,24.834 C 43.48,25.331 43.381,26.064 43.184,26.642 C 42.931,27.385 42.379,28.09 41.844,28.479 L 41.619,28.625 L 41.55,28.652 C 41.482,28.675 41.377,28.704 41.239,28.734 L 41.157,28.748 C 41.264,28.439 41.201,28.082 40.965,27.825 C 40.681,27.517 40.248,27.047 39.902,26.541 C 39.73,26.288 39.599,26.056 39.522,25.859 C 39.461,25.704 39.452,25.614 39.451,25.575 L 39.512,25.522 C 39.712,25.332 39.81,25.067 39.796,24.805 C 40.077,24.48 40.1,23.991 39.826,23.64 C 39.766,23.563 39.681,23.461 39.578,23.35 C 39.514,23.28 39.441,23.204 39.361,23.126 C 39.406,23.078 39.458,23.031 39.522,22.987 C 39.724,22.844 39.87,22.846 39.909,22.862 L 39.911,22.862 C 39.913,22.948 39.933,23.021 39.957,23.091 Z M 38.11,42 L 37.915,42.004 C 37.321,42.013 36.735,42.024 36.16,42.034 C 35.654,42.044 35.25,42.463 35.259,42.969 C 35.269,43.475 35.688,43.88 36.194,43.87 C 36.769,43.859 37.352,43.848 37.947,43.84 L 38.147,43.836 C 38.653,43.826 39.056,43.406 39.046,42.9 C 39.036,42.394 38.616,41.99 38.11,42 Z M 40.084,42.916 C 40.066,43.423 40.464,43.846 40.971,43.863 C 41.585,43.884 42.209,43.914 42.84,43.949 C 43.346,43.979 43.78,43.591 43.808,43.086 C 43.837,42.58 43.45,42.146 42.945,42.118 C 42.302,42.08 41.664,42.05 41.031,42.029 C 40.525,42.012 40.101,42.409 40.084,42.916 Z M 31.702,42.165 C 31.196,42.187 30.803,42.616 30.826,43.122 C 30.848,43.628 31.277,44.021 31.783,43.998 C 32.305,43.975 32.833,43.958 33.375,43.94 C 33.881,43.924 34.279,43.499 34.263,42.993 C 34.246,42.487 33.821,42.089 33.315,42.105 C 32.775,42.122 32.235,42.141 31.702,42.165 Z M 28.325,44.337 C 28.8,45.585 29.275,46.756 29.677,47.405 C 29.727,47.668 29.89,47.907 30.143,48.045 C 30.638,48.314 31.243,48.532 31.875,48.708 C 32.514,48.886 33.215,49.03 33.919,49.14 C 35.317,49.355 36.79,49.441 37.892,49.36 C 38.983,49.28 40.138,49.048 41.156,48.829 C 41.672,48.719 42.161,48.61 42.613,48.519 C 43.065,48.428 43.456,48.36 43.78,48.325 C 44.24,48.274 44.583,47.892 44.598,47.442 C 44.632,47.405 44.663,47.364 44.691,47.321 C 45.175,46.555 45.677,45.464 46.175,44.215 C 48.472,44.446 50.734,44.77 52.795,45.163 C 54.585,45.501 57.428,46.141 59.389,46.437 L 59.724,46.485 L 60.16,46.591 C 61.242,46.891 62.465,47.482 63.538,48.111 C 63.982,48.37 64.391,48.631 64.74,48.869 C 63.976,49.025 63.043,49.181 62.042,49.327 C 60.355,49.57 58.636,49.759 57.619,49.84 C 54.609,50.079 51.636,50.241 48.583,50.436 C 43.374,50.773 35.606,50.998 30.481,50.612 C 27.785,50.409 25.649,50.275 23.488,50.041 C 21.339,49.809 19.174,49.479 16.453,48.882 C 14.605,48.477 12.728,48.563 11.081,48.248 C 11.142,48.217 11.203,48.185 11.265,48.154 C 12.335,47.613 13.563,47.183 14.284,46.94 C 19.181,45.292 23.583,44.558 28.273,44.2 C 28.29,44.246 28.308,44.291 28.325,44.337 Z M 3.75,48.91 C 3.4,50.184 3.872,51.56 4.483,52.641 C 5.109,53.747 5.998,54.753 6.811,55.358 C 7.217,55.661 7.792,55.577 8.094,55.17 C 8.397,54.764 8.313,54.189 7.906,53.887 C 7.32,53.449 6.594,52.644 6.081,51.737 C 5.553,50.803 5.363,49.967 5.521,49.394 C 5.654,48.906 5.366,48.401 4.877,48.267 C 4.389,48.133 3.884,48.421 3.75,48.91 Z M 70.007,49.329 C 69.631,51.205 68.145,52.946 66.34,53.869 C 65.89,54.1 65.711,54.653 65.942,55.105 C 66.173,55.555 66.726,55.734 67.178,55.503 C 69.388,54.372 71.302,52.208 71.807,49.69 C 71.906,49.193 71.584,48.709 71.088,48.609 C 70.59,48.51 70.107,48.832 70.007,49.329 Z M 9.665,49.785 C 11.766,50.445 14.06,50.237 16.06,50.675 C 21.646,51.9 24.999,52.041 30.343,52.442 C 35.599,52.837 43.468,52.606 48.701,52.268 C 51.731,52.075 54.736,51.91 57.765,51.67 C 58.826,51.584 60.584,51.391 62.304,51.143 C 62.788,51.072 63.28,50.997 63.759,50.917 C 60.51,53.4 55.151,55.426 51.117,56.499 C 51.002,56.528 50.898,56.579 50.808,56.646 C 50.806,56.646 50.803,56.647 50.801,56.648 C 49.915,56.871 48.612,57.088 47.229,57.283 C 45.858,57.475 44.449,57.639 43.369,57.761 C 40.708,58.06 38.393,58.335 36.133,58.433 C 33.884,58.53 31.702,58.451 29.333,58.043 C 28.4,57.882 27.027,57.677 25.729,57.464 C 25.08,57.357 24.452,57.25 23.907,57.145 C 23.353,57.038 22.91,56.939 22.617,56.852 C 22.434,56.798 22.249,56.803 22.08,56.857 C 20.221,56.141 17.707,55.239 15.359,54.109 C 12.665,52.813 10.492,51.35 9.636,49.775 C 9.645,49.778 9.655,49.781 9.665,49.785 Z M 16.636,52.958 C 16.648,53.563 17.15,54.047 17.755,54.035 C 18.36,54.023 18.843,53.521 18.831,52.916 C 18.82,52.311 18.318,51.828 17.713,51.84 C 17.108,51.852 16.625,52.353 16.636,52.958 Z M 1.943,52.08 C 1.462,52.238 1.199,52.757 1.358,53.238 C 1.809,54.61 2.713,55.833 4.043,56.548 C 4.49,56.788 5.046,56.62 5.286,56.174 C 5.526,55.727 5.358,55.171 4.912,54.932 C 4.059,54.473 3.43,53.662 3.102,52.665 C 2.943,52.183 2.424,51.921 1.943,52.08 Z M 72.286,52.946 C 72.148,53.219 72.027,53.471 71.906,53.705 C 71.788,53.933 71.678,54.124 71.56,54.29 C 71.339,54.605 71.079,54.852 70.654,55.042 C 70.192,55.249 69.984,55.792 70.192,56.255 C 70.398,56.717 70.942,56.925 71.405,56.717 C 72.17,56.375 72.678,55.894 73.061,55.348 C 73.247,55.084 73.4,54.812 73.535,54.551 C 73.666,54.298 73.795,54.031 73.924,53.777 C 74.153,53.325 73.972,52.773 73.52,52.543 C 73.068,52.314 72.516,52.495 72.286,52.946 Z M 52.692,54.037 C 52.704,54.642 53.206,55.124 53.811,55.113 C 54.416,55.101 54.899,54.6 54.887,53.995 C 54.877,53.39 54.374,52.907 53.769,52.918 C 53.164,52.929 52.682,53.432 52.692,54.037 Z M 28.358,54.999 C 28.368,55.604 28.871,56.087 29.476,56.075 C 30.081,56.063 30.563,55.562 30.553,54.957 C 30.541,54.352 30.039,53.868 29.434,53.88 C 28.829,53.892 28.346,54.394 28.358,54.999 Z M 41.326,55.671 C 41.337,56.276 41.839,56.758 42.444,56.747 C 43.049,56.735 43.532,56.234 43.521,55.629 C 43.509,55.024 43.007,54.541 42.402,54.552 C 41.797,54.563 41.315,55.066 41.326,55.671 Z M 45.577,65.086 C 43.601,67.225 41.072,68.655 37.556,68.582 C 33.128,68.491 30.325,67.216 28.308,65.298 C 26.603,63.676 25.402,61.547 24.293,59.081 C 24.66,59.147 25.045,59.212 25.432,59.275 C 26.752,59.492 28.104,59.693 29.02,59.851 C 31.545,60.287 33.861,60.369 36.212,60.267 C 38.551,60.166 40.938,59.882 43.574,59.585 C 44.658,59.463 46.088,59.297 47.484,59.1 C 48.178,59.002 48.874,58.896 49.52,58.783 C 48.455,61.071 47.21,63.317 45.577,65.086 Z M 44.053,62.096 C 44.049,62.109 44.032,62.151 43.982,62.228 C 43.926,62.313 43.846,62.412 43.74,62.534 C 43.501,62.807 43.219,63.089 43.013,63.411 C 42.739,63.836 42.863,64.405 43.289,64.678 C 43.715,64.952 44.284,64.828 44.557,64.402 C 44.597,64.341 44.662,64.258 44.768,64.136 C 44.874,64.017 44.999,63.881 45.12,63.743 C 45.246,63.6 45.389,63.427 45.514,63.238 C 45.638,63.051 45.766,62.814 45.835,62.536 C 45.844,62.497 45.853,62.457 45.861,62.416 C 45.949,61.917 45.615,61.441 45.117,61.352 C 44.618,61.264 44.142,61.597 44.053,62.096 Z M 29.536,61.694 C 29.067,61.885 28.841,62.421 29.032,62.891 C 29.718,64.578 31.291,66.264 33.182,66.762 C 33.672,66.891 34.174,66.598 34.303,66.108 C 34.432,65.618 34.14,65.116 33.649,64.987 C 32.434,64.667 31.252,63.473 30.733,62.199 C 30.542,61.73 30.006,61.503 29.536,61.694 Z M 50.011,69.36 C 50.305,69.511 50.457,69.741 50.455,69.962 C 50.455,70.024 50.37,70.21 49.998,70.395 C 49.601,70.592 49.167,70.637 48.974,70.596 C 48.946,70.59 48.808,70.516 48.736,70.18 C 48.707,70.048 48.703,69.93 48.712,69.83 L 48.721,69.767 L 48.891,69.728 C 49.058,69.672 49.209,69.569 49.323,69.425 L 49.423,69.27 C 49.437,69.259 49.674,69.189 50.011,69.36 Z M 24.075,69.701 C 24.232,69.723 24.393,69.78 24.525,69.852 L 24.562,69.877 C 24.689,70.027 24.835,70.158 24.996,70.268 L 25.042,70.294 L 25.073,70.387 C 25.088,70.429 25.101,70.47 25.115,70.508 C 25.129,70.55 25.14,70.586 25.149,70.62 L 25.066,70.708 C 24.821,70.911 24.552,70.907 24.325,70.814 C 23.977,70.673 23.695,70.307 23.739,69.831 C 23.743,69.783 23.75,69.752 23.763,69.718 C 23.763,69.716 23.857,69.668 24.075,69.701 Z" stroke="none" fill="#000000" stroke-width="0.5" fill-rule="evenodd" marker-start="none" marker-end="none" stroke-miterlimit="79.8403193612775"/>
      </g>
    </g>
  </g>
  <text x="0" y="90" fill="#000000" font-size="5px" font-weight="bold" font-family="'Helvetica Neue', Helvetica, Arial-Unicode, Arial, Sans-serif">Created by Denis Sazhin</text>
  <text x="0" y="95" fill="#000000" font-size="5px" font-weight="bold" font-family="'Helvetica Neue', Helvetica, Arial-Unicode, Arial, Sans-serif">from the Noun Project</text>
</svg>
