<svg xmlns="http://www.w3.org/2000/svg" xmlns:xlink="http://www.w3.org/1999/xlink" version="1.1" x="0px" y="0px" viewBox="0 0 100 125" enable-background="new 0 0 100 100" xml:space="preserve"><path d="M49.17,12.059c21.163,0,38.378,17.218,38.378,38.38c0,21.164-17.217,38.381-38.378,38.381c-8.113,0-15.875-2.51-22.446-7.26  c-0.693-0.5-1.515-0.758-2.343-0.758c-0.556,0-1.111,0.115-1.633,0.35l-9.113,4.078l3.85-10.115  c0.457-1.199,0.312-2.547-0.396-3.619c-4.119-6.264-6.296-13.545-6.296-21.057C10.792,29.276,28.007,12.059,49.17,12.059   M49.17,8.059c-23.405,0-42.378,18.975-42.378,42.38c0,8.59,2.562,16.576,6.954,23.254L6.465,92.819l17.916-8.018  c6.971,5.039,15.53,8.018,24.789,8.018c23.404,0,42.378-18.975,42.378-42.381C91.548,27.033,72.572,8.059,49.17,8.059L49.17,8.059z"/><path d="M49.005,25.987c-10.468,0-20.375,8.96-20.375,19.427S41.7,74.891,49.005,74.891c7.304,0,20.375-19.009,20.375-29.477  C69.38,34.947,59.472,25.987,49.005,25.987z M37.862,55.729c-4.062-1.704-6.669-4.722-5.371-7.817  c1.299-3.098,5.278-3.354,9.341-1.649c4.062,1.703,6.185,5.875,5.37,7.818C46.388,56.022,41.924,57.435,37.862,55.729z   M60.148,55.729c-4.062,1.705-8.526,0.293-9.341-1.648c-0.814-1.943,1.309-6.115,5.371-7.817c4.061-1.704,8.042-1.448,9.341,1.648  S64.21,54.026,60.148,55.729z"/><text x="0" y="115" fill="#000000" font-size="5px" font-weight="bold" font-family="'Helvetica Neue', Helvetica, Arial-Unicode, Arial, Sans-serif">Created by corpus delicti</text><text x="0" y="120" fill="#000000" font-size="5px" font-weight="bold" font-family="'Helvetica Neue', Helvetica, Arial-Unicode, Arial, Sans-serif">from the Noun Project</text></svg>