<svg xmlns="http://www.w3.org/2000/svg" viewBox="0 0 91.65 113.65" x="0px" y="0px"><title>Asset 11</title><g data-name="Layer 2"><g data-name="Layer 1"><polygon points="19.09 39.86 14.92 39.86 17.02 29.4 10.76 42.18 13.89 42.18 10.76 59.28 19.09 39.86"/><path d="M85.35,11.15a1,1,0,0,0-1-.83H7.2a1,1,0,0,0-1,.83L3.57,26.79s0,.05,0,.08,0,.06,0,.09V83.44a4.18,4.18,0,0,0,4.18,4.18h76.1A4.18,4.18,0,0,0,88,83.44V27s0-.06,0-.09,0-.05,0-.08Zm-1.06,5.73L85.83,26H84.29Zm-2-4.56h1.25l.51,3V26H82.27Zm-2,8.58a1.7,1.7,0,0,0,0-3.39V12.32H82V26H80.25Zm-2-8.58H80v5.18a1.7,1.7,0,0,0,0,3.39V26H78.23Zm-2,0H78V26H76.21Zm-2,0h1.75V26H74.19Zm-2,9.55a.82.82,0,0,0,.7-.81V17.34a.82.82,0,0,0-.7-.81V12.32h1.76V26H72.17Zm-2-9.55h1.75v4.21a.82.82,0,0,0-.7.81v3.73a.82.82,0,0,0,.7.81V26H70.15Zm-2,0h1.75V26H68.13Zm-2,0h1.76V26H66.11V22.75a4.73,4.73,0,0,0,0-7.22ZM63,22.43a3.29,3.29,0,1,1,3.29-3.29A3.3,3.3,0,0,1,63,22.43Zm2.85.54v3H64.1V23.79A4.75,4.75,0,0,0,65.85,23Zm-2,.88V26H62.08V23.84a4.38,4.38,0,0,0,1.75,0Zm-2-.08V26H60.06V22.89A4.75,4.75,0,0,0,61.81,23.76ZM64.1,12.32h1.76v3a4.75,4.75,0,0,0-1.76-.82Zm-2,0h1.75v2.11a4.38,4.38,0,0,0-1.75,0Zm-2,0h1.76v2.19a4.75,4.75,0,0,0-1.76.87Zm-2,0h1.76V15.6a4.73,4.73,0,0,0,0,7.07V26H58Zm-2,9.53a4.76,4.76,0,0,0,0-5.43v-4.1h1.76V26H56Zm-2-9.53h1.76V16.1A4.8,4.8,0,0,0,54,14.76Zm1.76,9.85V26H54V23.52A4.8,4.8,0,0,0,55.75,22.17ZM52,12.32h1.75v2.34a4.74,4.74,0,0,0-1.66-.31H52Zm-2,0h1.76v2.06a4.73,4.73,0,0,0-1.76.48Zm2.12,3.52a3.29,3.29,0,1,1-3.29,3.29A3.3,3.3,0,0,1,52.07,15.85Zm1.66,7.77V26H52v-2h.1A4.74,4.74,0,0,0,53.73,23.62Zm-2,.28V26H50V23.42A4.73,4.73,0,0,0,51.71,23.89ZM47.94,12.32h1.76V15a4.79,4.79,0,0,0-1.76,1.76Zm0,9.19a4.79,4.79,0,0,0,1.76,1.76V26H47.94Zm-2-2.16c0-.08,0-.15,0-.22s0-.15,0-.22V12.32h1.76v4.93a4.76,4.76,0,0,0,0,3.78V26H45.92Zm-2-7h1.75v5.24a4.8,4.8,0,0,0-1.75-2.34ZM41.15,22.43a3.29,3.29,0,1,1,3.29-3.29A3.3,3.3,0,0,1,41.15,22.43Zm2.49.78V26H41.88v-2.1A4.74,4.74,0,0,0,43.63,23.21Zm-2,.67V26H39.86V23.73a4.73,4.73,0,0,0,1.29.2A4.68,4.68,0,0,0,41.61,23.88ZM43.9,23a4.8,4.8,0,0,0,1.75-2.34V26H43.9Zm-2-10.73h1.75v2.74a4.74,4.74,0,0,0-1.75-.64Zm-2,0h1.76v2.07a4.68,4.68,0,0,0-.47,0,4.73,4.73,0,0,0-1.29.2Zm-2,0h1.75v2.3a4.78,4.78,0,0,0-1.75,1.06Zm0,10.27a4.78,4.78,0,0,0,1.75,1.06V26H37.84Zm-2-10.27h1.75V16a4.71,4.71,0,0,0,0,6.32V26H35.82Zm-2,10a4.71,4.71,0,0,0,0-6.31V12.32h1.76V26H33.8Zm-2-10h1.75v3.37a4.78,4.78,0,0,0-1.75-1.06ZM30.22,22.43a3.29,3.29,0,1,1,3.29-3.29A3.3,3.3,0,0,1,30.22,22.43Zm1.29,1.3V26H29.76V23.88c.15,0,.3,0,.46,0A4.73,4.73,0,0,0,31.51,23.73Zm-2,.13V26H27.74V23.22A4.74,4.74,0,0,0,29.49,23.86Zm2.28-.21a4.78,4.78,0,0,0,1.75-1.06V26H31.78Zm-2-11.33h1.75v2.22a4.73,4.73,0,0,0-1.29-.2c-.16,0-.31,0-.46,0Zm-2,0h1.76v2.1a4.74,4.74,0,0,0-1.76.64Zm-2,0h1.76v2.9a4.8,4.8,0,0,0-1.76,2.33Zm0,8.4a4.8,4.8,0,0,0,1.76,2.33V26H25.72Zm-2,.3a4.76,4.76,0,0,0,0-3.77V12.32h1.76v6.56c0,.09,0,.17,0,.25s0,.17,0,.25V26H23.7Zm-2-8.7h1.75v4.44A4.79,4.79,0,0,0,21.68,15Zm1.75,9.19V26H21.68V23.27A4.79,4.79,0,0,0,23.43,21.51Zm-.85-2.37a3.29,3.29,0,1,1-3.29-3.29A3.3,3.3,0,0,1,22.59,19.14Zm-1.17,4.28V26H19.66V23.89A4.73,4.73,0,0,0,21.41,23.41Zm-2,.51v2H17.64V23.62a4.74,4.74,0,0,0,1.66.31Zm.26-11.6h1.76v2.54a4.73,4.73,0,0,0-1.76-.48Zm-2,0H19.4v2h-.1a4.74,4.74,0,0,0-1.66.31Zm-2,0h1.76v2.43a4.8,4.8,0,0,0-1.76,1.35Zm0,9.85a4.8,4.8,0,0,0,1.76,1.35V26H15.62Zm-2-9.85h1.75v4.1a4.76,4.76,0,0,0,0,5.43V26H13.6Zm-2,8.55a1.79,1.79,0,0,0,0-3.35V12.32h1.75V26H11.58Zm-2-8.55h1.76v5.12a1.77,1.77,0,0,0-1.76.62Zm0,8a1.77,1.77,0,0,0,1.76.62v5H9.56Zm-2-5,.51-3H9.3v6.16a1.78,1.78,0,0,0,0,1.44v6H7.54Zm-.26,1.56V26H5.74ZM86,83.44a2.18,2.18,0,0,1-2.18,2.18H7.73a2.18,2.18,0,0,1-2.18-2.18V28H86Z"/><circle cx="51.05" cy="57.1" r="1.55"/><circle cx="51.05" cy="53.68" r="1.47"/><circle cx="51.05" cy="50.27" r="1.33"/><circle cx="51.05" cy="46.86" r="1.13"/><circle cx="51.05" cy="43.44" r="0.9"/><circle cx="51.05" cy="40.03" r="0.68"/><circle cx="51.05" cy="36.61" r="0.47"/><circle cx="51.05" cy="33.2" r="0.31"/><circle cx="51.05" cy="29.78" r="0.18"/><circle cx="51.05" cy="60.51" r="1.47"/><circle cx="51.05" cy="63.93" r="1.33"/><circle cx="51.05" cy="67.34" r="1.13"/><circle cx="51.05" cy="70.76" r="0.9"/><circle cx="51.05" cy="74.17" r="0.68"/><circle cx="51.05" cy="77.59" r="0.47"/><circle cx="51.05" cy="81" r="0.31"/><circle cx="51.05" cy="84.41" r="0.18"/><circle cx="45.78" cy="57.1" r="1.55"/><circle cx="45.78" cy="53.68" r="1.47"/><circle cx="45.78" cy="50.27" r="1.33"/><circle cx="45.78" cy="46.86" r="1.13"/><circle cx="45.78" cy="43.44" r="0.9"/><circle cx="45.78" cy="40.03" r="0.68"/><circle cx="45.78" cy="36.61" r="0.47"/><circle cx="45.78" cy="33.2" r="0.31"/><circle cx="45.78" cy="29.78" r="0.18"/><circle cx="45.78" cy="60.51" r="1.47"/><circle cx="45.78" cy="63.93" r="1.33"/><circle cx="45.78" cy="67.34" r="1.13"/><circle cx="45.78" cy="70.76" r="0.9"/><circle cx="45.78" cy="74.17" r="0.68"/><circle cx="45.78" cy="77.59" r="0.47"/><circle cx="45.78" cy="81" r="0.31"/><circle cx="45.78" cy="84.41" r="0.18"/><circle cx="40.52" cy="57.1" r="1.55"/><circle cx="40.52" cy="53.68" r="1.47"/><circle cx="40.52" cy="50.27" r="1.33"/><circle cx="40.52" cy="46.86" r="1.13"/><circle cx="40.52" cy="43.44" r="0.9"/><circle cx="40.52" cy="40.03" r="0.68"/><circle cx="40.52" cy="36.61" r="0.47"/><circle cx="40.52" cy="33.2" r="0.31"/><circle cx="40.52" cy="29.78" r="0.18"/><circle cx="40.52" cy="60.51" r="1.47"/><circle cx="40.52" cy="63.93" r="1.33"/><circle cx="40.52" cy="67.34" r="1.13"/><circle cx="40.52" cy="70.76" r="0.9"/><circle cx="40.52" cy="74.17" r="0.68"/><circle cx="40.52" cy="77.59" r="0.47"/><circle cx="40.52" cy="81" r="0.31"/><circle cx="40.52" cy="84.41" r="0.18"/><circle cx="35.26" cy="57.1" r="1.55"/><circle cx="35.26" cy="53.68" r="1.47"/><circle cx="35.26" cy="50.27" r="1.33"/><circle cx="35.26" cy="46.86" r="1.13"/><circle cx="35.26" cy="43.44" r="0.9"/><circle cx="35.26" cy="40.03" r="0.68"/><circle cx="35.26" cy="36.61" r="0.47"/><circle cx="35.26" cy="33.2" r="0.31"/><circle cx="35.26" cy="29.78" r="0.18"/><circle cx="35.26" cy="60.51" r="1.47"/><circle cx="35.26" cy="63.93" r="1.33"/><circle cx="35.26" cy="67.34" r="1.13"/><circle cx="35.26" cy="70.76" r="0.9"/><circle cx="35.26" cy="74.17" r="0.68"/><circle cx="35.26" cy="77.59" r="0.47"/><circle cx="35.26" cy="81" r="0.31"/><circle cx="35.26" cy="84.41" r="0.18"/><circle cx="30" cy="57.1" r="1.55"/><circle cx="30" cy="53.68" r="1.47"/><circle cx="30" cy="50.27" r="1.33"/><circle cx="30" cy="46.86" r="1.13"/><circle cx="30" cy="43.44" r="0.9"/><circle cx="30" cy="40.03" r="0.68"/><circle cx="30" cy="36.61" r="0.47"/><circle cx="30" cy="33.2" r="0.31"/><circle cx="30" cy="29.78" r="0.18"/><circle cx="30" cy="60.51" r="1.47"/><circle cx="30" cy="63.93" r="1.33"/><circle cx="30" cy="67.34" r="1.13"/><circle cx="30" cy="70.76" r="0.9"/><circle cx="30" cy="74.17" r="0.68"/><circle cx="30" cy="77.59" r="0.47"/><circle cx="30" cy="81" r="0.31"/><circle cx="30" cy="84.41" r="0.18"/><circle cx="24.74" cy="57.1" r="1.55"/><circle cx="24.74" cy="53.68" r="1.47"/><circle cx="24.74" cy="50.27" r="1.33"/><circle cx="24.74" cy="46.86" r="1.13"/><circle cx="24.74" cy="43.44" r="0.9"/><circle cx="24.74" cy="40.03" r="0.68"/><circle cx="24.74" cy="36.61" r="0.47"/><circle cx="24.74" cy="33.2" r="0.31"/><circle cx="24.74" cy="29.78" r="0.18"/><circle cx="24.74" cy="60.51" r="1.47"/><circle cx="24.74" cy="63.93" r="1.33"/><circle cx="24.74" cy="67.34" r="1.13"/><circle cx="24.74" cy="70.76" r="0.9"/><circle cx="24.74" cy="74.17" r="0.68"/><circle cx="24.74" cy="77.59" r="0.47"/><circle cx="24.74" cy="81" r="0.31"/><circle cx="24.74" cy="84.41" r="0.18"/><circle cx="19.48" cy="57.1" r="1.55"/><circle cx="19.48" cy="53.68" r="1.47"/><circle cx="19.48" cy="50.27" r="1.33"/><circle cx="19.48" cy="46.86" r="1.13"/><circle cx="19.48" cy="36.61" r="0.47"/><circle cx="19.48" cy="33.2" r="0.31"/><circle cx="19.48" cy="29.78" r="0.18"/><circle cx="19.48" cy="60.51" r="1.47"/><circle cx="19.48" cy="63.93" r="1.33"/><circle cx="19.48" cy="67.34" r="1.13"/><circle cx="19.48" cy="70.76" r="0.9"/><circle cx="19.48" cy="74.17" r="0.68"/><circle cx="19.48" cy="77.59" r="0.47"/><circle cx="19.48" cy="81" r="0.31"/><circle cx="19.48" cy="84.41" r="0.18"/><circle cx="14.22" cy="33.2" r="0.31"/><circle cx="14.22" cy="29.78" r="0.18"/><circle cx="14.22" cy="60.51" r="1.47"/><circle cx="14.22" cy="63.93" r="1.33"/><circle cx="14.22" cy="67.34" r="1.13"/><circle cx="14.22" cy="70.76" r="0.9"/><circle cx="14.22" cy="74.17" r="0.68"/><circle cx="14.22" cy="77.59" r="0.47"/><circle cx="14.22" cy="81" r="0.31"/><circle cx="14.22" cy="84.41" r="0.18"/><circle cx="8.96" cy="57.1" r="1.55"/><circle cx="8.96" cy="53.68" r="1.47"/><circle cx="8.96" cy="50.27" r="1.33"/><circle cx="8.96" cy="46.86" r="1.13"/><circle cx="8.96" cy="43.44" r="0.9"/><circle cx="8.96" cy="40.03" r="0.68"/><circle cx="8.96" cy="36.61" r="0.47"/><circle cx="8.96" cy="33.2" r="0.31"/><circle cx="8.96" cy="29.78" r="0.18"/><circle cx="8.96" cy="60.51" r="1.47"/><circle cx="8.96" cy="63.93" r="1.33"/><circle cx="8.96" cy="67.34" r="1.13"/><circle cx="8.96" cy="70.76" r="0.9"/><circle cx="8.96" cy="74.17" r="0.68"/><circle cx="8.96" cy="77.59" r="0.47"/><circle cx="8.96" cy="81" r="0.31"/><circle cx="8.96" cy="84.41" r="0.18"/><circle cx="66.83" cy="57.1" r="1.55"/><circle cx="66.83" cy="53.68" r="1.47"/><circle cx="66.83" cy="50.27" r="1.33"/><circle cx="66.83" cy="46.86" r="1.13"/><circle cx="66.83" cy="43.44" r="0.9"/><circle cx="66.83" cy="40.03" r="0.68"/><circle cx="66.83" cy="36.61" r="0.47"/><circle cx="66.83" cy="33.2" r="0.31"/><circle cx="66.83" cy="29.78" r="0.18"/><circle cx="66.83" cy="60.51" r="1.47"/><circle cx="66.83" cy="63.93" r="1.33"/><circle cx="66.83" cy="67.34" r="1.13"/><circle cx="66.83" cy="70.76" r="0.9"/><circle cx="66.83" cy="74.17" r="0.68"/><circle cx="66.83" cy="77.59" r="0.47"/><circle cx="66.83" cy="81" r="0.31"/><circle cx="66.83" cy="84.41" r="0.18"/><circle cx="61.57" cy="57.1" r="1.55"/><circle cx="61.57" cy="53.68" r="1.47"/><circle cx="61.57" cy="50.27" r="1.33"/><circle cx="61.57" cy="46.86" r="1.13"/><circle cx="61.57" cy="43.44" r="0.9"/><circle cx="61.57" cy="40.03" r="0.68"/><circle cx="61.57" cy="36.61" r="0.47"/><circle cx="61.57" cy="33.2" r="0.31"/><circle cx="61.57" cy="29.78" r="0.18"/><circle cx="61.57" cy="60.51" r="1.47"/><circle cx="61.57" cy="63.93" r="1.33"/><circle cx="61.57" cy="67.34" r="1.13"/><circle cx="61.57" cy="70.76" r="0.9"/><circle cx="61.57" cy="74.17" r="0.68"/><circle cx="61.57" cy="77.59" r="0.47"/><circle cx="61.57" cy="81" r="0.31"/><circle cx="61.57" cy="84.41" r="0.18"/><circle cx="56.31" cy="57.1" r="1.55"/><circle cx="56.31" cy="53.68" r="1.47"/><circle cx="56.31" cy="50.27" r="1.33"/><circle cx="56.31" cy="46.86" r="1.13"/><circle cx="56.31" cy="43.44" r="0.9"/><circle cx="56.31" cy="40.03" r="0.68"/><circle cx="56.31" cy="36.61" r="0.47"/><circle cx="56.31" cy="33.2" r="0.31"/><circle cx="56.31" cy="29.78" r="0.18"/><circle cx="56.31" cy="60.51" r="1.47"/><circle cx="56.31" cy="63.93" r="1.33"/><circle cx="56.31" cy="67.34" r="1.13"/><circle cx="56.31" cy="70.76" r="0.9"/><circle cx="56.31" cy="74.17" r="0.68"/><circle cx="56.31" cy="77.59" r="0.47"/><circle cx="56.31" cy="81" r="0.31"/><circle cx="56.31" cy="84.41" r="0.18"/><circle cx="82.61" cy="57.1" r="1.55"/><circle cx="82.61" cy="53.68" r="1.47"/><circle cx="82.61" cy="50.27" r="1.33"/><circle cx="82.61" cy="46.86" r="1.13"/><circle cx="82.61" cy="43.44" r="0.9"/><circle cx="82.61" cy="40.03" r="0.68"/><circle cx="82.61" cy="36.61" r="0.47"/><circle cx="82.61" cy="33.2" r="0.31"/><circle cx="82.61" cy="29.78" r="0.18"/><circle cx="82.61" cy="60.51" r="1.47"/><circle cx="82.61" cy="63.93" r="1.33"/><circle cx="82.61" cy="67.34" r="1.13"/><circle cx="82.61" cy="70.76" r="0.9"/><circle cx="82.61" cy="74.17" r="0.68"/><circle cx="82.61" cy="77.59" r="0.47"/><circle cx="82.61" cy="81" r="0.31"/><circle cx="82.61" cy="84.41" r="0.18"/><circle cx="77.35" cy="57.1" r="1.55"/><circle cx="77.35" cy="53.68" r="1.47"/><circle cx="77.35" cy="50.27" r="1.33"/><circle cx="77.35" cy="46.86" r="1.13"/><circle cx="77.35" cy="43.44" r="0.9"/><circle cx="77.35" cy="40.03" r="0.68"/><circle cx="77.35" cy="36.61" r="0.47"/><circle cx="77.35" cy="33.2" r="0.31"/><circle cx="77.35" cy="29.78" r="0.18"/><circle cx="77.35" cy="60.51" r="1.47"/><circle cx="77.35" cy="63.93" r="1.33"/><circle cx="77.35" cy="67.34" r="1.13"/><circle cx="77.35" cy="70.76" r="0.9"/><circle cx="77.35" cy="74.17" r="0.68"/><circle cx="77.35" cy="77.59" r="0.47"/><circle cx="77.35" cy="81" r="0.31"/><circle cx="77.35" cy="84.41" r="0.18"/><circle cx="72.09" cy="57.1" r="1.55"/><circle cx="72.09" cy="53.68" r="1.47"/><circle cx="72.09" cy="50.27" r="1.33"/><circle cx="72.09" cy="46.86" r="1.13"/><circle cx="72.09" cy="43.44" r="0.9"/><circle cx="72.09" cy="40.03" r="0.68"/><circle cx="72.09" cy="36.61" r="0.47"/><circle cx="72.09" cy="33.2" r="0.31"/><circle cx="72.09" cy="29.78" r="0.18"/><circle cx="72.09" cy="60.51" r="1.47"/><circle cx="72.09" cy="63.93" r="1.33"/><circle cx="72.09" cy="67.34" r="1.13"/><circle cx="72.09" cy="70.76" r="0.9"/><circle cx="72.09" cy="74.17" r="0.68"/><circle cx="72.09" cy="77.59" r="0.47"/><circle cx="72.09" cy="81" r="0.31"/><circle cx="72.09" cy="84.41" r="0.18"/><path d="M89.2,11.1A14.19,14.19,0,0,0,75,0H16.64C10.21,0,3.84,5,2.46,11.1A108.84,108.84,0,0,0,0,27v56.6a7.38,7.38,0,0,0,7.37,7.37H84.28a7.38,7.38,0,0,0,7.37-7.37V27A109,109,0,0,0,89.2,11.1Zm.46,72.45a5.38,5.38,0,0,1-5.37,5.37H7.37A5.38,5.38,0,0,1,2,83.55V27A106.1,106.1,0,0,1,4.41,11.54C5.6,6.28,11.09,2,16.64,2H75a12.22,12.22,0,0,1,12.23,9.54A106.11,106.11,0,0,1,89.65,27Z"/></g></g><text x="0" y="105.92" fill="#000000" font-size="5px" font-weight="bold" font-family="'Helvetica Neue', Helvetica, Arial-Unicode, Arial, Sans-serif">Created by Rogue One</text><text x="0" y="110.92" fill="#000000" font-size="5px" font-weight="bold" font-family="'Helvetica Neue', Helvetica, Arial-Unicode, Arial, Sans-serif">from the Noun Project</text></svg>