<svg xmlns="http://www.w3.org/2000/svg" xmlns:xlink="http://www.w3.org/1999/xlink" version="1.1" preserveAspectRatio="none" x="0px" y="0px" viewBox="0 0 100 125">
  <defs>
    <g id="a">
      <path fill="#000000" stroke="none" d=" M 71.15 16.6 Q 62.5 2.8 42.35 0 L 33.6 0 33.6 0.1 Q 15.65 2.55 6.65 16.45 0 26.75 0 38.45 0 51.05 6.45 60.55 17.55 76.65 44.6 76.65 53.9 76.65 61.45 73.3 66.75 70.9 68.35 68.6 73.55 61.5 75.55 51 76.75 44.85 76.75 38 76.75 25.7 71.15 16.6 M 42.9 4.3 Q 60.4 6.6 68.05 18.9 73.1 27.1 73.1 38.15 73.1 50.4 68.8 59.1 62.05 72.85 46.25 71.8 L 35.05 71.8 Q 15.8 67.95 8.6 57.75 3.65 50.8 3.65 38.6 3.65 28.45 9.45 19.3 17.3 6.85 33.05 4.3 L 42.9 4.3 M 38.35 16.55 Q 38.95 16.55 39.25 15.95 39.5 15.45 39.5 14.85 39.5 8.9 38.3 8.8 37.1 8.75 37.1 14.9 37.1 15.35 37.3 15.75 37.6 16.55 38.35 16.55 M 29.2 20.25 Q 29.2 21.35 29.45 21.95 30.05 23.45 31.95 23.45 34.75 23.45 34.75 20.5 34.75 18.85 34.15 18.05 34.95 18.05 35.85 17.05 34.25 14.75 28.35 13.15 22.25 11.4 19.5 12.95 L 19.6 13.3 Q 20.45 13.6 26.3 15.9 29.05 16.9 30.95 17.45 29.2 18 29.2 20.25 M 46.15 31.45 Q 50.4 32.1 57.25 34.05 58.5 34.4 62.4 36.5 64.25 37.5 65.3 38 65.2 38.05 65.15 38.15 64.6 38.95 64.6 39.7 64.6 40.15 64.7 40.35 64.95 40.95 65.85 40.95 68 40.95 68.45 36.2 68.45 32.55 66.1 31.7 L 65.95 31.7 Q 65.95 31.95 65.75 32.4 65.5 32.9 65.5 33.25 65.5 33.35 65.65 34.05 63.5 32.5 59.3 31.1 53.35 29.1 46.9 28.15 L 36.9 28.15 Q 26.65 28.25 18.25 31.05 13.95 32.5 11.9 34.1 11.85 33.85 11.85 33.7 11.7 31.1 10.4 32.5 9.1 33.85 9.1 35.1 L 9.55 37.55 Q 10.3 40.15 11.85 40.15 12.15 40.15 12.5 39.9 12.95 39.6 12.95 39.05 12.95 38.75 12.4 36.6 12.4 36.55 12.4 36.5 15.1 35.25 19.45 34 28.5 31.4 37.65 31.45 L 46.15 31.45 M 47.1 16.9 Q 47.3 16.85 47.5 16.8 53.55 14.8 56 12.3 55.25 11.6 48.1 13.1 40.6 14.7 40.6 17.1 40.6 17.15 40.65 17.75 40.85 18.3 41.85 18.3 L 42.6 18.1 Q 41.85 18.9 41.85 20 41.85 20.1 42.2 21.8 42.9 23.45 44.7 23.45 48 23.45 48 19.3 48 17.45 47.1 16.9 Z"/>
    </g>
  </defs>
  <g transform="matrix( 1, 0, 0, 1, 11.65,11.7) ">
    <g transform="matrix( 1, 0, 0, 1, 0,0) ">
      <use xlink:href="#a"/>
    </g>
  </g>
  <text x="0" y="115" fill="#000000" font-size="5px" font-weight="bold" font-family="'Helvetica Neue', Helvetica, Arial-Unicode, Arial, Sans-serif">Created by Pencil</text>
  <text x="0" y="120" fill="#000000" font-size="5px" font-weight="bold" font-family="'Helvetica Neue', Helvetica, Arial-Unicode, Arial, Sans-serif">from the Noun Project</text>
</svg>
