<svg xmlns="http://www.w3.org/2000/svg" xmlns:xlink="http://www.w3.org/1999/xlink" version="1.1" x="0px" y="0px" viewBox="0 0 128 160" enable-background="new 0 0 128 128" xml:space="preserve">
  <path d="M87.154,62.884c0,0-0.324,2.694-0.086,3.054c0.24,0.358,0.076,0.273,1.512,0.512c1.433,0.238,1.412,1.152,2.607,3.064  c1.194,1.913,4.936,9.303,4.936,9.303S97,84.533,97,85.848c0,1.315,0,9.203,0,9.203L96.067,96H83.696c0,0-4.007-3.199-7.234-3.797  s-2.15-0.906-7.89-0.906c-5.738,0-9.922,0.385-12.672,1.699c-2.749,1.313-5.26,2.642-5.26,2.642l-9.444,0.557l-1.194-1.384  l-0.838-12.412l9.205-15.979c0,0,0.598-0.419,1.793-0.419c1.196,0,1.335,0,1.335,0s0.101-3.016-2.41-4.211s-14.227-6.5-15.541-7.098  s-13.627-7.134-16.377-8.927c-2.75-1.794-8.818-6.079-10.492-7.154C5.004,37.534,3,36.717,3,35.999s0-0.749,0-0.749  s6.419-0.49,12.039-0.729C20.657,34.282,32.231,34,32.231,34h8.915l1.604-1.306c0,0,34.31-0.694,37.656-0.694s23.989,0,23.989,0  h11.5l3.84,0.632c0,0,3.229,0.548,3.108,0.906s-0.957,5.116-0.957,5.116s-13.029,8.355-14.822,9.55  c-1.794,1.196-9.444,5.732-10.759,6.928c-1.315,1.195-7.175,4.419-7.891,5.496C87.699,61.703,87.154,62.884,87.154,62.884z"/>
  <text x="0" y="143" fill="#000000" font-size="5px" font-weight="bold" font-family="'Helvetica Neue', Helvetica, Arial-Unicode, Arial, Sans-serif">Created by Kurt Ruppel</text>
  <text x="0" y="148" fill="#000000" font-size="5px" font-weight="bold" font-family="'Helvetica Neue', Helvetica, Arial-Unicode, Arial, Sans-serif">from the Noun Project</text>
</svg>
