<?xml version="1.0" encoding="UTF-8"?>
<svg xmlns="http://www.w3.org/2000/svg" xmlns:xlink="http://www.w3.org/1999/xlink" version="1.1" x="0px" y="0px" viewBox="0 0 100 125" style="enable-background:new 0 0 100 100;" xml:space="preserve">
  <g>
    <desc xmlns:shape="http://adobe.com/products/shape"/>
    <path d="M62.9,9.5c-0.2,0.6-0.4,1.2-0.6,1.8C75,5.4,99.8,17,99.6,40.1C99.3,69.2,79.4,100,68,100s-8.9-4-16.2-4   c-7.6-0.1-11.7,6.6-21.7,2.9c-10-3.6-30.3-39.8-28.1-57C4.3,24.8,14.1,9.1,31.3,8c2.8-0.2,11.6,1.4,13.8,3.1   c0.8-2.5,2.7-6.5,4.9-9.2c1.1-1.4,2.9-2.1,4.7-1.8L57,0.4C61.4,1,64.2,5.3,62.9,9.5z M61.5,28.1c-0.1,0.9-6,8.1-12,7.4   S38.4,29,38.9,27.3c0.6-1.7,2.5-3.1,3.3-0.4c0.5,1.9,1.8,2.6,3.3,2.7c0.8-2.9,0.1-8.5,0-12.9c-9.9-3.2-23.7-5.9-32.7,9   C7,34.4,7.3,48,9.3,58.2c2,10.2,15.7,35.5,23.8,36.9s10.2-4.5,18-4.5c7.8-0.1,14.1,6.9,20.5,3.1C85,85.4,96.5,52.4,93.7,37.3   S81.9,17,71.2,15.5c-6.1-0.8-9,1.8-14.3,5c-0.6,1.9-2.1,4.6-1.9,7.3c0.5,0.6,3.4-2.3,4.2-2.5C61.4,24.9,61.6,27.1,61.5,28.1z    M49.1,30c1.2,0.4,2.2,0.1,3.3-0.2c-0.7-6.5,0.7-10.2,4-15.9c1.1-1.9,2.5-3.8,2.3-6c-0.2-2.2-3.1-4-4.6-2.5   c-3.8,4.3-4.3,10.7-4.7,16.5L49.1,30z"/>
  </g>
  <text x="0" y="115" fill="#000000" font-size="5px" font-weight="bold" font-family="'Helvetica Neue', Helvetica, Arial-Unicode, Arial, Sans-serif">Created by Basti Steinhauer</text>
  <text x="0" y="120" fill="#000000" font-size="5px" font-weight="bold" font-family="'Helvetica Neue', Helvetica, Arial-Unicode, Arial, Sans-serif">from the Noun Project</text>
</svg>
