<svg xmlns="http://www.w3.org/2000/svg" viewBox="0 0 16 20" x="0px" y="0px">
  <title>finite-icons</title>
  <path d="M10.94171,8a3.48869,3.48869,0,0,0,1.05221-2.29324A3.632,3.632,0,0,0,8.30254,2H3.5a0.5,0.5,0,0,0-.5.5v11a0.5,0.5,0,0,0,.5.5H8.30254a3.632,3.632,0,0,0,3.69138-3.70676A3.48869,3.48869,0,0,0,10.94171,8ZM5,4H8.5a1.5,1.5,0,0,1,0,3H5V4Zm3.5,8H5V9H8.5A1.5,1.5,0,0,1,8.5,12Z" fill="#000000"/>
  <text x="0" y="31" fill="#000000" font-size="5px" font-weight="bold" font-family="'Helvetica Neue', Helvetica, Arial-Unicode, Arial, Sans-serif">Created by Doejo</text>
  <text x="0" y="36" fill="#000000" font-size="5px" font-weight="bold" font-family="'Helvetica Neue', Helvetica, Arial-Unicode, Arial, Sans-serif">from the Noun Project</text>
</svg>
