<?xml version="1.0" encoding="UTF-8"?>
<svg xmlns="http://www.w3.org/2000/svg" xmlns:xlink="http://www.w3.org/1999/xlink" version="1.1" x="0px" y="0px" viewBox="206 206 100 125" enable-background="new 206 206 100 100" xml:space="preserve">
  <g>
    <path fill="#000000" d="M277.003,282.421c0-2.203-1.791-3.996-3.994-3.996H268.6v-10.268c0-0.496-0.402-0.898-0.898-0.898h-10.997   v-27.113c2.001-0.346,3.616-1.833,4.145-3.766c0.696,0.079,1.381,0.157,2.04,0.237c0.037,0.004,0.073,0.006,0.108,0.006   c0.449,0,0.839-0.335,0.895-0.792c0.059-0.493-0.294-0.941-0.786-1.001c-0.678-0.081-1.376-0.162-2.087-0.242   c-0.189-2.389-1.99-4.329-4.314-4.731v-3.365c0-0.497-0.402-0.9-0.899-0.9s-0.9,0.403-0.9,0.9v3.368   c-2.316,0.409-4.11,2.347-4.297,4.732c-0.71,0.08-1.403,0.159-2.066,0.239c-0.037,0.005-0.071,0.015-0.107,0.024   c-0.036,0-0.072-0.002-0.109,0.002c-1.134,0.138-2.226,0.278-3.242,0.418c-0.493,0.067-0.837,0.522-0.77,1.014   c0.063,0.451,0.448,0.778,0.892,0.778c0.041,0,0.082-0.003,0.124-0.009c1.007-0.139,2.088-0.277,3.213-0.414   c0.032-0.003,0.061-0.013,0.092-0.021c0.005,0,0.01,0.001,0.014,0.001c0.036,0,0.073-0.002,0.109-0.006   c0.648-0.077,1.325-0.156,2.021-0.234c0.529,1.926,2.134,3.409,4.127,3.761v27.116h-10.979c-0.496,0-0.899,0.402-0.899,0.898   v10.268h-4.411c-2.203,0-3.995,1.793-3.995,3.996c0,2.202,1.792,3.995,3.995,3.995h34.394   C275.212,286.416,277.003,284.623,277.003,282.421z M252.391,235.001c0-1.887,1.535-3.423,3.423-3.423   c1.888,0.001,3.423,1.536,3.423,3.423c0,1.87-1.509,3.393-3.372,3.421c-0.021-0.002-0.039-0.006-0.059-0.006   c-0.019,0-0.036,0.004-0.054,0.005C253.892,238.387,252.391,236.868,252.391,235.001z M244.826,269.057h10.949   c0.01,0,0.02,0.004,0.03,0.004s0.02-0.004,0.03-0.004h10.966v9.367h-21.975V269.057z M236.42,282.421   c0-1.211,0.985-2.195,2.196-2.195h34.394c1.209,0,2.195,0.984,2.195,2.195c0,1.21-0.986,2.196-2.195,2.196h-34.394   C237.405,284.617,236.42,283.631,236.42,282.421z"/>
    <path fill="#000000" d="M232.726,259.815h5.583c3.715,0,6.738-3.015,6.75-6.725c0.001-0.011,0.004-0.022,0.004-0.034   c0-0.387-0.246-0.714-0.589-0.841l-7.813-13.587c0.241-0.063,0.494-0.126,0.761-0.191c0.484-0.114,0.782-0.6,0.668-1.083   c-0.115-0.484-0.601-0.783-1.084-0.667c-0.656,0.156-1.246,0.314-1.754,0.471c-0.218,0.067-0.401,0.214-0.515,0.411l-1.435,2.497   c-0.019,0.032-0.03,0.065-0.044,0.098c-0.022,0.03-0.046,0.058-0.064,0.09l-0.036,0.063v0.001l-0.073,0.125   c-0.012,0.021-0.023,0.042-0.034,0.063c-0.013,0.021-0.026,0.041-0.039,0.062l-1.443,2.511c-0.248,0.431-0.099,0.981,0.332,1.229   c0.141,0.081,0.295,0.119,0.447,0.119c0.313,0,0.614-0.162,0.782-0.451l1.444-2.512c0.012-0.021,0.023-0.042,0.034-0.063   c0.013-0.02,0.026-0.041,0.039-0.062l0.071-0.125c0,0,0,0,0.001,0l0.036-0.063c0.015-0.026,0.024-0.055,0.037-0.083   c0.025-0.033,0.05-0.068,0.071-0.106l0.532-0.925l6.969,12.12h-1.081c-0.497,0-0.9,0.403-0.9,0.9c0,0.498,0.403,0.9,0.9,0.9h1.896   c-0.421,2.305-2.443,4.059-4.87,4.059h-5.583c-2.425,0-4.446-1.754-4.867-4.059h1.893c0.038,0,0.073-0.007,0.108-0.011   c0.036,0.004,0.071,0.011,0.108,0.011h0.216c0.024,0,0.048-0.001,0.071-0.003c0.024,0.002,0.048,0.003,0.073,0.003h2.883   c0.497,0,0.899-0.403,0.899-0.9c0-0.497-0.402-0.9-0.899-0.9h-2.883c-0.025,0-0.048,0.001-0.073,0.003   c-0.023-0.002-0.047-0.003-0.071-0.003h-0.216c-0.037,0-0.073,0.007-0.108,0.011c-0.036-0.004-0.07-0.011-0.108-0.011h-1.324   l0.66-1.147c0.247-0.432,0.099-0.981-0.332-1.229c-0.432-0.248-0.981-0.099-1.229,0.332l-1.436,2.497   c-0.101,0.174-0.138,0.375-0.111,0.57C226.041,256.848,229.042,259.815,232.726,259.815z"/>
    <path fill="#000000" d="M238.4,253.957c0.498,0,0.899-0.403,0.899-0.9c0-0.497-0.402-0.9-0.899-0.9h-0.577   c-0.497,0-0.899,0.403-0.899,0.9c0,0.498,0.402,0.9,0.899,0.9H238.4z"/>
    <path fill="#000000" d="M229.302,248.829c0.142,0.082,0.296,0.121,0.448,0.121c0.312,0,0.615-0.163,0.781-0.453l0.071-0.125v-0.001   l0.217-0.376c0.247-0.431,0.099-0.981-0.332-1.228c-0.431-0.248-0.981-0.1-1.229,0.331l-0.217,0.378c0,0-0.001,0-0.001,0.001   l-0.071,0.125C228.724,248.031,228.872,248.582,229.302,248.829z"/>
    <path fill="#000000" d="M240.468,235.987c-0.146,0.025-0.29,0.051-0.433,0.077c-0.005,0.001-0.009,0.001-0.013,0.002l-0.131,0.024   c-0.489,0.09-0.813,0.558-0.723,1.047c0.08,0.434,0.458,0.738,0.884,0.738c0.054,0,0.109-0.005,0.165-0.015l0.14-0.025   c0.004-0.001,0.008-0.002,0.012-0.002c0.136-0.026,0.273-0.05,0.412-0.074c0.489-0.086,0.816-0.552,0.729-1.042   C241.423,236.228,240.956,235.902,240.468,235.987z"/>
    <path fill="#000000" d="M266.137,235.216c-0.002,0-0.002,0-0.002,0v-0.001c-0.002,0-0.002,0-0.002,0l-0.143-0.02   c-0.494-0.066-0.945,0.28-1.011,0.773c-0.067,0.492,0.279,0.945,0.771,1.012l0.141,0.018c0,0,0,0.001,0.002,0.001l0.427,0.059   c0.043,0.005,0.084,0.008,0.125,0.008c0.443,0,0.829-0.327,0.89-0.777c0.067-0.493-0.275-0.947-0.768-1.015L266.137,235.216z"/>
    <path fill="#000000" d="M278.228,243.473l0.069,0.124c0.002,0.001,0.002,0.002,0.002,0.003l0.217,0.376   c0.167,0.289,0.47,0.451,0.782,0.451c0.15,0,0.306-0.039,0.446-0.121c0.432-0.248,0.58-0.797,0.331-1.228l-0.216-0.377l0,0   l-0.072-0.125c-0.247-0.431-0.796-0.58-1.227-0.333C278.128,242.492,277.979,243.042,278.228,243.473z"/>
    <path fill="#000000" d="M285.555,252.609l-1.435-2.497c-0.019-0.032-0.043-0.059-0.063-0.089c-0.015-0.033-0.026-0.067-0.045-0.1   l-1.625-2.826c-0.247-0.431-0.799-0.579-1.229-0.332c-0.431,0.248-0.58,0.798-0.33,1.229l1.623,2.826   c0.022,0.037,0.045,0.072,0.071,0.105c0.012,0.028,0.022,0.056,0.036,0.084l0.662,1.147h-1.325c-0.496,0-0.9,0.403-0.9,0.9   c0,0.498,0.404,0.9,0.9,0.9h1.893c-0.421,2.305-2.441,4.059-4.867,4.059h-5.582c-2.428,0-4.449-1.754-4.869-4.059h1.895   c0.037,0,0.071-0.007,0.108-0.011c0.036,0.004,0.071,0.011,0.108,0.011h0.216c0.024,0,0.049-0.001,0.071-0.003   c0.024,0.002,0.049,0.003,0.074,0.003h2.883c0.496,0,0.897-0.403,0.897-0.9c0-0.497-0.401-0.9-0.897-0.9h-2.883   c-0.025,0-0.05,0.001-0.074,0.003c-0.022-0.002-0.047-0.003-0.071-0.003h-0.216c-0.037,0-0.072,0.007-0.108,0.011   c-0.037-0.004-0.071-0.011-0.108-0.011h-1.08l6.968-12.119l0.533,0.924c0.165,0.29,0.468,0.451,0.78,0.451   c0.152,0,0.306-0.039,0.447-0.119c0.431-0.248,0.579-0.798,0.332-1.229l-1.435-2.496c-0.115-0.197-0.299-0.344-0.515-0.411   c-0.511-0.157-1.101-0.315-1.754-0.471c-0.037-0.008-0.073-0.01-0.11-0.015c-0.035-0.013-0.071-0.028-0.108-0.037l-0.067-0.015   c0,0,0-0.001-0.002-0.001l0,0h-0.002l-0.141-0.033c-0.024-0.005-0.049-0.01-0.074-0.013c-0.024-0.007-0.047-0.015-0.071-0.02   c-0.849-0.189-1.818-0.38-2.883-0.566c-0.49-0.087-0.955,0.241-1.043,0.729c-0.086,0.49,0.241,0.957,0.73,1.042   c1.04,0.183,1.982,0.369,2.804,0.551c0.022,0.005,0.047,0.009,0.069,0.012c0.022,0.007,0.045,0.013,0.069,0.019l0.137,0.032   l0.002,0.001l0.071,0.016c0.039,0.009,0.078,0.014,0.117,0.018c0.028,0.01,0.057,0.023,0.085,0.03   c0.268,0.063,0.521,0.126,0.762,0.19l-7.813,13.587c-0.343,0.126-0.588,0.454-0.588,0.841c0,0.014,0.002,0.026,0.004,0.038   c0.015,3.708,3.036,6.72,6.75,6.72h5.582c3.685,0,6.687-2.967,6.745-6.637C285.693,252.985,285.656,252.783,285.555,252.609z"/>
    <path fill="#000000" d="M279.012,252.157h-0.576c-0.498,0-0.9,0.403-0.9,0.9c0,0.498,0.402,0.9,0.9,0.9h0.576   c0.498,0,0.9-0.403,0.9-0.9C279.912,252.56,279.51,252.157,279.012,252.157z"/>
    <path fill="#000000" d="M265.079,218.67l0.166,0.041c0.004,0.001,0.006,0.001,0.008,0.002c0.174,0.044,0.349,0.089,0.522,0.136   c0.078,0.02,0.155,0.03,0.233,0.03c0.396,0,0.761-0.265,0.867-0.667c0.129-0.481-0.157-0.974-0.637-1.103   c-0.178-0.047-0.357-0.094-0.539-0.14c-0.002,0-0.004-0.001-0.006-0.001l-0.185-0.046c-0.483-0.119-0.97,0.176-1.09,0.659   C264.302,218.063,264.598,218.55,265.079,218.67z"/>
    <path fill="#000000" d="M230.664,226.639c0.203,0,0.408-0.068,0.576-0.208l0.137-0.114c0.001,0,0.001,0,0.001,0   c0.139-0.114,0.277-0.228,0.418-0.34c0.388-0.312,0.45-0.878,0.139-1.266c-0.31-0.388-0.877-0.45-1.265-0.139   c-0.146,0.117-0.292,0.236-0.436,0.354c-0.001,0.001-0.001,0.001-0.002,0.001l-0.001,0.002c-0.001,0-0.001,0-0.001,0l-0.142,0.118   c-0.382,0.317-0.434,0.885-0.116,1.267C230.151,226.529,230.406,226.639,230.664,226.639z"/>
    <path fill="#000000" d="M220.249,239.126c0.13,0.065,0.269,0.096,0.404,0.096c0.33,0,0.646-0.181,0.805-0.495l0.081-0.159   c0,0,0.001-0.001,0.001-0.002c0.082-0.16,0.165-0.319,0.249-0.479c0.232-0.44,0.063-0.984-0.375-1.216   c-0.44-0.233-0.984-0.064-1.217,0.375c-0.088,0.167-0.175,0.334-0.26,0.502c-0.001,0.002-0.002,0.003-0.002,0.005l-0.083,0.164   C219.627,238.36,219.805,238.901,220.249,239.126z"/>
    <path fill="#000000" d="M294.112,252.393l0.017,0.181l0,0c0.017,0.178,0.03,0.357,0.043,0.537c0.037,0.473,0.431,0.833,0.896,0.833   c0.022,0,0.045-0.001,0.069-0.003c0.494-0.037,0.865-0.469,0.829-0.964c-0.015-0.188-0.029-0.375-0.045-0.563v-0.001v-0.002l0,0   l-0.017-0.184c-0.047-0.495-0.486-0.858-0.98-0.813C294.431,251.461,294.065,251.899,294.112,252.393z"/>
    <path fill="#000000" d="M271.202,220.746c1.75,0.765,3.459,1.67,5.08,2.69c0.148,0.094,0.314,0.138,0.478,0.138   c0.3,0,0.592-0.148,0.764-0.42c0.264-0.421,0.139-0.976-0.282-1.24c-1.696-1.068-3.487-2.015-5.32-2.816   c-0.455-0.199-0.986,0.009-1.185,0.464C270.539,220.017,270.747,220.547,271.202,220.746z"/>
    <path fill="#000000" d="M244.851,219.098c0.083,0,0.167-0.012,0.25-0.036l0.168-0.048c0.002-0.001,0.003-0.001,0.005-0.002   c0.172-0.049,0.346-0.097,0.52-0.144c0.48-0.129,0.764-0.623,0.635-1.103c-0.129-0.479-0.624-0.764-1.104-0.635   c-0.18,0.048-0.359,0.098-0.538,0.149c-0.002,0-0.004,0.001-0.006,0.001l-0.181,0.052c-0.478,0.139-0.752,0.638-0.615,1.115   C244.101,218.842,244.46,219.098,244.851,219.098z"/>
    <path fill="#000000" d="M217.234,248.186c0.067,0.015,0.134,0.022,0.199,0.022c0.412,0,0.783-0.285,0.877-0.703   c0.422-1.866,0.988-3.716,1.685-5.497c0.181-0.463-0.048-0.985-0.511-1.166c-0.463-0.182-0.985,0.047-1.166,0.51   c-0.73,1.865-1.323,3.803-1.764,5.756C216.445,247.594,216.75,248.076,217.234,248.186z"/>
    <path fill="#000000" d="M251.437,217.796c3.34-0.38,6.796-0.319,10.117,0.177c0.045,0.006,0.09,0.009,0.135,0.009   c0.438,0,0.822-0.321,0.888-0.767c0.073-0.491-0.266-0.949-0.755-1.022c-3.476-0.52-7.091-0.582-10.586-0.185   c-0.494,0.056-0.849,0.501-0.793,0.996S250.944,217.851,251.437,217.796z"/>
    <path fill="#000000" d="M287.597,234.333c0.174,0.255,0.455,0.393,0.743,0.393c0.176,0,0.352-0.051,0.507-0.157   c0.41-0.281,0.517-0.84,0.236-1.25c-1.129-1.652-2.391-3.232-3.755-4.699c-0.337-0.364-0.906-0.386-1.271-0.048   c-0.363,0.339-0.384,0.908-0.047,1.272C285.313,231.246,286.519,232.756,287.597,234.333z"/>
    <path fill="#000000" d="M289.57,237.548c0.002,0.003,0.002,0.006,0.004,0.008c0.086,0.155,0.169,0.31,0.251,0.466   c0.163,0.304,0.474,0.479,0.796,0.479c0.144,0,0.286-0.035,0.421-0.106c0.439-0.232,0.606-0.778,0.374-1.217   c-0.088-0.165-0.178-0.33-0.268-0.494c-0.002-0.004-0.004-0.007-0.007-0.011l-0.083-0.154c-0.243-0.435-0.79-0.591-1.226-0.35   c-0.435,0.242-0.59,0.79-0.349,1.224L289.57,237.548z"/>
    <path fill="#000000" d="M279.231,225.49l0.137,0.105c0.002,0.002,0.004,0.004,0.006,0.005c0.143,0.11,0.284,0.222,0.425,0.334   c0.165,0.133,0.363,0.197,0.562,0.197c0.263,0,0.524-0.115,0.702-0.338c0.311-0.389,0.247-0.956-0.141-1.265   c-0.146-0.115-0.29-0.229-0.436-0.343c-0.004-0.003-0.008-0.005-0.01-0.008l-0.149-0.113c-0.392-0.303-0.957-0.23-1.262,0.164   C278.763,224.622,278.836,225.186,279.231,225.49z"/>
    <path fill="#000000" d="M236.083,222.85c0.154,0,0.309-0.039,0.451-0.122c1.653-0.961,3.392-1.804,5.167-2.505   c0.462-0.183,0.689-0.706,0.506-1.167c-0.183-0.462-0.705-0.69-1.167-0.507c-1.858,0.735-3.678,1.617-5.41,2.623   c-0.43,0.25-0.576,0.8-0.327,1.23C235.471,222.69,235.774,222.85,236.083,222.85z"/>
    <path fill="#000000" d="M228.042,282.594c-0.002-0.002-0.005-0.006-0.008-0.008c-0.125-0.131-0.247-0.262-0.371-0.395   c-0.338-0.363-0.908-0.384-1.271-0.045c-0.364,0.339-0.385,0.909-0.046,1.272c0.125,0.135,0.25,0.268,0.376,0.4   c0.003,0.002,0.006,0.006,0.01,0.01l0.131,0.137c0.177,0.182,0.411,0.273,0.647,0.273c0.226,0,0.45-0.083,0.625-0.253   c0.358-0.345,0.367-0.915,0.022-1.271L228.042,282.594z"/>
    <path fill="#000000" d="M279.819,286.056c-1.495,1.194-3.089,2.284-4.741,3.242c-0.431,0.249-0.577,0.8-0.328,1.231   c0.167,0.287,0.47,0.449,0.779,0.449c0.153,0,0.309-0.041,0.451-0.123c1.729-1.002,3.399-2.144,4.964-3.396   c0.388-0.31,0.451-0.876,0.141-1.264C280.774,285.807,280.206,285.746,279.819,286.056z"/>
    <path fill="#000000" d="M284.512,281.612l-0.118,0.133c-0.002,0.002-0.002,0.002-0.004,0.004c-0.119,0.133-0.239,0.263-0.361,0.394   c-0.337,0.365-0.316,0.936,0.047,1.272c0.173,0.161,0.394,0.24,0.612,0.24c0.241,0,0.483-0.096,0.659-0.287   c0.129-0.14,0.256-0.278,0.382-0.417c0.002-0.002,0.002-0.004,0.004-0.004l0.123-0.137c0.33-0.372,0.298-0.939-0.073-1.271   C285.412,281.21,284.843,281.242,284.512,281.612z"/>
    <path fill="#000000" d="M271.889,290.952l-0.164,0.076l0,0c-0.163,0.073-0.326,0.146-0.491,0.218   c-0.456,0.2-0.662,0.731-0.462,1.187c0.147,0.337,0.478,0.539,0.825,0.539c0.12,0,0.242-0.024,0.359-0.075   c0.171-0.076,0.343-0.153,0.512-0.229c0.002-0.003,0.005-0.003,0.007-0.005l0.165-0.073c0.451-0.208,0.649-0.743,0.441-1.194   C272.874,290.944,272.34,290.746,271.889,290.952z"/>
    <path fill="#000000" d="M291.056,273.582c-0.439-0.232-0.984-0.065-1.217,0.376c-0.893,1.688-1.922,3.325-3.059,4.865   c-0.296,0.4-0.21,0.964,0.188,1.258c0.161,0.12,0.35,0.178,0.535,0.178c0.275,0,0.547-0.127,0.725-0.366   c1.19-1.612,2.269-3.325,3.203-5.094C291.662,274.358,291.494,273.814,291.056,273.582z"/>
    <path fill="#000000" d="M293.506,267.428c-0.475-0.153-0.982,0.104-1.138,0.575l-0.055,0.172l0,0   c-0.058,0.172-0.117,0.341-0.176,0.513c-0.163,0.47,0.083,0.981,0.553,1.146c0.099,0.034,0.198,0.051,0.296,0.051   c0.374,0,0.721-0.232,0.852-0.604c0.062-0.178,0.123-0.355,0.182-0.533v-0.002v-0.002l0.002-0.002l0.058-0.178   C294.235,268.092,293.977,267.584,293.506,267.428z"/>
    <path fill="#000000" d="M295.137,258.026c-0.5-0.038-0.927,0.337-0.962,0.831c-0.141,1.911-0.427,3.824-0.847,5.685   c-0.11,0.483,0.193,0.966,0.678,1.075c0.067,0.017,0.135,0.022,0.2,0.022c0.41,0,0.781-0.283,0.878-0.7   c0.44-1.947,0.738-3.948,0.886-5.949C296.007,258.494,295.633,258.063,295.137,258.026z"/>
    <path fill="#000000" d="M293.612,248.836c0.082,0.432,0.46,0.733,0.884,0.733c0.056,0,0.11-0.005,0.168-0.016   c0.488-0.092,0.811-0.563,0.717-1.051c-0.37-1.967-0.895-3.922-1.556-5.811c-0.164-0.47-0.678-0.717-1.146-0.552   c-0.47,0.164-0.717,0.678-0.552,1.147C292.758,245.09,293.259,246.957,293.612,248.836z"/>
    <path fill="#000000" d="M265.813,293.149c-1.844,0.494-3.742,0.854-5.646,1.067c-0.494,0.056-0.85,0.501-0.792,0.994   c0.051,0.46,0.441,0.801,0.893,0.801c0.032,0,0.067-0.002,0.102-0.006c1.991-0.225,3.979-0.601,5.911-1.119   c0.479-0.129,0.763-0.623,0.635-1.103C266.786,293.304,266.294,293.02,265.813,293.149z"/>
    <path fill="#000000" d="M235.399,288.593c-1.618-1.018-3.175-2.165-4.626-3.412c-0.377-0.322-0.945-0.279-1.269,0.096   c-0.323,0.378-0.281,0.945,0.096,1.271c1.519,1.305,3.148,2.507,4.842,3.57c0.149,0.092,0.314,0.137,0.478,0.137   c0.299,0,0.592-0.148,0.763-0.42C235.946,289.413,235.82,288.857,235.399,288.593z"/>
    <path fill="#000000" d="M221.19,272.739c-0.216-0.447-0.754-0.633-1.202-0.417c-0.448,0.217-0.635,0.754-0.417,1.2   c0.87,1.799,1.886,3.549,3.017,5.2c0.175,0.256,0.458,0.393,0.744,0.393c0.175,0,0.352-0.052,0.507-0.157   c0.411-0.28,0.515-0.842,0.234-1.252C222.992,276.128,222.022,274.458,221.19,272.739z"/>
    <path fill="#000000" d="M219.779,269.435l-0.063-0.167c0-0.003-0.001-0.005-0.001-0.005c-0.063-0.167-0.122-0.335-0.181-0.504   c-0.166-0.468-0.679-0.715-1.147-0.552c-0.47,0.166-0.716,0.681-0.551,1.147c0.063,0.178,0.125,0.354,0.19,0.529   c0,0.002,0.001,0.002,0.001,0.004l0.065,0.176c0.136,0.363,0.479,0.586,0.843,0.586c0.105,0,0.211-0.019,0.314-0.058   C219.716,270.42,219.952,269.901,219.779,269.435z"/>
    <path fill="#000000" d="M228.585,227.583c-0.353-0.351-0.922-0.35-1.273,0.002c-1.413,1.418-2.732,2.954-3.918,4.564   c-0.295,0.4-0.209,0.962,0.191,1.257c0.16,0.119,0.347,0.176,0.533,0.176c0.275,0,0.548-0.126,0.725-0.366   c1.134-1.539,2.394-3.005,3.745-4.361C228.937,228.504,228.937,227.933,228.585,227.583z"/>
    <path fill="#000000" d="M218.042,263.213c-0.354-1.872-0.571-3.794-0.645-5.711c-0.02-0.496-0.433-0.885-0.934-0.864   c-0.496,0.02-0.884,0.438-0.865,0.934c0.077,2.005,0.304,4.016,0.676,5.977c0.082,0.431,0.459,0.732,0.883,0.732   c0.056,0,0.112-0.006,0.168-0.017C217.814,264.172,218.135,263.7,218.042,263.213z"/>
    <path fill="#000000" d="M256.581,294.452l-0.179,0.002c-0.18,0.004-0.36,0.004-0.541,0.006c-0.496,0-0.898,0.404-0.897,0.9   s0.403,0.898,0.899,0.898c0.001,0,0.001,0,0.002,0c0.188,0,0.376-0.002,0.563-0.004c0.002,0,0.004,0,0.005,0l0.185-0.004   c0.496-0.011,0.891-0.421,0.881-0.917C257.489,294.836,257.074,294.433,256.581,294.452z"/>
    <path fill="#000000" d="M216.478,254.758c0.016,0.001,0.031,0.001,0.048,0.001c0.476,0,0.873-0.373,0.898-0.853l0.009-0.168   c0-0.003,0-0.007,0.001-0.01c0.01-0.18,0.021-0.359,0.035-0.538c0.036-0.496-0.337-0.927-0.832-0.962s-0.927,0.337-0.963,0.832   c-0.013,0.184-0.025,0.367-0.037,0.551c0,0.004,0,0.008-0.001,0.012l-0.01,0.188C215.6,254.307,215.982,254.731,216.478,254.758z"/>
    <path fill="#000000" d="M250.132,294.042c-1.893-0.282-3.778-0.709-5.603-1.269c-0.476-0.145-0.979,0.121-1.125,0.597   s0.121,0.978,0.596,1.125c1.912,0.586,3.886,1.033,5.868,1.327c0.045,0.006,0.089,0.01,0.134,0.01c0.438,0,0.822-0.322,0.888-0.77   C250.963,294.572,250.623,294.113,250.132,294.042z"/>
    <path fill="#000000" d="M241.146,291.558l-0.154-0.063c-0.004-0.002-0.008-0.004-0.014-0.006c-0.166-0.069-0.332-0.141-0.497-0.212   c-0.455-0.198-0.986,0.01-1.184,0.465c-0.199,0.456,0.01,0.986,0.465,1.185c0.167,0.073,0.336,0.145,0.504,0.217   c0.006,0.002,0.011,0.004,0.018,0.006l0.172,0.073c0.113,0.047,0.229,0.067,0.344,0.067c0.353,0,0.689-0.208,0.832-0.555   C241.824,292.275,241.606,291.749,241.146,291.558z"/>
  </g>
  <text x="206" y="321" fill="#000000" font-size="5px" font-weight="bold" font-family="'Helvetica Neue', Helvetica, Arial-Unicode, Arial, Sans-serif">Created by Iconika</text>
  <text x="206" y="326" fill="#000000" font-size="5px" font-weight="bold" font-family="'Helvetica Neue', Helvetica, Arial-Unicode, Arial, Sans-serif">from the Noun Project</text>
</svg>
