<svg xmlns="http://www.w3.org/2000/svg" xmlns:xlink="http://www.w3.org/1999/xlink" version="1.1" x="0px" y="0px" viewBox="0 0 56.686 89.39875" enable-background="new 0 0 56.686 71.519" xml:space="preserve">
  <path d="M46.407,7.557C41.49,2.542,35.003,0,27.124,0C16.052,0,7.54,5.638,3.159,15.875c-5.717,13.352-3.055,31.146,3.05,37.545  c4.683,4.909,3.479,15.277,3.468,15.378c-0.165,1.327,0.776,2.537,2.104,2.702c1.328,0.166,2.537-0.777,2.703-2.104  c0.064-0.517,1.504-12.743-4.77-19.32C5.286,45.436,2.453,29.83,7.611,17.781c2.526-5.902,7.962-12.937,19.513-12.937  c6.529,0,11.854,2.054,15.826,6.104c8.372,8.537,8.999,23.705,8.88,29.829c-0.003,0.183-0.006,0.318-0.006,0.402  c0,0.24-0.03,0.388-0.053,0.457c-0.079,0.029-0.261,0.072-0.565,0.072H47.84c-1.337,0-2.421,1.084-2.421,2.422v11.583  c0,1.492,0,3.184-4.705,3.184c-1.926,0-2.727-0.023-3.048-0.039c-0.347-0.082-0.712-0.087-1.068-0.011  c-1.211,0.261-2.048,1.403-1.917,2.634c0.002,0.013,0.004,0.027,0.005,0.04c0.003,2.875,0.005,6.948,0.001,7.478  c-0.043,1.03,0.582,2.012,1.604,2.379c0.27,0.097,0.546,0.143,0.816,0.143c0.994,0,1.926-0.616,2.28-1.605  c0.134-0.373,0.149-0.415,0.145-6.178c0.359,0.002,0.753,0.003,1.183,0.003c6.246,0,9.548-2.775,9.548-8.027v-9.162h0.944  c3.318,0,5.462-2.108,5.462-5.372c0-0.064,0.003-0.168,0.005-0.308C56.804,34.135,56.065,17.404,46.407,7.557z"/>
  <text x="0" y="86.519" fill="#000000" font-size="5px" font-weight="bold" font-family="'Helvetica Neue', Helvetica, Arial-Unicode, Arial, Sans-serif">Created by Lucas Rod</text>
  <text x="0" y="91.519" fill="#000000" font-size="5px" font-weight="bold" font-family="'Helvetica Neue', Helvetica, Arial-Unicode, Arial, Sans-serif">from the Noun Project</text>
</svg>
