<?xml version="1.0" encoding="UTF-8"?>
<svg xmlns="http://www.w3.org/2000/svg" xmlns:xlink="http://www.w3.org/1999/xlink" version="1.1" x="0px" y="0px" viewBox="-269 191 100 125" style="enable-background:new -269 191 100 100;" xml:space="preserve">
  <polygon points="-171.1,195.4 -171.5,195 -171.5,195 -172.3,194.2 -173.4,193.1 -188.6,208.2 -189.8,207 -193.5,210.7 -192.3,211.9   -192.3,211.9 -191.9,212.3 -247.7,268.1 -248.1,267.7 -248.1,267.7 -249.3,266.5 -253,270.2 -251.8,271.4 -266.9,286.6   -265.8,287.7 -265,288.5 -265,288.5 -264.6,288.9 -249.4,273.8 -248.2,275 -244.5,271.3 -246.1,269.7 -190.3,213.9 -188.7,215.5   -185,211.8 -186.2,210.6 "/>
  <polygon points="-173.4,288.9 -173,288.5 -173,288.5 -172.2,287.7 -171.1,286.6 -186.2,271.4 -185,270.2 -188.7,266.5 -189.9,267.7   -189.9,267.7 -190.3,268.1 -246.1,212.3 -245.7,211.9 -245.7,211.9 -244.5,210.7 -248.2,207 -249.4,208.2 -264.6,193.1   -265.7,194.2 -266.5,195 -266.5,195 -266.9,195.4 -251.8,210.6 -253,211.8 -249.3,215.5 -247.7,213.9 -191.9,269.7 -193.5,271.3   -189.8,275 -188.6,273.8 "/>
  <text x="-269" y="306" fill="#000000" font-size="5px" font-weight="bold" font-family="'Helvetica Neue', Helvetica, Arial-Unicode, Arial, Sans-serif">Created by Elizabeth Sobka</text>
  <text x="-269" y="311" fill="#000000" font-size="5px" font-weight="bold" font-family="'Helvetica Neue', Helvetica, Arial-Unicode, Arial, Sans-serif">from the Noun Project</text>
</svg>
