<svg xmlns="http://www.w3.org/2000/svg" xmlns:xlink="http://www.w3.org/1999/xlink" version="1.1" x="0px" y="0px" viewBox="0 0 306.99 385.07624999999996" style="enable-background:new 0 0 306.99 308.061;" xml:space="preserve"><g><g><path d="M93.555,0c-0.658,0-1.303,0.267-1.767,0.733c-0.465,0.464-0.731,1.107-0.731,1.768v50.001    c0,0.658,0.267,1.301,0.731,1.768c0.466,0.464,1.109,0.731,1.767,0.731h70.313h140.624c0.668,0,1.296-0.261,1.767-0.731    c0.473-0.473,0.73-1.101,0.73-1.768V2.501c0-0.668-0.258-1.294-0.73-1.768C305.788,0.261,305.16,0,304.492,0H163.868H93.555z     M161.368,50.001H96.054V5h65.314V50.001z M236.68,5h65.311l0.002,45.001H236.68V5z M166.367,5h65.313v45.001h-65.313V5z"/><path d="M136.925,30.434c0.195,0.195,0.452,0.292,0.708,0.292c0.257,0,0.513-0.097,0.707-0.292c0.389-0.391,0.389-1.023,0-1.414    l-11.273-11.274c-0.39-0.389-1.024-0.389-1.415,0c-0.389,0.392-0.389,1.024,0,1.415L136.925,30.434z"/><path d="M120.465,24.35c-0.391-0.391-1.024-0.391-1.416,0c-0.389,0.391-0.389,1.023,0,1.414l11.274,11.274    c0.194,0.194,0.45,0.291,0.706,0.291c0.256,0,0.513-0.097,0.708-0.291c0.391-0.391,0.391-1.025,0-1.416L120.465,24.35z"/><path d="M141.113,41.709c0.195,0.195,0.451,0.292,0.707,0.292c0.256,0,0.512-0.098,0.707-0.292c0.391-0.391,0.391-1.024,0-1.416    l-26.733-26.734c-0.392-0.39-1.024-0.39-1.415,0c-0.39,0.391-0.39,1.024,0,1.415L141.113,41.709z"/><path d="M208.796,30.435c0.195,0.195,0.451,0.293,0.707,0.293c0.256,0,0.512-0.098,0.707-0.293c0.391-0.391,0.391-1.024,0-1.415    l-11.271-11.274c-0.394-0.389-1.026-0.389-1.417,0c-0.389,0.391-0.389,1.024,0,1.415L208.796,30.435z"/><path d="M192.333,24.35c-0.39-0.39-1.024-0.39-1.415,0c-0.389,0.391-0.389,1.024,0,1.414l11.273,11.273    c0.195,0.195,0.451,0.293,0.708,0.293c0.256,0,0.513-0.098,0.708-0.293c0.39-0.39,0.39-1.023,0-1.413L192.333,24.35z"/><path d="M187.663,13.559c-0.392-0.391-1.025-0.391-1.416,0c-0.389,0.391-0.389,1.025,0,1.415l26.734,26.734    c0.195,0.195,0.451,0.293,0.707,0.293c0.257,0,0.513-0.098,0.708-0.293c0.391-0.391,0.391-1.025,0-1.415L187.663,13.559z"/><path d="M277.795,30.435c0.196,0.195,0.452,0.293,0.708,0.293c0.256,0,0.513-0.098,0.708-0.293c0.39-0.392,0.39-1.024,0-1.416    l-11.274-11.272c-0.39-0.392-1.023-0.392-1.413,0c-0.393,0.39-0.393,1.023,0,1.414L277.795,30.435z"/><path d="M261.335,24.351c-0.392-0.392-1.026-0.392-1.418,0c-0.389,0.389-0.389,1.023,0,1.415l11.274,11.271    c0.195,0.195,0.452,0.294,0.708,0.294s0.512-0.098,0.707-0.294c0.391-0.39,0.391-1.024,0-1.413L261.335,24.351z"/><path d="M256.663,13.559c-0.392-0.39-1.025-0.39-1.416,0c-0.391,0.39-0.391,1.024,0,1.415l26.734,26.734    c0.195,0.195,0.452,0.293,0.708,0.293c0.257,0,0.513-0.098,0.709-0.293c0.388-0.392,0.388-1.025,0-1.414L256.663,13.559z"/></g><g><path d="M140.057,127.155l10.77-12.777l-3.471-2.925l-10.907,12.942C137.846,125.023,139.078,125.958,140.057,127.155z"/><ellipse transform="matrix(0.2239 -0.9746 0.9746 0.2239 -41.0706 167.9662)" cx="84.931" cy="109.772" rx="22.495" ry="22.495"/><path d="M33.325,295.559c-0.002-32.795,1.302-54.805,2.574-68.463c0.179-1.92,0.356-3.658,0.53-5.256    c2.748,0.293,5.495,0.586,8.243,0.879c3.406,17.744,11.529,43.834,30.118,78.715c2.248,4.221,6.574,6.627,11.045,6.627    c1.982,0,3.992-0.473,5.864-1.469c6.094-3.246,8.403-10.816,5.156-16.908c-24.24-45.527-28.708-73.277-29.373-84.975    c3.347-14.326,8.605-28.137,15.615-41.078c0.799,0.834,1.66,1.695,2.587,2.566c2.7,2.523,5.913,5.131,9.704,7.244    c3.781,2.092,8.24,3.76,13.334,3.775c0.021,0,0.044,0,0.066,0c3.424,0,7.072-0.857,10.398-2.697    c5.063-2.785,9.199-7.488,12.582-13.879c3.394-6.428,6.16-14.699,8.396-25.525c0.48-2.329-0.112-4.625-1.431-6.392    c-0.905-1.214-2.154-2.173-3.643-2.719c-0.37-0.136-0.75-0.255-1.147-0.337c-4.327-0.892-8.558,1.896-9.447,6.222    c-2.671,13.096-6.188,21.031-9.198,25.014c-1.501,2.008-2.798,3.035-3.806,3.59c-1.021,0.543-1.797,0.711-2.771,0.725    c-1.401,0.016-3.362-0.531-5.563-1.764c-3.296-1.805-6.83-5.018-9.334-7.762c-1.261-1.373-2.284-2.617-2.972-3.494    c-0.344-0.438-0.604-0.783-0.769-1.006c-0.083-0.113-0.141-0.195-0.175-0.242c-0.024-0.035-0.024-0.035-0.024-0.035    c-0.444-0.633-0.967-1.178-1.54-1.641c-0.474-0.654-1.053-1.246-1.746-1.738c-10.348-7.213-20.693-14.424-31.041-21.635    c-0.299-0.213-0.617-0.381-0.943-0.529c-2.084-1.055-4.608-1.195-6.902-0.161l-0.003-0.002c0,0,0,0-0.06,0.026    c-0.486,0.215-3.465,1.486-7.439,2.658c-3.965,1.186-8.959,2.227-13.147,2.211c-3.661,0.016-6.41-0.787-7.869-1.92    c-0.765-0.578-1.359-1.229-1.938-2.361c-0.564-1.127-1.088-2.797-1.283-5.28c-0.347-4.403-4.198-7.692-8.603-7.345    c-4.404,0.344-7.694,4.195-7.347,8.6c0.322,4.148,1.28,7.913,2.934,11.202c2.445,4.966,6.573,8.583,10.94,10.525    c4.38,1.982,8.897,2.57,13.166,2.58c2.695-0.008,5.322-0.252,7.823-0.631c-11.024,21.15-18.532,43.998-22.169,67.65    c-0.101,0.652-0.146,1.293-0.147,1.922c-1.646,11.719-4.246,37.609-4.249,84.514c0,6.904,5.597,12.5,12.501,12.5    C27.727,308.059,33.325,302.463,33.325,295.559z"/></g><g><path d="M237.301,106.225c-1.704-16.51-17.634-26.418-33.152-24.886c1.939-4.436,5.04-8.801,9.62-10.662    c2.539-1.031,0.144-1.633-1.373-1.018c-5.653,2.296-9.635,6.817-12.055,12.292c-1.336,0.3-2.662,0.679-3.965,1.162    c-2.287,0.848-1.605,3.648,0.744,2.777c16.413-6.084,35.313,4.475,36.366,22.323c1.021,17.301-16.308,24.784-30.661,27.177    c-13.324,2.221-33.451,0.836-38.326-14.418c-2.368-7.406,0.542-15.117,3.989-21.646c3.704-7.018,9.571-14.586,17.132-17.623    c2.452-0.984,0.288-3.219-1.744-2.402c-8.185,3.286-14.066,10.959-18.426,18.313c-4.575,7.719-7.267,16.724-4.456,25.517    c5.518,17.265,30.244,17.305,44.51,14.695C221.501,134.9,239.237,124.974,237.301,106.225z"/><path d="M185.646,99.849c1.739,0.465,4.567-2.066,2.205-2.695c-6.995-1.865-13.763,1.941-14.486,9.447    c-0.476,4.925,4.163,12.439,9.928,10.297c3.497-1.301,5.385-5.715,4.612-9.266c-0.389-1.785-2.183-2.586-3.873-2.152    c-2.618,0.673-4.398,3.187-5.841,5.301c-0.518-1.021-0.829-2.152-0.915-3.284C176.898,102.542,180.637,98.515,185.646,99.849z     M181.378,112.117c0.745-1.094,1.589-2.52,2.682-3.409c0.031,0.15,0.051,0.305,0.07,0.432c0.23,1.472-0.448,4.242-1.833,5.049    c-0.688,0.399-1.83-0.697-2.305-1.095c-0.062-0.051-0.114-0.111-0.174-0.164C180.435,112.872,181.04,112.613,181.378,112.117z"/><path d="M207.859,95.735c0.974,0.065,4.483-1.664,2.445-1.801c-6.494-0.44-12.044,4.223-13.391,10.489    c-1.565,7.282,5.881,9.241,11.448,7.132c4.129-1.563,6.324-6.617,3.693-10.419c-1.228-1.774-3.818-1.572-5.596-0.945    c-2.608,0.92-4.356,2.991-5.796,5.249c-0.033-0.365-0.04-0.721-0.007-1.049C200.998,101.03,203.912,95.468,207.859,95.735z     M203.666,106.202c0.947-1.626,2.091-3.575,3.75-4.614c-0.207,0.175,0.21,0.158,0.598,0.479c0.463,0.383,0.721,0.941,0.941,1.484    c0.925,2.285,0.205,5.553-2.018,6.819c-2.87,1.636-5.034-0.633-5.894-3.171C202.04,107.135,203.325,106.787,203.666,106.202z"/><path d="M191.326,127.923c4.433-4.193,9.8-5.149,15.705-5.199c1.606-0.014,4.048-2.468,1.436-2.445    c-7.613,0.064-14.605,1.422-20.295,6.801C186.477,128.682,190.277,128.914,191.326,127.923z"/><path d="M203.793,66.763c2.542-0.999,0.166-1.814-1.42-1.189c-5.746,2.26-10.436,6.489-9.889,13.112    c0.08,0.968,3.966,0.206,3.863-1.035C195.915,72.409,199.066,68.622,203.793,66.763z"/></g><g><path d="M238.919,253.177c1.873,11.375,10.82,25.348,23.574,25.348c12.752,0,21.699-13.973,23.572-25.348h3.887    c6.988,0,12.676-5.686,12.676-12.672v-74.639c0-6.988-5.688-12.674-12.676-12.674h-23.459v-29.691c0-2.209-1.791-4-4-4    c-2.209,0-4,1.791-4,4v7.166h-11.161c-2.209,0-4,1.791-4,4c0,2.209,1.791,4,4,4h11.161v14.525h-23.461    c-6.99,0-12.676,5.686-12.676,12.674v74.639c0,6.986,5.686,12.672,12.676,12.672H238.919z M229.399,240.503v-74.637    c0-3.111,2.521-5.633,5.633-5.633h54.922c3.109,0,5.633,2.521,5.633,5.633v74.637c0,3.111-2.523,5.633-5.633,5.633h-10.846    c0.176,0.859,0.283,1.785,0.283,2.816c0,9.334-7.566,22.533-16.898,22.533c-9.334,0-16.898-13.199-16.898-22.533    c0-1.031,0.105-1.957,0.283-2.816h-10.846C231.921,246.136,229.399,243.614,229.399,240.503z"/><circle cx="262.493" cy="253.985" r="6.5"/></g></g><text x="0" y="323.061" fill="#000000" font-size="5px" font-weight="bold" font-family="'Helvetica Neue', Helvetica, Arial-Unicode, Arial, Sans-serif">Created by Gan Khoon Lay</text><text x="0" y="328.061" fill="#000000" font-size="5px" font-weight="bold" font-family="'Helvetica Neue', Helvetica, Arial-Unicode, Arial, Sans-serif">from the Noun Project</text></svg>