<svg xmlns="http://www.w3.org/2000/svg" xmlns:xlink="http://www.w3.org/1999/xlink" version="1.1" x="0px" y="0px" viewBox="0 0 100 125" enable-background="new 0 0 100 100" xml:space="preserve"><g><path d="M72.771,14.281H62.156v-3.492c0-1.851-1.506-3.357-3.357-3.357H42.258c-1.851,0-3.357,1.506-3.357,3.357v3.492H28.286   c-1.956,0-3.547,1.591-3.547,3.546v72.327c0,1.955,1.591,3.546,3.547,3.546h44.485c1.955,0,3.546-1.591,3.546-3.546V17.827   C76.317,15.872,74.727,14.281,72.771,14.281z M59.656,10.789v3.492H45.748V9.932h13.051C59.271,9.932,59.656,10.316,59.656,10.789z    M41.401,10.789c0-0.473,0.385-0.857,0.857-0.857h0.99v4.349h-1.847V10.789z M73.817,90.153c0,0.577-0.469,1.046-1.046,1.046   H28.286c-0.577,0-1.047-0.469-1.047-1.046V17.827c0-0.577,0.47-1.046,1.047-1.046h44.485c0.577,0,1.046,0.469,1.046,1.046V90.153z"/><path d="M31.062,87.377h38.934V20.603H31.062V87.377z M33.562,84.877v-2.539h33.934v2.539H33.562z M67.495,55.996v2.769H33.562   v-2.769H67.495z M33.562,53.496v-2.768h33.934v2.768H33.562z M67.495,61.265v2.769H33.562v-2.769H67.495z M67.495,66.533v2.769   H33.562v-2.769H67.495z M67.495,71.802v2.769H33.562v-2.769H67.495z M67.495,77.07v2.768H33.562V77.07H67.495z M67.495,23.103   v25.125H33.562V23.103H67.495z"/><rect x="36.75" y="26" width="2.5" height="12.115"/><rect x="36.75" y="41.167" width="2.5" height="5.187"/></g><text x="0" y="115" fill="#000000" font-size="5px" font-weight="bold" font-family="'Helvetica Neue', Helvetica, Arial-Unicode, Arial, Sans-serif">Created by Creative Mania</text><text x="0" y="120" fill="#000000" font-size="5px" font-weight="bold" font-family="'Helvetica Neue', Helvetica, Arial-Unicode, Arial, Sans-serif">from the Noun Project</text></svg>