<svg xmlns="http://www.w3.org/2000/svg" xmlns:xlink="http://www.w3.org/1999/xlink" version="1.1" x="0px" y="0px" viewBox="0 0 415.413 512.19125" style="enable-background:new 0 0 415.413 409.753;" xml:space="preserve"><g><path d="M156.17,113.593c-1.547,4.676-24.887,13.797-24.99,22.48c-0.053,4.608,6.928,10.909,14.563,15.715l3.502-14.873   l13.115,3.976l1.619-10.608l14.094,2.617l-0.73,3.932l-10.029-1.86l-1.693,11.089l-13.457-4.081l-2.813,11.939   c5.59,3.1,10.999,5.147,13.766,4.907c7.168-0.625,30-15.552,42.148-15.539c3.287,0.003,7.41,1.643,11.674,4.023l-81.885,50.495   c-5.512,3.396-7.681,10.307-5.102,16.244c2.107,4.847,6.846,7.824,11.914,7.825c1.139,0,2.293-0.15,3.439-0.464l31.73-8.679   l-35.396,39.249c-4.337,4.808-4.48,12.048-0.339,17.023c2.552,3.065,6.245,4.688,9.993,4.688c2.336,0,4.693-0.629,6.81-1.932   l69.701-42.864c5.628,12.546,17.485,34.128,41.48,62.976c8.542,10.27,18.055,16.569,27.721,20.145l25.402,83.41   c2.19,7.189,8.843,12.047,16.26,12.047c0.436,0,0.871-0.017,1.311-0.05c7.931-0.611,14.398-6.672,15.521-14.548l12.9-90.403   c0.626-0.36,0.963-0.569,0.963-0.569s13.889-12.065,23.125-29.567c8.06,6.519,16.76,8.753,20.805,4.847   c4.736-4.58,1.279-15.848-7.723-25.166c-1.688-1.746-3.449-3.298-5.229-4.64c0.616-6.982-0.163-14.254-3.032-21.57   c-15.166-38.659-53.672-62.331-53.672-62.331s-9.602-42.916-16.629-50.266c-7.027-7.348-26.813-12.322-26.813-12.322   l-16.445-17.616l-29.913,34.297c6.462-24.785,10.671-41.94,10.671-41.94l-33.344-19.684L193.65,58.03   c-1.557-2.68-3.932-4.936-6.988-6.325c-7.709-3.505-16.748-0.22-20.184,7.338c-1.438,3.163,2.62,7.222,8.072,10.324   c-8.566,7.172-18.295,15.759-19.781,18.946C152.037,94.171,157.717,108.916,156.17,113.593z M173.914,92.363   c1.65,3.072,0.498,6.898-2.574,8.549c-3.074,1.649-6.9,0.496-8.549-2.576C161.141,95.264,172.266,89.289,173.914,92.363z"/><path d="M112.05,362.019c1.983-1.125,3.687-2.795,4.843-4.953c3.261-6.084,0.973-13.66-5.111-16.922l-0.498-0.267   c-0.012,0.293-0.035,0.584-0.045,0.878C111.033,347.322,111.466,355.035,112.05,362.019z"/><path d="M119.846,299.896l0.006-0.01c2.004-2.896,2.609-6.345,1.973-9.552c-0.052-0.945-0.227-1.915-0.543-2.88   c-7.447-22.757-15.562-45.256-29.686-64.101c2.22-0.784,4.535-1.789,6.814-3.17c2.436-1.499,4.883-3.499,6.805-6.323   c1.928-2.799,3.145-6.472,3.116-10.284c-0.071-6.829-3.21-13.414-9.038-20.889c-5.902-7.491-14.842-16.065-28.105-26.476   c-3.477-2.726-8.506-2.119-11.232,1.358c-2.727,3.477-2.118,8.507,1.358,11.232c12.635,9.897,20.736,17.825,25.399,23.773   c4.736,5.966,5.69,9.762,5.617,11.002c-0.065,0.958-0.111,1.009-0.744,1.773c-0.922,1.085-3.931,2.634-7.282,3.55   c-1.664,0.486-3.375,0.876-4.945,1.216c-1.606,0.359-2.932,0.599-4.518,1.083c-0.493,0.155-0.957,0.356-1.396,0.592   c-0.15,0.022-0.301,0.047-0.451,0.073c-1.102,7.308-5.475,14.04-12.439,17.854c-1.424,0.778-2.92,1.418-4.453,1.9   c-2.685,0.844-5.432,1.187-8.131,1.092c-1.824,1.771-3.648,3.541-5.473,5.311c-0.247,0.184-0.488,0.378-0.719,0.594v-0.001   l-0.006,0.006c-0.141,0.137-2.399,2.182-5.299,4.026c-2.914,1.944-6.594,3.351-8.193,3.241c-0.686-0.012-0.956-0.112-1.243-0.265   c-0.366-0.223-1.366-0.884-2.495-3.994c-1.094-3.052-1.996-8.294-1.984-16.007c0-0.184,0-0.335,0.002-0.45   c0.058-4.418-3.476-8.047-7.894-8.105c-4.418-0.058-8.045,3.476-8.104,7.894c-0.004,0.255-0.004,0.476-0.004,0.662   c0.045,11.834,1.598,20.13,5.262,26.489c1.838,3.149,4.357,5.761,7.33,7.432c2.939,1.677,6.161,2.344,9.066,2.344   c0.022,0,0.043,0,0.064,0c6.322-0.105,11.391-2.522,15.421-4.919c14.378,7.296,24.091,14.354,29.97,34.093l-23.965,26.605   c-2.57,2.853-3.688,6.734-3.027,10.516c0.66,3.781,3.025,7.053,6.409,8.867l30.019,16.092c-0.862-3.898-1.223-8.283-0.855-13.253   c0.516-6.942,1.023-11.617,1.475-14.779l-4.773-2.559l9.139-10.145c-0.438,1.7-0.852,3.479-1.236,5.332   c-1.35,6.478-2.336,13.876-2.602,22.162c-0.193,5.962,0.005,12.38,0.691,19.204c1.283,12.751,4.304,26.941,9.883,42.391   c2.34,6.494,9.504,9.861,16,7.518c4.961-1.791,8.098-6.395,8.256-11.366c0.047-1.534-0.188-3.103-0.74-4.636   c-1.895-5.259-3.439-10.3-4.686-15.126c-3.694-14.315-4.746-26.719-4.418-37.189c0.441-13.811,3.311-24.284,5.959-31.196   c1.322-3.452,2.592-6.008,3.471-7.613c0.018-0.03,0.031-0.055,0.047-0.084c0.416-0.756,0.742-1.297,0.939-1.608   C119.752,300.031,119.818,299.931,119.846,299.896z"/><ellipse transform="matrix(0.8771 -0.4804 0.4804 0.8771 -94.0373 49.0383)" cx="48.785" cy="208.234" rx="22.495" ry="22.494"/><path d="M12.519,182.934L2.41,188.237c-0.555,0.291-0.871,0.892-0.793,1.513c0.076,0.621,0.529,1.127,1.137,1.273l9.452,2.278   l-8.556,9.834c-0.43,0.493-0.491,1.203-0.152,1.76c0.275,0.456,0.766,0.723,1.281,0.723c0.115,0,0.232-0.013,0.348-0.041   l13.555-3.216c0.805-0.191,1.303-0.999,1.111-1.806c-0.191-0.805-0.999-1.303-1.806-1.111l-9.009,2.138l7.113-8.176   c0.347-0.396,0.457-0.94,0.297-1.44c-0.16-0.502-0.565-0.88-1.076-1.002l-7.98-1.923l8.63-4.525   c0.446-0.236,0.749-0.686,0.797-1.189c0.046-0.504-0.168-1.005-0.566-1.317L6.031,174l12.494,0.443   c0.492,0.018,0.959-0.206,1.254-0.6c0.295-0.394,0.377-0.904,0.223-1.371l-3.579-10.821l10.631,6.576   c0.435,0.269,0.974,0.297,1.437,0.077c0.46-0.219,0.777-0.656,0.842-1.163l1.354-10.6l7.025,11.948   c0.232,0.398,0.641,0.667,1.098,0.726c0.457,0.061,0.919-0.095,1.248-0.417l5.635-5.546l-0.152,7.757   c-0.016,0.829,0.643,1.513,1.471,1.529c0.827,0.018,1.514-0.641,1.529-1.47l0.224-11.438c0.012-0.611-0.345-1.165-0.905-1.406   c-0.563-0.243-1.211-0.121-1.646,0.309l-6.889,6.778l-8.275-14.075c-0.328-0.556-0.965-0.838-1.596-0.71   c-0.629,0.131-1.103,0.641-1.187,1.28l-1.613,12.641l-12.158-7.52c-0.535-0.332-1.225-0.293-1.719,0.097   c-0.494,0.39-0.691,1.05-0.494,1.649l4.199,12.692L1.553,170.84c-0.648-0.023-1.238,0.374-1.461,0.983   c-0.224,0.609-0.029,1.294,0.48,1.695L12.519,182.934z"/><path d="M89.691,44.853c-4.854,4.292-5.537,10.79,0.49,15.951c7.225,6.189,17.271,2.956,23.289-3.107   c0.17-0.172,0.268-0.321,0.324-0.458c6.035,5.456,14.209,8.672,22.107,9.575c0.484,0.054,2.314-2.891,2.004-3.204   c-4.971-5.024-13.752-13.23-13.639-20.802c-0.004,0.351-2.029,1.99-2.043,3.021c-0.088,5.752,4.748,11.75,9.305,16.542   c-7.658-2.079-14.973-6.319-19.699-12.677c0.039,0.054-2.469,2.583-2.004,3.205c0.93,1.247,1.963,2.402,3.067,3.485   c-0.807-0.105-1.91,0.089-2.361,0.548c-5.271,5.313-13.766,7.318-18.904,0.543c-3.885-5.121-2.441-10.733,3.434-13.487   c1.9-0.888,0.785-2.383-0.963-1.827c-6.723,2.127-11.865-3.226-11.328-9.961c0.725-9.027,8.061-10.547,15.605-7.637   c0.703,0.27,3.906-0.632,2.834-1.714c-3.303-3.342-6.404-8.371-3.781-13.076c2.104-3.76,6.053-6.185,10.213-7.086   c11.957-2.601,18.172,6.408,16.441,17.536c-0.193,1.244,1.943,0.931,2.557,0.672c19.189-8.163,21.947,27.267,1.889,24.266   c-1.486-0.222-3.887,1.8-1.437,2.167c10.682,1.595,20.088-5.739,19.139-17.008c-0.891-10.548-9.283-14.56-18.273-12.052   c0.633-5.922-0.332-12.531-5.889-15.846c-4.611-2.748-10.504-2.994-15.598-1.552C96.154,3.794,89.635,12.425,95.33,21.201   c-7.463-0.958-15.459,1.738-16.172,10.652C78.551,39.433,83.174,44.643,89.691,44.853z"/><path d="M103.629,44.267c-0.877,2.446,0.996,1.031,1.504-0.389c2.369-6.627,10.279-8.784,15.953-5.153   c0.666,0.421,2.479-2.872,1.648-3.404C114.758,30.225,106.412,36.481,103.629,44.267z"/></g><text x="0" y="424.753" fill="#000000" font-size="5px" font-weight="bold" font-family="'Helvetica Neue', Helvetica, Arial-Unicode, Arial, Sans-serif">Created by Gan Khoon Lay</text><text x="0" y="429.753" fill="#000000" font-size="5px" font-weight="bold" font-family="'Helvetica Neue', Helvetica, Arial-Unicode, Arial, Sans-serif">from the Noun Project</text></svg>