<svg xmlns="http://www.w3.org/2000/svg" xmlns:xlink="http://www.w3.org/1999/xlink" version="1.1" x="0px" y="0px" viewBox="0 0 100 125" enable-background="new 0 0 100 100" xml:space="preserve"><path fill="#000000" d="M77.311,45.64c-0.421-1.033-0.886-2.017-1.351-2.868L61.768,13.87C59.54,8.72,55.231,4.698,49.943,2.837  c-2.168-0.762-4.422-1.149-6.7-1.149c-8.224,0-15.616,5.019-18.693,12.583l-13.127,3.255l11.796,6.678  c0.575,4.834,2.875,9.411,6.591,12.735c-2.658,2.864-4.725,6.278-6.025,9.975c-5.24,14.894,2.613,31.272,17.505,36.514  c0.854,0.3,1.716,0.554,2.587,0.771v10.098H36.81v3.535h10.601v-2.02v-1.516v-9.446c1.12,0.134,2.247,0.204,3.378,0.204  c1.021,0,2.055-0.056,2.995-0.159c0.27-0.018,2.216-0.164,5.239-0.875v10.276h-7.069v3.535h10.603v-2.02v-1.516V83.056  c8.573-2.676,21.823-9.18,32.426-24.909l1.59-2.361l-2.822-0.376C93.632,55.394,81.996,53.76,77.311,45.64z M23.149,20.109  l-2.272-1.287l2.526-0.626C23.287,18.832,23.204,19.47,23.149,20.109z M53.48,81.381c-3.708,0.4-7.472-0.037-11.018-1.283  c-13.056-4.594-19.94-18.953-15.347-32.01c1.357-3.855,3.555-7.221,6.533-10l1.568-1.465l-1.739-1.257  c-5.93-4.288-8.375-12.107-5.943-19.016C29.877,9.693,36.19,5.22,43.244,5.22c1.877,0,3.737,0.319,5.527,0.949  c4.362,1.535,7.918,4.853,9.791,9.179l14.264,29.047c0.451,0.83,0.874,1.73,1.255,2.678l0.101,0.211  c4.039,7.125,12.084,10.006,16.34,11.072C74.861,79.688,53.77,81.359,53.48,81.381z"/><path fill="#000000" d="M39.148,12.39c-2.75,0-4.987,2.236-4.987,4.987c0,2.75,2.237,4.987,4.987,4.987s4.987-2.237,4.987-4.987  C44.136,14.626,41.898,12.39,39.148,12.39z M39.148,18.832c-0.803,0-1.455-0.653-1.455-1.455c0-0.803,0.652-1.456,1.455-1.456  s1.456,0.653,1.456,1.456C40.604,18.179,39.951,18.832,39.148,18.832z"/><path fill="#000000" d="M53.018,33.724l-2.229-2.047l-0.683,2.918c-0.22,0.949-5.315,23.288,1.375,31.708  c1.763,2.22,4.141,3.257,7.064,3.257c0,0,0,0,0.002,0c1.325,0,2.779-0.155,4.32-0.632c4.057-1.254,6.481-3.449,7.208-6.693  C72.407,51.814,55.008,35.545,53.018,33.724z M66.629,61.423c-0.436,1.946-2.008,3.268-4.806,4.135  c-1.203,0.373-2.305,0.47-3.276,0.47c-0.002,0-0.002,0-0.002,0c-1.817,0-3.225-0.566-4.299-1.921  c-4.024-5.063-2.673-18.163-1.331-25.574C58.659,44.28,68.023,55.196,66.629,61.423z"/><path fill="#000000" d="M36.095,47.639l-1.56-0.829l-1.557-0.832c-0.094,0.176-9.166,17.668,8.421,29.233l1.94-2.949  C28.481,62.487,35.777,48.24,36.095,47.639z"/><text x="0" y="115" fill="#000000" font-size="5px" font-weight="bold" font-family="'Helvetica Neue', Helvetica, Arial-Unicode, Arial, Sans-serif">Created by Iconic</text><text x="0" y="120" fill="#000000" font-size="5px" font-weight="bold" font-family="'Helvetica Neue', Helvetica, Arial-Unicode, Arial, Sans-serif">from the Noun Project</text></svg>