<svg xmlns="http://www.w3.org/2000/svg" xmlns:xlink="http://www.w3.org/1999/xlink" version="1.1" x="0px" y="0px" viewBox="0 0 48 60" enable-background="new 0 0 48 48" xml:space="preserve">
  <g>
    <path fill="#000000" d="M23.2,23.4l-6.4-5.3l5.6-6.8c0.7-0.8,0.6-2.1-0.3-2.7l-9.2-7.6c-0.4-0.3-0.9-0.5-1.4-0.4   c-0.5,0-1,0.3-1.3,0.7L1.6,11.6c-0.2,0.2-0.3,0.4-0.4,0.6c-0.1,0.3-2.6,8.4,3,17.1c0.3,0.5,0.9,0.9,1.5,0.9c0,0,0.1,0,0.1,0   c0.6,0,1.1-0.3,1.5-0.7l6.9-8.4l6.4,5.3L23.2,23.4z"/>
    <path fill="#000000" d="M44.7,33.4L30,21.2L19.8,33.6l14.7,12.2c1.4,1.1,3,1.7,4.8,1.7c0.2,0,0.5,0,0.7,0c2-0.2,3.8-1.2,5.1-2.7   l0.7-0.8C48.4,40.8,47.9,36,44.7,33.4z"/>
  </g>
  <text x="0" y="63" fill="#000000" font-size="5px" font-weight="bold" font-family="'Helvetica Neue', Helvetica, Arial-Unicode, Arial, Sans-serif">Created by Vectors Market</text>
  <text x="0" y="68" fill="#000000" font-size="5px" font-weight="bold" font-family="'Helvetica Neue', Helvetica, Arial-Unicode, Arial, Sans-serif">from the Noun Project</text>
</svg>
