<svg xmlns="http://www.w3.org/2000/svg" xmlns:xlink="http://www.w3.org/1999/xlink" version="1.1" x="0px" y="0px" viewBox="0 0 100 125" style="enable-background:new 0 0 100 100;" xml:space="preserve">
  <style type="text/css">	.st0{fill-rule:evenodd;clip-rule:evenodd;}</style>
  <path class="st0" d="M50,5C25.1,5,5,25.1,5,50c0,24.9,20.1,45,45,45s45-20.1,45-45C95,25.1,74.9,5,50,5z M21.9,32.4  c-2.5,3-5.5,4.4-6.9,3.3c-1.4-1.1-0.5-4.4,2-7.4c2.5-3,5.5-4.4,6.9-3.3C25.2,26.1,24.3,29.5,21.9,32.4z M28.6,22.1  c-0.9-1.5,1.4-4.5,5-6.7c3.7-2.2,7.4-2.7,8.3-1.2c0.9,1.5-1.3,4.5-5,6.7C33.2,23.1,29.5,23.6,28.6,22.1z M44.9,45.1  c-2.9,2.4-6.7,2.4-8.6,0.2c-1.8-2.3-1-6,1.9-8.4c2.9-2.4,6.7-2.4,8.6-0.2C48.6,39,47.8,42.7,44.9,45.1z"/>
  <text x="0" y="115" fill="#000000" font-size="5px" font-weight="bold" font-family="'Helvetica Neue', Helvetica, Arial-Unicode, Arial, Sans-serif">Created by Darrin Loeliger</text>
  <text x="0" y="120" fill="#000000" font-size="5px" font-weight="bold" font-family="'Helvetica Neue', Helvetica, Arial-Unicode, Arial, Sans-serif">from the Noun Project</text>
</svg>
