<?xml version="1.0" encoding="UTF-8"?>
<svg xmlns="http://www.w3.org/2000/svg" xmlns:xlink="http://www.w3.org/1999/xlink" version="1.0" x="0px" y="0px" viewBox="0 0 100 125" enable-background="new 0 0 100 100" xml:space="preserve">
  <path d="M41.3377686,75.4490509l4.5925331,2.661644L45.597599,79.120697l-4.0281219-0.5941162L41.3377686,75.4490509z   M41.908123,20.8971252l0.1247635,1.3248806l3.3092384-1.3427029v1.8061142l1.817997-0.1128826l-0.7842331,1.6041164  l2.8339386,0.914938l-0.4099426,1.2951736l3.1607094,2.6854153l-0.118824,1.9902992l2.6675911,1.4674721l-0.6594734,1.1585274  l0.695118-0.2911186l0.9565315,1.6635323l-0.2138824-1.6635323l1.3605309,0.3921204l1.7942352-2.8933544l1.9962349-0.8495827  l-0.3683548-0.8377094l1.2654724-0.2851734l0.4277649,0.873354l2.5012321-2.2101212l0.8614731,0.7545338l-1.318943,1.8001766  l2.3051796-0.9030628l0.4693527,3.5052929l0.6951141-2.2576504l0.4158783,1.2892361l0.7070084-1.5565872l0.6416473,0.6475868  l-0.6772995-1.2179432l2.578476-0.2019978l1.8477097,3.5349998L72.4814224,34.78759l1.1525955-0.9268227l-1.1882401-2.370533  l0.9684143,0.51688l-0.3327026-0.7901783l-1.7823563-1.616003l1.0278244-1.8179989l3.6538239-1.0753536l-0.6178818,2.7626457  l2.2279434,1.2654743l5.073761-1.1288204l0,0l2.0556564,5.4005318l1.6575851,1.0456429l1.6635284-0.2970581l2.4715347-2.7864151  l4.5331268,1.3248825l0,0l0.6119385,6.6481819l-1.3783569,2.3170547l2.091301,9.696003l-3.4161835,1.4080582l-2.2576523,6.9036484  l-5.7213593-2.1507034l0.1425934,1.1822968l-3.6775894,1.4437027l-0.9327698,1.972477l-4.9371185,0.0356445l-2.3408279,1.3605309  l-0.4515305-0.8198853l-2.6794662,1.6041107l-0.4039993,4.26577l-1.461525,0.4099426l-0.1544724,1.1585236l-3.3270645-0.9624634  l-0.4634094,2.0081177l-2.6141205-0.5762939l-0.8495903,1.05159l0,0l-0.9268227-0.0712891l-0.1544724-1.5328293l1.4971771-0.225769  l-1.6932373-0.9446411l-7.5452957,1.3842926l-5.1628876-3.8558273l0.1188202,0.9090042l-2.5487671-0.07724l-0.1128807,2.0318832  l1.1882362,1.6397629l-1.2714157-0.1604156l-0.4515305-4.4558868l-3.3686485-3.2795334l-1.8358231-0.0237656l-0.1307068-0.9089966  l-2.1625862,0.5465851l-1.8180008-2.4834061l-4.9430637-1.5090561l-3.1369419,0.5228271l-2.251709-4.0934753l-1.0575294,0.7010574  l0.3564701,1.0575294l-4.2360611-0.0831757l-1.1050606,2.2101173l-4.3430042,0.0059395l0.2317057-3.3567657l-1.5506487-2.738884  l-2.2101183-1.5744095l-5.5728273-1.241703l0.5525298-0.9387093l7.3492398-1.5625305l2.7507677,0.6535301l0.932765-1.4971771  l-1.1941767-2.7329483l-3.6478844-1.2951736l-2.3467665,2.5368881l0.3802347-2.9052391l-1.9308834-0.1960602l-0.1663537-0.9327698  l1.443707-0.0950584l-0.0415878-1.794239l0.9684124-0.3802376l-0.0772352,2.1091232l0.8852358-1.0099983l-0.0772352,1.1288185  l1.2535896-0.5822334l1.3189421,0.8080025l2.2457657-0.8555336l1.1466475,0.6535339l0.962471-1.241703l-2.8458261-0.0475311  l0.8495893-0.5762939l-0.3802357-1.1823006l-1.3545885,1.3367653l-2.103178-0.0059357l1.4318237-2.0972366l-0.5822353-0.4634132  l-4.5331211,2.1269455l-1.8180013-0.6297646l-2.2695308,0.962471l-0.1010001-6.8977127l1.1585305-1.5090561l2.9468255-0.7545319  l1.6872954-2.2517052l3.4755898-0.0178223l-0.873353-0.6416492l2.2338839-0.8436451l1.2357664,0.4693489l0.0059404,1.1525898  l2.4834137-0.6772938l-0.6713543-0.2554665l0.8911781-1.0515919l3.1369419,0.3921204l1.2714119-1.9071236l0.9149437,0.0059395  l-0.0415897,1.9843521l0.992178,0.4218273l0.1485291-1.3427048l0.0475292,0.9208851l1.9071198,0.5050049l0.5584698-2.192297  l4.4261799,0.873354l-0.3624115,1.3842964l0.8733521-1.0218849l1.0159416,0.5941181l0.8258247-2.7923527L32.9725761,23.20228  l0.7961159,0.5406494l1.241703-1.7823544l2.62006,1.4615345L41.908123,20.8971252z"/>
  <text x="0" y="115" fill="#000000" font-size="5px" font-weight="bold" font-family="'Helvetica Neue', Helvetica, Arial-Unicode, Arial, Sans-serif">Created by Alexander Skowalsky</text>
  <text x="0" y="120" fill="#000000" font-size="5px" font-weight="bold" font-family="'Helvetica Neue', Helvetica, Arial-Unicode, Arial, Sans-serif">from the Noun Project</text>
</svg>
