<svg xmlns="http://www.w3.org/2000/svg" xmlns:xlink="http://www.w3.org/1999/xlink" version="1.1" x="0px" y="0px" viewBox="0 0 100 125" enable-background="new 0 0 100 100" xml:space="preserve"><g><path d="M89.525,15.621H9.546c-1.765,0-3.201,1.436-3.201,3.201v56.356c0,1.765,1.436,3.201,3.201,3.201h17.45   c4.703,7.44,12.996,12.396,22.43,12.396c9.434,0,17.728-4.955,22.43-12.396h17.67c1.765,0,3.201-1.437,3.201-3.201V18.821   C92.727,17.057,91.29,15.621,89.525,15.621z M9.546,18.121h79.979c0.387,0,0.701,0.314,0.701,0.701v5.534H8.845v-5.534   C8.845,18.435,9.16,18.121,9.546,18.121z M25.437,65.503h8.168c0.287,5.27,1.996,10.305,4.854,14.602   c-1.543,0.703-3.02,1.567-4.425,2.573C29.063,78.518,25.791,72.39,25.437,65.503z M64.661,63.003   c-0.164-5.263-1.713-10.25-4.393-14.542c1.589-0.714,3.106-1.602,4.549-2.634c4.972,4.16,8.242,10.288,8.598,17.176H64.661z    M50.676,41.962c2.167,1.494,4.069,3.279,5.677,5.285c-1.83,0.549-3.729,0.878-5.677,0.977V41.962z M48.176,48.224   c-2.123-0.107-4.192-0.481-6.173-1.123c1.731-2.13,3.81-3.995,6.173-5.531V48.224z M48.176,50.724v12.279H36.084   c0.171-5.018,1.72-9.758,4.38-13.787C42.922,50.099,45.511,50.602,48.176,50.724z M48.176,65.503V77.78   c-2.528,0.116-4.993,0.562-7.338,1.363c-2.763-3.985-4.438-8.694-4.733-13.641H48.176z M48.176,80.28v6.013   c-2.156-1.408-4.07-3.106-5.707-5.027C44.309,80.711,46.218,80.379,48.176,80.28z M46.333,88.068   c-3.734-0.482-7.203-1.82-10.199-3.818c1.224-0.817,2.505-1.518,3.838-2.09C41.772,84.413,43.905,86.413,46.333,88.068z    M58.417,81.98c1.497,0.605,2.937,1.359,4.3,2.27c-3.191,2.128-6.917,3.514-10.931,3.907C54.331,86.441,56.558,84.348,58.417,81.98   z M50.676,85.879V80.28c1.784,0.09,3.528,0.371,5.217,0.841C54.384,82.915,52.636,84.52,50.676,85.879z M50.676,77.78V65.503   h11.463c-0.291,4.884-1.926,9.538-4.626,13.491C55.317,78.293,53.026,77.888,50.676,77.78z M50.676,63.003V50.724   c2.487-0.114,4.912-0.55,7.223-1.327c2.588,3.99,4.093,8.663,4.261,13.606H50.676z M58.84,46.36   c-1.671-2.218-3.677-4.193-5.955-5.878c3.595,0.521,6.935,1.84,9.833,3.773C61.481,45.08,60.187,45.785,58.84,46.36z    M39.564,46.159c-1.187-0.536-2.333-1.171-3.431-1.904c2.689-1.794,5.76-3.055,9.062-3.645   C43.056,42.214,41.163,44.08,39.564,46.159z M34.034,45.827c1.302,0.932,2.667,1.736,4.089,2.41   c-2.771,4.341-4.374,9.41-4.541,14.766h-8.146C25.791,56.115,29.063,49.987,34.034,45.827z M64.817,82.678   c-1.548-1.108-3.181-2.053-4.896-2.794c2.772-4.249,4.435-9.199,4.717-14.381h8.776C73.06,72.39,69.789,78.518,64.817,82.678z    M89.525,75.879H73.257c1.721-3.513,2.69-7.458,2.69-11.626c0-14.625-11.897-26.523-26.521-26.523S22.904,49.628,22.904,64.253   c0,4.168,0.969,8.113,2.69,11.626H9.546c-0.386,0-0.701-0.314-0.701-0.701V26.855h81.381v48.322   C90.227,75.564,89.912,75.879,89.525,75.879z"/><rect x="72.5" y="20" width="3" height="2.5"/><rect x="77.5" y="20" width="3" height="2.5"/><rect x="82.5" y="20" width="3" height="2.5"/><polygon points="78.842,29.247 82.512,32.917 59.167,32.917 59.167,35.417 82.453,35.417 78.783,39.086 80.551,40.854    87.268,34.137 80.609,27.479  "/><polygon points="20.352,29.247 18.584,27.479 11.868,34.196 18.526,40.854 20.293,39.086 16.623,35.417 39.968,35.417    39.968,32.917 16.683,32.917  "/></g><text x="0" y="115" fill="#000000" font-size="5px" font-weight="bold" font-family="'Helvetica Neue', Helvetica, Arial-Unicode, Arial, Sans-serif">Created by Creative Mania</text><text x="0" y="120" fill="#000000" font-size="5px" font-weight="bold" font-family="'Helvetica Neue', Helvetica, Arial-Unicode, Arial, Sans-serif">from the Noun Project</text></svg>