<svg xmlns="http://www.w3.org/2000/svg" xmlns:xlink="http://www.w3.org/1999/xlink" version="1.1" x="0px" y="0px" viewBox="0 0 100 125" style="enable-background:new 0 0 100 100;" xml:space="preserve"><g><path d="M49.9,52.7c-1.3,0-2.4-0.3-3.2-0.6c0,0.7,0.1,1.6,0.2,2.5c1,0.4,3.4,1.1,6.1-0.1c0.1-0.9,0.1-1.8,0.2-2.5   C52,52.5,50.9,52.7,49.9,52.7z"/><path d="M47.1,56.2c0.1,0.9,0.3,1.7,0.4,2.6c0.8,0.4,2.4,0.8,4.9-0.1c0.2-0.8,0.3-1.7,0.4-2.5c-1.1,0.4-2,0.5-2.9,0.5   C48.8,56.6,47.8,56.4,47.1,56.2z"/><path d="M49.9,49.6c-1.2,0-3-2.4-3-2.4s-0.1,1.1-0.2,2.6c0,0.2,0,0.4,0,0.8c0.9,0.4,3.5,1.4,6.5-0.1c0-0.3,0-0.6,0-0.7   c0-1.4-0.2-2.6-0.2-2.6C52.7,47.8,51.2,49.6,49.9,49.6z"/><path d="M48,60.3c0.5,1.4,1.1,2.5,2,2.7l0,0c0,0,0,0,0.1,0c0,0,0,0,0.1,0l0,0c0.9-0.3,1.5-1.4,2-2.9c-0.9,0.2-1.6,0.3-2.3,0.3   C49,60.5,48.5,60.5,48,60.3z"/><path d="M47.3,34.8c0.1-0.2,0.5-1.3,0.5-1.3s-1.3-1.1-2.1,0.4C44.9,35.2,46,36,46,36C46.4,35.3,47.3,34.8,47.3,34.8z"/><path d="M52,33.2c0,0,0.4,1.1,0.5,1.3c0,0,0.9,0.6,1.3,1.2c0,0,1.1-0.8,0.3-2.2C53.3,32.2,52,33.2,52,33.2z"/><path d="M40.5,22.3c1,1,1.6,2,1.6,2l6.5,9.4c-0.3,0.5-0.5,1.2-0.6,1.4c-1,0.5-1.9,1.5-2.2,3.7C45.4,43.4,48.5,48,50,48   c1.5,0,4.7-4.5,4.1-9.1c-0.2-2.2-1.3-3.3-2.2-3.8c-0.2-0.7-0.5-1.3-0.8-1.6l6.5-9.5c0,0,0.7-1,1.6-2c0,0,0.8,0.1,1.2-0.5   c0.4-0.6,0.1-0.8-0.4-0.8c-0.5,0-1.9,1.2-3.2,3.3c0,0-5.1,7.3-6.4,9c-0.4-0.1-0.7-0.1-1.3,0c0,0-0.1,0-0.1,0.1   c-1.5-2.1-6.2-8.8-6.2-8.8c-1.4-2.1-2.7-3.3-3.2-3.3c-0.5,0-0.8,0.2-0.4,0.8C39.7,22.4,40.5,22.3,40.5,22.3z"/><path d="M44.9,41.8c-0.5-2.5,0.3-4.9,0.3-4.9c-6.7-6-23.2-15.4-31.4-15.1c-4.3,0.2-10.6,2-11.5,4s1.3,3.4,1.3,3.4   c-0.8,2.3,1.5,4.1,1.5,4.1c-1,3,1.8,4.3,1.8,4.3C6.5,41.1,9.6,42,9.6,42c-0.7,2.9,2.6,4.3,2.6,4.3c0.1,3.7,4,4.4,4,4.4   s0.1,1.6,3.6,2.4c3.5,0.8,6.4-3.7,10.3-5.9C34.1,45,44.9,41.8,44.9,41.8z M34.7,35.5c1.4-1,0.3-3.2,0.3-3.2   c2.5,0.9,4.9,3.2,4.9,3.2s-1.2,0.4-1.5,1.1c-0.3,0.7-1,2.9-2.3,3c-1.3,0.1-3.1-1.4-3.1-1.4S33.2,36.5,34.7,35.5z M29.8,39.7   c0,0,1.3-0.2,1.8,0.4c0.4,0.7-0.4,1-0.4,1c-4.9,1.2-9,3.2-9,3.2c-0.2-1.3-1.4-2.1-1.4-2.1C23.9,40.4,29.8,39.7,29.8,39.7z    M19.8,41.5c-0.2-1.3-1.2-2-1.2-2c3.6-1.6,8.6-2,8.6-2s1.3,0,1.5,0.5c0.1,0.2,0,0.5-0.2,0.6c-0.2,0.2-0.5,0.3-0.9,0.4   C25,39.3,19.8,41.5,19.8,41.5z M30.2,31.6c-0.4,1.1,0.3,1.4-0.1,2.4c-0.3,0.8-0.1,2.4-0.1,2.4s-3.2-2.2-4.6-3.5   c-0.3-0.3-0.5-0.6-0.5-1c0-0.6,0.1-1.5,0.6-2.4c0.2-0.3,0.5-0.4,0.8-0.3c1.2,0.2,4.3,0.8,5.9,1.5C32.1,30.6,30.5,30.6,30.2,31.6z    M29.1,28.3c0,0-4.5-0.3-4.9-0.7c-0.4-0.3-4.1-3-4.1-3S26.1,26.4,29.1,28.3z M15,32c4.8-0.7,6.5,0,6.5,0s1.1,0.2,1.1,0.9   c0,0.2-0.1,0.4-0.3,0.6c-0.3,0.3-0.6,0.4-1,0.4c-1.8,0-5.4,1-5.4,1C16.1,33.5,15,32,15,32z M5.2,27.6c-0.6,0-1.1-0.5-1.1-1.1   c0-0.6,0.5-1.1,1.1-1.1c0.6,0,1.1,0.5,1.1,1.1C6.3,27.1,5.8,27.6,5.2,27.6z M5.9,30.6c0-0.6,0.5-1.1,1.1-1.1c0.6,0,1.1,0.5,1.1,1.1   c0,0.6-0.5,1.1-1.1,1.1C6.4,31.7,5.9,31.2,5.9,30.6z M7.4,34.6c0-0.6,0.5-1.1,1.1-1.1s1.1,0.5,1.1,1.1c0,0.6-0.5,1.1-1.1,1.1   S7.4,35.2,7.4,34.6z M10.3,39.7c-0.6,0-1.1-0.5-1.1-1.1c0-0.6,0.5-1.1,1.1-1.1c0.6,0,1.1,0.5,1.1,1.1   C11.4,39.2,10.9,39.7,10.3,39.7z M12.8,44c-0.6,0-1.1-0.5-1.1-1.1c0-0.6,0.5-1.1,1.1-1.1s1.1,0.5,1.1,1.1   C13.9,43.5,13.4,44,12.8,44z M13.5,28.4c2.6-0.1,4.8,0.5,5.2,1.1c0.3,0.5-0.1,1-0.7,1.1c-0.5,0.1-3.5,0.3-3.5,0.3   C14.7,29.5,13.5,28.4,13.5,28.4z M15.7,48.3c-0.6,0-1.1-0.5-1.1-1.1c0-0.6,0.5-1.1,1.1-1.1c0.6,0,1.1,0.5,1.1,1.1   C16.8,47.8,16.3,48.3,15.7,48.3z M16.8,35.9c4.9-1.6,7.8-1.1,7.8-1.1s1,0.3,1.2,1c0.2,0.7-0.7,1-0.7,1c-3.3,0.1-7.1,1.5-7.1,1.5   C18.1,36.5,16.8,35.9,16.8,35.9z M20.8,51.2c-2.1,0.1-2.5-0.9-2.5-1.4c0-0.5,0.7-0.7,1-0.7c1.4,0.2,2.9,0.5,3.3,0.8   C23,50.1,22.9,51.1,20.8,51.2z M24.9,46.4c-0.3-0.4-1.7-1.5-1.7-1.5c2.1-1.2,9.7-3.5,10.7-3c0,0,0,0,0,0c0.8,0.5,0.6,1.7-0.3,1.9   c-4.2,1.1-7.8,4-7.8,4S25.2,46.8,24.9,46.4z"/><path d="M46.1,46.3c0,0-1-2.1-1.1-3.3c0,0-12.4,3.8-14.8,5.8c-0.7,0.5-5.3,4.2-6.9,8.2c0,0-0.7,4.3,0.2,7.3c0.9,3,3.1,1.9,3.1,1.9   s0.8,3.2,3.2,2.1c0,0,0.4,1.4,2.1,3c1.6,1.5,0.2,7.6,3,8c0,0,0.9,0.3,0.3-0.7c-0.5-1-0.8-6,0.4-6.6c1.2-0.5,1.9-0.7,4.2,0.1   c0,0,1.2,0.8,2-1.3c0,0,1.2-1.5,3.7-1.4c2.5,0.1,1.1-5.3,0-7.1C44.3,60.4,43.7,51.2,46.1,46.3z M25.8,63.6c-0.6,0-1.1-0.5-1.1-1.1   c0-0.6,0.5-1.1,1.1-1.1s1.1,0.5,1.1,1.1C26.9,63.1,26.4,63.6,25.8,63.6z M29.1,65.6c-0.6,0-1.1-0.5-1.1-1.1c0-0.6,0.5-1.1,1.1-1.1   s1.1,0.5,1.1,1.1C30.2,65.1,29.7,65.6,29.1,65.6z M32.8,68.4c-0.6,0-1.1-0.5-1.1-1.1c0-0.6,0.5-1.1,1.1-1.1s1.1,0.5,1.1,1.1   C33.9,67.9,33.4,68.4,32.8,68.4z M37.3,69.5c-0.6,0-1.1-0.5-1.1-1.1c0-0.6,0.5-1.1,1.1-1.1s1.1,0.5,1.1,1.1   C38.4,69,37.9,69.5,37.3,69.5z M37.9,59c-1.4-1.7-3-0.2-3-0.2c-0.9-2-2.6-1-2.6-1c-0.8-1.9-2.7-2-2.7-2c-0.2-1.2-1.7-2.4-1.7-2.4   s0.8-1.8,4.1-3.8c3.3-2.1,6.5-3.1,6.5-3.1c-4.7,3.4-5.2,9.1-5.2,9.1c2.5-7.9,7.4-9.8,7.4-9.8l1.4,0.7c-4.5,4.7-4,9.1-4,9.1   c0.2-3,4.6-8.8,4.6-8.8c1.1,1,0.9,3.8,0.9,3.8c-1.2,2.5-0.8,7.1-0.8,7.1C39.3,57.1,37.9,59,37.9,59z M42.5,67.8   c-1.2,0-2.2-1-2.2-2.2c0-1.2,1-2.2,2.2-2.2c1.2,0,2.2,1,2.2,2.2C44.7,66.9,43.7,67.8,42.5,67.8z"/><path d="M97.8,25.5c-1-2-7.2-3.8-11.5-4c-8.2-0.3-24.7,9-31.4,15.1c0,0,0.9,2.4,0.3,4.9c0,0,10.8,3.2,14.7,5.4   c4,2.2,6.8,6.7,10.3,5.9c3.5-0.8,3.6-2.4,3.6-2.4s3.8-0.7,4-4.4c0,0,3.3-1.4,2.6-4.3c0,0,3.1-0.9,2.7-4.5c0,0,2.7-1.3,1.8-4.3   c0,0,2.3-1.8,1.5-4.1C96.4,28.9,98.7,27.5,97.8,25.5z M79.9,24.4c0,0-3.6,2.6-4.1,3c-0.4,0.3-4.9,0.7-4.9,0.7   C73.9,26.2,79.9,24.4,79.9,24.4z M84,34.6c0,0-3.5-1-5.4-1c-0.4,0-0.7-0.1-1-0.4c-0.1-0.2-0.3-0.3-0.3-0.6c0-0.7,1.1-0.9,1.1-0.9   s1.6-0.7,6.5,0C85,31.8,83.9,33.3,84,34.6z M73.8,28.9c0.3-0.1,0.6,0.1,0.8,0.3c0.6,0.8,0.6,1.8,0.6,2.4c0,0.4-0.2,0.8-0.5,1   c-1.4,1.3-4.6,3.5-4.6,3.5s0.2-1.7-0.1-2.4c-0.4-1,0.3-1.3-0.1-2.4c-0.3-1-2-1-2-1C69.4,29.7,72.6,29.1,73.8,28.9z M72.4,38.8   c-0.3,0-0.6-0.2-0.9-0.4c-0.2-0.2-0.3-0.4-0.2-0.6c0.2-0.5,1.5-0.5,1.5-0.5s4.9,0.3,8.6,2c0,0-1,0.7-1.2,2   C80.2,41.2,75,39.1,72.4,38.8z M79.3,42c0,0-1.2,0.8-1.4,2.1c0,0-4.1-2-9-3.2c0,0-0.9-0.3-0.4-1c0.4-0.7,1.8-0.4,1.8-0.4   S76.1,40.1,79.3,42z M63.9,39.4c-1.3-0.1-2-2.3-2.3-3c-0.3-0.7-1.5-1.1-1.5-1.1s2.4-2.3,4.9-3.2c0,0-1.1,2.2,0.3,3.2   c1.4,1,1.6,2.6,1.6,2.6S65.2,39.5,63.9,39.4z M75.1,46.2c-0.3,0.4-0.9,1.5-0.9,1.5s-3.6-2.9-7.8-4c-0.9-0.2-1.1-1.5-0.3-1.9   c0,0,0,0,0,0c1-0.5,8.6,1.8,10.7,3C76.9,44.8,75.5,45.8,75.1,46.2z M79.2,51c-2.1-0.1-2.2-1.1-1.8-1.3c0.4-0.2,1.9-0.6,3.3-0.8   c0.3,0,1,0.1,1,0.7C81.7,50.1,81.3,51.1,79.2,51z M82,38c0,0-3.8-1.4-7.1-1.5c0,0-0.9-0.3-0.7-1c0.2-0.7,1.2-1,1.2-1   s2.9-0.5,7.8,1.1C83.2,35.6,81.9,36.3,82,38z M84.3,48.1c-0.6,0-1.1-0.5-1.1-1.1c0-0.6,0.5-1.1,1.1-1.1s1.1,0.5,1.1,1.1   C85.4,47.6,85,48.1,84.3,48.1z M82,30.4c-0.5-0.1-1-0.5-0.7-1.1c0.3-0.5,2.5-1.2,5.2-1.1c0,0-1.2,1.1-1,2.5   C85.6,30.7,82.6,30.5,82,30.4z M87.2,43.8c-0.6,0-1.1-0.5-1.1-1.1c0-0.6,0.5-1.1,1.1-1.1c0.6,0,1.1,0.5,1.1,1.1   C88.3,43.3,87.8,43.8,87.2,43.8z M89.7,39.5c-0.6,0-1.1-0.5-1.1-1.1c0-0.6,0.5-1.1,1.1-1.1c0.6,0,1.1,0.5,1.1,1.1   C90.8,39,90.3,39.5,89.7,39.5z M91.5,35.5c-0.6,0-1.1-0.5-1.1-1.1c0-0.6,0.5-1.1,1.1-1.1s1.1,0.5,1.1,1.1   C92.6,35,92.1,35.5,91.5,35.5z M93,31.5c-0.6,0-1.1-0.5-1.1-1.1c0-0.6,0.5-1.1,1.1-1.1c0.6,0,1.1,0.5,1.1,1.1   C94.1,31,93.6,31.5,93,31.5z M94.8,27.4c-0.6,0-1.1-0.5-1.1-1.1c0-0.6,0.5-1.1,1.1-1.1s1.1,0.5,1.1,1.1   C95.9,26.9,95.4,27.4,94.8,27.4z"/><path d="M69.8,48.6c-2.4-2-14.8-5.8-14.8-5.8c-0.1,1.2-1.1,3.3-1.1,3.3c2.4,4.9,1.8,14.1,0.7,15.9c-1.1,1.9-2.5,7.3,0,7.1   c2.5-0.1,3.7,1.4,3.7,1.4c0.8,2.1,2,1.3,2,1.3c2.3-0.8,3-0.7,4.2-0.1c1.2,0.5,1,5.6,0.4,6.6c-0.5,1,0.3,0.7,0.3,0.7   c2.7-0.4,1.3-6.5,3-8c1.6-1.5,2.1-3,2.1-3c2.4,1.1,3.2-2.1,3.2-2.1s2.2,1.1,3.1-1.9c0.9-3,0.2-7.3,0.2-7.3   C75.1,52.8,70.5,49.1,69.8,48.6z M57.5,67.6c-1.2,0-2.2-1-2.2-2.2s1-2.2,2.2-2.2c1.2,0,2.2,1,2.2,2.2S58.7,67.6,57.5,67.6z    M62.7,69.3c-0.6,0-1.1-0.5-1.1-1.1c0-0.6,0.5-1.1,1.1-1.1c0.6,0,1.1,0.5,1.1,1.1C63.8,68.8,63.3,69.3,62.7,69.3z M67.2,68.2   c-0.6,0-1.1-0.5-1.1-1.1c0-0.6,0.5-1.1,1.1-1.1c0.6,0,1.1,0.5,1.1,1.1C68.3,67.7,67.8,68.2,67.2,68.2z M70.9,65.4   c-0.6,0-1.1-0.5-1.1-1.1c0-0.6,0.5-1.1,1.1-1.1c0.6,0,1.1,0.5,1.1,1.1C72,64.9,71.5,65.4,70.9,65.4z M70.5,55.6c0,0-1.9,0.1-2.7,2   c0,0-1.8-1-2.6,1c0,0-1.6-1.5-3,0.2c0,0-1.4-2-4.9-1.2c0,0,0.4-4.6-0.8-7.1c0,0-0.2-2.9,0.9-3.8c0,0,4.4,5.8,4.6,8.8   c0,0,0.5-4.4-4-9.1l1.4-0.7c0,0,4.8,1.9,7.4,9.8c0,0-0.4-5.7-5.2-9.1c0,0,3.2,1,6.5,3.1c3.3,2.1,4.1,3.8,4.1,3.8   S70.7,54.5,70.5,55.6z M74.2,63.3c-0.6,0-1.1-0.5-1.1-1.1c0-0.6,0.5-1.1,1.1-1.1s1.1,0.5,1.1,1.1C75.3,62.8,74.8,63.3,74.2,63.3z"/></g><text x="0" y="115" fill="#000000" font-size="5px" font-weight="bold" font-family="'Helvetica Neue', Helvetica, Arial-Unicode, Arial, Sans-serif">Created by parkjisun</text><text x="0" y="120" fill="#000000" font-size="5px" font-weight="bold" font-family="'Helvetica Neue', Helvetica, Arial-Unicode, Arial, Sans-serif">from the Noun Project</text></svg>