<svg xmlns="http://www.w3.org/2000/svg" xmlns:xlink="http://www.w3.org/1999/xlink" version="1.1" x="0px" y="0px" viewBox="0 0 100 125" enable-background="new 0 0 100 100" xml:space="preserve">
  <path fill="#000000" d="M86.877,53.769h-0.598c-0.651,0-1.193,0.453-1.337,1.06c-0.025-1.044-0.101-2.042-0.22-2.982l2.886-0.475  c0.425-0.07,0.711-0.475,0.633-0.899l-1.027-5.618c-0.074-0.403-0.451-0.678-0.857-0.626l-3.443,0.447  c-0.016,0.002-0.027,0.012-0.043,0.015c-0.181-0.396-0.564-0.655-1.003-0.665c-0.371-0.009-0.79,0.008-1.244,0.073  c-0.678,0.097-1.245,0.272-1.678,0.441c-0.382,0.111-0.779,0.219-1.164,0.329l-0.042-0.154c-0.04-0.148-0.192-0.235-0.34-0.195  l-1.842,0.497l-0.275-0.13c-0.204-0.096-0.436-0.116-0.654-0.057l-1.433,0.391c-0.303,0.083-0.541,0.312-0.643,0.607l-0.218,0.059  c-0.148,0.04-0.235,0.192-0.195,0.34l0.048,0.176c-0.497,0.131-1.004,0.271-1.497,0.398c-0.09,0.023-0.181,0.035-0.273,0.035  c-1.757,0.012-3.514,0.024-5.271,0.036v-3.133h0.171c0.326,0,0.59-0.264,0.59-0.59V41.33c0-0.135,0.046-0.265,0.131-0.37  l0.954-1.183c0.085-0.105,0.131-0.235,0.131-0.37V39.4h1.538c0.127,0.25,0.489,0.32,0.672,0.053l2.009-2.942  c0.093-0.136,0.093-0.315,0-0.451l-2.009-2.942c-0.183-0.268-0.545-0.197-0.672,0.053h-1.538v-0.065  c0-0.054-0.046-0.106-0.131-0.148l-0.954-0.474c-0.085-0.042-0.131-0.094-0.131-0.148v-0.73c0-0.131-0.264-0.236-0.59-0.236h-2.39  h-0.613h-1.521h-1.208H57.79c-0.326,0-0.59,0.106-0.59,0.236v0.73c0,0.054-0.046,0.106-0.131,0.148l-0.954,0.474  c-0.085,0.042-0.131,0.094-0.131,0.148v0.065h-0.778c-0.087-0.992-0.911-1.773-1.925-1.773h-6.767h-27.23h-3.008  c-2.111,0-3.822,1.711-3.822,3.822v2.13c0,2.111,1.711,3.822,3.822,3.822h3.008h27.23h6.767c1.015,0,1.838-0.781,1.925-1.773h0.778  v0.006c0,0.135,0.046,0.265,0.131,0.37l0.954,1.183c0.085,0.105,0.131,0.235,0.131,0.37v1.821c0,0.326,0.264,0.59,0.59,0.59h0.171  v3.181c-0.996,0.007-1.993,0.013-2.989,0.02c-0.613,0.004-1.108,0.502-1.108,1.115v0.534h-2.068v-0.344  c0-0.645-0.467-1.196-1.103-1.302l-7.222-1.202c-0.805-0.134-1.537,0.487-1.537,1.302v10.039c0,0.032,0.007,0.062,0.009,0.093  c-0.002,0.031-0.009,0.061-0.009,0.093v10.039c0,0.816,0.732,1.436,1.537,1.302l7.222-1.203c0.637-0.106,1.103-0.657,1.103-1.302  v-0.344h2.068v0.11c0,0.616,0.499,1.115,1.115,1.115h0.245H81.88c0.46,0,0.871-0.278,1.039-0.706  c0.063-0.161,0.129-0.345,0.193-0.519h2.05c0.25,0.348,0.655,0.576,1.116,0.576h0.598c0.76,0,1.377-0.616,1.377-1.377v-9.817  C88.253,54.386,87.637,53.769,86.877,53.769z M51.796,57.271c0-0.032-0.007-0.062-0.009-0.093c0.002-0.031,0.009-0.061,0.009-0.093  V57.271z"/>
  <text x="0" y="115" fill="#000000" font-size="5px" font-weight="bold" font-family="'Helvetica Neue', Helvetica, Arial-Unicode, Arial, Sans-serif">Created by Romualdas Jurgaitis</text>
  <text x="0" y="120" fill="#000000" font-size="5px" font-weight="bold" font-family="'Helvetica Neue', Helvetica, Arial-Unicode, Arial, Sans-serif">from the Noun Project</text>
</svg>
