<svg xmlns="http://www.w3.org/2000/svg" xmlns:xlink="http://www.w3.org/1999/xlink" version="1.1" x="0px" y="0px" viewBox="0 0 95 118.75" style="enable-background:new 0 0 95 95;" xml:space="preserve"><g><path d="M35.6,51.5c-1.4,0-2.5,1.1-2.5,2.5s1.1,2.5,2.5,2.5s2.5-1.1,2.5-2.5S37,51.5,35.6,51.5z M35.6,55.5c-0.8,0-1.5-0.7-1.5-1.5   s0.7-1.5,1.5-1.5s1.5,0.7,1.5,1.5S36.4,55.5,35.6,55.5z"/><path d="M92.1,54.5c-0.9-0.8-3.1-0.7-3.7-0.6l-1.5-0.5l-4.7,0.4L49.7,41.6l3.5,0.6l0,0c0.1,0,0.1,0,0.2,0c0.6,0,1.2-0.5,1.3-1.1   l0.3-2.2c0.3,0.4,0.8,0.7,1.4,0.7c1,0,1.8-0.8,1.8-1.8S57.4,36,56.4,36c-0.4,0-0.7,0.1-1,0.3l0.4-2.4c0.1-0.7-0.4-1.4-1.1-1.5   l-23.4-3.7c-0.7-0.1-1.3,0.3-1.5,0.9c-0.1-0.1-0.3-0.1-0.5-0.2l-17-2.7c-0.4-0.1-0.8,0-1.1,0.3C8.1,26.3,6,24.3,6,24.2l-0.1-0.1   H5.7c-0.5-0.1-1,0-1.4,0.3s-0.7,0.7-0.7,1.2l-1.1,6.9c-0.2,1,0.5,1.9,1.5,2.1h0.2l0.1-0.1c0,0,2.7-1.4,5.9-0.6   c0.2,0.3,0.5,0.4,0.9,0.5l14.7,2.3l-0.4,1.9v-0.1L22,37.1c0.1-0.3,0.3-0.6,0.4-0.8l-1-0.2c-1.2,2.3-1.9,4.9-1.9,7.7   c0,1.2,0.1,2.4,0.4,3.6l0,0c-0.9,2-1.3,4.3-1.3,6.6c0,9.4,7.6,17,17,17s17-7.6,17-17c0-0.8-0.1-1.6-0.2-2.4l1.1,0.3l-0.1,0.3   l2.7,0.9l1.3-4.3l-2.7-0.9l-0.9,3l-1.5-0.4c-0.4-2-1.1-3.8-2.1-5.4l33.5,11.8l4,0.2c-3,2.1-7.7,0.7-7.8,0.6L62,53.1v0.1l0.8-2.4   L60,49.9l-0.8,2.5l-2.7-0.7l-0.3,0.9l2.7,0.7l0.2-0.7l-0.5,1.5l2.7,0.9l0.3-1l17.8,4.6c0.1,0,1.8,0.6,3.9,0.6c1.9,0,4-0.4,5.6-2.1   c0.6,0,2.2,0,2.9-0.6c0.3-0.3,0.5-0.6,0.5-1C92.5,55.1,92.4,54.8,92.1,54.5z M56.5,36.8c0.5,0,0.9,0.4,0.9,0.9s-0.4,0.9-0.9,0.9   s-0.9-0.4-0.9-0.9S56,36.8,56.5,36.8z M55.4,49.1l0.9,0.3l-0.8,2.4l-0.9-0.3L55.4,49.1z M60.8,53.8l-0.9-0.3l0.8-2.4l0.9,0.3   L60.8,53.8z M47.5,55.4c-0.8,0.7-1.7,1.4-2.6,2l0.9,0.4L41.7,56l0.4,0.2l-0.7-1.8h5.1L47.5,55.4z M42.1,58.8   c-0.2,0.1-0.5,0.2-0.7,0.2L39,56.6c0.1-0.2,0.3-0.4,0.4-0.5l2.8,1.2L41.4,57L42.1,58.8z M35.6,49.7L35.6,49.7L35.6,49.7L35.6,49.7z    M31.7,49.3l1.1-1.1l-0.4-1L31,48.7l-1.5-1.5l2.3-0.9l-1.5-0.4l1.7,0.4l1.6,3.9l0,0c-0.2,0.1-0.4,0.3-0.6,0.4l0,0L31.7,49.3z    M41.3,39.3l-5.2-0.8V38c1.9,0.1,3.7,0.4,5.3,1.1L41.3,39.3z M38.7,48l-0.4,0.9L38.7,48L38.7,48z M40.9,40.2l-2.8,6.7l-2-0.5v-6.9   L40.9,40.2z M35.1,38.3l-1.4-0.2c0.5-0.1,1-0.1,1.4-0.1V38.3z M35.1,39.3v6.8l-2.4-0.6L30.1,39c0.3-0.1,0.6-0.2,0.9-0.3L35.1,39.3z    M33.2,46.6l0.1,0.4L33.2,46.6L33.2,46.6z M31.5,45.1L26,43.7L25.4,43l0.4-1.7c1-0.8,2.2-1.5,3.4-2L31.5,45.1z M27.4,45.1l2.8,0.7   l-1.5,0.6L27.4,45.1z M22.9,44.3h1.4h-0.1l1.4,0.4l2.2,2.2l-4,1.6l1.3,0.5l3.5-1.4l-0.4-0.4l4.1,4.1l0,0c-0.1,0.2-0.3,0.4-0.4,0.5   l0,0L30,51l1-1l-0.7-0.7L29,50.6l0,0l-8-3.4C21.6,46.2,22.2,45.2,22.9,44.3z M22.9,44.3c0.3-0.3,0.5-0.7,0.8-1   C23.4,43.6,23.1,43.9,22.9,44.3z M23.7,43.3c0.1-0.1,0.2-0.2,0.3-0.3l0.3,0.3H23.7z M27.6,53.5l1.7-1.7l-0.5-0.2l2.8,1.2l0,0   c-0.1,0.2-0.1,0.5-0.1,0.7l0,0H27.6z M31.4,54L31.4,54C31.4,53.9,31.4,53.9,31.4,54C31.4,53.9,31.4,53.9,31.4,54L31.4,54z    M28.3,51.4l-2.1,2.1h-2.3c-0.8-1-1.4-2.1-1.9-3.3l1.9-0.8L28.3,51.4z M25.2,54.4l-0.3,0.3c-0.1-0.1-0.2-0.2-0.3-0.3H25.2z    M26.6,54.4h4.8l0,0c0,0.2,0.1,0.4,0.1,0.6l0,0l-4.9,2l0.7-0.3c-0.6-0.4-1.2-0.9-1.7-1.4L26.6,54.4z M31.9,56l-1.2,0.5l-0.8,1.8   c-0.6-0.3-1.1-0.6-1.6-0.9L31.9,56z M31.2,57.7l0.7-1.7l0,0c0.1,0.2,0.3,0.4,0.4,0.6l0,0l-1.7,1.7L31.2,57.7z M33.5,47.5l0.4-0.4   l0,0c0.2,0.1,0.4,0.3,0.5,0.4l0,0L34,48.6L33.5,47.5z M35.1,48.4v1.3l0,0c-0.2,0-0.4,0.1-0.6,0.1L35.1,48.4z M36.9,47.6l-0.8-0.2   l0,0L36.9,47.6z M36.6,48L36.6,48L36.6,48L36.6,48z M36.1,48L36.1,48L36.1,48L36.1,48z M37.1,48c0.2,0,0.4-0.1,0.6-0.1l-0.6,1.4V48   z M38.2,49.1l0.5,1.1l-0.4,0.4c-0.2-0.1-0.4-0.3-0.5-0.4L38.2,49.1z M38.8,48l1.6,0.4L38.8,50l0.6-0.6L38.8,48z M39.1,51.1   L39.1,51.1l0.2,0.8l0.9-0.4l-0.4-1.1l1.4-1.4l1.5,1.5l-3.3,1.4c-0.1-0.2-0.3-0.4-0.4-0.6L39.1,51.1z M40,53.5L40,53.5   c-0.1-0.2-0.2-0.4-0.2-0.6l0,0L40,53.5z M40.4,54.4l0.5,1.2l-1.2-0.5c0.1-0.2,0.1-0.5,0.1-0.7H40.4z M43.9,58   c-0.3,0.1-0.6,0.3-0.9,0.4l-0.4-1L43.9,58z M41,53.5l-0.4-1l-0.3,0.1l4-1.6l-0.8,0.3l2.2,2.2H41z M43.7,50.2L42.5,49l-0.8-0.2   l3.3,0.9L43.7,50.2z M39,47.1l2.9-6.8l2.8,0.4c0.7,0.5,1.3,1,1.9,1.5l-5.4,5.4L39,47.1z M42.3,39.4L42.3,39.4L42.3,39.4L42.3,39.4z    M54.9,33.6l-1.1,7.2c0,0.2-0.2,0.3-0.4,0.3L52.9,41l1.2-8l0.6,0.1C54.8,33.2,54.9,33.4,54.9,33.6z M29.8,35.9l0.4-2.5l0.6-3.6   c0-0.2,0.2-0.3,0.4-0.3L53,33l-1.2,8L45,39.9c-2.7-1.8-6-2.9-9.5-2.9c-1.6,0-3.2,0.2-4.7,0.7l-1-0.2c-0.1,0-0.2-0.1-0.2-0.1   c-0.1-0.1-0.1-0.2-0.1-0.3L29.8,35.9L29.8,35.9z M8.7,32.8c-2.3-0.1-4.1,0.6-4.6,0.9c-0.4-0.1-0.7-0.5-0.6-1l1.1-6.9   c0-0.2,0.2-0.4,0.3-0.6C5.1,25.1,5.2,25,5.4,25l0,0c0.4,0.4,1.9,1.6,4.1,2.4L8.7,32.8z M10.7,27.8l-0.8,5v0.1c-0.1,0-0.2,0-0.3,0   l0.8-5.2C10.5,27.7,10.6,27.7,10.7,27.8L10.7,27.8z M11,33.3c-0.1-0.1-0.1-0.2-0.1-0.4l0.8-5c0-0.1,0.1-0.2,0.2-0.3   c0.1-0.1,0.2-0.1,0.3-0.1h0.1l17,2.7c0.1,0,0.2,0.1,0.3,0.2c0.1,0.1,0.1,0.2,0.1,0.4L29,35.1l-0.1,0.7c0,0.1-0.1,0.2-0.2,0.3   s-0.2,0.1-0.4,0.1l-17-2.7C11.1,33.5,11,33.4,11,33.3z M28.1,37.1c0.1,0,0.2,0,0.2,0c0.1,0,0.2,0,0.3,0c0,0.3,0.1,0.6,0.3,0.8   c0.1,0.1,0.2,0.2,0.3,0.3c-1.1,0.5-2.2,1-3.1,1.7l0.7-3L28.1,37.1z M21.7,38l3.5,1.5l-0.3,1.3c-0.9,0.7-1.7,1.6-2.5,2.5l0,0h-1.8   C20.6,41.4,21,39.6,21.7,38z M20.6,44.3h1.1l0,0c-0.3,0.5-0.7,1-1,1.6C20.6,45.3,20.6,44.8,20.6,44.3z M20.7,48.1l2.1,0.9l-0.3-0.1   l-1,0.4c-0.1-0.3-0.2-0.6-0.3-0.9L20.7,48.1c-0.1,0.3-0.2,0.5-0.3,0.8c0.5,1.6,1.3,3.1,2.2,4.5h-3C19.7,51.6,20,49.8,20.7,48.1z    M19.6,54.4h3.8c0.8,1,1.8,2,2.8,2.8l-5.6,2.3C20,57.9,19.7,56.2,19.6,54.4z M21,60.4l6.6-2.7l-0.4,0.2c0.8,0.5,1.6,1,2.5,1.4   L24,64.9C22.7,63.6,21.7,62.1,21,60.4z M24.6,65.6l5.9-5.9c0.6,0.2,1.2,0.4,1.8,0.6l0.4-0.9c-0.5-0.1-1-0.3-1.5-0.4L31,59.3l2-2   l0,0c0.2,0.1,0.4,0.3,0.5,0.4l0,0l-4.6,10.8C27.3,67.8,25.9,66.8,24.6,65.6z M35.1,69.9c-1.9-0.1-3.7-0.4-5.3-1.1l3.8-9l-0.2,0.6   c0.6,0.1,1.2,0.2,1.7,0.2V69.9z M35.1,58.2v1.5c-0.5,0-0.9-0.1-1.4-0.2l0.6-1.5l0,0C34.6,58.1,34.9,58.1,35.1,58.2L35.1,58.2z    M35.6,58.2L35.6,58.2L35.6,58.2L35.6,58.2z M32.3,53.9c0-1.8,1.5-3.3,3.3-3.3s3.3,1.5,3.3,3.3s-1.5,3.3-3.3,3.3   S32.3,55.8,32.3,53.9z M36.1,69.9v-9.2c0.2,0,0.3,0,0.5,0c0.4,0,0.8,0,1.2,0l-0.4-1c-0.1,0-0.2,0-0.4,0v-0.9L36.7,58l4.5,11   C39.6,69.6,37.9,69.9,36.1,69.9z M42.1,68.6l-3.3-8.3l0.1,0.3c0.8-0.1,1.5-0.3,2.3-0.5l-0.8-0.8c-0.6,0.1-1.2,0.3-1.9,0.3l-0.8-2   c0.2-0.1,0.4-0.3,0.6-0.4l8.3,8.3C45.3,66.8,43.7,67.9,42.1,68.6z M47.3,64.9l-5.1-5.1c1-0.4,2-0.8,2.9-1.3l5.1,2.2   C49.4,62.2,48.4,63.7,47.3,64.9z M50.5,59.8L46,57.9c1.4-1,2.7-2.1,3.7-3.4h1.8C51.6,56.3,51.2,58.1,50.5,59.8z M47.9,54.4h0.6   c-0.1,0.1-0.2,0.2-0.3,0.3L47.9,54.4z M50.5,53.5c0.4-0.5,0.7-1,1-1.6c0.1,0.5,0.1,1,0.1,1.6H50.5z M51.4,51.6c0-0.1,0-0.2,0-0.3   l-0.6-0.2c-0.4,0.8-0.9,1.6-1.5,2.3H47l-2.5-2.5l2.1-0.9l4.9,1.3C51.4,51.4,51.4,51.5,51.4,51.6z M51.2,50.3L48,49.4l2.6-1   C50.9,49,51,49.6,51.2,50.3z M46.5,49l-4.2-1.1l5-5c1.2,1.3,2.3,2.8,3,4.5L46.5,49z M91.4,55.8c-0.5,0.4-1.8,0.5-2.5,0.4h-0.2l0,0   L83.9,56L49.2,43.8c-0.5-0.7-1.1-1.4-1.8-2l34.6,13h0.1l4.7-0.4l1.5,0.5h0.1c1-0.1,2.6-0.1,3.1,0.3c0.1,0.1,0.1,0.1,0.1,0.2   C91.5,55.6,91.5,55.7,91.4,55.8z"/></g><text x="0" y="110" fill="#000000" font-size="5px" font-weight="bold" font-family="'Helvetica Neue', Helvetica, Arial-Unicode, Arial, Sans-serif">Created by Mary Campo</text><text x="0" y="115" fill="#000000" font-size="5px" font-weight="bold" font-family="'Helvetica Neue', Helvetica, Arial-Unicode, Arial, Sans-serif">from the Noun Project</text></svg>