<svg xmlns="http://www.w3.org/2000/svg" xmlns:xlink="http://www.w3.org/1999/xlink" version="1.1" x="0px" y="0px" viewBox="0 0 90 112.5" enable-background="new 0 0 90 90" xml:space="preserve">
  <path d="M69.557,12.301c-0.046-0.017-0.089-0.034-0.129-0.048c-0.173-0.065-0.346-0.131-0.52-0.195  c-0.024-0.011-0.047-0.022-0.064-0.033c-1.483-0.494-2.85-0.586-4.102-0.274h-0.016c-2.013,0.401-3.602,1.868-4.768,4.394  c-0.006,0.01-0.012,0.021-0.017,0.032c-0.979,2.064-1.572,4.06-1.783,5.982c-0.208,1.835-0.279,3.376-0.211,4.621  c-0.001,0.017-0.001,0.033,0,0.049c0.008,0.215,0.014,0.448,0.016,0.697c-0.949-0.464-1.96-0.681-3.031-0.648  c-0.744-0.033-1.668,0.211-2.772,0.729c-0.384,0.166-0.735,0.365-1.054,0.601c-1.178-0.722-2.474-1.078-3.892-1.07  c-0.036-0.001-0.074-0.001-0.113,0c-0.336,0.019-0.677,0.062-1.021,0.129c-0.013-0.124-0.023-0.249-0.033-0.372  c-0.006-0.014-0.011-0.03-0.016-0.049c-0.073-0.786-0.09-1.555-0.049-2.303c0-0.036,0-0.068,0-0.097c0-0.087,0-0.173,0-0.26  c-0.002-1.539,0.116-3.057,0.356-4.556v0.032c0.138-0.766,0.241-1.484,0.309-2.157c0.508-4.929-0.718-7.96-3.681-9.096  c-0.047-0.017-0.09-0.033-0.13-0.049c-0.173-0.064-0.346-0.129-0.52-0.194c-0.024-0.011-0.047-0.022-0.064-0.032  c-1.482-0.494-2.851-0.587-4.102-0.275h-0.016c-1.956,0.408-3.577,1.764-4.865,4.069c-0.005,0.011-0.01,0.021-0.016,0.032  c-0.866,1.494-1.505,3.131-1.913,4.913c-0.496,2.018-0.695,4.222-0.601,6.615v0.033c0.022,0.345,0.044,0.691,0.064,1.037  c0.069,1.346,0.194,2.69,0.373,4.037c0.161,1.346,0.389,2.691,0.682,4.038l-0.017-0.033c0.247,1.281,0.55,2.562,0.908,3.843v-0.017  c0.376,1.408,0.69,2.732,0.941,3.973c0.246,1.218,0.43,2.353,0.551,3.404c-2.655-3.9-5.746-6.766-9.274-8.594  c-4.31-2.25-7.871-1.43-10.685,2.465v-0.016c-3.168,4.013-1.87,7.813,3.891,11.398c3.953,2.44,6.656,6.034,8.106,10.782  c1.425,4.695,3.834,8.397,7.231,11.106c-0.442,2.83,0.201,5.473,1.93,7.928c0.011,0.014,0.021,0.03,0.032,0.05  c2.121,3.237,7.73,4.161,16.83,2.771l0.016-0.015c9.303-1.502,13.968-4.907,13.993-10.215v-0.017c0.096-2.468-0.034-4.267-0.389-5.4  c-0.117-0.403-0.253-0.766-0.405-1.086c0.36-0.428,0.718-0.871,1.069-1.329c0.624-0.808,1.306-1.938,2.044-3.389v0.016  c1.728-3.373,2.896-6.486,3.502-9.339l0.016-0.016c0.328-1.604,0.491-3.151,0.486-4.638c0.001-0.441-0.01-0.896-0.032-1.362  c-0.085-3.523-0.241-7.068-0.47-10.636c0.25-3.051,0.396-4.996,0.438-5.838c0-0.036,0-0.067,0-0.097c0-0.086,0-0.173,0-0.26  c-0.002-1.539,0.116-3.057,0.356-4.555v0.031c0.138-0.765,0.24-1.483,0.309-2.156C73.746,16.468,72.52,13.437,69.557,12.301z   M69.379,21.007c-0.062,0.583-0.153,1.204-0.275,1.866v0.031c-0.278,1.701-0.419,3.426-0.422,5.172c0,0.056,0,0.109,0,0.163  c-0.045,0.833-0.196,2.778-0.454,5.836c-0.008,0.098-0.008,0.195,0,0.293c0.237,3.583,0.399,7.145,0.487,10.684  c-0.001,0.015-0.001,0.03,0,0.05c0.02,0.398,0.03,0.788,0.031,1.167c-0.003,1.237-0.144,2.523-0.421,3.858l0.016-0.016  c-0.561,2.553-1.62,5.342-3.178,8.366v0.017c-0.602,1.186-1.153,2.109-1.653,2.772c-0.748,0.965-1.504,1.863-2.27,2.691  c-0.018,0.017-0.034,0.031-0.05,0.049c-1.354,1.351-2.774,2.47-4.264,3.355l0.033-0.031c-0.353,0.199-0.682,0.388-0.99,0.567  c-0.463,0.264-0.766,0.653-0.907,1.167c-0.14,0.517-0.075,1.009,0.194,1.475c0.265,0.471,0.654,0.779,1.167,0.926  c0.521,0.14,1.018,0.074,1.492-0.195c0.297-0.168,0.616-0.347,0.957-0.535c0.007-0.011,0.019-0.021,0.031-0.032  c1.195-0.704,2.353-1.537,3.471-2.497c0.082,0.803,0.099,1.825,0.049,3.064c-0.395,3.295-3.967,5.488-10.718,6.582l0.016-0.015  c-7.037,1.076-11.414,0.659-13.133-1.249c-0.831-1.199-1.264-2.47-1.297-3.811c3.171,0.945,6.322,1.085,9.452,0.422  c0.521-0.111,0.926-0.393,1.216-0.844c0.296-0.449,0.387-0.936,0.276-1.458c-0.111-0.521-0.393-0.926-0.843-1.217  c-0.445-0.294-0.926-0.387-1.443-0.276c-3.088,0.631-6.207,0.296-9.355-1.006c-3.124-2.281-5.319-5.515-6.583-9.694  C28.264,52.99,25,48.671,20.219,45.75c-3.074-1.915-4.004-3.844-2.789-5.789v-0.016c1.51-2.072,3.418-2.504,5.724-1.298  c3.032,1.604,5.691,4.106,7.977,7.507h0.018c1.579,2.344,2.806,3.612,3.681,3.811c1.387,0.521,2.414,0.121,3.08-1.198  c0.295-0.456,0.436-1.24,0.421-2.352v-0.017c-0.018-1.915-0.287-4.175-0.811-6.777c-0.269-1.311-0.603-2.711-1.005-4.199v-0.017  c-0.332-1.183-0.614-2.367-0.843-3.551c-0.006-0.009-0.012-0.02-0.017-0.032c-0.268-1.238-0.473-2.476-0.615-3.713v-0.033  c-0.166-1.243-0.279-2.485-0.342-3.729v-0.017c-0.021-0.334-0.042-0.67-0.064-1.005v-0.033c-0.075-1.998,0.093-3.841,0.503-5.528  v-0.017c0.323-1.404,0.825-2.696,1.508-3.874c0.004-0.013,0.01-0.023,0.016-0.033c0.657-1.178,1.451-1.908,2.384-2.188  c0.603-0.12,1.262-0.061,1.978,0.178l-0.064-0.032c0.13,0.049,0.259,0.098,0.39,0.146c1.232,0.756,1.714,2.48,1.442,5.173  c-0.062,0.581-0.153,1.203-0.274,1.865v0.032c-0.279,1.701-0.42,3.425-0.423,5.172c0,0.055,0,0.108,0,0.162  c-0.045,0.938-0.018,1.9,0.081,2.886l-0.017-0.049c0.093,1.211,0.266,2.442,0.52,3.697c0.008,0.054,0.019,0.107,0.032,0.162  l0.016,0.065c0.374,1.896,0.91,4.221,1.606,6.972c0.133,0.521,0.43,0.921,0.892,1.2c0.458,0.273,0.944,0.344,1.459,0.21  c0.521-0.132,0.921-0.43,1.199-0.892c0.274-0.458,0.345-0.943,0.212-1.459c-0.583-2.321-1.047-4.326-1.396-6.016  c0.205-0.051,0.405-0.084,0.601-0.097c0.962,0.031,1.811,0.398,2.545,1.102c0.011,0.012,0.021,0.023,0.033,0.033  c0.121,0.137,0.229,0.267,0.324,0.389c0.021,0.025,0.043,0.052,0.064,0.082c0.938,1.223,1.791,3.769,2.563,7.636  c0.11,0.525,0.391,0.936,0.843,1.232c0.447,0.299,0.934,0.396,1.459,0.292c0.524-0.111,0.935-0.392,1.232-0.843  c0.299-0.449,0.396-0.936,0.292-1.46c-0.786-3.922-1.688-6.726-2.708-8.415c0.395-0.176,0.724-0.278,0.989-0.309  c1.241,0.073,2.35,0.798,3.323,2.173c0.021,0.034,0.042,0.065,0.065,0.098c0.01,0.017,0.021,0.033,0.032,0.049  c0.775,1.286,1.455,3.82,2.043,7.604c0.084,0.532,0.344,0.96,0.778,1.28c0.439,0.314,0.926,0.428,1.459,0.341  c0.527-0.078,0.949-0.333,1.266-0.763c0.318-0.435,0.438-0.914,0.356-1.442c-0.653-4.195-1.448-7.103-2.383-8.723  c0.018-2.07,0.007-3.649-0.034-4.735c0.001-0.013,0.001-0.029,0-0.048c-0.059-1.081,0.001-2.421,0.179-4.021  c0.178-1.525,0.659-3.109,1.443-4.751l0.017-0.031c0.561-1.218,1.28-1.969,2.156-2.254c0.603-0.121,1.262-0.061,1.978,0.178  l-0.064-0.032c0.13,0.049,0.259,0.098,0.39,0.146C69.168,16.591,69.649,18.314,69.379,21.007z"/>
  <text x="0" y="105" fill="#000000" font-size="5px" font-weight="bold" font-family="'Helvetica Neue', Helvetica, Arial-Unicode, Arial, Sans-serif">Created by Cristiano Zoucas</text>
  <text x="0" y="110" fill="#000000" font-size="5px" font-weight="bold" font-family="'Helvetica Neue', Helvetica, Arial-Unicode, Arial, Sans-serif">from the Noun Project</text>
</svg>
