<svg xmlns="http://www.w3.org/2000/svg" data-name="Layer 1" viewBox="0 0 5 6.25" x="0px" y="0px">
  <g>
    <path class="cls-1" d="M3.71041,3.801c-.02085.00528-.03537-.01148-.05253-.01892-.0131-.00567-.01944-.00433-.02607.01268a.04794.04794,0,0,1-.02215.02674,1.223,1.223,0,0,1-.13532.06162.37986.37986,0,0,0-.08289.03888.07419.07419,0,0,1-.02585.012.25787.25787,0,0,0-.08725.04217.20534.20534,0,0,1-.03584.01758l-.0096-.0045a.023.023,0,0,1-.00045-.01638.04962.04962,0,0,1,.01714-.01582q.06824-.03737.137-.07354c.01185-.00623.02471-.0099.03692-.01534A.71994.71994,0,0,0,3.526,3.81662c.01769-.01155.0375-.019.05607-.029l.00486-.00977-.00576-.00966-.01538-.00766a.02433.02433,0,0,0-.03119.00653.13541.13541,0,0,1-.0891.04832.25919.25919,0,0,0-.07444.02779,1.88439,1.88439,0,0,1-.22419.1018.36538.36538,0,0,0-.05611.02861.02.02,0,0,1-.02574-.006c-.00575-.00628-.00572-.01881.00092-.02131.01948-.00734.039-.01467.05878-.02087a.2705.2705,0,0,0,.07812-.0341.366.366,0,0,1,.0567-.02722c.01723-.00811.03415-.01707.05165-.02437a.82532.82532,0,0,1,.0831-.03649.6793.6793,0,0,0,.0776-.03606c.00849-.00366.01413-.01586.0101-.01931a.027.027,0,0,0-.0139-.00777,1.24115,1.24115,0,0,0-.16329.00061.29058.29058,0,0,0-.06676.00584.20931.20931,0,0,0-.05335.03416c-.04579.03324-.09686.0548-.145.083-.02658.01554-.05463.028-.08071.04447a1.43347,1.43347,0,0,1-.15468.07551.05126.05126,0,0,1-.038.00616L2.762,3.986l.00121-.00583a.316.316,0,0,1,.02955-.01685c.0519-.02426.10378-.04854.15368-.07769.03312-.01933.06669-.03777.09924-.05822a.16275.16275,0,0,1,.04517-.02468.08.08,0,0,0,.02466-.01442c.01432-.01028.0219-.02366.01764-.02908-.00721-.00916-.01691-.00627-.02585-.007a.06545.06545,0,0,0-.02243-.001.38914.38914,0,0,1-.15077-.00547.257.257,0,0,0-.15384.02065.50516.50516,0,0,1-.07919.0328.65744.65744,0,0,0-.14993.07119.15879.15879,0,0,1-.03655.01594c-.00454.00149-.01035-.00189-.01558-.003l.00487-.01561a.42022.42022,0,0,1,.05673-.0408.89109.89109,0,0,1,.12854-.06373A.25728.25728,0,0,0,2.766,3.7248l.018-.01534L2.7739,3.70256c-.08114.03276-.16212.066-.24319.099-.014.0057-.02848.00991-.04253.01547a.60517.60517,0,0,0-.13177.05417c-.05252.01645-.09987.04853-.15318.0627-.01077.00287-.02048.0106-.03122.01384a.0146.0146,0,0,1-.01329-.00722.02271.02271,0,0,1,.00367-.01661.03493.03493,0,0,1,.0135-.01074c.02388-.01218.04765-.02469.072-.03559.0452-.02029.09135-.03764.136-.05991.041-.02049.08437-.03505.12675-.0521A.10032.10032,0,0,0,2.52674,3.76a1.80058,1.80058,0,0,1,.18863-.081.16443.16443,0,0,0,.04882-.03071.02272.02272,0,0,0,.00366-.02285.01869.01869,0,0,0-.01816-.01231.299.299,0,0,0-.04943.0116c-.03772.01281-.07558.02549-.11246.04093-.04394.01842-.08675.04-.13034.05947a.11529.11529,0,0,1-.03765.01114c-.03369.00231-.0675.00268-.10127.00308a.15886.15886,0,0,1-.04487-.00284.12565.12565,0,0,0-.093.01c-.03787.01826-.077.03329-.116.04843-.04074.01583-.08165.03144-.12308.04474-.04521.0145-.08834.03495-.13233.05292a.05678.05678,0,0,1-.02124.00332l-.00484-.00936a.02849.02849,0,0,1,.00843-.01529.20241.20241,0,0,1,.04936-.02933,1.43566,1.43566,0,0,0,.221-.09316c.017-.00844.03519-.01367.05257-.02111l.00335-.01-.00353-.00455a.09307.09307,0,0,0-.02094-.00881.147.147,0,0,0-.08874.00735c-.02977.0127-.06.024-.09018.03553a.87554.87554,0,0,1-.12425.04014.21042.21042,0,0,0-.04291.01509A.872.872,0,0,1,1.5972,3.856l-.04371.01232-.04662.01579.00969-.01845a.15358.15358,0,0,1,.03-.01674c.04583-.01846.09239-.03468.13769-.05452a1.96681,1.96681,0,0,1,.22344-.08577.04.04,0,0,0,.02826-.01835L1.93154,3.6802a.174.174,0,0,0-.1049-.01221.08425.08425,0,0,1-.02234.00284c-.043-.00367-.086-.008-.1289-.01231-.01678-.00171-.03346-.00457-.05028-.006a.07361.07361,0,0,0-.038.00885.69906.69906,0,0,1-.16678.05528.45874.45874,0,0,0-.10254.03268.98391.98391,0,0,1-.16015.05927.04211.04211,0,0,1-.01655.00084l-.00857-.00655c-.00066-.00552-.00028-.01515.00243-.01655a.257.257,0,0,1,.0468-.02016,1.03991,1.03991,0,0,0,.1377-.05323.52228.52228,0,0,1,.07905-.03226L1.413,3.67344c.00344-.00959-.00273-.01108-.00746-.01292a.12111.12111,0,0,0-.099.00268A.33727.33727,0,0,1,1.209,3.692a.56668.56668,0,0,0-.093.025c-.04874.01547-.097.03261-.14566.04855a.217.217,0,0,0-.06725.03107.02693.02693,0,0,1-.01622.00322L.87743,3.79448.87733,3.783l.00607-.01023a.28324.28324,0,0,1,.06078-.03224c.06663-.0214.13244-.04573.1976-.0723.02986-.01219.06094-.02068.09144-.031.00515-.00172.00945-.01218.00639-.01509l-.009-.00673a.048.048,0,0,0-.01673-.00138.102.102,0,0,0-.022.00457.82092.82092,0,0,1-.14852.03554.22886.22886,0,0,0-.04871.01518,1.23341,1.23341,0,0,1-.11953.03638c-.04737.01285-.09389.02948-.14106.04332-.04534.01333-.091.02539-.13665.03734A.02459.02459,0,0,1,.5816,3.783L.57872,3.77273a.03025.03025,0,0,1,.02167-.01812.89717.89717,0,0,0,.09807-.02777c.069-.0279.14046-.04632.20981-.07261a.168.168,0,0,1,.02717-.00815.11953.11953,0,0,0,.0277-.00322c.04148-.01987.08631-.02805.1279-.04721l.00357-.01a.06487.06487,0,0,0-.06176-.02.36192.36192,0,0,0-.05732.026.25487.25487,0,0,1-.15466.0187.07168.07168,0,0,1-.0443-.02545.04675.04675,0,0,0-.04185-.0134c-.02989.003-.06.00346-.08978.00763C.62084,3.58252.59722,3.59.5733,3.595l-.00942-.0038L.56807,3.575a.06577.06577,0,0,1,.024-.01566.62672.62672,0,0,1,.07649-.01957.20326.20326,0,0,0,.06429-.02152c.0076-.00419.00838-.01337.00795-.02191S.73268,3.479.72642,3.48a.19274.19274,0,0,0-.033.00657A.2343.2343,0,0,1,.616,3.5011.133.133,0,0,0,.5827,3.506a.64968.64968,0,0,0-.16228.05028A.04186.04186,0,0,1,.404,3.56049L.394,3.55723.39469,3.5467a.04039.04039,0,0,1,.0111-.014A.18913.18913,0,0,1,.499,3.49316a.13022.13022,0,0,0,.0484-.01469.15492.15492,0,0,1,.05971-.01622.33308.33308,0,0,0,.10806-.03354L.72286,3.42l.00171-.0116L.7169,3.40108A.74091.74091,0,0,0,.617,3.41842a1.34826,1.34826,0,0,1-.14973.02877.61644.61644,0,0,0-.06674.01022.06149.06149,0,0,1-.01926-.002A.22406.22406,0,0,1,.484,3.41393c.07021-.01409.13939-.03281.20834-.05282l.01051-.00432a.02574.02574,0,0,0,.01119-.0264C.71094,3.31834.70634,3.30668.70372,3.2945a.14114.14114,0,0,1-.00314-.03086.04056.04056,0,0,1,.02018-.03546c.00816-.005.01756-.00726.02612-.01148C.76058,3.21.77438,3.20325.7876,3.1954a.07982.07982,0,0,0,.0393-.0711.0674.0674,0,0,0-.013-.04661C.79774,3.05729.78205,3.03633.765,3.01686a.09182.09182,0,0,0-.07064-.03364C.68326,2.98315.67215,2.98154.6646,2.98095a.064.064,0,0,1-.02515-.03779,1.11576,1.11576,0,0,1-.04889-.17354.09851.09851,0,0,1-.00344-.02474.359.359,0,0,0-.02676-.14026A.50112.50112,0,0,1,.53394,2.496C.53113,2.465.52257,2.4346.51693,2.40382A.02281.02281,0,0,1,.529,2.37833.08658.08658,0,0,1,.5936,2.36338a.1612.1612,0,0,0,.05052.00241.45423.45423,0,0,1,.09543.00712.17313.17313,0,0,0,.04461.00173c.04666-.005.09307-.01391.13982-.01676a.52884.52884,0,0,0,.1111-.01941A.31514.31514,0,0,1,1.169,2.32721a.353.353,0,0,0,.045.00194.32893.32893,0,0,1,.09479.01332.3484.3484,0,0,0,.12279.01374.36175.36175,0,0,0,.11694-.0154.10212.10212,0,0,1,.06669-.00211.08075.08075,0,0,0,.03333.00073c.00343-.00048.00783-.00846.00852-.01355a.033.033,0,0,0-.00362-.018.081.081,0,0,1,.00566-.08318.28392.28392,0,0,1,.099-.10039.1738.1738,0,0,1,.12119-.01678.28208.28208,0,0,1,.17566.10374.09672.09672,0,0,0,.01965.02239.0838.0838,0,0,1,.03411.06688.2886.2886,0,0,0,.1017-.001c.03882-.00768.07743-.0167.11627-.02421.02213-.00428.04451-.00707.06683-.00984.06538-.0081.13116-.00849.19667-.01344a.526.526,0,0,0,.1165-.0218c.03614-.01124.07307-.01935.10926-.03033.03256-.00986.065-.02048.09679-.0331.0442-.01755.08787-.03682.13146-.05624a.18222.18222,0,0,1,.08237-.01747.33769.33769,0,0,0,.14407-.02266.06734.06734,0,0,1,.055-.00181L3.332,2.0776l-.002.01165a.03271.03271,0,0,1-.01311.0114.45441.45441,0,0,1-.07014.02272.9707.9707,0,0,1-.11747.01451.24934.24934,0,0,0-.06651.01169,1.005,1.005,0,0,0-.10093.03878,1.03781,1.03781,0,0,1-.12341.043c-.04866.01565-.09782.02938-.14629.04561a.17878.17878,0,0,1-.06625.01218.304.304,0,0,0-.09474.01287.37769.37769,0,0,1-.06117.00952c-.02993.00292-.05995.00494-.09.00634a.556.556,0,0,0-.09486.01338,1.25137,1.25137,0,0,1-.18477.02146.03874.03874,0,0,1-.032-.00943A.0543.0543,0,0,0,2.01,2.33341a.11255.11255,0,0,0-.04509.02471.04561.04561,0,0,1-.021.00649c-.007.00128-.01407-.00965-.012-.0169a.0599.0599,0,0,1,.0395-.04147.12486.12486,0,0,1,.06085-.01L2.04071,2.29c.00235-.00292-.005-.01074-.011-.01093a.15933.15933,0,0,0-.03916.00011.32473.32473,0,0,0-.10121.03752c-.00988.006-.01947.01278-.02961.01818a.05468.05468,0,0,1-.03839.006l-.008-.0069.00215-.01145a.17359.17359,0,0,1,.06021-.04522.26366.26366,0,0,0,.03533-.01919l.00479-.01c-.00344-.00378-.00808-.00852-.01237-.00861a.09378.09378,0,0,0-.0537.01641c-.01942.01262-.03819.0265-.05754.03924a.2291.2291,0,0,1-.0301.01655l-.00956-.00405-.00236-.0109a.06546.06546,0,0,1,.01335-.01974c.01905-.017.03828-.034.05859-.04908a.15075.15075,0,0,1,.03588-.01744c.02119-.00824.0427-.01536.064-.0232l.00313-.007c-.01584-.00654-.03122-.01408-.04722-.0192a.11209.11209,0,0,0-.07719.00386.23663.23663,0,0,0-.082.053l-.01192.01325a.07373.07373,0,0,0-.00578.09142c.0049.00891.01009.01766.01421.027a.02906.02906,0,0,1-.01912.03831.16471.16471,0,0,1-.08371-.00223.0991.0991,0,0,0-.06664-.00283.2906.2906,0,0,1-.11132.01154c-.01092-.00137-.0224.00371-.03355.00338a.1507.1507,0,0,1-.04433-.00562.55266.55266,0,0,0-.11581-.02546c-.02986-.00355-.05945-.00966-.08929-.01329a.19151.19151,0,0,0-.0779.00724C1.0374,2.37124,1,2.376.96377,2.38753a.1506.1506,0,0,1-.04486.00155A.46384.46384,0,0,0,.80678,2.399.1462.1462,0,0,1,.7342,2.39883a.17579.17579,0,0,0-.08928-.00124.3513.3513,0,0,1-.05607.00527.02474.02474,0,0,0-.02539.0269.25783.25783,0,0,0,.0142.10476,1.24451,1.24451,0,0,1,.06129.2673.3229.3229,0,0,0,.033.106.04914.04914,0,0,0,.03029.026c.01269.00389.02534.008.03819.01108a.1093.1093,0,0,1,.05284.03457c.02029.02171.03823.04611.05736.06919A.093.093,0,0,1,.87113,3.141L.8659,3.16551a.07131.07131,0,0,1-.02878.04491.13446.13446,0,0,1-.06569.034L.76068,3.248a.02466.02466,0,0,0-.015.02949.11038.11038,0,0,0,.02626.0546.17969.17969,0,0,1,.01461.01855.08723.08723,0,0,1-.0063.01855.04873.04873,0,0,0-.00493.04771.175.175,0,0,1,.0125.07948.09049.09049,0,0,0,.02136.0567.0503.0503,0,0,0,.039.02193.25986.25986,0,0,0,.11607-.02011l.047-.02121a.10431.10431,0,0,1,.06645-.00693c.0551.01289.11025.0256.16512.03961.04567.01165.09131.02377.13632.03819a.2231.2231,0,0,0,.07218.011c.05448-.00073.10894-.00117.16341-.00233a.24734.24734,0,0,1,.06709.00708.26375.26375,0,0,0,.09521.00544.45111.45111,0,0,1,.07876-.00116,1.40833,1.40833,0,0,1,.30589.05115,1.2773,1.2773,0,0,0,.1562.02338.09652.09652,0,0,0,.02807-.00182c.03868-.0053.0515-.012.03711-.06016L2.38182,3.631c-.01372-.07638-.001-.08673.05233-.12125a.13856.13856,0,0,1,.09662-.02766.11535.11535,0,0,1,.08771.01074.23737.23737,0,0,1,.11508.0465l.01583.00658a.16663.16663,0,0,1,.09285.09489l.00713.0171a.05605.05605,0,0,0,.03981.032c.03142.006.063.01085.09453.016a.20868.20868,0,0,0,.06161.00063c.02968-.004.05987-.00293.0898-.0047a.51023.51023,0,0,1,.14-.00655.68146.68146,0,0,1,.135-.00132.15356.15356,0,0,0,.03929,0,.216.216,0,0,1,.10057.00536.53694.53694,0,0,1,.12931.04258.09057.09057,0,0,1,.03729.0363L3.70911,3.802ZM2.67767,3.5785l-.00481-.01025a.03828.03828,0,0,0-.04259-.00213.12454.12454,0,0,1-.035.01849.47121.47121,0,0,0-.10588.04.2531.2531,0,0,0-.03014.01653.01858.01858,0,0,0-.0087.02066.01739.01739,0,0,0,.02281.01167.15652.15652,0,0,0,.03187-.01159.70656.70656,0,0,1,.15057-.0661.07328.07328,0,0,0,.019-.01211Zm-.11608-.04109-.00693-.00824a.22156.22156,0,0,0-.09719.024.11264.11264,0,0,0-.02151.01967l-.00311.005-.00125.01155a.04257.04257,0,0,0,.01267.00984l.00547-.00034c.036-.01679.072-.03357.10776-.05093Z"/>
    <path class="cls-1" d="M4.22584,3.25926a.08413.08413,0,0,1-.0361.02821c-.039.02052-.07824.04064-.11747.06071a1.06416,1.06416,0,0,0-.1016.05239.81174.81174,0,0,1-.1085.05125l-.01566.007a.03781.03781,0,0,0-.01714.042c.00358.01963.01932.029.0335.01931.01117-.00764.02172-.01642.03264-.02458.047-.03509.10054-.05589.14969-.08625l.01036-.00458c.02743.00334.04936-.01536.074-.02291.02341-.00716.046-.01778.06912-.02625l.0082.005-.002.00533-.01967.01207c-.04493.021-.09051.04038-.13479.063-.034.01735-.06677.0379-.09941.05838-.02776.01743-.05464.03663-.0817.05539a.09983.09983,0,0,0-.01755.01537l-.00237.01109a.03319.03319,0,0,0,.01116.01225l.01062-.00041a.89.89,0,0,1,.07893-.047.07711.07711,0,0,1,.01992-.01159c.02159-.00651.04394-.01019.06515-.01793.01944-.00711.03764-.01831.05667-.027l.01006.003.00315.01026a.06332.06332,0,0,1-.01756.01489c-.02231.01092-.04467.022-.06775.03067a.48643.48643,0,0,0-.11429.06694l-.045.03225a.20636.20636,0,0,0-.00236.09587.06261.06261,0,0,1-.0132.05218l-.01164.01363c-.01645.02342-.03552.02949-.05887.01245l-.01371-.004-.03829.01945-.08033.04307a.10518.10518,0,0,0-.0155.00736.52221.52221,0,0,1-.11305.05383.21284.21284,0,0,1-.08681.02346l.00073.00083c.00725-.00631.01366-.0154.02187-.01844a1.32576,1.32576,0,0,1,.14182-.06883A.0916.0916,0,0,0,3.61492,3.863l.0955-.062-.0013.001a.12035.12035,0,0,1,.02244-.00177.08165.08165,0,0,0,.07614-.03406.37748.37748,0,0,0,.004-.1295,1.03021,1.03021,0,0,0-.0164-.11161.29823.29823,0,0,1-.00591-.0749c.00059-.03975-.002-.07955-.003-.11934-.00162-.06077.00023-.122-.00553-.18224-.00658-.069-.00252-.13818-.00809-.207a.11244.11244,0,0,1,.00017-.02508.58784.58784,0,0,0-.01856-.22377.7599.7599,0,0,1-.01819-.10477,1.5538,1.5538,0,0,0-.04935-.25154A.26678.26678,0,0,1,3.6762,2.2685a.40716.40716,0,0,0-.01766-.12359A.31889.31889,0,0,1,3.65177,2.108a.01985.01985,0,0,0-.01993-.018l-.01116.00053a.154.154,0,0,1-.08335.007.22241.22241,0,0,0-.07256.00762.0494.0494,0,0,1-.02195-.00185l-.00731-.00865.00169-.011a.06842.06842,0,0,1,.01829-.01422.157.157,0,0,1,.1046-.01467.08461.08461,0,0,0,.04447-.00064c.02232-.00662.02627-.01358.02106-.04067a.248.248,0,0,1-.00686-.04313.30263.30263,0,0,0-.078-.19631.67256.67256,0,0,1-.06422-.08727.53122.53122,0,0,0-.06976-.09031c-.02041-.02171-.04207-.04217-.06083-.0655a.73033.73033,0,0,0-.12619-.11529c-.02765-.02156-.05635-.04147-.08483-.06166a.403.403,0,0,0-.03429-.02153c-.02507-.01425-.05-.029-.07566-.04173-.04116-.02033-.08291-.03925-.12449-.05856L2.86363,1.2164A.501.501,0,0,0,2.723,1.17318a.35524.35524,0,0,1-.10249-.03293.45218.45218,0,0,0-.11924-.03587.91464.91464,0,0,1-.14314-.03372.64809.64809,0,0,0-.12791-.02474.56977.56977,0,0,1-.12286.09716c-.03934.02836-.08206.04975-.12121.07844-.03755.0275-.07676.0523-.11555.0777a.06043.06043,0,0,0-.01929.022.29534.29534,0,0,1-.10822.107.37155.37155,0,0,0-.09642.07432.0905.0905,0,0,1-.02754.02149.49364.49364,0,0,0-.06722.04549.15652.15652,0,0,0-.04214.04056.13661.13661,0,0,1-.03426.032c-.03283.02432-.06648.04726-.09945.07133a.2042.2042,0,0,0-.04519.037.42111.42111,0,0,1-.10307.0859.58266.58266,0,0,0-.06919.0536,1.43994,1.43994,0,0,1-.1392.10678,2.234,2.234,0,0,1-.21172.13062.42786.42786,0,0,0-.09853.08262.26439.26439,0,0,0-.01975.02235.30372.30372,0,0,1-.11579.08684.13075.13075,0,0,1-.03817.0081C.53116,2.328.527,2.31778.52866,2.3127A.12038.12038,0,0,1,.568,2.26044c.01466-.01307.03044-.02459.04479-.038C.63869,2.19816.664,2.17311.6893,2.14817a.646.646,0,0,1,.15834-.10731.80753.80753,0,0,0,.07967-.04616c.04651-.03158.09443-.06055.14138-.09135A.40723.40723,0,0,0,1.123,1.85907a.42332.42332,0,0,1,.07-.05218.43829.43829,0,0,0,.08349-.06372A.66756.66756,0,0,1,1.38957,1.661a.6105.6105,0,0,0,.09175-.07246.63972.63972,0,0,1,.0778-.0619.48618.48618,0,0,0,.09031-.07446.30933.30933,0,0,1,.0594-.04714.39463.39463,0,0,0,.071-.06145A.95727.95727,0,0,1,1.863,1.25894a.90093.90093,0,0,1,.09433-.06827c.03878-.02549.07936-.0476.11789-.07354.024-.01613.04564-.03661.06835-.05514L2.198,1.01756a.04918.04918,0,0,1,.04281-.01033c.02954.00608.05913.0119.08852.01874.04777.01112.095.02545.14313.03391a.84842.84842,0,0,1,.20166.05548.43569.43569,0,0,0,.0933.02352.781.781,0,0,1,.23757.095.315.315,0,0,0,.0611.03158.69228.69228,0,0,1,.09661.05072l.01413.01032c.03963.03536.08145.06726.12357.09874l.00884.00777q.0545.05914.10883.11849a.22583.22583,0,0,0,.01909.02292.25884.25884,0,0,1,.05829.076.31237.31237,0,0,0,.06613.08477.21366.21366,0,0,1,.06346.10176.10453.10453,0,0,0,.01177.02813.07769.07769,0,0,1,.0141.04662.16576.16576,0,0,0,.01158.06105.04911.04911,0,0,1,.00517.02414c-.00715.03311.01153.05991.01636.09.009.05563.02228.11031.02638.167a.45719.45719,0,0,0,.01089.06166c.01655.0775.03413.15475.05.23243.00665.03264.00986.06615.01479.09923.00555.03721.01083.0745.017.11159a.28446.28446,0,0,1,.00376.106c.00638.04143-.00622.08234-.00024.12478.0055.03893.00513.07923.0122.1184a.13439.13439,0,0,1,.00389.02474,1.12468,1.12468,0,0,0,.00626.1443.12778.12778,0,0,1-.00487.03064c-.00267.01854.01228.03225.02831.02462.02929-.014.05755-.03075.08714-.0438.035-.01546.06572-.03986.10062-.056.0591-.02742.12053-.04706.18018-.07241.072-.0306.146-.05373.22-.077l-.00094-.001a.048.048,0,0,1-.02732.02066c-.05419.0232-.10859.04572-.16275.069-.07684.033-.153.06777-.22813.10529l-.00506.00274a.9371.9371,0,0,1-.1706.09519.02008.02008,0,0,0-.00718.015c-.00026.01106.00918.02224.01692.02112a.07915.07915,0,0,0,.027-.00672.50444.50444,0,0,1,.09491-.03678.0605.0605,0,0,0,.02526-.012A.15074.15074,0,0,1,4.05739,3.325a1.05978,1.05978,0,0,0,.10446-.04535.17621.17621,0,0,1,.0648-.01945Z"/>
    <path class="cls-1" d="M2.15195,2.99594a.03688.03688,0,0,0-.03142.0103l-.01512.01852c-.00814.00894-.01837.0101-.02476.00346a.02833.02833,0,0,1-.00547-.02868.09023.09023,0,0,1,.029-.04519L2.115,2.94073l-.00079-.0052L2.10981,2.932a.09149.09149,0,0,0-.09084.089c0,.00824.00252.01648.00248.02472l-.00636.00866-.01034-.00132A.07571.07571,0,0,1,1.988,3.02882a.09769.09769,0,0,1,.01-.08375.15255.15255,0,0,1,.09159-.06789.06952.06952,0,0,1,.04438.00171.26961.26961,0,0,0,.03693.0151.23058.23058,0,0,1,.1127.06471.26113.26113,0,0,1,.072.10936.1621.1621,0,0,1-.02332.1478.19888.19888,0,0,1-.11833.07888.07615.07615,0,0,1-.04962-.00384c-.01924-.00784-.03979-.01151-.05938-.01842a.17337.17337,0,0,1-.09759-.07975A.10293.10293,0,0,1,2,3.10835a.04218.04218,0,0,1,.01052-.01394.00936.00936,0,0,1,.01451.00276.17621.17621,0,0,1,.00572.0237c.00168.01239.00106.02529.00357.0374a.07731.07731,0,0,0,.03982.05728.1482.1482,0,0,0,.06256.02617.0493.0493,0,0,1,.0299.01555.02874.02874,0,0,0,.02035.00768.13823.13823,0,0,0,.08917-.04834.02793.02793,0,0,0,.00744-.02836.03121.03121,0,0,1,.01288-.04218l.00783-.00878a.0162.0162,0,0,0-.0049-.02128A.04409.04409,0,0,0,2.256,3.11479c-.00857.0041-.01623.01045-.02461.01511l-.0356.01856c-.00523.00268-.01379-.00073-.01359-.00549l.00207-.01162a.11479.11479,0,0,1,.02036-.0213c.02789-.02033.0563-.03976.08518-.06a.03857.03857,0,0,0-.03716-.03238.08634.08634,0,0,0-.07441.037l-.01707.025c-.00349.00477-.00721.011-.01193.01264a.03312.03312,0,0,1-.02125.00087.01855.01855,0,0,1-.00989-.0204.14334.14334,0,0,1,.00795-.02956c.00645-.01725.023-.028.0251-.04825l.00953-.00142.00152-.00359C2.15613,2.98611,2.15455,2.99212,2.15195,2.99594Z"/>
    <path class="cls-1" d="M3.42977,2.62549a.01642.01642,0,0,0-.01762-.01243.37808.37808,0,0,0-.05579.007.05634.05634,0,0,0-.02409.01471c-.02008.0187-.03907.03885-.05916.05749a.01892.01892,0,0,1-.0155.00227c-.00578-.00134-.00941-.01458-.00716-.02155a.143.143,0,0,1,.05016-.06586c.012-.00993.02475-.0187.03665-.02878l.00218-.011a.02526.02526,0,0,0-.012-.011.02153.02153,0,0,0-.0163.00178.14439.14439,0,0,0-.07536.07991l-.00675.0094a.01774.01774,0,0,1-.01466-.00284A.02527.02527,0,0,1,3.21,2.62762a.07021.07021,0,0,1,.0197-.044c.0138-.01416.0292-.02656.04206-.0417a.08528.08528,0,0,1,.08372-.02337.03567.03567,0,0,1,.01949.01131c.00951.00988.01756.02152.02772.03436a.10607.10607,0,0,1,.064.01055.06423.06423,0,0,1,.0371.05761A.34981.34981,0,0,1,3.496,2.738a.17907.17907,0,0,1-.12294.13346.399.399,0,0,1-.08323.01458.09737.09737,0,0,1-.07379-.02491c-.01932-.01655-.03767-.03455-.05692-.05121a.13674.13674,0,0,1-.04083-.06618.16138.16138,0,0,1-.00095-.1381l.007-.0239a.19574.19574,0,0,1,.165-.13872.05065.05065,0,0,1,.04118.01627c.01049.0117.01549.02589.00946.0324a.02284.02284,0,0,1-.02592.00556.115.115,0,0,0-.13614.0604.217.217,0,0,0-.02953.06713.187.187,0,0,0,.01568.12738.05626.05626,0,0,0,.01008.0149l.01337.01146c.078.077.09315.08027.20392.04717a.061.061,0,0,0,.02858-.01844.1281.1281,0,0,0,.04027-.08677.02551.02551,0,0,0-.01476-.024.06483.06483,0,0,0-.05984.00521c-.01148.00693-.02238.01508-.034.0217L3.34188,2.7202l-.00419-.01064a.04248.04248,0,0,1,.00628-.0171.13069.13069,0,0,1,.06211-.05176A.03749.03749,0,0,0,3.42977,2.62549Z"/>
    <path class="cls-1" d="M2.64336,1.55315a.07821.07821,0,0,0-.07984-.01741.61518.61518,0,0,1-.09367.01608.01739.01739,0,0,1-.01343-.00754A.01181.01181,0,0,1,2.46048,1.528a.18235.18235,0,0,1,.08962-.03173.17653.17653,0,0,0,.02807-.00093.13768.13768,0,0,1,.12579.05552.16384.16384,0,0,0,.01538.01815c.00715.00614.015.01261.02516.00774.00626-.003.00587-.01721,0-.0286A.12536.12536,0,0,0,2.7,1.50146c-.02087-.01391-.04116-.02894-.06131-.04411l-.0013-.01118.00774-.00779.00549-.001a.05664.05664,0,0,1,.01671.00188.31658.31658,0,0,1,.06287.0268.15414.15414,0,0,1,.07039.1148.048.048,0,0,1-.00794.0289A.11628.11628,0,0,1,2.7439,1.651a.57547.57547,0,0,1-.07371.03075.28215.28215,0,0,1-.07749.01236.533.533,0,0,1-.09479-.01031c-.02388-.00432-.047-.014-.07065-.02011a.14127.14127,0,0,1-.07952-.05586.09456.09456,0,0,1,.00615-.12391.228.228,0,0,1,.1325-.06234.05718.05718,0,0,1,.04765.01453.02566.02566,0,0,1,.00442.01648l-.0088.00621a.25293.25293,0,0,0-.09347.01785.1041.1041,0,0,0-.05306.04424.064.064,0,0,0,.00973.07457.09842.09842,0,0,0,.03408.02066c.02678.00933.05419.0164.08146.0239a.11008.11008,0,0,0,.02227.00305c.02052.00131.04105.00289.06158.00309a.18778.18778,0,0,0,.08287-.01044.07715.07715,0,0,0,.01895-.01326l.00253-.01053-.00817-.00723a.20506.20506,0,0,0-.039-.00479c-.03366.0006-.0673.00271-.101.00412l-.01118-.00062a.01831.01831,0,0,1-.01243-.01815c.00164-.00545.00513-.01366.00878-.01437a.28694.28694,0,0,1,.05557-.00668A.12281.12281,0,0,0,2.64336,1.55315Z"/>
    <path class="cls-1" d="M1.16034,2.63182a.07313.07313,0,0,0-.06181.03682c-.00582.00814-.01034.01743-.01632.02536l-.00978.00246-.006-.009a.08754.08754,0,0,1,.04589-.07974c.02436-.01058.04827-.02225.07353-.03088a.13373.13373,0,0,1,.10927.01055c.02378.01221.04676.0264.0691.03916a.03993.03993,0,0,1,.00806.03014.12038.12038,0,0,0,.01482.0534.144.144,0,0,1,.00241.10961.0736.0736,0,0,1-.03175.04257l-.00489.0031a.17778.17778,0,0,1-.14259.04261.12323.12323,0,0,1-.09241-.03883.1671.1671,0,0,1-.04393-.07181.02165.02165,0,0,1,.00538-.02271.016.016,0,0,1,.02073-.00286.05321.05321,0,0,1,.01737.015c.00875.01347.01526.02876.02383.04238a.08374.08374,0,0,0,.07262.04073.34214.34214,0,0,0,.06158-.00554.07751.07751,0,0,0,.02572-.01184A.028.028,0,0,0,1.31658,2.828a.03253.03253,0,0,1,.03082-.03657l.00469-.003a.05312.05312,0,0,0,.006-.01643.01792.01792,0,0,0-.01413-.0166.04657.04657,0,0,0-.03278.00543L1.277,2.78253l-.02092.00911c-.00712.00279-.02038-.0006-.02019-.00544a.06211.06211,0,0,1,.00474-.02341A.0763.0763,0,0,1,1.2553,2.744a.17945.17945,0,0,1,.06858-.04883c.00414-.01224-.00241-.01413-.00754-.014a.22349.22349,0,0,0-.03341.00348.06347.06347,0,0,0-.04225.02859c-.01027.01488-.02052.02988-.03163.044a.01778.01778,0,0,1-.02071.00526.025.025,0,0,1-.01458-.02431.08333.08333,0,0,1,.00615-.02374.18961.18961,0,0,1,.08659-.09109.11189.11189,0,0,0-.08911.04129.01616.01616,0,0,1-.01435.00612c-.00845-.00334-.00731-.01288-.00615-.02125l.00254-.01858Z"/>
    <path class="cls-1" d="M3.08888,3.159a.31806.31806,0,0,1-.04152.01863.15.15,0,0,1-.03845.00376L3.00212,3.173l.00162-.01147c.01017-.009.02132-.01665.03166-.02543A.26166.26166,0,0,0,3.06092,3.112a.01956.01956,0,0,0-.01-.02953.02585.02585,0,0,0-.02678.00341c-.01484.01271-.02865.02693-.04341.03977a.04893.04893,0,0,1-.01949.01116A.01641.01641,0,0,1,2.94656,3.131a.01981.01981,0,0,1-.00078-.0171c.01274-.015.02671-.0288.04053-.04265.01074-.01077.02672-.01469.03328-.03059a.01569.01569,0,0,0-.01874-.01125.16216.16216,0,0,0-.09918.0859c-.00673.01247-.01112.0265-.01679.03971-.00389.009-.01121.01306-.01773.01035a.02473.02473,0,0,1-.01491-.02952.283.283,0,0,1,.06334-.10944.151.151,0,0,1,.05836-.03607.0606.0606,0,0,1,.04936.0021c.03388.01783.06753.03628.10062.05587a.10648.10648,0,0,1,.04242.064c.005.01576.00888.032.01444.04747a.0692.0692,0,0,1-.00894.065.26707.26707,0,0,1-.04337.04876.08183.08183,0,0,1-.05675.02382c-.01121-.00038-.02247.00138-.0337.00119a.04589.04589,0,0,1-.03622-.01393.16633.16633,0,0,0-.04231-.03A.35491.35491,0,0,1,2.90931,3.215.01954.01954,0,0,1,2.908,3.19841a.0191.0191,0,0,1,.01311-.00926.02613.02613,0,0,1,.01574.00476c.02935.01813.05835.03695.08772.055a.03363.03363,0,0,0,.01587.00444.31944.31944,0,0,0,.03911-.00029A.04733.04733,0,0,0,3.10105,3.247a.13524.13524,0,0,0,.04527-.04586.02706.02706,0,0,0-.0017-.02921l.0006.001-.01254-.014L3.13412,3.16c-.01557-.01453-.03112-.01889-.04667,0Z"/>
    <path class="cls-1" d="M2.0491,1.51762a.06968.06968,0,0,0-.02658-.05329.04752.04752,0,0,0-.05331-.0063c-.02043.01047-.04068.02139-.06128.0314l-.00924-.00408-.00006-.01148a.27643.27643,0,0,1,.03164-.04377.07327.07327,0,0,1,.08347-.02028.09189.09189,0,0,1,.05518.05012.39581.39581,0,0,0,.02762.04717.08607.08607,0,0,1,.00715.07774.11211.11211,0,0,1-.04388.06325c-.01321.00779-.025.01854-.03814.02657a.14186.14186,0,0,1-.08663.02044.29726.29726,0,0,1-.10421-.02383l-.02029-.01075a.04282.04282,0,0,1-.02007-.03577.34573.34573,0,0,1,.003-.04356c.00056-.00593.00929-.01357.01181-.011l.007.00883.00144.006a.053.053,0,0,0,.04424.05607.271.271,0,0,0,.13387.00366l.00492-.00273.00554-.00995-.007-.007c-.02055.00063-.0411.00295-.06164.00291a.04309.04309,0,0,1-.01991-.00868c-.00455-.00281-.00342-.01455.00113-.01584a.27512.27512,0,0,1,.05451-.014.06613.06613,0,0,0,.05237-.03161Z"/>
    <path class="cls-1" d="M2.66425,2.51451l.04146.0754a.09074.09074,0,0,1,.00665.07237c-.02068.06749-.01558.064-.07379.092l-.01012.00541a.04245.04245,0,0,1-.04808-.00338.1338.1338,0,0,1-.02122-.02007l-.00374-.011a.02381.02381,0,0,1,.01088-.01257.16208.16208,0,0,1,.03316-.00594c.01105-.001.02436.00212.03056-.01.00407-.008.00038-.02053.00337-.02973a.3406.3406,0,0,1,.01788-.039c-.01382-.0107-.02354.00862-.03561.00621a.02013.02013,0,0,1-.01333-.00863.02456.02456,0,0,1,.00061-.01729A.0462.0462,0,0,1,2.61446,2.595l.013-.01177a.01164.01164,0,0,0,.00126-.0163l-.01418-.00716A.20744.20744,0,0,0,2.59,2.57353l-.02117.00769a.01366.01366,0,0,1-.01606-.01228c-.00043-.00616.00075-.01247.00006-.01855-.00093-.008-.01091-.015-.01686-.0119a.13259.13259,0,0,0-.07859.08277l-.008.01058C2.446,2.62707,2.44078,2.623,2.43984,2.618a.09537.09537,0,0,1,.02838-.08412.12324.12324,0,0,1,.10583-.046A.16888.16888,0,0,1,2.66425,2.51451Z"/>
    <path class="cls-1" d="M3.53917,3.44719c-.01407.00675-.024.01231-.03446.01624a.026.026,0,0,1-.01636.00051.02757.02757,0,0,1-.0125-.01048l.00293-.01071c.01151-.01066.0236-.02058.03556-.03062l.01381-.01071A.0109.0109,0,0,0,3.526,3.38578a.02841.02841,0,0,0-.03688-.00235c-.01365.01089-.02554.02453-.03909.03558a.01956.01956,0,0,1-.01583.00039.01922.01922,0,0,1-.00688-.02167c.00618-.01034.01366-.01972.01974-.0301L3.44581,3.357,3.436,3.35717a.10378.10378,0,0,0-.03575.0812.103.103,0,0,1-.00188.02462.016.016,0,0,1-.01279.00862.01666.01666,0,0,1-.01272-.009.12933.12933,0,0,1-.00076-.06805c.01358-.07606.03384-.08713.1016-.087a.15868.15868,0,0,1,.1077.073.21183.21183,0,0,1,.01759.1335.04255.04255,0,0,1-.03575.03584c-.03337.00487-.067.00787-.10047.011a.04775.04775,0,0,1-.01649-.00353.02529.02529,0,0,1-.017-.02834.023.023,0,0,1,.02037-.01844.07076.07076,0,0,1,.02788.00179.21868.21868,0,0,0,.0722.00585c.01061.00105.01614-.01032.01138-.02127Z"/>
    <path class="cls-1" d="M1.64975,3.27684c-.01113.00972-.00277.01956-.00159.02883A.039.039,0,0,1,1.636,3.339a.01577.01577,0,0,1-.0207.00253c-.01124-.011-.02247-.02209-.03287-.03406-.009-.01028-.00548-.02334-.00455-.03583l-.00626-.0082L1.561,3.26453a.07951.07951,0,0,0-.02637.0774l.00334.01184a.01383.01383,0,0,1-.0143.01473.03568.03568,0,0,1-.0299-.04369L1.50094,3.301a.11713.11713,0,0,1,.08178-.08648.03359.03359,0,0,1,.022-.00269.15759.15759,0,0,1,.08442.04623c.012.01608.02621.03013.03788.04647a.0475.0475,0,0,1,.00595.04759.175.175,0,0,1-.07586.08917.02365.02365,0,0,1-.02928-.01172.02252.02252,0,0,1,.00469-.02778c.01352-.007.0278-.01245.04085-.02039a.04945.04945,0,0,0,.01178-.06586A.11664.11664,0,0,0,1.64975,3.27684Z"/>
    <path class="cls-1" d="M4.61869,3.39164a.023.023,0,0,1-.018.02089,1.17463,1.17463,0,0,1-.16024.05825.12077.12077,0,0,0-.03153.01262c-.07211.03534-.14427.07051-.21606.10664a1.70914,1.70914,0,0,1-.17272.07577c-.03019.01119-.0594.02563-.08923.038a.09561.09561,0,0,1-.02712.00742.01648.01648,0,0,1-.014-.00713l.00346-.01589a.111.111,0,0,1,.03927-.023A.26619.26619,0,0,0,4.0068,3.6372a.06865.06865,0,0,1,.02667-.00927.1208.1208,0,0,0,.05276-.01981.05792.05792,0,0,1,.02614-.01089.09955.09955,0,0,0,.06251-.025.72728.72728,0,0,1,.1263-.0685c.04272-.02131.08784-.03657.13205-.05405a.19131.19131,0,0,1,.0325-.00964.0954.0954,0,0,0,.04191-.0172A.26088.26088,0,0,1,4.586,3.389a.06053.06053,0,0,1,.0223-.0016Z"/>
    <path class="cls-1" d="M3.07191,1.80657c.01646.003.0329.00621.04945.00853L3.128,1.80785l-.00162-.00564a.05951.05951,0,0,0-.01871-.0131c-.02-.00508-.04054-.00746-.06064-.01216a.17554.17554,0,0,0-.07736.0114.07843.07843,0,0,0-.05913.04294A.06.06,0,0,1,2.88911,1.85l-.01008-.002L2.87392,1.8378a.09086.09086,0,0,1,.04546-.0741.18353.18353,0,0,1,.15233-.019.3317.3317,0,0,0,.033.00546.13014.13014,0,0,1,.03155.01176.05956.05956,0,0,1,.03459.07983.05444.05444,0,0,0,.0001.01845c.00108.03005-.001.03321-.02394.0363l-.01679.00181a.01868.01868,0,0,1-.02-.01729.09333.09333,0,0,1-.00062-.01251.02937.02937,0,0,0-.02609-.02817.13027.13027,0,0,0-.06129.00141.03371.03371,0,0,1-.01624.00219.019.019,0,0,1-.01216-.01049l.00681-.01391A.11746.11746,0,0,1,3.07191,1.80657Z"/>
    <path class="cls-1" d="M1.02811,3.33416l.0012.00956a.01637.01637,0,0,1-.02389.01579.04214.04214,0,0,1-.016-.01646.08724.08724,0,0,1-.0013-.07231c.00665-.01495.01455-.02922.02186-.04378a.06486.06486,0,0,1,.07165-.03758.17529.17529,0,0,1,.08323.035.16134.16134,0,0,1,.02741.031.23818.23818,0,0,1,.01536.02617.08367.08367,0,0,1-.00451.1171.12325.12325,0,0,1-.0301.02727l-.01482-.00358a.01987.01987,0,0,1-.003-.01653c.00735-.01678.01669-.03248.02456-.049a.04038.04038,0,0,0,0-.036.13188.13188,0,0,0-.07739-.07638.04374.04374,0,0,0-.04267.00694A.07812.07812,0,0,0,1.02811,3.33416Z"/>
    <path class="cls-1" d="M1.92063,2.57889a.51143.51143,0,0,1-.09316-.0162.11943.11943,0,0,1-.06093-.04242.33438.33438,0,0,0-.02862-.0301l-.00941-.01535.00143-.01116.00939-.00471a.07443.07443,0,0,1,.02042.0096.15968.15968,0,0,1,.02258.01868.16921.16921,0,0,0,.15782.04371c.02219-.00371.04417-.00942.066-.01533A.02876.02876,0,0,0,2.019,2.50412c.00545-.00762.0014-.01523-.00121-.0232-.00353-.01083.00078-.01846.00847-.01707l.0163.00452c.01741.007.02823-.0037.03095-.02391l.00481-.03082a.01707.01707,0,0,1,.01634-.01406.02852.02852,0,0,1,.02184.01739l.00114.00607a.11816.11816,0,0,1-.04666.10725.194.194,0,0,1-.08258.03772Z"/>
    <path class="cls-1" d="M2.31733,1.93869c-.00233,0,.0034.00077.00891-.00013.03382-.00557.05274.01655.06624.046a.25931.25931,0,0,1,.014.04754.0347.0347,0,0,1-.00642.02938L2.38584,2.081a.04317.04317,0,0,1-.02874.01788.13432.13432,0,0,1-.07779-.00237A.01954.01954,0,0,1,2.27037,2.082a.01981.01981,0,0,1,.008-.01493A.0471.0471,0,0,1,2.3,2.06221a.36579.36579,0,0,0,.03917.00074.05856.05856,0,0,0,.025-.01255.02678.02678,0,0,0,.00837-.01565.06083.06083,0,0,0-.03073-.055.24738.24738,0,0,0-.06605-.01293.10047.10047,0,0,0-.06339.02261.23924.23924,0,0,1-.023.01778l-.0104-.00038a.02555.02555,0,0,1-.00777-.01506.03173.03173,0,0,1,.01853-.02913A.17565.17565,0,0,1,2.29815,1.937Z"/>
    <path class="cls-1" d="M1.28256,2.02585,1.22711,2.032c-.00555.00064-.01241.00072-.01273-.006-.00021-.00458.00512-.01028.00906-.01405a.0368.0368,0,0,1,.01459-.009.288.288,0,0,1,.09452-.01283.09727.09727,0,0,1,.06987.03567A.03337.03337,0,0,1,1.41035,2.06a.21723.21723,0,0,1-.01087.02882.06638.06638,0,0,1-.05329.04009.09.09,0,0,1-.07-.01411A.0843.0843,0,0,0,1.22912,2.097c-.004-.00031-.00973-.00737-.01057-.01223a.02226.02226,0,0,1,.00526-.01659.03561.03561,0,0,1,.04688-.00482c.01589.01064.028.02839.04762.032a.06944.06944,0,0,0,.02181.00255.04067.04067,0,0,0,.03134-.0317.033.033,0,0,0-.02717-.03432A.60045.60045,0,0,0,1.28256,2.02585Z"/>
    <path class="cls-1" d="M3.10556,1.9446a.23583.23583,0,0,0-.078.02462.05472.05472,0,0,1-.03806.00483c-.02728-.00642-.05731.006-.082-.0118a.28644.28644,0,0,1-.04473-.04607A.02363.02363,0,0,1,2.861,1.8986a.01594.01594,0,0,1,.0176-.01175.03324.03324,0,0,1,.01608.00354.07764.07764,0,0,1,.01719.01566.08681.08681,0,0,0,.09236.02966c.02729-.0064.05425-.0146.08123-.02248.01569-.00458.02145.00061.02326.02284Z"/>
    <path class="cls-1" d="M1.72574,2.8197a.05882.05882,0,0,0-.052.01244.12231.12231,0,0,1-.02008.01127.01772.01772,0,0,1-.02014-.00656.024.024,0,0,1-.00111-.02363l.006-.01047c.00676-.00726.01446-.01347.021-.02095a.051.051,0,0,1,.07192-.01.155.155,0,0,1,.0226.01852c.00541.00484.00874.01975.005.02273l-.01479.00762h-.0056Z"/>
    <path class="cls-1" d="M3.27741,3.42148a.05334.05334,0,0,1-.03579.05006.03553.03553,0,0,1-.03345-.02723.08417.08417,0,0,1,.01431-.0587.0178.0178,0,0,1,.02-.00775A.04892.04892,0,0,1,3.27741,3.42148Z"/>
    <path class="cls-1" d="M2.83324,3.87578A.34933.34933,0,0,1,2.963,3.77244l.01087-.00124L2.982,3.778l.00048.00581c-.00737.00926-.0136.02178-.023.02661A.571.571,0,0,1,2.83324,3.87578Z"/>
    <circle cx="3.45356" cy="3.03418" r="0.02972" transform="translate(0.10649 6.18544) rotate(-84.57551)"/>
    <path class="cls-1" d="M3.14462,3.17188A.07305.07305,0,0,1,3.0851,3.209c-.0041.00076-.0099-.0041-.01348-.008l-.0003-.01145c.00531-.01054.01162-.02045.01756-.03062L3.08745,3.16l.04667,0-.00143-.00111.01254.014Z"/>
    <path class="cls-1" d="M2.57365,3.12258l-.00728.01862a.01537.01537,0,0,1-.02405.00339.03534.03534,0,0,1,.00092-.053.01621.01621,0,0,1,.02666.00892Z"/>
    <path class="cls-1" d="M1.09532,3.40144A.04669.04669,0,0,1,1.129,3.4305l-.00229.01063a.03317.03317,0,0,1-.05243-.02026A.02.02,0,0,1,1.09532,3.40144Z"/>
    <path class="cls-1" d="M3.39655,2.78236a.06974.06974,0,0,1-.01533-.00719A.01205.01205,0,0,1,3.377,2.75949c.01368-.02465.0318-.02953.04931-.01373a.0189.0189,0,0,1-.00374.02989A.21217.21217,0,0,1,3.39655,2.78236Z"/>
    <ellipse cx="2.71905" cy="1.86289" rx="0.02574" ry="0.02101" transform="translate(0.45656 4.25971) rotate(-81.06743)"/>
    <path class="cls-1" d="M2.65109,2.95769a.01835.01835,0,0,1-.02061-.01579.02792.02792,0,0,1,.023-.02983.01838.01838,0,0,1,.01692.02C2.67007,2.94656,2.66227,2.95692,2.65109,2.95769Z"/>
    <polygon class="cls-1" points="4.251 3.249 4.259 3.24 4.269 3.241 4.267 3.245 4.261 3.247 4.25 3.248 4.251 3.249"/>
    <path class="cls-1" d="M4.44033,3.08316l.03454-.01155-.00092-.0011a.04.04,0,0,1-.03456.01165Z"/>
    <path class="cls-1" d="M4.22665,3.26024l.02455-.0116-.00084-.001a.033.033,0,0,1-.02452.01163Z"/>
    <path class="cls-1" d="M4.47487,3.07161l.007-.00642c.00075.00806-.00573.00271-.00791.00532Z"/>
    <path class="cls-1" d="M3.4267,3.96486l.00073.00083Z"/>
  </g>
  <text x="0" y="20" fill="#000000" font-size="5px" font-weight="bold" font-family="'Helvetica Neue', Helvetica, Arial-Unicode, Arial, Sans-serif">Created by Alice Noir</text>
  <text x="0" y="25" fill="#000000" font-size="5px" font-weight="bold" font-family="'Helvetica Neue', Helvetica, Arial-Unicode, Arial, Sans-serif">from the Noun Project</text>
</svg>
