<?xml version="1.0" encoding="UTF-8"?>
<svg xmlns="http://www.w3.org/2000/svg" xmlns:xlink="http://www.w3.org/1999/xlink" version="1.1" x="0px" y="0px" viewBox="0 0 64 80" style="enable-background:new 0 0 64 64;" xml:space="preserve">
  <path d="M61,10h-5.581L53.98,2.804C53.887,2.336,53.477,2,53,2h-4c-0.477,0-0.887,0.336-0.98,0.804L46.581,10h-2.161L42.98,2.804  C42.887,2.336,42.477,2,42,2h-4c-0.477,0-0.887,0.336-0.98,0.804L35.581,10H33c-0.553,0-1,0.448-1,1v4h-2  c-0.266,0-0.52,0.105-0.707,0.293l-3,3l1.414,1.414L30.414,17H32v11h-3c-0.553,0-1,0.448-1,1v7h-2V25  c0-3.772-3.002-6.849-6.741-6.987C20.935,16.546,22,14.397,22,12c0-4.411-3.589-8-8-8s-8,3.589-8,8c0,2.397,1.065,4.546,2.741,6.013  C5.002,18.151,2,21.228,2,25v8c0,1.13,0.391,2.162,1.026,3H3c-0.553,0-1,0.448-1,1v24c0,0.552,0.447,1,1,1h58c0.553,0,1-0.448,1-1  V37c0-0.552-0.447-1-1-1h-2v-3h2c0.553,0,1-0.448,1-1V11C62,10.448,61.553,10,61,10z M49.82,4h2.359l1.2,6h-4.76L49.82,4z M38.82,4  h2.359l1.2,6h-4.76L38.82,4z M8,12c0-3.309,2.691-6,6-6s6,2.691,6,6s-2.691,6-6,6S8,15.309,8,12z M4,33v-8c0-2.757,2.243-5,5-5h10  c2.757,0,5,2.243,5,5v11h-4.78l1.761-8.804c0.059-0.294-0.018-0.599-0.207-0.83C20.583,26.134,20.3,26,20,26h-8  c-0.3,0-0.583,0.134-0.773,0.366c-0.189,0.231-0.266,0.536-0.207,0.83L11.78,31H9v-5H7v6c0,0.552,0.447,1,1,1h4.18l0.6,3H7  C5.346,36,4,34.654,4,33z M14.82,36l-0.839-4.196c0,0,0-0.001,0-0.001L13.22,28h5.561l-1.6,8H14.82z M23,60h-3v-7.88l3,4.2V60z   M15,48c-0.552,0-1-0.449-1-1s0.448-1,1-1h8c0.552,0,1,0.449,1,1s-0.448,1-1,1H15z M18,60h-3v-3.68l3-4.2V60z M39,60h-3v-7.88l3,4.2  V60z M31,48c-0.552,0-1-0.449-1-1s0.448-1,1-1h8c0.552,0,1,0.449,1,1s-0.448,1-1,1H31z M34,60h-3v-3.68l3-4.2V60z M55,60h-3v-7.88  l3,4.2V60z M47,48c-0.552,0-1-0.449-1-1s0.448-1,1-1h8c0.552,0,1,0.449,1,1s-0.448,1-1,1H47z M50,60h-3v-3.68l3-4.2V60z M60,60h-3  v-4c0-0.208-0.065-0.412-0.187-0.581L52.943,50H55c1.654,0,3-1.346,3-3s-1.346-3-3-3h-8c-1.654,0-3,1.346-3,3s1.346,3,3,3h2.057  l-3.871,5.419C45.065,55.588,45,55.792,45,56v4h-4v-4c0-0.208-0.065-0.412-0.187-0.581L36.943,50H39c1.654,0,3-1.346,3-3  s-1.346-3-3-3h-8c-1.654,0-3,1.346-3,3s1.346,3,3,3h2.057l-3.871,5.419C29.065,55.588,29,55.792,29,56v4h-4v-4  c0-0.208-0.065-0.412-0.187-0.581L20.943,50H23c1.654,0,3-1.346,3-3s-1.346-3-3-3h-8c-1.654,0-3,1.346-3,3s1.346,3,3,3h2.057  l-3.871,5.419C13.065,55.588,13,55.792,13,56v4H4V38h56V60z M57,36H30v-6h2v2c0,0.552,0.447,1,1,1h24V36z M60,31h-2H34v-2V12h26V31z  "/>
  <text x="0" y="79" fill="#000000" font-size="5px" font-weight="bold" font-family="'Helvetica Neue', Helvetica, Arial-Unicode, Arial, Sans-serif">Created by Becris</text>
  <text x="0" y="84" fill="#000000" font-size="5px" font-weight="bold" font-family="'Helvetica Neue', Helvetica, Arial-Unicode, Arial, Sans-serif">from the Noun Project</text>
</svg>
