<svg xmlns="http://www.w3.org/2000/svg" version="1.0" viewBox="0 0 432 911.25" preserveAspectRatio="xMidYMid meet" x="0px" y="0px"><metadata>
Created by potrace 1.14, written by Peter Selinger 2001-2017
</metadata><g transform="translate(0.000000,729.000000) scale(0.100000,-0.100000)" fill="#000000" stroke="none"><path d="M112 7267 c-21 -23 -22 -30 -22 -280 0 -316 -9 -297 140 -297 l100 0 0 -170 0 -170 -98 0 c-149 0 -142 15 -142 -303 0 -316 -9 -297 140 -297 l100 0 0 -235 c0 -228 1 -236 22 -257 14 -14 18 -23 10 -26 -7 -2 -43 -28 -80 -57 -119 -93 -216 -242 -258 -395 -28 -99 -25 -281 4 -385 46 -158 142 -299 271 -395 l72 -53 -22 -23 -21 -22 76 -744 76 -743 0 -1187 c0 -1175 0 -1188 20 -1208 19 -19 33 -20 200 -20 167 0 181 1 200 20 20 20 20 33 20 1190 0 754 4 1177 10 1192 9 21 230 1455 230 1492 0 8 -9 24 -20 34 -20 19 -20 19 49 71 79 58 144 130 196 216 30 51 35 55 35 32 0 -15 9 -36 20 -47 19 -19 33 -20 280 -20 323 0 300 -12 300 158 l0 119 87 21 c180 43 304 55 508 49 209 -6 324 -26 505 -87 414 -138 817 -480 1046 -887 16 -29 33 -53 37 -53 4 0 30 11 57 25 58 29 58 27 -3 156 -116 241 -319 488 -557 675 -304 240 -719 401 -1145 445 -115 11 -424 7 -502 -7 l-33 -6 0 96 c0 144 18 136 -298 136 -257 0 -259 0 -280 -23 -12 -13 -22 -36 -22 -52 0 -26 -3 -23 -35 30 -52 86 -117 158 -195 216 -67 50 -68 51 -49 70 18 18 19 36 19 254 l0 235 100 0 c149 0 140 -19 140 300 0 319 9 300 -140 300 l-100 0 0 170 0 170 100 0 c149 0 140 -19 140 300 0 247 -1 261 -20 280 -20 20 -33 20 -633 20 l-614 0 -21 -23z m1158 -277 l0 -170 -525 0 -525 0 0 170 0 170 525 0 525 0 0 -170z m-240 -470 l0 -170 -285 0 -285 0 0 170 0 170 285 0 285 0 0 -170z m240 -470 l0 -170 -525 0 -525 0 0 170 0 170 525 0 525 0 0 -170z m-240 -510 l0 -170 -285 0 -285 0 0 170 0 170 285 0 285 0 0 -170z m-157 -345 c117 -25 211 -77 303 -169 93 -93 145 -186 169 -301 44 -211 -14 -406 -169 -561 -93 -93 -185 -145 -301 -169 -139 -29 -276 -12 -405 51 -106 52 -223 170 -274 276 -87 181 -87 366 0 546 52 107 169 225 277 276 131 63 263 80 400 51z m1017 -595 l0 -290 -170 0 -170 0 0 290 0 290 170 0 170 0 0 -290z m695 70 l70 -7 -100 -2 c-124 -2 -300 -23 -425 -50 -52 -12 -98 -21 -102 -21 -4 0 -8 16 -8 35 0 42 5 44 156 54 118 7 297 4 409 -9z m-1569 -877 c-3 -16 -49 -314 -101 -663 -53 -349 -97 -635 -98 -636 -1 -1 -50 1 -109 4 -80 3 -108 8 -108 18 0 7 -29 298 -65 646 -36 347 -65 638 -65 645 0 10 57 13 276 13 l276 0 -6 -27z m-226 -1638 l0 -175 -90 0 -90 0 0 175 0 175 90 0 90 0 0 -175z m0 -360 l0 -55 -80 0 -80 0 0 55 0 55 80 0 80 0 0 -55z m0 -265 l0 -80 -90 0 -90 0 0 80 0 80 90 0 90 0 0 -80z m-10 -260 l0 -50 -80 0 -80 0 0 50 0 50 80 0 80 0 0 -50z m10 -275 l0 -95 -90 0 -90 0 0 95 0 95 90 0 90 0 0 -95z m-10 -275 l0 -50 -80 0 -80 0 0 50 0 50 80 0 80 0 0 -50z m10 -385 l0 -205 -90 0 -90 0 0 205 0 205 90 0 90 0 0 -205z"/><path d="M520 4950 l0 -130 -125 0 -125 0 0 -220 0 -220 125 0 125 0 0 -130 0 -130 225 0 225 0 0 130 0 130 125 0 125 0 0 220 0 220 -125 0 -125 0 0 130 0 130 -225 0 -225 0 0 -130z m320 -130 l0 -130 125 0 125 0 0 -90 0 -90 -125 0 -125 0 0 -130 0 -130 -95 0 -95 0 0 130 0 130 -125 0 -125 0 0 90 0 90 125 0 125 0 0 130 0 130 95 0 95 0 0 -130z"/></g><text x="0" y="744" fill="#000000" font-size="5px" font-weight="bold" font-family="'Helvetica Neue', Helvetica, Arial-Unicode, Arial, Sans-serif">Created by 琪宏 李</text><text x="0" y="749" fill="#000000" font-size="5px" font-weight="bold" font-family="'Helvetica Neue', Helvetica, Arial-Unicode, Arial, Sans-serif">from the Noun Project</text></svg>