<svg xmlns="http://www.w3.org/2000/svg" xmlns:xlink="http://www.w3.org/1999/xlink" version="1.1" x="0px" y="0px" viewBox="0 0 100 125" enable-background="new 0 0 100 100" xml:space="preserve">
  <path fill="#000000" d="M71.805,37.89l-0.032,0h-1.982l-0.018-1.982c-0.008-0.836-0.692-1.516-1.527-1.516  c-0.843,0-1.53,0.686-1.53,1.53v2h-2h-11.22h-2v-2V23.509v-1.985l1.984-0.015C54.319,21.503,55,20.818,55,19.982  c0-0.826-0.675-1.51-1.504-1.524l-1.967-0.033v-1.967v-0.05c-0.023-0.823-0.7-1.486-1.529-1.486c-0.834,0-1.514,0.671-1.529,1.501  v0.032v1.982l-1.982,0.018c-0.836,0.008-1.516,0.692-1.516,1.526c0,0.843,0.686,1.53,1.53,1.53h2v2v12.41v2h-2h-11.22h-2v-2  c0-0.843-0.686-1.53-1.53-1.53c-0.825,0-1.509,0.674-1.524,1.503l-0.035,1.964H28.23h-0.052c-0.822,0.024-1.484,0.701-1.484,1.529  c0,0.843,0.686,1.53,1.53,1.53h2.021l-0.018,2.021l-0.001,0.093c0.043,0.806,0.711,1.448,1.527,1.448  c0.82,0,1.492-0.649,1.528-1.461l-0.002-0.08l-0.021-2.021h2.021h11.223h2v2v33.631v2h-2c-0.843,0-1.53,0.686-1.53,1.53  c0,0.834,0.68,1.519,1.516,1.526l1.982,0.018v1.982v0.034c0.016,0.829,0.696,1.499,1.529,1.499c0.834,0,1.514-0.671,1.529-1.501  l0-0.032v-1.982l1.982-0.018c0.836-0.008,1.516-0.692,1.516-1.526c0-0.843-0.686-1.53-1.53-1.53h-2v-2V42.917v-2h2h11.22h2v2  c0,0.843,0.686,1.53,1.53,1.53c0.834,0,1.519-0.68,1.527-1.516l0.018-1.982h1.982h0.034c0.829-0.016,1.499-0.696,1.499-1.529  C73.306,38.586,72.636,37.905,71.805,37.89z"/>
  <path fill="#000000" d="M71.777,35.89c-0.001,0-0.002,0-0.003,0c-0.017-1.934-1.588-3.498-3.526-3.498c-1.949,0-3.53,1.58-3.53,3.53  h-11.22V23.509C55.434,23.494,57,21.922,57,19.982c0-1.929-1.549-3.492-3.471-3.524c0-0.002,0.001-0.004,0.001-0.006  c0-1.949-1.58-3.53-3.53-3.53s-3.53,1.58-3.53,3.53c0,0.001,0,0.002,0,0.003c-1.934,0.017-3.498,1.588-3.498,3.526  c0,1.949,1.58,3.53,3.53,3.53v12.41h-11.22c0-1.949-1.58-3.53-3.53-3.53c-1.928,0-3.489,1.547-3.523,3.466  c-0.002,0-0.004-0.001-0.006-0.001c-1.949,0-3.53,1.58-3.53,3.53s1.58,3.53,3.53,3.53h0.003c0,0.011-0.003,0.021-0.003,0.032  c0,1.949,1.58,3.53,3.53,3.53s3.53-1.58,3.53-3.53c0-0.011-0.003-0.021-0.003-0.032h11.223v33.631c-1.949,0-3.53,1.58-3.53,3.53  c0,1.938,1.564,3.509,3.498,3.526c0,0.001,0,0.002,0,0.003c0,1.949,1.58,3.53,3.53,3.53s3.53-1.58,3.53-3.53  c0-0.001,0-0.002,0-0.003c1.934-0.017,3.498-1.588,3.498-3.526c0-1.949-1.58-3.53-3.53-3.53V42.917h11.22  c0,1.949,1.58,3.53,3.53,3.53c1.938,0,3.509-1.564,3.526-3.498c0.001,0,0.002,0,0.003,0c1.949,0,3.53-1.58,3.53-3.53  S73.726,35.89,71.777,35.89z M71.816,41.949h-0.043h-0.991l-0.009,0.991c-0.012,1.382-1.146,2.507-2.526,2.507  c-1.395,0-2.53-1.135-2.53-2.53v-1h-1h-11.22h-1v1v33.631v1h1c1.395,0,2.53,1.135,2.53,2.53c0,1.381-1.125,2.514-2.507,2.526  l-0.991,0.009v0.991l0,0.037c-0.018,1.379-1.146,2.495-2.529,2.495c-1.382,0-2.508-1.113-2.529-2.49v-0.043v-0.991l-0.991-0.009  c-1.382-0.012-2.507-1.146-2.507-2.526c0-1.395,1.135-2.53,2.53-2.53h1v-1V42.917v-1h-1H35.279h-1.012l0.012,1.012l0.002,0.081  c-0.032,1.367-1.154,2.469-2.529,2.469c-1.375,0-2.497-1.102-2.529-2.469l0.002-0.012l0.001-0.069l0.009-1.012h-1.012  c-1.395,0-2.53-1.135-2.53-2.53c0-1.375,1.103-2.498,2.471-2.529h0.065h0.982l0.018-0.982c0.025-1.37,1.157-2.484,2.523-2.484  c1.395,0,2.53,1.135,2.53,2.53v1h1h11.22h1v-1v-12.41v-1h-1c-1.395,0-2.53-1.135-2.53-2.53c0-1.381,1.125-2.514,2.507-2.526  l0.991-0.009v-0.991l0-0.037c0.018-1.379,1.146-2.495,2.529-2.495c1.376,0,2.499,1.105,2.529,2.474v0.062v0.983l0.983,0.016  C54.884,17.482,56,18.614,56,19.982c0,1.383-1.126,2.516-2.51,2.527l-0.992,0.008v0.992v12.412v1h1h11.22h1v-1  c0-1.395,1.135-2.53,2.53-2.53c1.381,0,2.514,1.125,2.526,2.507l0.009,0.991h0.991l0.037,0c1.379,0.018,2.495,1.146,2.495,2.529  C74.306,40.801,73.193,41.928,71.816,41.949z"/>
  <text x="0" y="115" fill="#000000" font-size="5px" font-weight="bold" font-family="'Helvetica Neue', Helvetica, Arial-Unicode, Arial, Sans-serif">Created by Romualdas Jurgaitis</text>
  <text x="0" y="120" fill="#000000" font-size="5px" font-weight="bold" font-family="'Helvetica Neue', Helvetica, Arial-Unicode, Arial, Sans-serif">from the Noun Project</text>
</svg>
