<?xml version="1.0" encoding="UTF-8"?>
<svg xmlns="http://www.w3.org/2000/svg" xmlns:xlink="http://www.w3.org/1999/xlink" version="1.1" x="0px" y="0px" viewBox="0 0 1000 1250" style="enable-background:new 0 0 1000 1000;" xml:space="preserve">
  <g>
    <g>
      <path d="M953.1,576.9c-0.9-11.3-3.7-23.6-9.4-33.3c-28.8-49.2-58.9-97.6-88.3-146.4c-6.7-11.2-15.9-16.6-29-16.5    c-30.7,0.3-61.4,0-92.1,0.1c-14.5,0-19.2,4.8-19.2,19.7c0,77.8,0,155.6,0,233.5c0,16.7,7.8,22.8,24.2,18.9    c11.3-52,40.1-78,84.5-76.2c40.9,1.7,70.3,31,76.4,77.5c11.8,0,23.2,0.1,34.6,0c13.3-0.1,18.5-5.3,18.6-18.7    C953.5,616,954.6,596.3,953.1,576.9z M858,502c-33.4-9.1-66.6-18.7-100.1-27.4c-9.5-2.5-13.4-7.2-13-16.9    c0.5-12,0.4-24.1,0.1-36.2c-0.2-8,3.3-11.1,11.1-11c20.7,0.2,41.5-0.3,62.2,0.4c4.8,0.2,11.6,3,14,6.8    c18.2,28.7,35.6,58,53.1,87.1c0.4,0.7,0.3,1.7,0.7,4.3C876.2,506.6,867.1,504.5,858,502z"/>
    </g>
    <g>
      <path d="M406.6,709.1c-31.7,0-57.3-24.5-57.5-54.9c-0.1-30.3,25.6-55.3,57.1-55.4c32.2-0.1,57.9,24.6,57.8,55.5    C464,684.8,438.5,709.1,406.6,709.1z"/>
    </g>
    <g>
      <path d="M819.4,709.1c-31.6-0.2-57.3-25.1-57.1-55.3c0.2-30.8,26.4-55.3,58.5-55c31.5,0.3,56.7,25.2,56.5,55.9    C877.1,685.1,851.3,709.3,819.4,709.1z"/>
    </g>
    <g>
      <path d="M692.3,608.6c0.8,24.2-17.9,44.1-42.3,44.6c-33.8,0.6-67.5,0.2-101.3,0.3c-20.4,0-40.8,0-61,0    c-2.2-10-4.2-19.2-6.4-29.5c3.1-0.2,6.4-0.4,9.6-0.5c50.8,0,101.6-0.2,152.4,0c9.2,0,16.5-1.9,19.8-11.6c0.5-1.5,2.9-3.2,4.5-3.2    C675.7,608.4,684,608.6,692.3,608.6z"/>
    </g>
    <g>
      <path d="M489.5,320.6c0-9.9,0-18.8,0-28.5c24.9,0,49.3,0,74.3,0c0,9.6,0,18.7,0,28.5    C539,320.6,514.7,320.6,489.5,320.6z"/>
    </g>
    <g>
      <path d="M324.2,292.5c0,9.1,0,18.2,0,28.7c-6.8,0-13.6,0.3-20.2-0.1c-11.4-0.7-20.5,1.8-22.7,14.8    c-9.9,0-19.1,0-28.3,0C252.8,302.3,279,285.3,324.2,292.5z"/>
    </g>
    <g>
      <path d="M369.9,291.7c24.9,0,48.9,0,73.7,0c0,9.7,0,19.1,0,28.9c-24.7,0-48.9,0-73.7,0    C369.9,311,369.9,301.8,369.9,291.7z"/>
    </g>
    <g>
      <path d="M689.7,319.3c-9.5,3.8-18.1,7.3-26.6,10.7c0.1-1,0.3-2.1,0.4-3.1c-7.3-1.9-14.4-4.8-21.8-5.5    c-10.4-0.9-20.9-0.2-32-0.2c0-10.1,0-19.4,0-29c16.3,0,32.4-1.5,48.1,0.4C672.7,294.4,683.2,304.4,689.7,319.3z"/>
    </g>
    <g>
      <path d="M663.6,443.6c0-24.9,0-49,0-73.6c9.7,0,18.8,0,28.7,0c0,24.3,0,48.6,0,73.6    C683,443.6,673.6,443.6,663.6,443.6z"/>
    </g>
    <g>
      <path d="M663.7,489.5c9.9,0,19,0,28.7,0c0,24.8,0,49.1,0,73.8c-9.7,0-18.9,0-28.7,0    C663.7,538.9,663.7,514.6,663.7,489.5z"/>
    </g>
    <g>
      <path d="M326.2,652.5c-36.2,2.8-57.6,2.1-70.5-27c8.5-3.5,16.9-7,25.7-10.7c14.3,16.2,33.4,4.8,50.4,9.8    C330,633.7,328.1,643.2,326.2,652.5z"/>
    </g>
    <g>
      <path d="M294.8,383.9H60.1c-7.7,0-14-6.2-14-14s6.2-14,14-14h234.7c7.7,0,14,6.2,14,14S302.5,383.9,294.8,383.9z"/>
    </g>
    <g>
      <path d="M416.5,450.2H60.1c-7.7,0-14-6.2-14-14s6.2-14,14-14h356.4c7.7,0,14,6.2,14,14S424.2,450.2,416.5,450.2z"/>
    </g>
    <g>
      <path d="M292.9,516.4H60.1c-7.7,0-14-6.2-14-14c0-7.7,6.2-14,14-14h232.8c7.7,0,14,6.2,14,14    C306.9,510.2,300.6,516.4,292.9,516.4z"/>
    </g>
    <g>
      <path d="M416.5,582.7H60.1c-7.7,0-14-6.2-14-14s6.2-14,14-14h356.4c7.7,0,14,6.2,14,14S424.2,582.7,416.5,582.7z"/>
    </g>
  </g>
  <text x="0" y="1015" fill="#000000" font-size="5px" font-weight="bold" font-family="'Helvetica Neue', Helvetica, Arial-Unicode, Arial, Sans-serif">Created by sai aditya</text>
  <text x="0" y="1020" fill="#000000" font-size="5px" font-weight="bold" font-family="'Helvetica Neue', Helvetica, Arial-Unicode, Arial, Sans-serif">from the Noun Project</text>
</svg>
