<svg xmlns="http://www.w3.org/2000/svg" xmlns:xlink="http://www.w3.org/1999/xlink" version="1.1" x="0px" y="0px" viewBox="0 0 64 80" enable-background="new 0 0 64 64" xml:space="preserve">
  <path d="M17.26,8.567c0,3.441-2.416,6.327-5.639,7.055v45.45c0,0.882-0.715,1.596-1.596,1.596c-0.881,0-1.596-0.714-1.596-1.596  v-45.45c-3.223-0.728-5.639-3.614-5.639-7.055c0-3.988,3.245-7.234,7.234-7.234C14.015,1.333,17.26,4.579,17.26,8.567L17.26,8.567z   M60.431,13.102L54.35,2.154c-0.428-0.771-1.399-1.047-2.171-0.62c-0.77,0.428-1.047,1.399-0.619,2.171l6.081,10.948  c0.589,1.06,0.471,2.347-0.3,3.282L52.76,23.48c-0.904,1.094-1.401,2.477-1.401,3.896v33.696c0,0.882,0.714,1.596,1.596,1.596  c0.881,0,1.596-0.714,1.596-1.596V27.374c0-0.678,0.239-1.339,0.67-1.862l4.581-5.545C61.416,18.013,61.663,15.318,60.431,13.102  L60.431,13.102z M47.475,7.396h-4.462c-0.704-3.455-3.767-6.064-7.428-6.064h-7.9c-0.881,0-1.596,0.715-1.596,1.596v12.129  c0,0.881,0.715,1.596,1.596,1.596h0.703L26.121,27.99c-0.02,0.103-0.032,0.207-0.032,0.313v32.768c0,0.881,0.715,1.596,1.596,1.596  h6.383c0.882,0,1.596-0.715,1.596-1.596V28.303c0-0.106-0.009-0.21-0.03-0.313l-2.267-11.336h2.217c3.661,0,6.723-2.609,7.428-6.065  h4.462c0.881,0,1.596-0.714,1.596-1.596C49.071,8.112,48.356,7.396,47.475,7.396L47.475,7.396z M47.475,7.396"/>
  <text x="0" y="79" fill="#000000" font-size="5px" font-weight="bold" font-family="'Helvetica Neue', Helvetica, Arial-Unicode, Arial, Sans-serif">Created by Arosh Khan</text>
  <text x="0" y="84" fill="#000000" font-size="5px" font-weight="bold" font-family="'Helvetica Neue', Helvetica, Arial-Unicode, Arial, Sans-serif">from the Noun Project</text>
</svg>
