<?xml version="1.0" encoding="UTF-8"?>
<svg xmlns="http://www.w3.org/2000/svg" xmlns:xlink="http://www.w3.org/1999/xlink" xml:space="preserve" version="1.1" style="shape-rendering:geometricPrecision;text-rendering:geometricPrecision;image-rendering:optimizeQuality;" viewBox="0 0 50000 62500" x="0px" y="0px" fill-rule="evenodd" clip-rule="evenodd">
    <path d="M18080 46037c-22,-21 -36,-33 -47,-41 -101,-78 -115,-89 -188,-304 -376,-1112 -427,-2637 -220,-4147 207,-1510 673,-3014 1327,-4080 144,-536 226,-3604 151,-6208 -53,-1838 -169,-3412 -370,-3588l-10 -10c-1202,-1176 -3438,-5137 -5223,-9203 -988,-2252 -1841,-4540 -2308,-6409 -486,-1947 -549,-3477 84,-4125 52,-53 108,-100 169,-142 -190,-2724 2232,-4178 5206,-4952 2942,-766 6430,-865 8348,-879l2 0c1918,14 5406,113 8348,879 2974,774 5396,2228 5206,4952 61,42 117,89 169,142 633,648 570,2178 84,4125 -467,1869 -1320,4157 -2308,6409 -1785,4066 -4021,8028 -5223,9203l-10 10c-201,176 -317,1750 -370,3588 -75,2604 7,5672 151,6208 654,1066 1120,2570 1327,4080 207,1510 156,3035 -220,4147 -73,215 -87,226 -188,304 -11,9 -27,21 -51,45l-16 14c-1630,1391 -4312,1998 -6915,1998 -2890,0 -5708,-753 -6905,-2016zm297 -486c23,18 55,43 104,91l7 7c1089,1152 3745,1839 6497,1839 2483,0 5025,-564 6544,-1856 43,-42 72,-64 94,-81 19,-15 -21,16 -2,-40 348,-1028 392,-2461 196,-3891 -199,-1451 -644,-2889 -1268,-3891l-19 -30 -10 -31c-163,-494 -263,-3723 -185,-6426 57,-1974 224,-3702 559,-3997 1160,-1142 3335,-5017 5090,-9014 976,-2224 1818,-4480 2277,-6321 441,-1762 536,-3107 59,-3595 -50,-52 -108,-92 -174,-121l-190 -84 23 -205c274,-2471 -1987,-3807 -4771,-4532 -2882,-751 -6318,-848 -8208,-862 -1890,14 -5326,111 -8208,862 -2784,725 -5045,2061 -4771,4532l23 205 -190 84c-66,29 -124,69 -174,121 -477,488 -382,1833 59,3595 459,1841 1301,4097 2277,6321 1755,3997 3930,7872 5090,9014 335,295 502,2023 559,3997 79,2703 -22,5932 -185,6426l-10 31 -19 30c-624,1002 -1069,2440 -1268,3891 -196,1430 -152,2863 196,3891 19,56 -21,25 -2,40zm-6360 -37675c196,904 1685,1682 3855,2268 2472,668 5788,1056 9108,1085 3264,28 6529,-292 9002,-958 2127,-572 3644,-1385 4011,-2428l531 185c-436,1241 -2094,2169 -4396,2788 -2518,678 -5837,1004 -9152,975 -3369,-29 -6737,-424 -9250,-1102 -2371,-641 -4014,-1557 -4260,-2694l551 -119zm64 -1129c-22,73 -33,142 -34,206 -6,338 244,665 695,977 504,347 1245,662 2160,938 2534,766 6335,1219 10119,1288 3806,-69 7611,-560 10129,-1344 896,-280 1622,-594 2117,-937 440,-304 683,-619 677,-936 -1,-60 -11,-123 -32,-189l538 -168c36,115 54,231 57,348 9,523 -321,993 -920,1408 -544,377 -1322,716 -2270,1012 -2564,799 -6431,1298 -10291,1369l-9 0c-3838,-70 -7699,-531 -10278,-1311 -966,-291 -1760,-631 -2317,-1015 -610,-421 -947,-904 -937,-1449 2,-121 20,-241 56,-360l540 163zm6831 20293c418,437 1281,868 2417,1188 1055,298 2333,494 3699,506 1420,12 2707,-133 3768,-434 996,-282 1784,-699 2283,-1249l416 377c-573,632 -1452,1104 -2547,1415 -1109,314 -2449,466 -3925,453 -1421,-13 -2749,-216 -3846,-525 -1232,-348 -2188,-835 -2673,-1343l408 -388zm484 10172c574,365 1426,699 2451,939 946,222 2033,363 3181,373 1233,10 2367,-98 3340,-324 928,-215 1704,-537 2272,-963l337 450c-633,475 -1480,829 -2483,1062 -1013,236 -2191,348 -3471,337 -1196,-11 -2324,-156 -3304,-386 -1088,-255 -2001,-615 -2625,-1012l302 -476zm-1342 3316c-137,-73 -189,-244 -115,-381 74,-137 244,-188 381,-115 748,402 1878,866 3234,1198 1049,257 2231,434 3472,444 156,0 281,127 280,282 0,155 -127,280 -282,280 -1292,-10 -2517,-194 -3602,-459 -1410,-346 -2588,-829 -3368,-1249zm24 1042c774,402 1944,866 3351,1199 1088,257 2313,435 3597,445 1394,10 2687,-151 3818,-417 1278,-300 2345,-733 3114,-1206l294 481c-818,502 -1942,960 -3280,1274 -1168,275 -2504,440 -3948,430 -1337,-10 -2603,-193 -3723,-458 -1456,-345 -2673,-828 -3481,-1248l258 -500zm2218 4179c-149,-45 -234,-202 -189,-351 44,-149 201,-234 350,-189 693,207 1466,390 2293,518 728,112 1493,181 2276,187 1394,10 2687,-151 3818,-417 1278,-300 2345,-733 3114,-1206 133,-81 306,-39 387,94 81,133 39,306 -93,387 -818,502 -1942,960 -3280,1274 -1168,275 -2504,440 -3948,430 -822,-6 -1613,-77 -2358,-192 -853,-131 -1652,-320 -2370,-535zm11665 -1376l-770 -1098 -47 1940 -1119 -1518 -27 1975 -1267 -1677 -10 2084 -1391 -1814 -5 1892 -1476 -1841 0 2157 -1641 -2132 -2 2101 -1591 -2279 11 2106 -2140 -3237 294 -195 1488 2253 -11 -2053 1599 2290 2 -2018 1639 2131 0 -2124 1479 1843 5 -1927 1394 1817 10 -2096 1276 1688 27 -1995 1130 1533 47 -1981 1384 1973 -288 202zm-12760 -16488c-1568,-3157 -3665,-7864 -5046,-11844 -1028,-2966 -1659,-5543 -1387,-6819l552 117c-250,1166 369,3641 1367,6519 1370,3950 3457,8633 5019,11778l-505 249zm366 181c-1158,-3150 -2448,-6872 -3375,-10154 -935,-3311 -1499,-6185 -1189,-7609l552 119c-289,1323 267,4106 1180,7338 921,3262 2207,6971 3361,10112l-529 194zm2509 728c-1050,-2984 -2154,-6274 -3014,-9419 -862,-3152 -1478,-6155 -1549,-8553l562 -15c69,2348 678,5307 1530,8421 854,3122 1954,6402 3002,9381l-531 185zm190 -21c-240,-1950 -583,-3978 -927,-6005 -692,-4084 -1384,-8168 -1226,-11564l562 25c-155,3334 532,7390 1220,11446 346,2043 692,4086 931,6030l-560 68zm2478 263c-149,-1940 -369,-3881 -589,-5823 -441,-3900 -883,-7800 -758,-11669l562 18c-123,3822 317,7706 756,11590 221,1950 442,3901 592,5842l-563 42zm5601 -1400c1562,-3145 3649,-7828 5019,-11778 998,-2878 1616,-5353 1367,-6519l552 -117c272,1276 -359,3853 -1387,6819 -1381,3980 -3478,8687 -5046,11844l-505 -249zm-390 236c1154,-3141 2440,-6850 3361,-10112 913,-3232 1469,-6015 1180,-7338l552 -119c310,1424 -254,4298 -1190,7609 -926,3282 -2216,7004 -3374,10154l-529 -194zm-2511 737c1048,-2979 2148,-6259 3002,-9381 852,-3114 1461,-6073 1530,-8421l562 15c-71,2398 -687,5401 -1549,8553 -860,3145 -1964,6435 -3014,9419l-531 -185zm-219 96c239,-1944 585,-3987 931,-6030 688,-4056 1375,-8112 1219,-11446l563 -25c158,3396 -534,7480 -1226,11564 -344,2027 -687,4055 -927,6005l-560 -68zm-2481 289c150,-1941 371,-3892 592,-5842 439,-3884 879,-7768 756,-11590l562 -18c125,3869 -317,7769 -758,11669 -220,1942 -440,3883 -589,5823l-563 -42zm-13284 -18435c203,904 1835,1694 4127,2291 2664,693 6183,1090 9433,1089 3433,-2 6872,-386 9446,-1057 2287,-597 3862,-1397 4070,-2323l549 124c-260,1156 -1989,2094 -4478,2743 -2617,683 -6107,1073 -9587,1075 -3295,1 -6867,-403 -9574,-1107 -2491,-648 -4279,-1573 -4535,-2711l549 -124zm4905 12482c415,979 1542,1808 3026,2407 1612,650 3632,1022 5631,1021 2066,-2 3948,-356 5458,-968 1507,-610 2633,-1471 3184,-2484l494 269c-615,1131 -1841,2080 -3467,2738 -1571,636 -3526,1005 -5669,1007 -2070,1 -4165,-385 -5840,-1061 -1619,-653 -2858,-1583 -3335,-2709l518 -220z"/>
  <text x="0" y="50015" fill="#000000" font-size="5px" font-weight="bold" font-family="'Helvetica Neue', Helvetica, Arial-Unicode, Arial, Sans-serif">Created by Alexander Panasovsky</text>
  <text x="0" y="50020" fill="#000000" font-size="5px" font-weight="bold" font-family="'Helvetica Neue', Helvetica, Arial-Unicode, Arial, Sans-serif">from the Noun Project</text>
</svg>
