<svg xmlns="http://www.w3.org/2000/svg" xmlns:xlink="http://www.w3.org/1999/xlink" version="1.1" x="0px" y="0px" viewBox="0 0 100 125" enable-background="new 0 0 100 100" xml:space="preserve">
  <g>
    <path fill="#000000" d="M80.149,95V45.839c0-6.137-4.993-11.13-11.13-11.13h-9.666c-0.177,0-0.591,0-0.591-0.716v-6.346   c0.005-1.757,0.018-5.41-2.492-7.928c-1.567-1.572-3.811-2.37-6.669-2.37c-3.977,0-6.135,2.066-8.224,4.063   c-1.434,1.372-2.799,2.666-4.803,3.411c0.1-0.942,0.181-1.948,0.24-3c0.541-0.301,1.112-0.729,1.619-1.235   c0.614-0.618,1.127-1.338,1.417-1.972c0.308-0.616,0.399-1.141,0.399-1.141s-0.525,0.092-1.141,0.4   c-0.634,0.29-1.354,0.802-1.972,1.417c-0.083,0.083-0.156,0.169-0.235,0.254c0.012-0.481,0.019-0.963,0.021-1.449   c0.508-0.296,1.039-0.706,1.512-1.177c0.614-0.619,1.127-1.338,1.417-1.972c0.308-0.617,0.399-1.141,0.399-1.141   s-0.525,0.091-1.141,0.399c-0.634,0.291-1.354,0.804-1.972,1.417c-0.086,0.086-0.164,0.177-0.246,0.266   c-0.013-0.477-0.031-0.95-0.053-1.416c0.533-0.301,1.097-0.725,1.596-1.222c0.614-0.618,1.127-1.338,1.417-1.972   c0.308-0.616,0.399-1.141,0.399-1.141s-0.525,0.091-1.141,0.399c-0.634,0.29-1.354,0.803-1.972,1.417   c-0.151,0.15-0.294,0.307-0.43,0.468c-0.043-0.534-0.09-1.053-0.144-1.55c0.609-0.297,1.285-0.783,1.871-1.367   c0.614-0.618,1.127-1.338,1.417-1.973c0.308-0.617,0.399-1.141,0.399-1.141s-0.525,0.091-1.141,0.399   c-0.634,0.291-1.354,0.804-1.972,1.417c-0.294,0.293-0.562,0.61-0.794,0.93c-0.003-0.016-0.005-0.033-0.007-0.049   c-0.162-1.201-0.362-2.202-0.514-2.902c-0.154-0.701-0.272-1.102-0.272-1.102s-0.12,0.401-0.271,1.102   c-0.155,0.7-0.353,1.701-0.515,2.902c-0.035,0.226-0.066,0.466-0.099,0.706c-0.254-0.351-0.55-0.702-0.871-1.028   c-0.651-0.657-1.405-1.213-2.065-1.537c-0.643-0.342-1.186-0.456-1.186-0.456s0.106,0.546,0.439,1.192   c0.313,0.666,0.86,1.427,1.506,2.089c0.624,0.63,1.338,1.164,1.98,1.491c-0.058,0.603-0.107,1.228-0.149,1.873   c-0.243-0.411-0.561-0.828-0.93-1.199c-0.551-0.546-1.204-0.992-1.789-1.232c-0.565-0.258-1.057-0.316-1.057-0.316   s0.057,0.492,0.316,1.058c0.239,0.584,0.686,1.236,1.233,1.788c0.551,0.548,1.202,0.996,1.787,1.234   c0.127,0.059,0.249,0.104,0.363,0.143c-0.023,0.554-0.042,1.113-0.053,1.678c-0.224-0.341-0.494-0.681-0.8-0.987   c-0.551-0.548-1.204-0.994-1.789-1.233c-0.565-0.259-1.057-0.316-1.057-0.316s0.057,0.492,0.316,1.057   c0.239,0.585,0.686,1.239,1.233,1.789c0.551,0.549,1.202,0.996,1.787,1.235c0.104,0.047,0.201,0.082,0.299,0.117   c0.003,0.687,0.014,1.373,0.037,2.049c-0.23-0.354-0.508-0.709-0.827-1.028c-0.551-0.548-1.204-0.994-1.789-1.233   c-0.565-0.259-1.057-0.316-1.057-0.316s0.057,0.492,0.316,1.057c0.239,0.585,0.686,1.238,1.233,1.789   c0.551,0.549,1.202,0.996,1.787,1.235c0.145,0.066,0.285,0.118,0.414,0.159c0.071,1.263,0.176,2.464,0.305,3.554l-2.091,0.698   l2.3,0.824c0.152,1.055,0.33,1.947,0.47,2.583c0.154,0.7,0.273,1.102,0.273,1.102s0.121-0.401,0.273-1.102   c0.117-0.532,0.261-1.242,0.395-2.079l0.033,0.013c1.687,0.604,3.498,1.616,3.831,2.128v4.43c0,0.614-0.111,0.614-0.481,0.614   h-9.775c-6.137,0-11.129,4.993-11.129,11.13v49.16l19.597-21.51v3.456L24.282,94.493h50.282L60.553,76.945v-3.456L80.149,95z    M68.845,91.741H30l11.044-13.833V49.865c0-1.116-0.883-2.271-2.36-2.271c-1.337,0-2.271,0.934-2.271,2.271v21.6L21.448,87.894   V45.839c0-4.62,3.758-8.378,8.377-8.378h9.775c1.964,0,3.233-1.321,3.233-3.366v-4.542c0-1.384-1.345-2.523-2.872-3.372   c1.301-0.85,2.35-1.853,3.319-2.781c1.927-1.843,3.449-3.3,6.321-3.3c2.1,0,3.689,0.525,4.72,1.56   c1.704,1.709,1.695,4.591,1.69,5.976v6.356c0,2.009,1.406,3.467,3.342,3.467h9.666c4.62,0,8.378,3.758,8.378,8.378v42.054   L62.432,71.467V49.865c0-1.101-0.823-2.271-2.347-2.271c-1.346,0-2.284,0.934-2.284,2.271v28.043L68.845,91.741z"/>
    <circle fill="#000000" cx="47.006" cy="25.705" r="2.628"/>
  </g>
  <text x="0" y="115" fill="#000000" font-size="5px" font-weight="bold" font-family="'Helvetica Neue', Helvetica, Arial-Unicode, Arial, Sans-serif">Created by Matt Feilmeier</text>
  <text x="0" y="120" fill="#000000" font-size="5px" font-weight="bold" font-family="'Helvetica Neue', Helvetica, Arial-Unicode, Arial, Sans-serif">from the Noun Project</text>
</svg>
