<?xml version="1.0" encoding="UTF-8"?>
<svg xmlns:dc="http://purl.org/dc/elements/1.1/" xmlns:cc="http://creativecommons.org/ns#" xmlns:rdf="http://www.w3.org/1999/02/22-rdf-syntax-ns#" xmlns:svg="http://www.w3.org/2000/svg" xmlns="http://www.w3.org/2000/svg" xmlns:sodipodi="http://sodipodi.sourceforge.net/DTD/sodipodi-0.dtd" xmlns:inkscape="http://www.inkscape.org/namespaces/inkscape" viewBox="0 0 48 60.00000125" version="1.1" x="0px" y="0px">
  <g transform="translate(0,-1004.3622)">
    <path style="" d="M 24 0 A 23.999998 23.999998 0 0 0 0 24 A 23.999998 23.999998 0 0 0 24 48 A 23.999998 23.999998 0 0 0 48 24 A 23.999998 23.999998 0 0 0 24 0 z M 16.357422 15.181641 L 17.867188 15.181641 L 17.867188 22.181641 L 18.867188 22.181641 L 18.867188 15.181641 L 19.867188 15.181641 L 19.867188 22.181641 L 20.867188 22.181641 L 20.867188 15.181641 L 25.375 15.181641 C 25.923773 15.181641 26.367188 15.623075 26.367188 16.171875 L 26.367188 17.181641 L 30.005859 17.181641 C 30.205409 17.181641 30.367188 17.372222 30.367188 17.607422 L 30.367188 18.183594 L 36.367188 18.183594 L 36.367188 17.681641 L 39.367188 17.681641 L 39.367188 19.681641 L 36.367188 19.681641 L 36.367188 19.183594 L 30.367188 19.183594 L 30.367188 19.757812 C 30.367188 19.993013 30.205409 20.181641 30.005859 20.181641 L 26.367188 20.181641 L 26.367188 21.191406 C 26.367187 21.740206 25.923773 22.181641 25.375 22.181641 L 21.367188 22.181641 L 21.367188 24.402344 C 21.367188 24.779244 21.144185 25.082031 20.867188 25.082031 L 20.326172 25.082031 L 19.867188 32.082031 L 19.015625 32.082031 L 19.015625 34 C 19.015625 35.0993 18.115023 36 17.015625 36 L 13.507812 36 A 0.50005 0.50005 0 1 1 13.507812 35 L 17.015625 35 C 17.578246 35 18.015625 34.5625 18.015625 34 L 18.015625 32.082031 L 17.367188 32.082031 L 17.367188 25.082031 L 16.867188 25.082031 C 16.590187 25.082031 16.367188 24.779244 16.367188 24.402344 L 16.367188 22.181641 L 16.357422 22.181641 C 15.808648 22.181641 15.367188 21.740206 15.367188 21.191406 L 15.367188 21.181641 L 14.367188 21.181641 C 13.813187 21.181641 13.367188 20.735641 13.367188 20.181641 L 13.367188 17.181641 C 13.367187 16.627541 13.813187 16.181641 14.367188 16.181641 L 15.367188 16.181641 L 15.367188 16.171875 C 15.367187 15.623075 15.808648 15.181641 16.357422 15.181641 z " transform="translate(0,1004.3622)" fill="#000000" fill-opacity="1" fill-rule="evenodd" stroke="none"/>
  </g>
  <text x="0" y="63.000001" fill="#000000" font-size="5px" font-weight="bold" font-family="'Helvetica Neue', Helvetica, Arial-Unicode, Arial, Sans-serif">Created by Chameleon Design</text>
  <text x="0" y="68.000001" fill="#000000" font-size="5px" font-weight="bold" font-family="'Helvetica Neue', Helvetica, Arial-Unicode, Arial, Sans-serif">from the Noun Project</text>
</svg>
