<?xml version="1.0" encoding="UTF-8"?>
<svg xmlns="http://www.w3.org/2000/svg" viewBox="0 0 68 85" x="0px" y="0px">
  <path fill="#000000" transform="translate(-176 -776)" fill-rule="evenodd" d="M242,808 C243.104569,808 244,808.895431 244,810 L244,842 C244,843.104569 243.104569,844 242,844 L178,844 C176.895431,844 176,843.104569 176,842 L176,810 C176,808.895431 176.895431,808 178,808 L187.171573,808 L192.585786,802.585786 C192.960859,802.210714 193.469567,802 194,802 L200,802 C201.104569,802 202,802.895431 202,804 L202,832 L218,832 L218,804 C218,802.895431 218.895431,802 220,802 L226,802 C226.530433,802 227.039141,802.210714 227.414214,802.585786 L232.828427,808 L242,808 Z M198,816 L198,816 L196,816 C194.895431,816 194,815.104569 194,814 C194,812.895431 194.895431,812 196,812 L198,812 L198,806 L194.828427,806 L189.414214,811.414214 C189.039141,811.789286 188.530433,812 188,812 L180,812 L180,840 L240,840 L240,829 L238,829 C236.895431,829 236,828.104569 236,827 C236,825.895431 236.895431,825 238,825 L240,825 L240,812 L232,812 C231.469567,812 230.960859,811.789286 230.585786,811.414214 L225.171573,806 L222,806 L222,834 C222,835.104569 221.104569,836 220,836 L200,836 C198.895431,836 198,835.104569 198,834 L198,816 Z M230,820 C228.895431,820 228,819.104569 228,818 C228,816.895431 228.895431,816 230,816 L233,816 C234.104569,816 235,816.895431 235,818 C235,819.104569 234.104569,820 233,820 L230,820 Z M227,836 C225.895431,836 225,835.104569 225,834 C225,832.895431 225.895431,832 227,832 L230,832 C231.104569,832 232,832.895431 232,834 C232,835.104569 231.104569,836 230,836 L227,836 Z M185,825 C183.895431,825 183,824.104569 183,823 C183,821.895431 183.895431,821 185,821 L188,821 C189.104569,821 190,821.895431 190,823 C190,824.104569 189.104569,825 188,825 L185,825 Z M189,837 C187.895431,837 187,836.104569 187,835 C187,833.895431 187.895431,833 189,833 L192,833 C193.104569,833 194,833.895431 194,835 C194,836.104569 193.104569,837 192,837 L189,837 Z M208,794 L208,794 L204,794 C202.895431,794 202,793.104569 202,792 L202,786.472136 L198.211146,778.894427 C197.546245,777.564625 198.513236,776 200,776 L220,776 C221.486764,776 222.453755,777.564625 221.788854,778.894427 L218,786.472136 L218,792 C218,793.104569 217.104569,794 216,794 L212,794 L212,798.613999 L213.297753,798.127342 C214.331994,797.739501 215.484818,798.263512 215.872658,799.297753 C216.260499,800.331994 215.736488,801.484818 214.702247,801.872658 L212,802.886001 L212,806.613999 L213.297753,806.127342 C214.331994,805.739501 215.484818,806.263512 215.872658,807.297753 C216.260499,808.331994 215.736488,809.484818 214.702247,809.872658 L212,810.886001 L212,814.613999 L213.297753,814.127342 C214.331994,813.739501 215.484818,814.263512 215.872658,815.297753 C216.260499,816.331994 215.736488,817.484818 214.702247,817.872658 L212,818.886001 L212,822.613999 L213.297753,822.127342 C214.331994,821.739501 215.484818,822.263512 215.872658,823.297753 C216.260499,824.331994 215.736488,825.484818 214.702247,825.872658 L212,826.886001 L212,828 C212,829.104569 211.104569,830 210,830 C209.022894,830 208.209445,829.299305 208.034717,828.372982 L206.702247,828.872658 C205.668006,829.260499 204.515182,828.736488 204.127342,827.702247 C203.739501,826.668006 204.263512,825.515182 205.297753,825.127342 L208,824.113999 L208,820.386001 L206.702247,820.872658 C205.668006,821.260499 204.515182,820.736488 204.127342,819.702247 C203.739501,818.668006 204.263512,817.515182 205.297753,817.127342 L208,816.113999 L208,812.386001 L206.702247,812.872658 C205.668006,813.260499 204.515182,812.736488 204.127342,811.702247 C203.739501,810.668006 204.263512,809.515182 205.297753,809.127342 L208,808.113999 L208,804.386001 L206.702247,804.872658 C205.668006,805.260499 204.515182,804.736488 204.127342,803.702247 C203.739501,802.668006 204.263512,801.515182 205.297753,801.127342 L208,800.113999 L208,794 Z M205.788854,785.105573 C205.92771,785.383284 206,785.68951 206,786 L206,790 L214,790 L214,786 C214,785.68951 214.07229,785.383284 214.211146,785.105573 L216.763932,780 L203.236068,780 L205.788854,785.105573 Z"/>
  <text x="0" y="83" fill="#000000" font-size="5px" font-weight="bold" font-family="'Helvetica Neue', Helvetica, Arial-Unicode, Arial, Sans-serif">Created by Andrejs Kirma</text>
  <text x="0" y="88" fill="#000000" font-size="5px" font-weight="bold" font-family="'Helvetica Neue', Helvetica, Arial-Unicode, Arial, Sans-serif">from the Noun Project</text>
</svg>
