<svg xmlns="http://www.w3.org/2000/svg" xmlns:xlink="http://www.w3.org/1999/xlink" version="1.1" x="0px" y="0px" viewBox="0 0 100 125" enable-background="new 0 0 100 100" xml:space="preserve">
  <path fill="#000000" d="M60.689,50.889L54.555,13.78c-0.122-0.74-0.822-1.241-1.562-1.119s-1.241,0.822-1.119,1.562l0.573,3.464  h-4.893l0.573-3.464c0.122-0.74-0.379-1.44-1.119-1.562s-1.44,0.379-1.562,1.119l-6.134,37.109H29.266H28.82v0.144  c0,1.501,1.217,2.718,2.718,2.718h7.3l-5.304,32.086c-0.122,0.74,0.379,1.44,1.119,1.562s1.44-0.379,1.562-1.119l5.377-32.529h7.741  L50,82.034v0.003l0-0.001v-0.001l0.667-28.283h7.741l5.377,32.529c0.122,0.74,0.822,1.241,1.562,1.119s1.241-0.822,1.119-1.562  l-5.304-32.086h7.3c1.501,0,2.718-1.217,2.718-2.718v-0.144h-0.403H60.689z M42.065,50.889l4.952-29.957h1.542l0.706,29.957H42.065z   M50.734,50.889l0.706-29.957h1.542l4.952,29.957H50.734z"/>
  <text x="0" y="115" fill="#000000" font-size="5px" font-weight="bold" font-family="'Helvetica Neue', Helvetica, Arial-Unicode, Arial, Sans-serif">Created by Romualdas Jurgaitis</text>
  <text x="0" y="120" fill="#000000" font-size="5px" font-weight="bold" font-family="'Helvetica Neue', Helvetica, Arial-Unicode, Arial, Sans-serif">from the Noun Project</text>
</svg>
