<svg xmlns="http://www.w3.org/2000/svg" xmlns:xlink="http://www.w3.org/1999/xlink" version="1.1" x="0px" y="0px" viewBox="0 0 100 125" enable-background="new 0 0 100 100" xml:space="preserve">
  <path d="M75.167,89.857l-1.669-7.869c0-0.002-0.001,0.136-0.002,0.134L61.72,26.73h3.142c2.069,0,3.747-1.724,3.747-3.793  s-1.678-3.793-3.747-3.793h-4.732l-1.903-9.418c-0.21-0.99-1.143-1.962-2.129-1.962H43.901c-0.986,0-1.919,0.972-2.129,1.962  l-1.903,9.418h-4.682c-2.069,0-3.747,1.724-3.747,3.793s1.678,3.793,3.747,3.793h3.093L24.833,89.998  c-0.222,1.045,0.446,2.002,1.491,2.223c0.135,0.029,0.27,0.007,0.403,0.007c0.894,0,1.697-0.641,1.89-1.551l1.679-7.928  l19.488-7.086l20.141,8.133l1.456,6.864c0.193,0.91,0.996,1.533,1.891,1.533c0.133,0,0.268-0.014,0.403-0.043  C74.721,91.93,75.389,90.903,75.167,89.857z M62.64,49.437l2.819,13.293l-11.734-7.553L62.64,49.437z M58.841,46.961l-8.69,5.595  l-8.693-5.595H58.841z M41.606,44.432l8.215-7.143l8.657,7.143H41.606z M50.151,58.074l10.237,6.589H39.917L50.151,58.074z   M58.443,29.644l2.466,11.631l-8.129-6.707L58.443,29.644z M51.807,11.557h2.939l1.43,7.587h-4.369V11.557z M45.254,11.557h2.76  v7.587h-4.19L45.254,11.557z M56.221,26.73l-6.467,5.623L42.94,26.73H56.221z M41.435,30.222l5.36,4.423l-7.722,6.714L41.435,30.222  z M37.396,49.268l9.182,5.91l-12.085,7.781L37.396,49.268z M31.243,78.281l1.975-9.313l11.203,4.525L31.243,78.281z M38.838,67.192  h23.271l-12.25,4.451L38.838,67.192z M55.224,73.684l11.66-4.237l2.075,9.785L55.224,73.684z"/>
  <text x="0" y="115" fill="#000000" font-size="5px" font-weight="bold" font-family="'Helvetica Neue', Helvetica, Arial-Unicode, Arial, Sans-serif">Created by Joana Pereira</text>
  <text x="0" y="120" fill="#000000" font-size="5px" font-weight="bold" font-family="'Helvetica Neue', Helvetica, Arial-Unicode, Arial, Sans-serif">from the Noun Project</text>
</svg>
