<svg xmlns="http://www.w3.org/2000/svg" xmlns:xlink="http://www.w3.org/1999/xlink" version="1.1" preserveAspectRatio="none" x="0px" y="0px" viewBox="0 0 100 125"><defs><g id="a"><path fill="#000000" stroke="none" d=" M 71.15 16.6 Q 62.5 2.8 42.35 0 L 33.6 0 33.6 0.1 Q 15.65 2.55 6.65 16.45 0 26.75 0 38.45 0 51.05 6.45 60.55 17.55 76.65 44.6 76.65 53.9 76.65 61.45 73.3 66.75 70.9 68.35 68.6 73.55 61.5 75.55 51 76.75 44.85 76.75 38 76.75 25.7 71.15 16.6 M 42.9 4.3 Q 60.4 6.6 68.05 18.9 73.1 27.1 73.1 38.15 73.1 50.4 68.8 59.1 62.05 72.85 46.25 71.8 L 35.05 71.8 Q 15.8 67.95 8.6 57.75 3.65 50.8 3.65 38.6 3.65 28.45 9.45 19.3 17.3 6.85 33.05 4.3 L 42.9 4.3 M 32 17.25 Q 29.2 17.4 29.2 20.25 29.2 21.35 29.45 21.95 30.05 23.45 31.95 23.45 34.75 23.45 34.75 20.5 34.75 17.1 32 17.25 M 63.65 26.1 Q 63.85 26.75 64.05 27.3 L 23.4 27.3 Q 14.7 27.35 11.45 27.55 11.65 27.05 11.65 26.75 11.65 24.35 9.8 26 7.9 27.65 7.9 31.15 7.9 31.9 8.65 32.55 9 32.3 10.25 29.95 10.3 29.9 10.3 29.85 13.65 30.35 23.4 30.3 L 64.15 30.3 Q 64.65 30.25 65 30.2 65.65 31.8 65.9 31.8 66.8 31.8 67.25 28.85 67.25 27.35 65.45 25.65 63.65 23.95 63.65 26.1 M 44.7 23.45 Q 48 23.45 48 19.3 48 15.95 44.95 16.85 41.85 17.75 41.85 20 41.85 20.1 42.2 21.8 42.9 23.45 44.7 23.45 Z"/></g></defs><g transform="matrix( 1, 0, 0, 1, 11.65,11.7) "><g transform="matrix( 1, 0, 0, 1, 0,0) "><use xlink:href="#a"/></g></g><text x="0" y="115" fill="#000000" font-size="5px" font-weight="bold" font-family="'Helvetica Neue', Helvetica, Arial-Unicode, Arial, Sans-serif">Created by Pencil</text><text x="0" y="120" fill="#000000" font-size="5px" font-weight="bold" font-family="'Helvetica Neue', Helvetica, Arial-Unicode, Arial, Sans-serif">from the Noun Project</text></svg>