<svg xmlns="http://www.w3.org/2000/svg" xmlns:xlink="http://www.w3.org/1999/xlink" version="1.1" x="0px" y="0px" viewBox="0 0 100 125" enable-background="new 0 0 100 100" xml:space="preserve"><path fill="#000000" d="M63.728,14.854l-0.089-0.102c-0.398-0.458-0.85-0.854-1.343-1.174C58.195,10.909,52.34,14,51.171,14.669  c-2.37,1.638-4.546,3.575-6.471,5.757l-0.22,0.249l1.656,3.423l-2.576-2.317l-0.329,0.426c-1.19,1.541-2.252,3.176-3.156,4.86  c-0.298,0.557-0.57,1.109-0.828,1.657l-0.08,0.169l0.237,0.833l-0.321-0.699l-0.44,1.049c-0.938,2.236-1.65,4.584-2.113,6.98  l-0.028,0.146l0.734,1.806l-0.851-1.321l-0.182,1.343c-0.1,0.739-0.169,1.413-0.209,1.959c-1.096,6.301-1.048,12.517,0.142,18.475  l0.027,0.134l1.333,1.485l-1.067-0.241l0.196,0.788c0.288,1.153,0.595,2.224,0.941,3.274c0.795,2.415,1.8,4.79,2.987,7.059  l0.298,0.57l0,0c0.206,3.013,0.524,7.167,0.725,10.133c-0.004,0.014-0.009,0.026-0.013,0.039c-0.002,0.006-0.005,0.012-0.007,0.02  c-0.025,0.097-0.039,0.187-0.046,0.269c-0.007,0.082-0.007,0.154-0.005,0.214c0.058,0.287,0.118,0.576,0.178,0.865  c0.207,0.988,0.421,1.961,0.644,2.919c0.048,0,0.096,0,0.145,0c0.062-1.343,0.284-1.982,0.496-2.314  c0.027-0.042,0.091-0.138,0.163-0.28c0.036-0.071,0.073-0.153,0.109-0.246s0.069-0.196,0.097-0.308  c0.06-0.24,0.074-0.446,0.076-0.585c0.006-0.127,0.002-0.283-0.025-0.458c-0.011-0.07-0.032-0.117-0.048-0.178  c-0.022-0.083-0.04-0.174-0.066-0.244c-0.217-3.326-0.434-6.651-0.651-9.977c-0.008-0.425-0.013-0.959-0.014-1.569  c0.831-0.854,1.626-1.741,2.333-2.692c2.69-3.618,3.76-6.972,4.516-10.057l0.296-1.211l-0.012,0.008  c0.17-0.759,0.333-1.528,0.497-2.312c0.637-3.027,1.296-6.157,2.661-9.759c1.318-3.48,3.139-6.89,5.414-10.134l0.333-0.475  l-0.639-0.32l1.075-0.234l0.111-0.142c2.302-2.93,3.879-6.38,4.562-9.977c0.058-0.306,0.102-0.604,0.153-0.957l0.129-0.886  l-2.285,0.987l2.356-2.035l0.011-0.214c0.092-1.835-0.03-3.665-0.363-5.438L63.728,14.854z M63.127,20.163l-6.959,6.011l6.607-2.854  c-0.001,0.008-0.003,0.015-0.004,0.022c-0.642,3.383-2.112,6.631-4.255,9.405l-3.49,0.759l2.138,1.072  c-2.169,3.17-3.917,6.491-5.201,9.878c-1.392,3.674-2.059,6.843-2.704,9.907c-0.159,0.754-0.314,1.494-0.478,2.225l-2.839,2.727  l0.615,0.782l1.611-1.028c-0.722,2.64-1.796,5.47-4.031,8.476c-0.475,0.639-0.985,1.254-1.52,1.849  c0.002-0.11,0.002-0.212,0.004-0.325c0.066-3.714,0.398-10.038,2.624-20.611c1.255-5.961,3.219-13.776,6.374-22.884  c-1.891,4.102-3.734,8.697-5.364,13.772c-3.568,11.113-5.604,28.092-5.604,29.571c0,0.222,0.015,0.6,0.04,1.074  c-0.839-1.757-1.573-3.564-2.177-5.398c-0.258-0.784-0.495-1.58-0.717-2.415l2.535,0.572l-3.244-3.615  c-1.14-5.796-1.177-11.843-0.105-18.021c0.014-0.183,0.031-0.373,0.049-0.571l2.261,3.509l0.884-0.459l-2.639-6.49  c0.375-1.897,0.911-3.764,1.596-5.564l2.07,4.508l0.936-0.345l-1.909-6.719c0.227-0.477,0.465-0.957,0.724-1.441  c0.794-1.48,1.714-2.922,2.739-4.292l5.559,5l-3.583-7.408c1.815-2.02,3.854-3.817,6.032-5.325  c1.043-0.595,6.433-3.449,10.048-1.098c0.379,0.247,0.729,0.546,1.044,0.892C63.083,16.893,63.194,18.524,63.127,20.163z"/><text x="0" y="115" fill="#000000" font-size="5px" font-weight="bold" font-family="'Helvetica Neue', Helvetica, Arial-Unicode, Arial, Sans-serif">Created by Romualdas Jurgaitis</text><text x="0" y="120" fill="#000000" font-size="5px" font-weight="bold" font-family="'Helvetica Neue', Helvetica, Arial-Unicode, Arial, Sans-serif">from the Noun Project</text></svg>