<svg xmlns:dc="http://purl.org/dc/elements/1.1/" xmlns:cc="http://creativecommons.org/ns#" xmlns:rdf="http://www.w3.org/1999/02/22-rdf-syntax-ns#" xmlns:svg="http://www.w3.org/2000/svg" xmlns="http://www.w3.org/2000/svg" xmlns:sodipodi="http://sodipodi.sourceforge.net/DTD/sodipodi-0.dtd" xmlns:inkscape="http://www.inkscape.org/namespaces/inkscape" version="1.1" x="0px" y="0px" viewBox="0 0 100 125">
  <g transform="translate(0,-952.36218)">
    <path style="opacity:1;fill:#000000;stroke:none" d="m 50.000008,957.36218 c -4.04543,7.174 -3.63428,16.9393 -4.36829,26.0388 -3.08576,3.2616 -5.5914,6.6408 -6.98925,8.7379 l -2.79569,10.66022 -18.346776,21.4951 0,4.0195 3.145161,2.2718 11.881725,1.9223 -5.591402,6.6408 1.223118,3.6699 10.309144,1.7476 2.44623,-9.0874 c 0.32992,2.2525 0.66528,4.5023 1.22312,6.6408 l 3.3199,0.1747 c 0.61598,-1.7703 1.00979,-3.6794 1.39785,-5.5922 l 0.52419,0.1748 c 0.0385,4.2375 0.38592,8.2006 2.62097,10.4854 2.23503,-2.2848 2.58243,-6.2479 2.62097,-10.4854 l 0.52419,-0.1748 c 0.38804,1.9128 0.78185,3.8219 1.39785,5.5922 l 3.31988,-0.1747 c 0.55784,-2.1385 0.8932,-4.3883 1.22313,-6.6408 l 2.44623,9.0874 10.30915,-1.7476 1.22311,-3.6699 -5.5914,-6.6408 11.88172,-1.9223 3.14516,-2.2718 0,-4.0195 -18.34677,-21.4951 -2.7957,-10.66022 c -1.39785,-2.0971 -3.90349,-5.4763 -6.98925,-8.7379 -0.734,-9.0995 -0.32286,-18.8648 -4.36827,-26.0388 z m 0,11.8835 c 1.74731,0.3495 2.09676,4.0194 2.09676,6.1165 -0.34945,-0.5243 -1.22311,-1.0485 -2.09676,-1.0485 -0.87366,0 -1.74732,0.5242 -2.09678,1.0485 0,-2.0971 0.34946,-5.767 2.09678,-6.1165 z m 0,5.767 c 0.87365,0 1.39784,0.3495 2.09676,1.0485 l 0,2.6214 c -0.17472,1.0485 -0.69892,1.2233 -2.09676,1.2233 -1.39785,0 -1.92205,-0.1748 -2.09678,-1.2233 l 0,-2.6214 c 0.69893,-0.699 1.22312,-1.0485 2.09678,-1.0485 z"/>
  </g>
  <text x="0" y="115" fill="#000000" font-size="5px" font-weight="bold" font-family="'Helvetica Neue', Helvetica, Arial-Unicode, Arial, Sans-serif">Created by Kirill Tomilov</text>
  <text x="0" y="120" fill="#000000" font-size="5px" font-weight="bold" font-family="'Helvetica Neue', Helvetica, Arial-Unicode, Arial, Sans-serif">from the Noun Project</text>
</svg>
