<svg xmlns="http://www.w3.org/2000/svg" xmlns:xlink="http://www.w3.org/1999/xlink" version="1.1" x="0px" y="0px" viewBox="0 0 120 150" style="enable-background:new 0 0 120 120;" xml:space="preserve"><g><path d="M80.7,80.7c-2.1,0-2.1,0.9-2.1,1.9c0,1.2,0,2.1,2.1,2.1c2.1,0,2.1-0.9,2.1-2.1C82.7,81.6,82.7,80.7,80.7,80.7z"/><path d="M19.9,20.5c0,0,0,0.1,0.1,0.1c9.3,3.1,19.3,4,29,4.4c15,0.6,30.6,0.4,45.2-3.2c3.2-0.8,7-1.9,9.6-3.1   c0.8-0.4,1.6-0.6,2.2-1.2c-4.3-2.1-17.6-7.5-46.5-7.5c-30.4,0-42.2,5.3-46,7.5c0.4,0.3,0.8,0.5,1.2,0.6   C16.5,19.3,18,19.7,19.9,20.5z"/><path d="M108.6,20c-1.3,1.9-8.4,3.8-10.6,4.4c-11.9,3.4-24.5,4.3-36.7,4.4c-13.3,0-27.3-0.4-40.2-4.3c-3.2-0.9-7.4-2.1-10-4.5   c-6,9.2-9.5,20.1-9.5,31.7c0,32.3,0,58.3,58.2,58.3c58.2,0,58.2-26,58.2-58.3C118.1,40.1,114.7,29.2,108.6,20z M88.8,45.1   c0,1.8,0,3.4-3.4,3.4c-3.5,0-3.5-1.6-3.5-3.4c0-1.9,0-3.5,3.5-3.5C88.8,41.6,88.8,43.2,88.8,45.1z M80.9,34c2.3,0,2.3,1,2.3,2.3   c0,1.3,0,2.3-2.3,2.3c-2.3,0-2.3-1-2.3-2.3C78.6,35,78.6,34,80.9,34z M79.8,52.8c4.1,0,4.1,1.8,4.1,4c0,2.3,0,4.1-4.1,4.1   c-4.1,0-4.1-1.8-4.1-4.1C75.6,54.6,75.6,52.8,79.8,52.8z M87,80.2c-0.1,8.3-8.3,14.9-18.4,14.9c-0.1,0-0.4,0-0.5,0   c-2.5,0-5.3-0.6-8.3-1.7c-1,1.3-2.7,2.5-3.9,2.5c-0.1,0-0.3-0.1-0.4-0.1c-1-0.4-1.8-2.7-1.8-4.5c0-0.1,0-0.3,0-0.4   c-6.1-2.9-11.8-6.3-14.1-7.9c-3.1,3.5-9.5,6.9-13.3,6.9c-0.9,0-1.7-0.1-2.3-0.6c-2.1-1.6-3.1-6-3.1-10.4c0-4.3,1-8.4,3.1-9.7   c0.6-0.4,1.3-0.5,2.2-0.5c4.3,0,11.3,3.9,14.1,7.6c2.2-1.3,6.2-3.6,10.8-5.8c-0.1-0.6-0.3-1.6-0.3-2.3c0-4.7,2.2-10.9,4.9-11.8   c0.3-0.1,0.6-0.1,1-0.1c3.6,0,9.8,5.1,11.5,8.9C77,65.5,87,70.9,87,80.1V80.2z M86.9,67.1c-1.9,0-1.9-0.9-1.9-2.1   c0-1,0-1.9,1.9-1.9c2.1,0,2.1,0.9,2.1,1.9C89,66.2,89,67.1,86.9,67.1z"/></g><text x="0" y="135" fill="#000000" font-size="5px" font-weight="bold" font-family="'Helvetica Neue', Helvetica, Arial-Unicode, Arial, Sans-serif">Created by Viet EDC</text><text x="0" y="140" fill="#000000" font-size="5px" font-weight="bold" font-family="'Helvetica Neue', Helvetica, Arial-Unicode, Arial, Sans-serif">from the Noun Project</text></svg>