<svg xmlns="http://www.w3.org/2000/svg" xmlns:xlink="http://www.w3.org/1999/xlink" version="1.1" x="0px" y="0px" viewBox="0 0 100 125" enable-background="new 0 0 100 100" xml:space="preserve"><g><path fill="none" d="M60.704,37.591h-21.41c-4.579,0-8.414,3.727-8.414,8.308v8.2c0,4.579,3.835,8.415,8.414,8.415h21.41   c4.685,0,8.415-3.836,8.415-8.415v-8.2C69.12,41.317,65.39,37.591,60.704,37.591z M50.692,48.03   c0.851,0.214,1.492,1.063,1.492,2.022c0,0.96-0.642,1.707-1.492,2.027V48.03z M35.033,59.639c-1.702-1.28-2.765-3.302-2.765-5.541   v-8.2c0-2.236,1.063-4.261,2.765-5.538V59.639z M49.414,52.078c-0.851-0.32-1.494-1.066-1.494-2.027   c0-0.959,0.643-1.808,1.494-2.022V52.078z M49.414,46.643c-1.599,0.319-2.876,1.705-2.876,3.408c0,1.601,1.277,3.09,2.876,3.408   v7.669h-10.12c-1.063,0-2.022-0.212-2.981-0.639v-7.775c1.277-0.319,2.236-1.49,2.236-2.876c0-1.383-0.959-2.554-2.236-2.768V39.51   c0.959-0.426,1.917-0.642,2.981-0.642h10.12V46.643z M63.791,47.071c-1.277,0.214-2.234,1.385-2.234,2.768   c0,1.386,0.957,2.557,2.234,2.876v7.775c-0.957,0.426-1.916,0.639-3.087,0.639H50.692V53.46c1.599-0.319,2.77-1.808,2.77-3.408   c0-1.703-1.171-3.09-2.77-3.408v-7.775h10.013c1.171,0,2.13,0.216,3.087,0.642V47.071z M67.839,54.098   c0,2.239-1.065,4.261-2.768,5.541V40.361c1.703,1.277,2.768,3.302,2.768,5.538V54.098z"/><path fill-rule="evenodd" clip-rule="evenodd" d="M47.92,50.051c0,0.96,0.643,1.707,1.494,2.027V48.03   C48.564,48.244,47.92,49.093,47.92,50.051z"/><path fill-rule="evenodd" clip-rule="evenodd" d="M36.313,39.51v7.561c1.277,0.214,2.236,1.385,2.236,2.768   c0,1.386-0.959,2.557-2.236,2.876v7.775c0.959,0.426,1.917,0.639,2.981,0.639h10.12V53.46c-1.599-0.319-2.876-1.808-2.876-3.408   c0-1.703,1.277-3.09,2.876-3.408v-7.775h-10.12C38.231,38.868,37.272,39.083,36.313,39.51z"/><path fill-rule="evenodd" clip-rule="evenodd" d="M52.184,50.051c0-0.959-0.642-1.808-1.492-2.022v4.048   C51.543,51.758,52.184,51.012,52.184,50.051z"/><path fill-rule="evenodd" clip-rule="evenodd" d="M32.268,45.898v8.2c0,2.239,1.063,4.261,2.765,5.541V40.361   C33.332,41.638,32.268,43.663,32.268,45.898z"/><path fill-rule="evenodd" clip-rule="evenodd" d="M50.692,38.868v7.775c1.599,0.319,2.77,1.705,2.77,3.408   c0,1.601-1.171,3.09-2.77,3.408v7.669h10.013c1.171,0,2.13-0.212,3.087-0.639v-7.775c-1.277-0.319-2.234-1.49-2.234-2.876   c0-1.383,0.957-2.554,2.234-2.768V39.51c-0.957-0.426-1.916-0.642-3.087-0.642H50.692z"/><path fill-rule="evenodd" clip-rule="evenodd" d="M65.071,40.361v19.279c1.703-1.28,2.768-3.302,2.768-5.541v-8.2   C67.839,43.663,66.775,41.638,65.071,40.361z"/><path fill-rule="evenodd" clip-rule="evenodd" d="M50.053,4.998C25.238,4.998,5,25.234,5,50.051   c0,24.709,20.238,44.95,45.053,44.95C74.868,95.002,95,74.761,95,50.051C95,25.234,74.868,4.998,50.053,4.998z M69.12,54.098   c0,4.579-3.73,8.415-8.415,8.415h-21.41c-4.579,0-8.414-3.836-8.414-8.415v-8.2c0-4.581,3.835-8.308,8.414-8.308h21.41   c4.685,0,8.415,3.727,8.415,8.308V54.098z"/></g><text x="0" y="115" fill="#000000" font-size="5px" font-weight="bold" font-family="'Helvetica Neue', Helvetica, Arial-Unicode, Arial, Sans-serif">Created by Vladimir Belochkin</text><text x="0" y="120" fill="#000000" font-size="5px" font-weight="bold" font-family="'Helvetica Neue', Helvetica, Arial-Unicode, Arial, Sans-serif">from the Noun Project</text></svg>