<svg xmlns="http://www.w3.org/2000/svg" xmlns:xlink="http://www.w3.org/1999/xlink" version="1.1" x="0px" y="0px" viewBox="0 0 100 125" enable-background="new 0 0 100 100" xml:space="preserve"><g><g><path d="M79.163,69.613c0.488-3.827-0.07-6.785-0.095-6.914c-0.164-0.83-0.81-1.483-1.638-1.66c0,0-4.851-1.028-6.219-1.312    c-1.343-0.276-2.488-0.535-3.47-0.786c0.562-4.738,1.437-10.492,1.671-12.014c1.281-0.256,2.687-0.402,4.288-0.425    c0.624-0.011,1.213-0.295,1.608-0.777c0.395-0.482,0.557-1.116,0.442-1.729C73.3,30.856,61.814,21.32,48.441,21.32    c-15.33,0-27.804,12.472-27.804,27.802c0,5.276,1.507,10.429,4.357,14.9c0.59,0.929,1.792,1.249,2.77,0.738    c0.182-0.096,0.366-0.189,0.56-0.275c1.01-0.441,1.983-0.656,2.978-0.656c2.5,0,4.899,1.39,7.441,2.861    c2.912,1.688,5.924,3.433,9.562,3.433c1.569,0,3.142-0.342,4.676-1.012c0.798-0.351,1.501-0.753,2.134-1.193l8.731,1.431    c1.637,4.932,5.646,8.551,10.895,9.309c0.103,0.017,0.203,0.022,0.305,0.022c0.786,0,1.518-0.438,1.883-1.152    c0.063-0.121,1.543-3.052,2.19-7.531c0.014-0.091,0.019-0.174,0.03-0.262c0-0.009,0.006-0.014,0.007-0.022    C79.162,69.679,79.159,69.646,79.163,69.613z M70.354,63.873c0.875,0.183,3.182,0.67,4.721,0.995    c0.043,0.549,0.07,1.246,0.054,2.038l-7.765-1.274c-0.077-0.691-0.114-1.4-0.068-2.134c0.006-0.094,0.013-0.189,0.02-0.289    C68.262,63.436,69.273,63.65,70.354,63.873z M63.658,57.442c-1.277-0.78-1.766-1.729-2.13-3.138    c0.629-2.285,1.503-4.239,3.33-5.577C64.519,51.016,64.042,54.335,63.658,57.442z M51.286,65.232    c-1.012,0.441-1.986,0.656-2.98,0.656c-2.5,0-4.899-1.39-7.441-2.861c-2.912-1.688-5.924-3.433-9.562-3.433    c-1.216,0-2.435,0.204-3.64,0.612c-1.83-3.413-2.79-7.212-2.79-11.085c0-12.995,10.574-23.567,23.569-23.567    c10.514,0,19.653,6.955,22.579,16.853c-2.408,0.231-4.481,0.749-6.391,1.585c-5.731,2.506-6.878,7.6-7.89,12.094    C55.836,60.107,55.054,63.584,51.286,65.232z M58.486,64.177c0.737-1.299,1.243-2.699,1.64-4.113    c0.852,0.772,1.861,1.373,3.043,1.869c-0.041,0.469-0.074,0.904-0.1,1.304c-0.035,0.573-0.033,1.133-0.014,1.69L58.486,64.177z     M68.877,70.173l5.735,0.939c-0.262,1.211-0.572,2.233-0.84,2.983C71.712,73.412,70.019,72.02,68.877,70.173z"/><path d="M45.837,45.131c-4.065,0-7.374,3.308-7.374,7.374s3.309,7.374,7.374,7.374c4.066,0,7.375-3.308,7.375-7.374    S49.903,45.131,45.837,45.131z M45.837,55.645c-1.73,0-3.14-1.408-3.14-3.14s1.409-3.14,3.14-3.14c1.731,0,3.141,1.408,3.141,3.14    S47.568,55.645,45.837,55.645z"/></g></g><text x="0" y="115" fill="#000000" font-size="5px" font-weight="bold" font-family="'Helvetica Neue', Helvetica, Arial-Unicode, Arial, Sans-serif">Created by naim</text><text x="0" y="120" fill="#000000" font-size="5px" font-weight="bold" font-family="'Helvetica Neue', Helvetica, Arial-Unicode, Arial, Sans-serif">from the Noun Project</text></svg>