<svg xmlns="http://www.w3.org/2000/svg" xmlns:xlink="http://www.w3.org/1999/xlink" version="1.1" x="0px" y="0px" viewBox="0 0 100 125" style="enable-background:new 0 0 100 100;" xml:space="preserve"><path d="M39.07,85.648l2.717,0.892v2.885l-2.717,0.892l-1.672-2.333L39.07,85.648z M46.532,87.983c0,3.724-3.029,6.754-6.754,6.754  c-3.725,0-6.754-3.03-6.754-6.754c0-3.725,3.029-6.756,6.754-6.756C43.502,81.228,46.532,84.259,46.532,87.983z M45.322,86.478  l-2.428-0.6l0.186-2.612c-0.852-0.597-1.873-0.953-2.977-1.017l-1.291,2.074l-2.426-0.984c-0.917,0.672-1.618,1.602-2.013,2.688  l1.649,1.956l-1.649,1.954c0.386,1.061,1.066,1.971,1.952,2.639l2.3-0.935l1.303,2.092c1.171-0.029,2.252-0.403,3.147-1.03  l-0.182-2.545l2.403-0.594c0.144-0.507,0.247-1.029,0.247-1.581C45.544,87.458,45.451,86.962,45.322,86.478z M92.197,28.615  c-0.141,0.181-0.406,0.396-0.876,0.396c-0.781,0-1.848-0.604-3.084-1.305c-0.685-0.388-1.393-0.789-2.016-1.056  c-1.417-0.607-2.572-0.609-4.172-0.612c-0.552-0.001-1.147-0.002-1.81-0.029c-1.313-0.052-2.45-0.023-3.563,0.002  c-1.096,0.027-2.174,0.051-3.364,0.004c-1.334-0.054-1.958,0.233-2.853,0.642c-0.617,0.283-1.318,0.604-2.392,0.882  c-2.345,0.608-5.437,1.876-7.076,3.613c-0.979,1.036-1.445,2.225-1.985,3.602c-0.317,0.81-0.646,1.647-1.111,2.541  c-1.273,2.449-3.135,7.839-3.41,10.408c-0.064,0.609-0.136,1.382-0.213,2.234c-0.275,3.03-0.618,6.802-1.16,8.277  c-0.789,2.141-4.274,6.629-4.31,6.675c-0.605,0.778-1.65,3.126-1.928,4.329c-0.336,1.458-3.496,4.546-5.139,5.511  c-1.007,0.593-2.791,2.387-4.224,3.826c-0.808,0.812-1.506,1.515-1.96,1.899c-0.686,0.581-1.639,1.911-2.561,3.199  c-0.687,0.96-1.336,1.867-1.909,2.521c-1.4,1.6-2.938,3.186-5.018,3.055c-1.821-0.096-2.378-1.07-2.967-2.102  c-0.099-0.174-0.202-0.354-0.315-0.538c-0.379-0.616-0.488-1.22-0.325-1.795c0.201-0.702,0.798-1.307,1.776-1.795  c1.263-0.632,4.62-2.73,6.087-3.806c1.163-0.854,2.542-2.889,3.283-3.982l0.356-0.521c0.247-0.353,0.575-1.146,0.955-2.062  c0.587-1.42,1.319-3.186,2.302-4.748c0.748-1.188,1.445-2.07,1.954-2.715c0.409-0.518,0.873-1.104,0.862-1.282  c-0.062-0.064-0.464-0.18-0.729-0.257c-0.505-0.146-1.078-0.312-1.511-0.69c-0.343-0.301-0.42-0.727-0.354-1.185  c-1.649,1.502-3.925,3.578-4.851,4.445c-1.338,1.255-3.369,2.842-6.21,4.853c-2.037,1.442-2.749,2.489-3.651,3.812l-0.268,0.394  c-0.362,0.526-0.848,1.279-1.393,2.121c-1.031,1.597-2.314,3.582-3.335,4.924c-1.519,1.992-3.1,6.255-3.272,7.376  c-0.053,0.345-0.029,0.751-0.003,1.181c0.06,0.993,0.135,2.229-0.784,3.3C13.157,94.756,12.744,95,12.244,95  c-0.32,0-0.626-0.108-0.979-0.232c-0.432-0.152-0.969-0.342-1.783-0.44c-2.542-0.305-2.364-2.413-2.288-3.313  c0.012-0.137,0.022-0.257,0.022-0.354c0-0.562,0.645-1.646,2.014-3.815c0.549-0.872,1.068-1.695,1.311-2.18  c0.494-0.986,1.917-5.187,2.768-7.695c0.291-0.858,0.53-1.563,0.671-1.965c0.644-1.823,4.54-5.741,5.145-6.271  c0.558-0.488,1.774-3.137,2.5-4.721c0.169-0.368,0.325-0.705,0.457-0.986c0.296-0.629,0.583-1.449,0.886-2.319  c0.481-1.377,0.977-2.801,1.641-3.887c0.352-0.575,0.875-1.547,1.43-2.574c1.158-2.146,2.47-4.579,3.333-5.574  c2.688-3.101,4.38-5.332,5.031-6.632c-0.003,0,1.425-3.814,2.085-5.984c0.521-1.712,1.112-5.556,1.335-7.079  c-0.105,0.007-0.216,0.011-0.331,0.011c-0.632,0-1.111-0.132-1.424-0.393c-0.372-0.31-0.935-0.373-1.567-0.193  c-0.644,0.184-1.724,0.291-3.878-0.084c-1.29-0.225-2.048-0.588-2.458-1.178c-0.451-0.65-0.373-1.462-0.253-2.097  c0.276-1.473,1.961-2.9,3.449-4.159c0.261-0.221,0.515-0.436,0.753-0.644c1.627-1.424,4.764-3.072,6.476-3.833  c1.535-0.682,3.713-0.574,6.792,0.364c0.528,0.161,1.273,0.331,2.074,0.494c-0.317-0.816-0.408-1.928-0.484-2.875  c-0.036-0.435-0.064-0.815-0.115-1.067c-0.177-0.885-0.328-4.871,1.213-6.346c0.999-0.956,3.889-2.129,5.496-1.962  c2.657,0.285,4.121,1.522,4.478,3.783c0.24,1.531,0.485,3.682,0.291,5.238c-0.123,0.98-0.708,1.774-1.178,2.412  c-0.318,0.433-0.62,0.842-0.649,1.136c-0.052,0.525,0.771,0.811,0.807,0.823c-0.002-0.027,1.952,0.267,4.569,0.267  c1.891,0,3.28,0.278,4.753,0.573c0.673,0.134,1.371,0.274,2.154,0.395c1.814,0.279,3.227,0.406,5.014,0.565  c0.661,0.059,1.373,0.123,2.175,0.2c1.915,0.186,4.524,0.798,6.621,1.29c1.223,0.287,2.277,0.535,2.935,0.638  c0.674,0.106,1.638,0.021,2.539-0.077c1.23-0.134,2.511-0.206,3.331,0.102c0.397,0.149,0.934,0.546,1.229,1.588  C93.046,25.414,92.821,27.812,92.197,28.615z M52.486,18.586c-0.02,0.258-0.235,0.458-0.494,0.458c-0.152,0-2.572-0.373-4.646-0.791  c0.557,0.894,2.1,2.949,4.722,3.323c2.601,0.373,3.946-1.564,4.426-2.467c-0.546-0.312-1.051-0.84-0.975-1.623  c0.058-0.565,0.437-1.081,0.839-1.626c0.442-0.601,0.9-1.223,0.991-1.947c0.05-0.393,0.065-0.836,0.061-1.296  c-0.229-0.682-0.561-1.348-1.011-1.442c-0.542-0.115-0.563,1.412-0.801,2.145c-0.183,0.564-0.643,0.367-0.643,0.367  s0.096-1.058,0-2.79s-0.77-2.021-3.079-2.213c-1.569-0.131-3.082,0.39-3.901,0.74c-0.302,1.388-0.272,3.083-0.147,3.706  c0.059,0.293,0.092,0.705,0.13,1.181c0.08,0.979,0.213,2.618,0.689,3.05c0.205,0.138,1.256,0.359,3.113,0.647  c0.078,0.012,0.158,0.025,0.237,0.042c0.019,0.003,0.031,0.004,0.038,0.005v0.004C52.296,18.122,52.513,18.244,52.486,18.586z   M38.308,27.921c0.032-0.006,0.064-0.01,0.096-0.01c0.082,0,0.158,0.027,0.23,0.065c0.124-0.53,0.242-0.986,0.347-1.301  c0.578-1.732-0.289-2.694-0.577-3.464c-0.289-0.77-2.021-0.77-3.945-1.443c-0.911-0.319-1.718-0.324-2.323-0.244  c-0.047,0.04-0.089,0.077-0.137,0.117c-1.293,1.095-2.903,2.458-3.115,3.585c-0.123,0.66-0.095,1.076,0.094,1.348  c0.24,0.346,0.833,0.596,1.812,0.767c0.997,0.173,1.756,0.258,2.322,0.258c0.491,0,0.8-0.06,1.114-0.15  c0.95-0.271,1.85-0.135,2.474,0.385c0.046,0.038,0.239,0.163,0.79,0.163C37.917,27.998,38.304,27.922,38.308,27.921z M33.772,63.756  c-0.834-0.526-2.721-1.715-4.316-2.73c-1.618-1.031-4.161-0.908-5.27-0.794c-0.096,0.268-0.19,0.536-0.284,0.803  c-0.312,0.895-0.607,1.74-0.925,2.415c-0.131,0.278-0.284,0.612-0.452,0.979c-1.111,2.421-2.085,4.473-2.75,5.053  c-0.417,0.365-1.439,1.396-2.445,2.53c0.117,0.515,0.424,1.217,1.252,1.715c0.997,0.598,2.254,0.961,2.946,1.132  c0.036-0.053,0.076-0.113,0.11-0.162l0.266-0.39c0.92-1.351,1.715-2.518,3.897-4.064c2.803-1.983,4.801-3.543,6.105-4.767  C32.32,65.088,33.001,64.462,33.772,63.756z M51.345,59.499c-0.673-0.868-2.378-2.791-4.665-3.381  c-2.983-0.77-3.753,0.096-5.196,1.828c-1.113,1.335-1.454,3.783-1.552,4.838c0.516,0.168,1.001,0.405,1.081,0.961  c0.083,0.583-0.349,1.13-1.065,2.036c-0.011,0.015-0.024,0.031-0.036,0.046c0.242,0.667,0.777,1.744,1.861,2.319  c1.218,0.645,3.184,0.862,4.107,0.931c0.009-0.025,0.022-0.057,0.028-0.081c0.287-1.24,1.362-3.75,2.111-4.716  C48.674,63.44,50.294,61.252,51.345,59.499z M91.677,24.221c-0.1-0.355-0.289-0.805-0.622-0.93  c-0.639-0.239-1.718-0.172-2.875-0.044c-0.964,0.105-2.014,0.194-2.802,0.07c-0.692-0.109-1.765-0.361-3.006-0.652  c-2.067-0.485-4.642-1.089-6.49-1.269c-0.8-0.077-1.508-0.141-2.167-0.199c-1.298-0.116-2.402-0.216-3.604-0.369  c0.15,0.422,0.332,1.132,0.432,2.288c0.102,1.177-0.063,2.002-0.24,2.525c0.831-0.376,1.608-0.675,3.05-0.615  c1.172,0.047,2.226,0.022,3.301-0.005c1.135-0.027,2.293-0.056,3.626-0.001c0.65,0.025,1.232,0.026,1.772,0.027  c1.653,0.003,2.958,0.005,4.562,0.692c0.674,0.289,1.406,0.704,2.114,1.104c0.973,0.551,2.075,1.176,2.595,1.176  C91.745,27.582,92.068,25.604,91.677,24.221z"/><text x="0" y="115" fill="#000000" font-size="5px" font-weight="bold" font-family="'Helvetica Neue', Helvetica, Arial-Unicode, Arial, Sans-serif">Created by Christian Mohr</text><text x="0" y="120" fill="#000000" font-size="5px" font-weight="bold" font-family="'Helvetica Neue', Helvetica, Arial-Unicode, Arial, Sans-serif">from the Noun Project</text></svg>