<svg xmlns="http://www.w3.org/2000/svg" xmlns:xlink="http://www.w3.org/1999/xlink" version="1.1" x="0px" y="0px" viewBox="0 0 100 125" enable-background="new 0 0 100 100" xml:space="preserve"><g><path fill="#000000" d="M60.113,80.972l2.381-6.162c0.134-0.349,0.525-0.523,0.873-0.386c0.348,0.134,0.521,0.525,0.386,0.873   l-2.381,6.162c-0.103,0.268-0.359,0.432-0.629,0.432c-0.081,0-0.163-0.015-0.243-0.046C60.151,81.71,59.978,81.319,60.113,80.972z    M63.595,81.844c0.08,0.031,0.162,0.046,0.243,0.046c0.271,0,0.526-0.164,0.629-0.432l2.382-6.162   c0.135-0.348-0.038-0.738-0.386-0.873c-0.345-0.137-0.739,0.038-0.873,0.386l-2.382,6.162   C63.074,81.319,63.247,81.71,63.595,81.844z M66.583,81.844c0.08,0.031,0.162,0.046,0.243,0.046c0.271,0,0.526-0.164,0.63-0.432   l2.381-6.162c0.134-0.348-0.039-0.738-0.387-0.873c-0.348-0.137-0.739,0.038-0.873,0.386l-2.381,6.162   C66.062,81.319,66.235,81.71,66.583,81.844z M49.331,23.389l-10.555,9.875c-0.272,0.254-0.287,0.682-0.032,0.954   c0.133,0.142,0.312,0.214,0.493,0.214c0.166,0,0.331-0.06,0.461-0.182l10.555-9.874c0.272-0.255,0.287-0.682,0.032-0.954   C50.03,23.148,49.603,23.135,49.331,23.389z M39.312,28.992c0.166,0,0.331-0.06,0.461-0.182l5.203-4.867   c0.272-0.255,0.287-0.682,0.032-0.954s-0.682-0.286-0.954-0.032l-5.203,4.867c-0.272,0.255-0.287,0.682-0.032,0.954   C38.952,28.92,39.132,28.992,39.312,28.992z M33.816,45.926V19.272c0-0.373,0.302-0.675,0.675-0.675h30.871   c0.373,0,0.675,0.302,0.675,0.675v26.654c0,0.373-0.302,0.675-0.675,0.675H34.491C34.119,46.601,33.816,46.299,33.816,45.926z    M35.166,45.251h29.521V19.947H35.166V45.251z M29.668,48.314V16.886c0-1.073,0.874-1.946,1.947-1.946h36.623   c1.073,0,1.947,0.873,1.947,1.946v31.428c0,1.073-0.874,1.946-1.947,1.946H31.615C30.542,50.26,29.668,49.387,29.668,48.314z    M31.418,48.314c0,0.106,0.09,0.196,0.197,0.196h36.623c0.106,0,0.197-0.09,0.197-0.196V16.886c0-0.106-0.09-0.196-0.197-0.196   H31.615c-0.106,0-0.197,0.09-0.197,0.196V48.314z M70.318,85.003H29.682c-0.373,0-0.675,0.302-0.675,0.675s0.302,0.675,0.675,0.675   h40.637c0.373,0,0.675-0.302,0.675-0.675S70.691,85.003,70.318,85.003z M76.248,14.734v70.531c0,3.609-2.936,6.545-6.545,6.545   H30.297c-3.609,0-6.545-2.936-6.545-6.545V14.734c0-3.609,2.936-6.545,6.545-6.545h39.406   C73.312,8.189,76.248,11.125,76.248,14.734z M73.868,14.734c0-2.296-1.869-4.165-4.165-4.165H30.297   c-2.296,0-4.165,1.869-4.165,4.165v70.531c0,2.296,1.869,4.165,4.165,4.165h39.406c2.296,0,4.165-1.869,4.165-4.165V14.734z    M59.994,63.112c0.711,0.711,1.103,1.656,1.103,2.662s-0.392,1.951-1.103,2.662c-0.71,0.71-1.656,1.102-2.663,1.102   c-1.006,0-1.952-0.392-2.663-1.102c-0.711-0.71-1.102-1.656-1.101-2.663c0.001-1.005,0.392-1.95,1.102-2.66   C56.092,61.689,58.571,61.689,59.994,63.112z M59.596,65.774c0-0.605-0.236-1.174-0.664-1.602s-0.996-0.664-1.601-0.664   c-0.605,0-1.174,0.236-1.603,0.665c-0.427,0.427-0.662,0.996-0.663,1.601s0.234,1.174,0.662,1.601c0.854,0.855,2.35,0.855,3.205,0   C59.36,66.948,59.596,66.379,59.596,65.774z M61.39,62.047c-0.71-0.71-1.102-1.655-1.102-2.661c0-1.005,0.392-1.95,1.103-2.661   c1.422-1.423,3.902-1.423,5.324,0c0.711,0.711,1.103,1.657,1.103,2.662c0,1.005-0.392,1.95-1.104,2.661   c-0.709,0.711-1.654,1.104-2.66,1.104C63.047,63.151,62.102,62.759,61.39,62.047z M61.788,59.387c0,0.604,0.235,1.173,0.663,1.6   c0.856,0.858,2.348,0.857,3.202,0.001c0.429-0.429,0.665-0.997,0.665-1.601c0-0.604-0.236-1.173-0.664-1.602   c-0.428-0.428-0.997-0.664-1.602-0.664c-0.604,0-1.173,0.236-1.601,0.664C62.023,58.213,61.788,58.782,61.788,59.387z    M44.746,59.929c0.7,0.036,1.247,0.612,1.247,1.312v2.65c0,0.69-0.56,1.278-1.249,1.311l-2.911,0.146l-0.146,2.915   c-0.034,0.688-0.623,1.247-1.312,1.247h-2.652c-0.689,0-1.277-0.56-1.312-1.248l-0.146-2.915l-2.913-0.146   c-0.687-0.033-1.247-0.621-1.247-1.311v-2.65c0-0.7,0.547-1.275,1.246-1.312l2.914-0.147l0.146-2.913   c0.034-0.688,0.623-1.248,1.312-1.248h2.652c0.701,0,1.277,0.548,1.312,1.248l0.146,2.912L44.746,59.929z M44.493,61.418   l-2.877-0.146c-0.68-0.034-1.239-0.593-1.273-1.273l-0.145-2.877h-2.296L37.756,60c-0.035,0.681-0.594,1.239-1.274,1.273   l-2.877,0.146v2.294l2.877,0.145c0.679,0.034,1.238,0.592,1.273,1.272l0.145,2.881h2.296l0.145-2.88   c0.034-0.68,0.593-1.239,1.273-1.273l2.877-0.145V61.418z"/></g><text x="0" y="115" fill="#000000" font-size="5px" font-weight="bold" font-family="'Helvetica Neue', Helvetica, Arial-Unicode, Arial, Sans-serif">Created by Imogen Oh</text><text x="0" y="120" fill="#000000" font-size="5px" font-weight="bold" font-family="'Helvetica Neue', Helvetica, Arial-Unicode, Arial, Sans-serif">from the Noun Project</text></svg>