<svg xmlns="http://www.w3.org/2000/svg" xmlns:xlink="http://www.w3.org/1999/xlink" version="1.1" x="0px" y="0px" viewBox="0 0 100 125" enable-background="new 0 0 100 100" xml:space="preserve"><path d="M69.419,32.624c-0.165-0.399-0.126-0.884-0.085-1.396c0.06-0.747,0.121-1.519-0.479-2.06  c-0.615-0.553-2.128-4.932-3.129-7.83c-0.515-1.488-0.886-2.563-1.015-2.786c-0.383-0.655-6.349-2.095-7.684-2.409  c-0.326-0.712-0.751-1.595-0.882-1.744c-0.143-0.163-0.486-0.305-0.758-0.25c-0.05,0.01-0.087,0.039-0.128,0.062  c-0.028-0.183-0.056-0.374-0.039-0.422c0.008-0.022,0.016-0.072,0.024-0.107c0.626-0.401,1.206-1.816,1.23-1.88  c0.709-1.815,0.327-2.874-0.009-3.807c-0.135-0.375-0.263-0.729-0.315-1.11c-0.191-1.387-1.928-2.34-2.084-2.423  c-0.027-0.035-0.056-0.067-0.086-0.084c-0.195-0.112-1.762-0.608-2.525-0.608c-0.001,0-0.003,0-0.004,0  c-0.009-0.001-0.229-0.036-0.581-0.036c-1.082,0-3.072,0.311-4.238,2.396c-1.309,2.34-1.195,3.093-1.112,3.643  c0.017,0.11,0.031,0.206,0.031,0.303c0,0.287,0.023,0.537,0.045,0.757c0.023,0.253,0.045,0.472,0.026,0.688  c-0.01,0.122-0.087,0.294-0.168,0.477c-0.181,0.404-0.405,0.907-0.134,1.341c0.298,0.476,0.45,0.532,0.674,0.583  c0.042,0.009,0.088,0.02,0.139,0.037c0.197,0.066,0.366,0.612,0.366,0.853c0,0.165,0.049,0.391,0.144,0.661  c0.002,0.028-0.004,0.096-0.011,0.188c-0.031,0.43-0.045,0.852,0.058,1.104c-0.006,0.004-0.011,0.003-0.017,0.008  c-0.09,0.077-0.139,0.216-0.159,0.394c-0.604,0.285-6.55,3.098-7.109,3.658c-0.615,0.616-4.101,12.492-4.39,13.52  c-0.457,1.624,1.878,6.049,2.343,6.665c0.922,1.229,1.912,2.697,1.917,2.919c-0.02,0.118,0.046,0.167,0.075,0.183  c0.023,0.013,0.048,0.02,0.074,0.02c0.123,0,0.297-0.148,0.706-0.51c0.011-0.01,0.023-0.02,0.034-0.03  c0.501,0.625,2.576,3.183,3.627,4.091c-0.055,0.304-0.313,1.829-0.408,3.886c-0.104,2.255-0.131,7.25-0.131,9.576  c0,0.837-0.48,6.551-0.988,12.602c-0.578,6.883-1.177,14-1.118,14.578c0.038,0.39,0.176,0.679,0.408,0.859  c0.202,0.157,0.419,0.187,0.557,0.19c0.007,0.454-0.002,1.446-0.157,2.327c-0.024,0.138-0.056,0.288-0.088,0.445  c-0.181,0.869-0.404,1.951,0.114,2.595c0.271,0.336,0.717,0.51,1.327,0.518c0.752,0.008,1.308,0.022,1.75,0.033  c0.378,0.011,0.672,0.018,0.935,0.018c0.33,0,0.609-0.012,0.941-0.047c0.19-0.02,0.456-0.128,0.635-0.527  c0.397-0.885,0.134-2.662-0.245-3.192c-0.409-0.574-0.071-2.044-0.028-2.225c0.041,0.017,0.085,0.036,0.089,0.037  c0.007,0.002,0.066,0.018,0.157,0.018c0.207,0,0.578-0.082,0.873-0.591c0.343-0.594,0.521-3.808,0.662-6.774l0.019-0.394  c0.108-2.285,3.461-21.625,3.668-22.084c0.075-0.116,0.152-0.408,0.293-0.959c0.211-0.826,0.564-2.208,0.915-2.352  c0.034-0.015,0.062-0.011,0.098,0.01c0.622,0.374,0.938,7.855,1.057,10.671l0.02,0.455c0.025,0.593,0.06,1.489,0.101,2.565  c0.255,6.693,0.55,13.881,0.811,14.441c0.172,0.368,0.137,1.861,0.111,2.951c-0.025,1.091-0.026,1.388,0.045,1.482  c-0.166,0.99-0.429,2.971,0.104,3.165c0.273,0.099,0.729,0.019,1.257-0.075s1.124-0.201,1.455-0.08  c0.213,0.079,0.574,0.272,0.994,0.497c0.895,0.479,2.009,1.075,2.637,1.075c0.147,0,0.345,0.012,0.579,0.025  c0.338,0.021,0.761,0.047,1.227,0.047c1.124,0,2.497-0.149,3.525-0.877c0.525-0.373,0.528-0.758,0.438-1.016  c-0.354-1.007-2.75-1.842-3.267-1.842c-0.014,0-0.027,0.001-0.041,0.001c-0.552,0-1.888-1.414-1.947-1.746  c-0.058-0.312-0.051-0.747-0.048-0.891c0.244-0.128,0.253-0.466,0.248-0.781c-0.004-0.283-0.009-0.576,0.131-0.717  c0.448-0.446,0.45-2.563,0.369-3.184c-0.089-0.661-0.306-10.74-0.238-11.119c0.066-0.342,0.246-2.309-0.106-5.675  C63.263,63.044,63.761,54.251,64,50.026c0.019-0.334,0.036-0.633,0.051-0.898c0.03-0.006,0.062-0.015,0.08-0.042  c0.354-0.513,1.963-3.532,2.156-4.329c0.172-0.71,1.638-4.579,1.86-5.166c0.338-0.003,0.565-0.015,0.666-0.051  c0.284-0.104,0.378-0.875,0.494-2.683c0.036-0.559,0.069-1.086,0.115-1.235C69.605,35.028,69.838,33.638,69.419,32.624z   M46.213,13.722c-0.06-0.02-0.112-0.032-0.161-0.043c-0.162-0.038-0.26-0.06-0.518-0.473c-0.201-0.322-0.016-0.739,0.148-1.106  c0.091-0.203,0.176-0.394,0.19-0.558c0.02-0.239-0.004-0.479-0.027-0.733c-0.021-0.226-0.044-0.459-0.044-0.734  c0-0.116-0.017-0.225-0.034-0.341c-0.077-0.514-0.183-1.218,1.084-3.483c1.104-1.974,2.992-2.268,4.02-2.268  c0.33,0,0.54,0.032,0.562,0.034c0.74,0,2.282,0.495,2.424,0.576c0.048,0.032,0.156,0.259,0.154,0.509  c0,0.133-0.033,0.313-0.186,0.415c-0.375,0.25-1.736,0.552-2.308,0.552c-0.036,0-0.068-0.001-0.098-0.004  C51.034,6.03,50.748,6.14,50.653,6.34c-0.057,0.12-0.032,0.258,0.067,0.379c0.077,0.095,0.214,0.186,0.372,0.292  c0.349,0.233,0.629,0.443,0.535,0.641c-0.216,0.455-0.562,2.227-0.509,2.789c0.036,0.404,0.658,0.622,1.226,0.622  c0.421,0,0.725-0.124,0.833-0.34c0.032-0.063,0.065-0.137,0.103-0.217c0.204-0.451,0.484-1.069,1.045-1.069  c0.065,0,0.135,0.008,0.205,0.024c0.771,0.178,0.792,1.033,0.711,1.846c-0.021,0.201-0.043,0.465-0.067,0.745  c-0.053,0.625-0.126,1.48-0.188,1.651c-0.041,0.113-0.014,0.298,0.043,0.643c0.084,0.521,0.212,1.308-0.038,1.808  c-0.403,0.808-1.458,2.162-1.87,2.306c-0.039,0.014-0.118,0.03-0.274,0.03c-0.73,0-1.954-0.33-2.102-0.513  c-0.016-0.025-0.025-0.04-0.028-0.045c-0.063-0.229-0.346-0.581-1.498-0.581c-0.124,0-0.257,0.004-0.399,0.013  c-1.092,0.064-1.644-0.423-1.874-0.631c-0.132-0.119-0.08-0.823-0.063-1.055c0.013-0.182,0.016-0.226-0.001-0.276  c-0.109-0.317-0.132-0.496-0.132-0.59C46.75,14.592,46.589,13.848,46.213,13.722z M40.354,43.425  c0.139-0.121,0.277-0.238,0.397-0.326c0.353-0.255,1.345-0.887,2.01-1.29c-0.058,0.865,0.839,1.419,1.458,1.796  c0.228,0.138,0.539,0.328,0.551,0.408c0.059,0.686,0.037,3.394-0.375,3.729c-0.026,0.021-0.047,0.021-0.067,0.016  C43.842,47.612,41.715,45.123,40.354,43.425z M42.795,40.191c-0.49-0.682-1.161-1.617-1.161-1.978c0-0.76,0.158-1.52,0.376-1.808  c0.17-0.224,0.394-0.552,0.538-0.766c0.129,0.399,0.268,0.912,0.268,1.294c0,0.616,1.002,1.774,1.691,2.302  c0.181,0.138,0.31,0.208,0.407,0.245c-0.215,0.409-0.769,1.655-0.895,3.704c-0.574-0.37-1.154-0.855-0.983-1.54  c0.165-0.097,0.295-0.17,0.342-0.189c0.036-0.014,0.08-0.063,0.091-0.1C43.511,41.212,43.37,40.993,42.795,40.191z M63.75,50.012  c-0.239,4.232-0.738,13.038-0.469,15.617c0.345,3.302,0.171,5.286,0.108,5.6c-0.07,0.356,0.144,10.51,0.236,11.2  c0.1,0.76,0.022,2.656-0.298,2.975c-0.215,0.216-0.209,0.578-0.204,0.897c0.006,0.345-0.001,0.556-0.146,0.584  c-0.052,0.01-0.169,0.031-0.336,0.061c-4.438,0.794-5.815,1.226-6.239,1.511c-0.008-0.26,0.003-0.721,0.014-1.141  c0.027-1.177,0.062-2.641-0.135-3.062c-0.262-0.562-0.616-9.871-0.787-14.345c-0.041-1.076-0.075-1.973-0.101-2.566l-0.02-0.455  c-0.272-6.44-0.564-10.506-1.178-10.875c-0.104-0.062-0.215-0.071-0.321-0.027c-0.432,0.178-0.737,1.247-1.063,2.522  c-0.101,0.392-0.204,0.798-0.26,0.884c-0.294,0.452-3.622,20.377-3.709,22.209l-0.019,0.394c-0.094,1.97-0.287,6.07-0.629,6.661  c-0.317,0.549-0.719,0.464-0.728,0.465c-0.025-0.011-2.525-1.148-5.278-0.254c-0.065,0.021-0.102,0.092-0.08,0.157  c0.004,0.011,0.015,0.016,0.021,0.025c-0.015,0.021-0.027,0.044-0.026,0.072c0,0,0,0.001,0,0.002  c-0.102-0.005-0.258-0.029-0.399-0.141c-0.175-0.137-0.279-0.367-0.312-0.685c-0.055-0.556,0.568-7.981,1.119-14.533  c0.509-6.056,0.989-11.775,0.989-12.623c0-2.324,0.027-7.313,0.131-9.564c0.085-1.836,0.3-3.235,0.382-3.72  c0.093,0.067,0.178,0.12,0.239,0.139c0.032,0.01,0.063,0.015,0.095,0.015c0.072,0,0.141-0.026,0.203-0.076  c0.623-0.506,0.469-3.91,0.467-3.943c-0.018-0.204-0.277-0.362-0.671-0.601c-0.029-0.018-0.061-0.038-0.091-0.056  c0.117-2.286,0.799-3.604,0.929-3.834c0.358-0.062,2.628-0.086,4.157-0.103c0.885-0.01,1.648-0.018,1.917-0.03  c0.725-0.035,8.083,0.015,9.573,0.317c0.268,0.054,0.482,0.08,0.656,0.08c0.206,0,0.34-0.046,0.449-0.111  c-0.001,1.044-0.013,2.411-0.043,2.562c-0.035,0.183,0.223,0.574,0.819,1.424c0.235,0.335,0.458,0.653,0.581,0.866  c0.32,0.55,0.564,2.576,0.564,3.38C63.861,48.048,63.814,48.872,63.75,50.012z M63.515,36.391c0.003-0.004,0-0.01,0.002-0.015  c0.001-0.003,0.006-0.002,0.007-0.005c0.048-0.136,0.088-0.321,0.125-0.526c0.147,0.532,0.343,1.271,0.343,1.551  c0,2.312,0.311,2.454,0.427,2.507c0.024,0.011,0.06,0.022,0.103,0.022c0.002,0,0.004-0.001,0.006-0.001  c-0.003,0.6-0.096,2.643-1.123,4.285c-0.131-0.205-0.296-0.445-0.483-0.712c-0.307-0.438-0.771-1.1-0.777-1.232  c0.048-0.241,0.047-2.61,0.047-2.901c0.042-0.102,0.076-0.214,0.104-0.344c0.036-0.164,0.076-0.35,0.16-0.543  C62.804,37.675,63.508,36.404,63.515,36.391z M66.045,44.697c-0.164,0.675-1.457,3.143-1.971,4.009  c0.023-0.437,0.037-0.726,0.037-0.819c0-0.713-0.22-2.736-0.565-3.432c1.223-1.856,1.239-4.197,1.23-4.642  c0.372-0.239,1.79-0.231,2.745-0.223c0.133,0.001,0.245,0.002,0.357,0.002C67.569,40.408,66.215,43.992,66.045,44.697z"/><text x="0" y="115" fill="#000000" font-size="5px" font-weight="bold" font-family="'Helvetica Neue', Helvetica, Arial-Unicode, Arial, Sans-serif">Created by mungang kim</text><text x="0" y="120" fill="#000000" font-size="5px" font-weight="bold" font-family="'Helvetica Neue', Helvetica, Arial-Unicode, Arial, Sans-serif">from the Noun Project</text></svg>