<svg xmlns="http://www.w3.org/2000/svg" xmlns:xlink="http://www.w3.org/1999/xlink" version="1.0" x="0px" y="0px" viewBox="0 0 100 125" enable-background="new 0 0 100 100" xml:space="preserve"><path d="M3,51.9174957l6.5061197-20.0169048l10.3449602,12.0899258l11.1676178-17.5740013l11.4916096,1.6202812l3.1907387-9.2980042  l10.5693779,0.8475304l2.4927635-11.3420897l13.9843788-4.8857989l3.8139267,3.9385738L68.7591248,19.561409l12.3641739,11.7658558  l-3.6394958,12.8377285l-7.6278534,3.3652458l1.7698441,13.5356979l7.8273163,0.4736328L97.75,80.7089386l-2.8168335,4.1130524l0,0  l-11.0429382,9.9212341H73.6698761L54.2013855,76.8451462L43.5323524,89.4336243L32.489418,90.0568161l-1.8945255-11.242363  l-6.6556778,6.9797134l-8.6748133-8.8492889l-5.2098703-24.1299858L3,51.9174957z"/><text x="0" y="115" fill="#000000" font-size="5px" font-weight="bold" font-family="'Helvetica Neue', Helvetica, Arial-Unicode, Arial, Sans-serif">Created by Alexander Skowalsky</text><text x="0" y="120" fill="#000000" font-size="5px" font-weight="bold" font-family="'Helvetica Neue', Helvetica, Arial-Unicode, Arial, Sans-serif">from the Noun Project</text></svg>