<svg xmlns="http://www.w3.org/2000/svg" xmlns:xlink="http://www.w3.org/1999/xlink" version="1.1" x="0px" y="0px" viewBox="0 0 100 125" style="enable-background:new 0 0 100 100;" xml:space="preserve"><path d="M61.8,20H38.2c-0.7,0-1.2,0.5-1.2,1.2v26.4c0,6.9,5.2,12.5,11.8,13.1v16.9h-5.9c-0.7,0-1.2,0.5-1.2,1.2  c0,0.7,0.5,1.2,1.2,1.2h14.2c0.7,0,1.2-0.5,1.2-1.2c0-0.7-0.5-1.2-1.2-1.2h-5.9V60.7C57.8,60.1,63,54.5,63,47.6V21.2  C63,20.5,62.5,20,61.8,20z M60.6,47.6c0,6-4.8,10.8-10.6,10.8s-10.6-4.8-10.6-10.8V29.5h21.3V47.6z M60.6,27.1H39.4v-4.7h21.3V27.1z   M48.8,54.8c0-0.7,0.5-1.2,1.2-1.2c3.3,0,5.9-2.7,5.9-6V35.1c0-0.7,0.5-1.2,1.2-1.2c0.7,0,1.2,0.5,1.2,1.2v12.5  c0,4.6-3.7,8.4-8.3,8.4C49.3,56,48.8,55.5,48.8,54.8z"/><text x="0" y="115" fill="#000000" font-size="5px" font-weight="bold" font-family="'Helvetica Neue', Helvetica, Arial-Unicode, Arial, Sans-serif">Created by Mello</text><text x="0" y="120" fill="#000000" font-size="5px" font-weight="bold" font-family="'Helvetica Neue', Helvetica, Arial-Unicode, Arial, Sans-serif">from the Noun Project</text></svg>