<svg xmlns="http://www.w3.org/2000/svg" xmlns:xlink="http://www.w3.org/1999/xlink" version="1.1" x="0px" y="0px" viewBox="0 0 100 125" enable-background="new 0 0 100 100" xml:space="preserve"><path d="M76.799,69.553c-0.618-0.193-1.869-0.826-2.996-1.396c-2.207-1.116-5.097-2.574-7.787-3.313  c1.555-0.611,3.11-1.411,4.733-2.486C71.776,63.368,75.602,67.211,76.799,69.553z"/><path d="M95.219,54.175c-0.102-0.143-0.272-0.277-0.506-0.385c-0.086-0.048-0.177-0.086-0.267-0.12  c-0.289-0.092-0.582-0.142-0.879-0.142c-1.113,0-1.904,0.636-1.914,0.642l-0.267,0.219l-0.227-0.16l-0.041,0.032l-0.25-0.151  l-0.376-0.229l-0.415-0.209l-0.828-0.42l-1.739-0.706c-0.57-0.258-1.186-0.411-1.78-0.611l-1.796-0.572  c-1.213-0.337-2.449-0.599-3.672-0.903c-1.217-0.331-2.471-0.499-3.713-0.718l-3.733-0.633l-3.761-0.432  c-1.256-0.137-2.507-0.304-3.766-0.417l-3.798-0.223l-3.8-0.222l-0.949-0.056c-0.165-0.013-0.297-0.009-0.507-0.038  c-0.185-0.029-0.36-0.074-0.528-0.132c-0.342-0.111-0.644-0.291-0.952-0.501l-0.718-0.582c-0.455-0.317-1.017-0.458-1.582-0.413  c-0.142-0.007-0.282,0.034-0.423,0.061c-0.143,0.028-0.285,0.052-0.415,0.111l-0.4,0.146l-0.419,0.226  c-0.511,0.266-0.95,0.679-1.232,1.176c-0.276,0.497-0.362,1.077-0.14,1.568c0.215,0.5,0.724,0.861,1.259,1.115  c0.538,0.271,1.147,0.42,1.744,0.546c1.238,0.23,2.496,0.315,3.761,0.442c1.262,0.115,2.526,0.199,3.793,0.321  c1.259,0.117,2.551,0.349,3.672,0.954c-1.156-0.554-2.429-0.696-3.687-0.775c-1.264-0.074-2.533-0.11-3.8-0.179  c-1.264-0.08-2.546-0.112-3.81-0.307c-0.644-0.12-1.283-0.26-1.889-0.546c-0.594-0.27-1.219-0.664-1.541-1.338  c-0.327-0.672-0.212-1.477,0.116-2.085c0.33-0.613,0.844-1.116,1.447-1.45l0.413-0.235l0.486-0.197  c0.161-0.075,0.329-0.109,0.499-0.147c0.168-0.038,0.334-0.086,0.513-0.086c0.694-0.074,1.439,0.091,2.036,0.489l0.776,0.596  c0.22,0.136,0.471,0.285,0.736,0.362c0.131,0.045,0.264,0.077,0.393,0.096c0.105,0.017,0.291,0.018,0.441,0.028l0.95,0.048  l3.8,0.193l3.801,0.194c1.267,0.105,2.534,0.263,3.801,0.392l3.803,0.408c1.049,0.153,2.093,0.345,3.136,0.532  c-3.404-4.049-10.424-7.186-10.499-7.218l-0.311-0.138l0.044-0.337c0.456-3.496-0.242-5.54-2.352-10.491  c-2.283-5.356-3.824-7.301-4.304-7.301c-0.003,0.002-0.539,0.287-0.387,3.765c0.399,9.104-4.782,16.95-5.004,17.28l-0.099,0.147  L52.992,44.5c-4.82,1.157-10.887,3.942-15.316,5.975c-2.931,1.346-5.247,2.409-6.39,2.65c-0.388,0.082-0.79,0.124-1.193,0.124  c-1.094,0-2.036-0.299-2.792-0.538c-0.47-0.147-0.875-0.275-1.147-0.275c-0.162,0-0.211,0.044-0.248,0.09  c-0.118,0.149-0.09,0.368-0.03,0.744c0.177,1.107,0.133,2.262-2.444,3.14c-1.345,0.458-2.582,0.69-3.679,0.69  c-1.25,0-1.875-0.305-1.941-0.34c-3.542-1.979-5.971-4.969-7.922-7.371c-1.386-1.706-2.583-3.179-3.649-3.573  c-0.418-0.154-0.762-0.232-1.025-0.232c-0.292,0-0.401,0.093-0.463,0.175c-0.503,0.655,0.165,3.161,0.417,4.104  c0.442,1.658,0.841,1.861,1.446,2.169c0.653,0.332,1.466,0.745,2.453,2.624c1.869,3.561,4.09,9.283,4.418,12.321  c0.363,3.358-1.456,6.016-2.573,7.301c-1.316,1.516-1.712,2.178-1.783,2.46c0.16,0.002,0.542-0.05,1.282-0.323  c2.328-0.863,3.717-2.732,5.327-4.896c0.723-0.974,1.471-1.979,2.361-2.969c1.463-1.626,2.895-2.382,4.506-2.382  c0.842,0,1.655,0.199,2.44,0.394c0.251,0.061,0.504,0.124,0.76,0.18c1.505,0.332,1.369,1.707,1.288,2.528  c-0.035,0.352-0.083,0.834,0.032,0.96c0.081,0.089,0.405,0.099,0.834,0.008c1.607-0.338,2.202-0.944,2.89-1.645  c0.535-0.545,1.086-1.107,2.111-1.546c0.617-0.266,1.382-0.399,2.273-0.399c2.208,0,4.822,0.812,6.385,1.295  c1.408,0.438,1.056,1.769,0.867,2.484c-0.059,0.224-0.157,0.593-0.129,0.715c0.009-0.004,0.064,0.01,0.169,0.01c0,0,0,0,0,0  c0.333,0,0.883-0.129,1.633-0.383c1.892-0.641,2.333-1.235,2.762-1.811c0.672-0.903,1.309-1.758,5.867-2.382  c0.72-0.099,1.414-0.19,2.087-0.279c6.435-0.849,10.685-1.409,15.933-5.067c3.491-2.433,5.837-4.345,6.753-6.35l0.144-0.314  l0.438,0.068c0.548,0.078,1.104,0.139,1.693,0.203c2.47,0.266,5.268,0.567,9.522,2.48c0.831,0.374,1.649,0.563,2.432,0.563  c0.449,0,0.87-0.066,1.257-0.18c0.124-0.047,0.245-0.098,0.364-0.155c0.451-0.218,0.866-0.513,1.202-0.878  c0.34-0.359,0.605-0.79,0.739-1.242C95.489,54.972,95.458,54.493,95.219,54.175z M51.889,49.054c-0.453,0-0.82-0.367-0.82-0.82  c0-0.452,0.367-0.82,0.82-0.82c0.452,0,0.818,0.368,0.818,0.82C52.707,48.687,52.341,49.054,51.889,49.054z M57.342,60.938  c-0.063,0.133-0.141,0.3-0.232,0.494c-0.101,0.19-0.23,0.401-0.372,0.641c-0.286,0.476-0.693,1.021-1.231,1.594  c-0.558,0.55-1.266,1.108-2.138,1.544c-1.753,0.869-4,1.268-6.351,1.524c-1.185,0.129-2.388,0.256-3.639,0.349  c-0.627,0.043-1.261,0.072-1.906,0.067c-0.645-0.01-1.294-0.036-1.979-0.196c-0.173-0.045-0.347-0.098-0.533-0.189  c-0.173-0.088-0.413-0.214-0.563-0.547c-0.074-0.162-0.068-0.382-0.017-0.527c0.048-0.151,0.125-0.27,0.197-0.353  c0.15-0.184,0.303-0.287,0.457-0.396c0.61-0.384,1.227-0.589,1.845-0.771c0.613-0.177,1.246-0.302,1.852-0.392  c0.603-0.102,1.162-0.188,1.728-0.341c2.251-0.561,4.298-1.387,6.037-2.098c1.733-0.732,3.172-1.375,4.164-1.853  c0.996-0.477,1.564-0.748,1.564-0.748s-0.528,0.347-1.482,0.904c-0.958,0.547-2.326,1.338-4.031,2.171  c-0.854,0.413-1.786,0.854-2.798,1.261c-1.008,0.418-2.091,0.821-3.253,1.136c-0.571,0.17-1.198,0.285-1.79,0.4  c-0.593,0.105-1.167,0.234-1.745,0.402c-0.566,0.168-1.145,0.38-1.596,0.671c-0.101,0.073-0.208,0.154-0.253,0.218  c-0.001,0.002-0.001,0.002-0.002,0.004c0.021,0.016,0.048,0.032,0.087,0.046c0.096,0.048,0.224,0.087,0.356,0.121  c0.542,0.131,1.162,0.171,1.769,0.183c0.61,0.01,1.226-0.013,1.836-0.048c1.222-0.091,2.451-0.167,3.616-0.27  c1.171-0.104,2.298-0.215,3.345-0.404c1.046-0.19,2.02-0.439,2.865-0.798c0.843-0.369,1.548-0.837,2.127-1.317  c0.558-0.505,0.998-1.002,1.316-1.446c0.159-0.223,0.302-0.423,0.425-0.597c0.111-0.181,0.206-0.337,0.283-0.463  c0.154-0.252,0.236-0.386,0.236-0.386S57.468,60.67,57.342,60.938z M73.978,55.547c-0.416-0.095-0.901-0.192-1.418-0.294  c-0.518-0.089-1.068-0.189-1.622-0.252c-0.275-0.047-0.554-0.065-0.826-0.096c-0.272-0.034-0.542-0.05-0.804-0.07  c-0.261-0.024-0.516-0.026-0.758-0.042c-0.241-0.014-0.471-0.02-0.684-0.021c-0.213,0.002-0.411-0.017-0.587-0.015  c-0.174,0.007-0.329,0.004-0.457,0.003c-0.256-0.005-0.405-0.015-0.405-0.015s0.131-0.065,0.371-0.164  c0.239-0.1,0.586-0.235,1.021-0.328c0.215-0.058,0.45-0.113,0.703-0.139c0.253-0.031,0.521-0.083,0.799-0.081  c0.277-0.005,0.568-0.036,0.86-0.01c0.293,0.013,0.591,0.03,0.884,0.074c0.295,0.038,0.589,0.087,0.873,0.155  c0.288,0.054,0.561,0.151,0.827,0.226c0.267,0.08,0.518,0.181,0.752,0.275c0.235,0.098,0.454,0.198,0.649,0.304  c0.794,0.403,1.229,0.819,1.229,0.819S74.811,55.734,73.978,55.547z"/><text x="0" y="115" fill="#000000" font-size="5px" font-weight="bold" font-family="'Helvetica Neue', Helvetica, Arial-Unicode, Arial, Sans-serif">Created by Bakunetsu Kaito</text><text x="0" y="120" fill="#000000" font-size="5px" font-weight="bold" font-family="'Helvetica Neue', Helvetica, Arial-Unicode, Arial, Sans-serif">from the Noun Project</text></svg>