<svg xmlns="http://www.w3.org/2000/svg" xmlns:xlink="http://www.w3.org/1999/xlink" viewBox="0 0 75 93.75" version="1.1" x="0px" y="0px">
  <g>
    <path style="" d="M 10.425781 12.335938 C 10.425781 12.335938 0.0234375 20.085938 6.53125 22.5625 C 13.035156 25.039062 10.425781 12.335938 10.425781 12.335938 Z M 10.425781 12.335938 " stroke="none" fill-rule="nonzero" fill="rgb(0%,0%,0%)" fill-opacity="1"/>
    <path style="" d="M 22.359375 12.335938 C 22.359375 12.335938 11.960938 20.085938 18.464844 22.5625 C 24.96875 25.039062 22.359375 12.335938 22.359375 12.335938 Z M 22.359375 12.335938 " stroke="none" fill-rule="nonzero" fill="rgb(0%,0%,0%)" fill-opacity="1"/>
    <path style="" d="M 34.292969 12.335938 C 34.292969 12.335938 23.894531 20.085938 30.398438 22.5625 C 36.90625 25.039062 34.292969 12.335938 34.292969 12.335938 Z M 34.292969 12.335938 " stroke="none" fill-rule="nonzero" fill="rgb(0%,0%,0%)" fill-opacity="1"/>
    <path style="" d="M 46.226562 12.335938 C 46.226562 12.335938 35.828125 20.085938 42.332031 22.5625 C 48.839844 25.039062 46.226562 12.335938 46.226562 12.335938 Z M 46.226562 12.335938 " stroke="none" fill-rule="nonzero" fill="rgb(0%,0%,0%)" fill-opacity="1"/>
    <path style="" d="M 58.160156 12.335938 C 58.160156 12.335938 47.761719 20.085938 54.265625 22.5625 C 60.773438 25.039062 58.160156 12.335938 58.160156 12.335938 Z M 58.160156 12.335938 " stroke="none" fill-rule="nonzero" fill="rgb(0%,0%,0%)" fill-opacity="1"/>
    <path style="" d="M 14.402344 32.226562 C 14.402344 32.226562 4.003906 39.972656 10.507812 42.449219 C 17.015625 44.929688 14.402344 32.226562 14.402344 32.226562 Z M 14.402344 32.226562 " stroke="none" fill-rule="nonzero" fill="rgb(0%,0%,0%)" fill-opacity="1"/>
    <path style="" d="M 26.335938 32.226562 C 26.335938 32.226562 15.9375 39.972656 22.441406 42.449219 C 28.949219 44.929688 26.335938 32.226562 26.335938 32.226562 Z M 26.335938 32.226562 " stroke="none" fill-rule="nonzero" fill="rgb(0%,0%,0%)" fill-opacity="1"/>
    <path style="" d="M 38.269531 32.226562 C 38.269531 32.226562 27.871094 39.972656 34.375 42.449219 C 40.882812 44.929688 38.269531 32.226562 38.269531 32.226562 Z M 38.269531 32.226562 " stroke="none" fill-rule="nonzero" fill="rgb(0%,0%,0%)" fill-opacity="1"/>
    <path style="" d="M 50.203125 32.226562 C 50.203125 32.226562 39.804688 39.972656 46.308594 42.449219 C 52.816406 44.929688 50.203125 32.226562 50.203125 32.226562 Z M 50.203125 32.226562 " stroke="none" fill-rule="nonzero" fill="rgb(0%,0%,0%)" fill-opacity="1"/>
    <path style="" d="M 62.136719 32.226562 C 62.136719 32.226562 51.738281 39.972656 58.242188 42.449219 C 64.75 44.929688 62.136719 32.226562 62.136719 32.226562 Z M 62.136719 32.226562 " stroke="none" fill-rule="nonzero" fill="rgb(0%,0%,0%)" fill-opacity="1"/>
    <path style="" d="M 18.382812 52.117188 C 18.382812 52.117188 7.980469 59.863281 14.484375 62.339844 C 20.992188 64.816406 18.382812 52.117188 18.382812 52.117188 Z M 18.382812 52.117188 " stroke="none" fill-rule="nonzero" fill="rgb(0%,0%,0%)" fill-opacity="1"/>
    <path style="" d="M 30.3125 52.117188 C 30.3125 52.117188 19.914062 59.863281 26.417969 62.339844 C 32.925781 64.816406 30.3125 52.117188 30.3125 52.117188 Z M 30.3125 52.117188 " stroke="none" fill-rule="nonzero" fill="rgb(0%,0%,0%)" fill-opacity="1"/>
    <path style="" d="M 42.25 52.117188 C 42.25 52.117188 31.847656 59.863281 38.351562 62.339844 C 44.859375 64.816406 42.25 52.117188 42.25 52.117188 Z M 42.25 52.117188 " stroke="none" fill-rule="nonzero" fill="rgb(0%,0%,0%)" fill-opacity="1"/>
    <path style="" d="M 54.183594 52.117188 C 54.183594 52.117188 43.78125 59.863281 50.289062 62.339844 C 56.796875 64.816406 54.183594 52.117188 54.183594 52.117188 Z M 54.183594 52.117188 " stroke="none" fill-rule="nonzero" fill="rgb(0%,0%,0%)" fill-opacity="1"/>
    <path style="" d="M 70.09375 12.335938 C 70.09375 12.335938 59.695312 20.085938 66.199219 22.5625 C 72.707031 25.039062 70.09375 12.335938 70.09375 12.335938 Z M 70.09375 12.335938 " stroke="none" fill-rule="nonzero" fill="rgb(0%,0%,0%)" fill-opacity="1"/>
  </g>
  <text x="0" y="90" fill="#000000" font-size="5px" font-weight="bold" font-family="'Helvetica Neue', Helvetica, Arial-Unicode, Arial, Sans-serif">Created by Lloyd Humphreys</text>
  <text x="0" y="95" fill="#000000" font-size="5px" font-weight="bold" font-family="'Helvetica Neue', Helvetica, Arial-Unicode, Arial, Sans-serif">from the Noun Project</text>
</svg>
