<svg xmlns="http://www.w3.org/2000/svg" xmlns:xlink="http://www.w3.org/1999/xlink" version="1.1" x="0px" y="0px" viewBox="0 0 100 125" style="enable-background:new 0 0 100 100;" xml:space="preserve"><path d="M68.2,15.2c-3.8,0-6.8,3.1-6.8,6.8v7.2c-0.7-0.3-1.5-0.4-2.3-0.4c-1.2,0-2.4,0.3-3.3,0.9c-1.2-1.9-3.3-3.2-5.7-3.2  c-0.8,0-1.6,0.1-2.3,0.4V15.2c0-3.8-3.1-6.8-6.8-6.8c-3.8,0-6.8,3.1-6.8,6.8v22.9c-5.2,1.1-9.1,5.6-9.1,11.1v4.5  c0,8.4,4.3,16.3,11.3,20.9v13.1c0,1.3,1,2.3,2.3,2.3c1.3,0,2.3-1,2.3-2.3V74.1c0-0.1,0-0.3,0-0.4c0.2-0.9-0.3-1.8-1.1-2.3  C33.6,67.8,29.6,61,29.6,53.7v-4.5c0-3.8,3.1-6.8,6.8-6.8h11c-0.9,2.6-3.5,4.5-6.4,4.5h-2.3c-1.3,0-2.3,1-2.3,2.3V56  c0,1.3,1,2.3,2.3,2.3c3.8,0,6.8,3.1,6.8,6.8c0,1.3,1,2.3,2.3,2.3c1.3,0,2.3-1,2.3-2.3c0-5.5-3.9-10.1-9.1-11.1l0-2.5  c0.9,0,1.7-0.1,2.6-0.3c0.8,2.8,3.4,4.8,6.5,4.8c1.7,0,3.3-0.7,4.5-1.7c1.2,1.1,2.8,1.7,4.5,1.7c3.8,0,6.8-3.1,6.8-6.8V22  c0-1.3,1-2.3,2.3-2.3c1.2,0,2.3,1,2.3,2.3v31.7c0,7.3-3.9,14-10.2,17.7c-0.8,0.5-1.2,1.4-1.1,2.3c0,0.1,0,0.3,0,0.4v13.6  c0,1.3,1,2.3,2.3,2.3c1.3,0,2.3-1,2.3-2.3V74.6C70.7,70,75,62.1,75,53.7V22C75,18.2,71.9,15.2,68.2,15.2z M50.1,31  c1.2,0,2.3,1,2.3,2.3v6.8c0-1.2-1-2.3-2.3-2.3h-2.3v-4.5C47.8,32.1,48.8,31,50.1,31z M41,12.9c1.3,0,2.3,1,2.3,2.3v22.7h-4.5V15.2  C38.7,13.9,39.7,12.9,41,12.9z M50.1,51.4c-1.2,0-2.3-1-2.3-2.3c0,0,0,0,0,0c2.7-2.1,4.5-5.3,4.5-9v9.1  C52.3,50.4,51.3,51.4,50.1,51.4z M59.1,51.4c-1.3,0-2.3-1-2.3-2.3V35.6c0-1.3,1-2.3,2.3-2.3c1.2,0,2.3,1,2.3,2.3v13.6  C61.4,50.4,60.4,51.4,59.1,51.4z"/><text x="0" y="115" fill="#000000" font-size="5px" font-weight="bold" font-family="'Helvetica Neue', Helvetica, Arial-Unicode, Arial, Sans-serif">Created by Bouwe van der Molen</text><text x="0" y="120" fill="#000000" font-size="5px" font-weight="bold" font-family="'Helvetica Neue', Helvetica, Arial-Unicode, Arial, Sans-serif">from the Noun Project</text></svg>