<svg xmlns="http://www.w3.org/2000/svg" xmlns:xlink="http://www.w3.org/1999/xlink" version="1.1" x="0px" y="0px" viewBox="0 0 100 125" enable-background="new 0 0 100 100" xml:space="preserve">
  <path fill="#000000" d="M23.186,58.888V64.1c0,0.759,0.956,1.387,2.527,1.906v3.126c-1.511,0.393-2.359,0.829-2.359,1.288v2.441  c0,1.729,11.93,3.131,26.646,3.131s26.646-1.402,26.646-3.131V70.42c0-0.459-0.848-0.895-2.359-1.288v-3.126  c1.571-0.519,2.527-1.147,2.527-1.906v-5.212c0.956-0.443,1.669-2.11,1.669-4.111c0-2.002-0.713-3.669-1.669-4.111v-6.507  c0-1.614-1.512-3.01-4.007-4.158C69.415,30.677,60.496,24.009,50,24.009S30.585,30.677,27.192,40  c-2.495,1.147-4.007,2.544-4.007,4.158v6.507c-0.956,0.443-1.669,2.11-1.669,4.111C21.516,56.778,22.23,58.445,23.186,58.888z   M24.186,44.158c0-3.264,10.373-6.758,25.814-6.758s25.814,3.494,25.814,6.758V64.1c0,1.092-8.866,3.129-25.814,3.129  S24.186,65.192,24.186,64.1V44.158z"/>
  <text x="0" y="115" fill="#000000" font-size="5px" font-weight="bold" font-family="'Helvetica Neue', Helvetica, Arial-Unicode, Arial, Sans-serif">Created by Romualdas Jurgaitis</text>
  <text x="0" y="120" fill="#000000" font-size="5px" font-weight="bold" font-family="'Helvetica Neue', Helvetica, Arial-Unicode, Arial, Sans-serif">from the Noun Project</text>
</svg>
