<svg xmlns="http://www.w3.org/2000/svg" xmlns:xlink="http://www.w3.org/1999/xlink" version="1.1" x="0px" y="0px" viewBox="0 0 100 125" enable-background="new 0 0 100 100" xml:space="preserve"><path fill="#000000" d="M83.305,35.215H16.695c-1.537,0-2.787,1.25-2.787,2.788v23.779c0,1.689,1.374,3.063,3.063,3.063h66.057  c1.689,0,3.063-1.375,3.063-3.063V38.003C86.092,36.466,84.842,35.215,83.305,35.215z M85.092,61.782  c0,1.138-0.926,2.063-2.063,2.063H16.972c-1.138,0-2.063-0.926-2.063-2.063V38.003c0-0.986,0.802-1.788,1.787-1.788h66.609  c0.985,0,1.787,0.802,1.787,1.788V61.782z"/><path fill="#000000" d="M82.331,37.8h-0.42c1.27,0,2.3,1.03,2.3,2.3v1.016v0.795v5.019v1.499v0.312c0,1.27-1.03,2.299-2.3,2.299  H80.1c-1.27,0-2.3-1.029-2.3-2.299v-0.312V46.93v-2.719h-1.024h-0.785c-1.27,0-2.3-1.03-2.3-2.3V40.1c0-1.27,1.03-2.3,2.3-2.3h-0.42  c-1.27,0-2.3,1.03-2.3,2.3v-0.247c0-1.133-0.919-2.052-2.052-2.052H70.8c1.133,0,2.052,0.919,2.052,2.052v2.306  c0,1.133-0.919,2.052-2.052,2.052h-2.306c-1.133,0-2.052-0.919-2.052-2.052v-2.306c0-1.133,0.919-2.052,2.052-2.052h-0.42  c-1.133,0-2.052,0.919-2.052,2.052c0-1.133-0.919-2.052-2.052-2.052h-0.42c1.133,0,2.052,0.919,2.052,2.052v2.306  c0,1.133-0.919,2.052-2.052,2.052h-2.306c-1.133,0-2.052-0.919-2.052-2.052v-2.306c0-1.133,0.919-2.052,2.052-2.052h-0.42  c-1.133,0-2.052,0.919-2.052,2.052c0-1.133-0.919-2.052-2.052-2.052h-0.42c1.133,0,2.052,0.919,2.052,2.052v2.306  c0,1.133-0.919,2.052-2.052,2.052h-2.306c-1.133,0-2.052-0.919-2.052-2.052v-2.306c0-1.133,0.919-2.052,2.052-2.052h-0.42  c-1.133,0-2.052,0.919-2.052,2.052c0-1.133-0.919-2.052-2.052-2.052h-0.42c1.133,0,2.052,0.919,2.052,2.052v2.306  c0,1.133-0.919,2.052-2.052,2.052h-2.306c-1.133,0-2.052-0.919-2.052-2.052v-2.306c0-1.133,0.919-2.052,2.052-2.052h-0.42  c-1.133,0-2.052,0.919-2.052,2.052c0-1.133-0.919-2.052-2.052-2.052h-0.42c1.133,0,2.052,0.919,2.052,2.052v2.306  c0,1.133-0.919,2.052-2.052,2.052h-2.306c-1.133,0-2.052-0.919-2.052-2.052v-2.306c0-1.133,0.919-2.052,2.052-2.052h-0.42  c-1.133,0-2.052,0.919-2.052,2.052c0-1.133-0.919-2.052-2.052-2.052h-0.42c1.133,0,2.052,0.919,2.052,2.052v2.306  c0,1.133-0.919,2.052-2.052,2.052h-2.306c-1.133,0-2.052-0.919-2.052-2.052v-2.306c0-1.133,0.919-2.052,2.052-2.052h-0.42  c-1.133,0-2.052,0.919-2.052,2.052c0-1.133-0.919-2.052-2.052-2.052h-0.42c1.133,0,2.052,0.919,2.052,2.052v2.306  c0,1.133-0.919,2.052-2.052,2.052h-2.306c-1.133,0-2.052-0.919-2.052-2.052v-2.306c0-1.133,0.919-2.052,2.052-2.052h-0.42  c-1.133,0-2.052,0.919-2.052,2.052c0-1.133-0.919-2.052-2.052-2.052h-0.42c1.133,0,2.052,0.919,2.052,2.052v2.306  c0,1.133-0.919,2.052-2.052,2.052h-2.306c-1.133,0-2.052-0.919-2.052-2.052v-2.306c0-1.133,0.919-2.052,2.052-2.052h-0.42  c-1.133,0-2.052,0.919-2.052,2.052v3.145c0,0.814,0.477,1.51,1.164,1.842c-0.686,0.332-1.164,1.029-1.164,1.842v3.145  c0,0.891,0.572,1.642,1.366,1.926c-0.7,0.327-1.188,1.032-1.188,1.856v3.145c0,1.133,0.919,2.052,2.052,2.052h10.879  c1.133,0,2.052-0.919,2.052-2.052c0,1.133,0.919,2.052,2.052,2.052h3.145c1.133,0,2.052-0.919,2.052-2.052  c0,1.133,0.919,2.052,2.052,2.052h3.145c1.133,0,2.052-0.919,2.052-2.052c0,1.133,0.919,2.052,2.052,2.052h3.145  c1.133,0,2.052-0.919,2.052-2.052c0,1.133,0.919,2.052,2.052,2.052h3.145c1.133,0,2.052-0.919,2.052-2.052  c0,1.133,0.919,2.052,2.052,2.052h3.145c1.133,0,2.052-0.919,2.052-2.052c0,1.133,0.919,2.052,2.052,2.052h6.592  c1.133,0,2.052-0.919,2.052-2.052c0,1.133,0.919,2.052,2.052,2.052h3.145c1.133,0,2.052-0.919,2.052-2.052v-3.145  c0-0.894-0.575-1.646-1.372-1.928c0.807-0.357,1.372-1.162,1.372-2.101v-1.432V46.93V42.75v-1.325V40.1  C84.63,38.83,83.601,37.8,82.331,37.8z M71.393,45.032c0.386-0.033,0.741-0.168,1.037-0.385c0.058-0.005,0.114-0.017,0.173-0.017  h-0.152c0.496-0.375,0.821-0.963,0.821-1.633V42.75c0,1.27,1.03,2.299,2.3,2.299h0.569c0.496,0.375,0.821,0.963,0.821,1.633v2.306  c0,1.133-0.919,2.052-2.052,2.052h-2.306c-1.133,0-2.052-0.919-2.052-2.052v-2.306C70.551,46.003,70.885,45.406,71.393,45.032z   M70.952,45.05c-0.496,0.375-0.821,0.963-0.821,1.632c0-0.669-0.325-1.258-0.821-1.632H70.952z M64.144,45.032  c0.386-0.033,0.741-0.168,1.037-0.385c0.058-0.005,0.114-0.017,0.173-0.017h-0.152c0.496-0.375,0.821-0.963,0.821-1.633  c0,1.133,0.919,2.052,2.052,2.052h0.816c0.496,0.375,0.821,0.963,0.821,1.632v2.306c0,1.133-0.919,2.052-2.052,2.052h-2.306  c-1.133,0-2.052-0.919-2.052-2.052v-2.306C63.302,46.003,63.636,45.406,64.144,45.032z M63.703,45.05  c-0.496,0.375-0.821,0.963-0.821,1.632c0-0.669-0.325-1.258-0.821-1.632H63.703z M56.895,45.032  c0.386-0.033,0.741-0.168,1.037-0.385c0.058-0.005,0.114-0.017,0.173-0.017h-0.152c0.496-0.375,0.821-0.963,0.821-1.633  c0,1.133,0.919,2.052,2.052,2.052h0.816c0.496,0.375,0.821,0.963,0.821,1.632v2.306c0,1.133-0.919,2.052-2.052,2.052h-2.306  c-1.133,0-2.052-0.919-2.052-2.052v-2.306C56.053,46.003,56.386,45.406,56.895,45.032z M56.454,45.05  c-0.496,0.375-0.821,0.963-0.821,1.632c0-0.669-0.325-1.258-0.821-1.632H56.454z M49.645,45.032  c0.386-0.033,0.741-0.168,1.037-0.385c0.058-0.005,0.114-0.017,0.173-0.017h-0.152c0.496-0.375,0.821-0.963,0.821-1.633  c0,1.133,0.919,2.052,2.052,2.052h0.816c0.496,0.375,0.821,0.963,0.821,1.632v2.306c0,1.133-0.919,2.052-2.052,2.052h-2.306  c-1.133,0-2.052-0.919-2.052-2.052v-2.306C48.803,46.003,49.137,45.406,49.645,45.032z M49.205,45.05  c-0.496,0.375-0.821,0.963-0.821,1.632c0-0.669-0.325-1.258-0.821-1.632H49.205z M42.396,45.032  c0.386-0.033,0.741-0.168,1.037-0.385c0.058-0.005,0.114-0.017,0.173-0.017h-0.152c0.496-0.375,0.821-0.963,0.821-1.633  c0,1.133,0.919,2.052,2.052,2.052h0.816c0.496,0.375,0.821,0.963,0.821,1.632v2.306c0,1.133-0.919,2.052-2.052,2.052h-2.306  c-1.133,0-2.052-0.919-2.052-2.052v-2.306C41.554,46.003,41.888,45.406,42.396,45.032z M41.955,45.05  c-0.496,0.375-0.821,0.963-0.821,1.632c0-0.669-0.325-1.258-0.821-1.632H41.955z M35.147,45.032  c0.386-0.033,0.741-0.168,1.037-0.385c0.058-0.005,0.114-0.017,0.173-0.017h-0.152c0.496-0.375,0.821-0.963,0.821-1.633  c0,1.133,0.919,2.052,2.052,2.052h0.816c0.496,0.375,0.821,0.963,0.821,1.632v2.306c0,1.133-0.919,2.052-2.052,2.052h-2.306  c-1.133,0-2.052-0.919-2.052-2.052v-2.306C34.305,46.003,34.638,45.406,35.147,45.032z M34.706,45.05  c-0.496,0.375-0.821,0.963-0.821,1.632c0-0.669-0.325-1.258-0.821-1.632H34.706z M27.897,45.032  c0.386-0.033,0.741-0.168,1.037-0.385c0.058-0.005,0.114-0.017,0.173-0.017h-0.152c0.496-0.375,0.821-0.963,0.821-1.633  c0,1.133,0.919,2.052,2.052,2.052h0.816c0.496,0.375,0.821,0.963,0.821,1.632v2.306c0,1.133-0.919,2.052-2.052,2.052h-2.306  c-1.133,0-2.052-0.919-2.052-2.052v-2.306C27.055,46.003,27.389,45.406,27.897,45.032z M27.457,45.05  c-0.496,0.375-0.821,0.963-0.821,1.632c0-0.669-0.325-1.258-0.821-1.632H27.457z M15.935,48.988v-2.306  c0-0.707,0.358-1.33,0.901-1.699c0.159,0.039,0.322,0.066,0.493,0.066h3.145c1.133,0,2.052-0.919,2.052-2.052  c0,1.133,0.919,2.052,2.052,2.052h0.578c0.496,0.375,0.821,0.963,0.821,1.632v2.306c0,1.133-0.919,2.052-2.052,2.052h-5.939  C16.854,51.04,15.935,50.121,15.935,48.988z M29.571,55.915c0,1.133-0.919,2.052-2.052,2.052h-9.144  c-1.133,0-2.052-0.919-2.052-2.052v-2.306c0-0.732,0.386-1.37,0.964-1.734c0.015,0,0.029,0.004,0.044,0.004h7.254  c1.133,0,2.052-0.919,2.052-2.052c0,0.729,0.383,1.365,0.956,1.729h-0.073c0.031,0,0.059,0.008,0.089,0.009  c0.29,0.181,0.628,0.289,0.991,0.305c0.582,0.362,0.972,1.003,0.972,1.738V55.915z M29.482,51.879h1.911  c-0.573,0.364-0.956,1-0.956,1.729C30.438,52.88,30.055,52.244,29.482,51.879z M37.268,55.915c0,1.133-0.919,2.052-2.052,2.052  H32.91c-1.133,0-2.052-0.919-2.052-2.052v-2.306c0-0.729,0.383-1.365,0.956-1.729h0.02c1.133,0,2.052-0.919,2.052-2.052  c0,1.133,0.919,2.052,2.052,2.052h0.375c0.573,0.364,0.956,1,0.956,1.729V55.915z M36.732,51.879h1.911  c-0.573,0.364-0.956,1-0.956,1.729C37.687,52.88,37.304,52.244,36.732,51.879z M44.517,55.915c0,1.133-0.919,2.052-2.052,2.052  h-2.306c-1.133,0-2.052-0.919-2.052-2.052v-2.306c0-0.729,0.383-1.365,0.956-1.729h0.02c1.133,0,2.052-0.919,2.052-2.052  c0,1.133,0.919,2.052,2.052,2.052h0.375c0.573,0.364,0.956,1,0.956,1.729V55.915z M43.981,51.879h1.911  c-0.573,0.364-0.956,1-0.956,1.729C44.937,52.88,44.554,52.244,43.981,51.879z M51.766,55.915c0,1.133-0.919,2.052-2.052,2.052  h-2.306c-1.133,0-2.052-0.919-2.052-2.052v-2.306c0-0.729,0.383-1.365,0.956-1.729h0.02c1.133,0,2.052-0.919,2.052-2.052  c0,1.133,0.919,2.052,2.052,2.052h0.375c0.573,0.364,0.956,1,0.956,1.729V55.915z M51.23,51.879h1.911  c-0.573,0.364-0.956,1-0.956,1.729C52.186,52.88,51.803,52.244,51.23,51.879z M59.016,55.915c0,1.133-0.919,2.052-2.052,2.052  h-2.306c-1.133,0-2.052-0.919-2.052-2.052v-2.306c0-0.729,0.383-1.365,0.956-1.729h0.02c1.133,0,2.052-0.919,2.052-2.052  c0,1.133,0.919,2.052,2.052,2.052h0.375c0.573,0.364,0.956,1,0.956,1.729V55.915z M58.48,51.879h1.911  c-0.573,0.364-0.956,1-0.956,1.729C59.435,52.88,59.052,52.244,58.48,51.879z M66.265,55.915c0,1.133-0.919,2.052-2.052,2.052  h-2.306c-1.133,0-2.052-0.919-2.052-2.052v-2.306c0-0.729,0.383-1.365,0.956-1.729h0.02c1.133,0,2.052-0.919,2.052-2.052  c0,1.133,0.919,2.052,2.052,2.052h0.375c0.573,0.364,0.956,1,0.956,1.729V55.915z M66.684,53.609c0-0.729-0.383-1.365-0.956-1.729  h1.911C67.067,52.244,66.684,52.88,66.684,53.609z M76.762,55.915c0,1.133-0.919,2.052-2.052,2.052h-5.354  c-1.133,0-2.052-0.919-2.052-2.052v-2.306c0-0.746,0.402-1.392,0.997-1.752c0.303-0.033,0.586-0.128,0.835-0.278  c0.073-0.008,0.145-0.022,0.221-0.022h-0.18c0.573-0.364,0.956-1,0.956-1.729c0,1.133,0.919,2.052,2.052,2.052h3.145  c0.138,0,0.272-0.015,0.403-0.041c0.613,0.355,1.03,1.01,1.03,1.77V55.915z M76.128,51.718c0.736-0.312,1.253-1.041,1.253-1.891  v-3.145c0-0.669-0.325-1.258-0.821-1.633h0.821v1.88v1.218v1.432c0,0.939,0.565,1.744,1.372,2.101  c-0.797,0.282-1.372,1.034-1.372,1.928C77.381,52.759,76.864,52.03,76.128,51.718z M84.211,53.609v2.306  c0,1.133-0.919,2.052-2.052,2.052h-2.306c-1.133,0-2.052-0.919-2.052-2.052v-2.306c0-0.819,0.484-1.521,1.178-1.85  c0.223,0.072,0.455,0.121,0.702,0.121h2.65c0.246,0,0.479-0.049,0.702-0.121C83.727,52.088,84.211,52.789,84.211,53.609z"/><text x="0" y="115" fill="#000000" font-size="5px" font-weight="bold" font-family="'Helvetica Neue', Helvetica, Arial-Unicode, Arial, Sans-serif">Created by Romualdas Jurgaitis</text><text x="0" y="120" fill="#000000" font-size="5px" font-weight="bold" font-family="'Helvetica Neue', Helvetica, Arial-Unicode, Arial, Sans-serif">from the Noun Project</text></svg>