<svg xmlns="http://www.w3.org/2000/svg" xmlns:xlink="http://www.w3.org/1999/xlink" version="1.1" x="0px" y="0px" viewBox="0 0 100 125" enable-background="new 0 0 100 100" xml:space="preserve"><g><path fill="#000000" d="M32.322,67.48c-0.12-0.12-0.2-0.29-0.2-0.47c0-0.181,0.07-0.351,0.2-0.48c0.25-0.25,0.7-0.26,0.96,0   c0.13,0.13,0.2,0.3,0.2,0.48c0,0.18-0.08,0.35-0.2,0.479c-0.13,0.12-0.3,0.19-0.48,0.19C32.622,67.681,32.452,67.61,32.322,67.48z    M33.428,81.991c0.067,0,0.135-0.01,0.203-0.031c0.355-0.111,0.553-0.49,0.441-0.846c-1.238-3.935-1.185-8.866-0.848-11.222   c0.053-0.369-0.203-0.711-0.572-0.764c-0.371-0.055-0.711,0.202-0.764,0.572c-0.425,2.969-0.326,7.933,0.896,11.817   C32.875,81.808,33.141,81.991,33.428,81.991z M91.326,17.814c-0.325,1.215-1.104,2.231-2.193,2.86   c-0.716,0.413-1.528,0.631-2.35,0.631c-1.679,0-3.244-0.902-4.083-2.354c-1.297-2.249-0.523-5.134,1.724-6.432   c0.715-0.413,1.528-0.632,2.35-0.632c1.68,0,3.243,0.902,4.081,2.354C91.483,15.331,91.651,16.6,91.326,17.814z M89.209,15.192   c-0.5-0.867-1.433-1.404-2.436-1.404c-0.489,0-0.973,0.13-1.4,0.376c-1.341,0.774-1.802,2.496-1.029,3.837   c0.501,0.866,1.436,1.405,2.438,1.405c0.489,0,0.973-0.131,1.4-0.377c0.649-0.375,1.114-0.98,1.308-1.706   C89.684,16.599,89.584,15.842,89.209,15.192z M82.081,28.41c0.44,0.764,0.488,1.577,0.131,2.231   c-0.357,0.654-1.067,1.054-1.947,1.096L75.9,31.945c-0.015,0.001-0.031,0.001-0.046,0.001c0,0,0,0,0,0l0,0   c-0.001,0-0.001,0-0.002,0c-0.001,0-0.002-0.001-0.004-0.001c-0.113,0-0.223-0.026-0.329-0.064   c-0.028-0.01-0.054-0.021-0.082-0.032c-0.092-0.043-0.179-0.096-0.255-0.166c-0.007-0.006-0.015-0.01-0.022-0.016   c-0.066-0.064-0.125-0.137-0.174-0.221l-0.768-1.33l-3.326,3.431l2.029,3.516c0.438,0.76,0.488,1.574,0.136,2.233   c-0.352,0.66-1.056,1.071-1.932,1.129l-5.563,0.367c-0.136,8.671-5.738,14.61-18.008,19.117c-0.037,1.004,0.188,2.68,2.021,3.091   c0.512,0.114,0.834,0.622,0.72,1.135c-0.099,0.441-0.492,0.742-0.926,0.742c-0.069,0-0.139-0.008-0.208-0.023   c-2.528-0.566-3.354-2.562-3.486-4.287c-1.142,0.386-2.272,0.744-3.385,1.063c0.057,0.237,0.121,0.456,0.185,0.67   c0.236,0.794,0.481,1.614,0.139,2.806c-0.112,0.392-0.3,0.789-0.482,1.174c-0.189,0.401-0.425,0.899-0.444,1.165   c0.049,0.112,0.467,0.501,0.692,0.71c0.242,0.225,0.493,0.457,0.688,0.711c0.682,0.892,0.9,2.11,0.586,3.262   c-0.064,0.231-0.136,0.454-0.208,0.674c-0.252,0.776-0.375,1.203-0.183,1.692c0.251,0.642,0.958,1.248,1.581,1.783   c1.295,1.114,2.025,2.479,2.114,3.947c0.092,1.524-0.507,3.042-1.735,4.389c-2.069,2.275-5.875,3.5-8.71,3.5   c-0.257,0-0.506-0.01-0.746-0.03c-3.227-0.266-5.774-1.711-7.171-4.068c-1.466-2.472-2.708-11.877-0.673-20.092   c-0.085,0-0.177,0.007-0.262,0.007c-6.61,0.001-11.557-1.8-13.604-5.346c-1.875-3.247-1.265-7.87,1.39-13.022   c-0.839-1.352-1.806-2.568-2.837-3.53c-0.306-0.284-0.675-0.567-1.065-0.867c-1.205-0.923-2.569-1.97-2.946-3.714   c-0.481-2.222,1.217-4.062,3.113-4.898c1.016-0.438,9.81-4.103,18.036-3.717c9.996-8.307,17.916-10.163,25.475-5.963l3.099-4.635   c0.487-0.729,1.171-1.148,1.943-1.109c0.747,0.024,1.427,0.475,1.866,1.234l2.052,3.556l4.784-0.905l-0.94-1.629   c-0.025-0.043-0.028-0.091-0.045-0.136c-0.026-0.065-0.055-0.128-0.066-0.197c-0.011-0.064-0.006-0.127-0.004-0.191   c0.001-0.063,0-0.125,0.013-0.188c0.015-0.069,0.047-0.132,0.077-0.196c0.02-0.044,0.025-0.091,0.051-0.132l2.362-3.676   c0.476-0.741,1.174-1.14,1.922-1.139c0.746,0.019,1.426,0.466,1.866,1.229l3.467,6.004l2.602-1.502   c0.455-0.263,1.036-0.108,1.298,0.348c0.262,0.454,0.106,1.035-0.348,1.297l-2.602,1.503L82.081,28.41z M16.629,43.45   c2.447-4.04,6.059-8.322,10.635-12.47c-6.993,0.313-13.832,3.169-14.676,3.532c-0.83,0.366-2.148,1.295-1.891,2.481   c0.21,0.974,1.154,1.697,2.153,2.463c0.414,0.317,0.841,0.646,1.222,1C14.983,41.307,15.845,42.328,16.629,43.45z M20.11,60.455   c0.27-1.037,0.418-2.83-0.786-4.915c-1.2-2.078-2.831-2.848-3.863-3.135c-0.335,1.964-0.15,3.673,0.621,5.008   S18.24,59.763,20.11,60.455z M40.029,62.233c-3.425,0.857-6.673,1.387-9.654,1.589c-2.257,8.204-0.737,17.364,0.231,18.998   c1.282,2.162,3.619,2.787,5.354,2.93c2.552,0.22,5.997-1.025,7.531-2.713c0.792-0.87,1.183-1.794,1.13-2.673   c-0.05-0.822-0.5-1.622-1.304-2.313c-0.788-0.677-1.771-1.52-2.234-2.704c-0.506-1.292-0.149-2.388,0.137-3.269   c0.061-0.187,0.123-0.376,0.176-0.57c0.119-0.435,0.046-0.915-0.187-1.219c-0.1-0.131-0.259-0.268-0.423-0.42   c-0.64-0.595-1.517-1.409-1.434-2.59c0.05-0.703,0.375-1.393,0.663-2c0.142-0.3,0.289-0.61,0.348-0.819   c0.154-0.534,0.064-0.835-0.132-1.493C40.167,62.75,40.096,62.504,40.029,62.233z M63.233,39.993l-8.49-14.708   c-7-4.273-14.168-2.561-23.956,5.718C22.91,37.666,17.462,45.105,15.82,50.847c1.214,0.322,3.021,1.141,4.46,3.218l35.276-20.365   c0.383-0.224,0.871-0.09,1.093,0.292c0.221,0.383,0.09,0.872-0.293,1.093L21.08,55.449c1.08,2.284,0.885,4.259,0.557,5.473   c5.793,1.447,14.96,0.449,24.669-3.04C58.372,53.546,63.438,48.189,63.233,39.993z M71.189,38.062l-8.377-14.512   c-0.002-0.003-0.004-0.007-0.005-0.01l-2.413-4.18c-0.099-0.171-0.187-0.23-0.21-0.237c-0.002,0.007-0.094,0.06-0.204,0.224   l-3.175,4.749l8.49,14.708l5.699-0.376c0.197-0.013,0.289-0.065,0.305-0.083C71.295,38.34,71.289,38.233,71.189,38.062z    M73.179,28.315l-3.157-5.469l-4.784,0.905l4.615,7.994L73.179,28.315z M80.468,29.667c-0.008,0.001-0.022-0.09-0.119-0.257   l-7.883-13.653c-0.095-0.164-0.179-0.225-0.201-0.232c0.017,0.008-0.07,0.063-0.172,0.223l-2.033,3.164l6.355,11.007l3.755-0.179   C80.358,29.73,80.451,29.683,80.468,29.667z"/></g><text x="0" y="115" fill="#000000" font-size="5px" font-weight="bold" font-family="'Helvetica Neue', Helvetica, Arial-Unicode, Arial, Sans-serif">Created by Imogen Oh</text><text x="0" y="120" fill="#000000" font-size="5px" font-weight="bold" font-family="'Helvetica Neue', Helvetica, Arial-Unicode, Arial, Sans-serif">from the Noun Project</text></svg>