<svg xmlns="http://www.w3.org/2000/svg" xmlns:xlink="http://www.w3.org/1999/xlink" version="1.1" preserveAspectRatio="none" x="0px" y="0px" viewBox="0 0 100 125"><defs><g id="a"><path fill="#000000" stroke="none" d=" M 94.1 71.25 Q 94.9 66.5 94.15 63.15 79.1 52.95 51.5 35.9 15.25 13.55 7.05 8.35 6.85 8.2 6.7 8.1 5.85 11.65 5.6 17.7 5.55 19.05 5.55 29 5.55 44.65 11.2 60.65 19.65 84.65 37.35 88.8 38.55 89.15 40.2 89.55 48.25 91.5 56.95 91.9 65.6 92.3 75.9 89.45 86.15 86.65 89.7 81.3 93.25 75.95 94.1 71.25 M 82.35 63.6 Q 84.85 63.6 86.35 62.25 86.6 62 86.8 61.8 88.5 62.85 89.7 63.6 88.45 65.25 87.2 66.75 83.35 71.7 78.75 75.4 64.7 86.7 45.15 86.7 19.4 86.7 10.85 51.3 8.15 40.05 7.5 26.3 7.35 14.35 7.35 13.55 7.55 11.6 7.65 10.05 9.15 11.3 12.7 13.8 11.8 13.5 11.3 13.7 10 14.1 10 19.4 10 21.85 11.2 24.45 12.85 28.1 16.05 29 19.45 30 38.15 34.85 39.5 34.85 40 34.6 40.45 34.4 40.45 33.85 40.45 32.7 38 30.5 43.1 33.8 49.1 37.65 53.1 40.2 56.7 42.55 59.45 45.3 66.5 52.2 78.95 63.6 82.35 63.6 M 82.45 81.25 L 82.55 81.3 Q 82.65 81.35 82.65 81.7 82.65 81.9 82.45 82.2 82.15 82.5 81.8 82.5 L 80.95 82.45 Q 80.8 82.55 80.8 81.95 80.8 81.75 81.2 81.45 81.7 81.15 82.45 81.25 M 33.65 28.5 Q 35.15 29.85 35.75 30.85 35.4 31.35 35 31.35 34.3 31.35 32.95 30.05 31.75 28.85 31.75 28.7 31.75 26.8 33.65 28.5 M 72.5 85.35 Q 74.1 84.95 74.1 86.1 74.1 86.65 73.5 87.05 72.9 87.5 71.75 87.5 71.1 87.5 70.9 87.1 70.85 86.75 70.85 86.7 70.85 85.75 72.5 85.35 M 77.5 85.65 Q 77.5 84.55 79.55 84.55 79.9 84.55 80.35 84.7 80.35 84.85 80.45 85.1 80.45 86.05 78.3 86.25 L 77.5 85.65 M 55 44 Q 51.35 41.2 51.3 42.85 51.2515625 44.0609375 51.2 43.5 L 51.65 50.05 Q 52.2 58.8 52.3 60.6 52.55 63.5 53.35 67.9 53.7 69.95 54.45 76.35 56 81.75 61.15 81.75 68.7 81.75 72.4 76.85 74.7 73.75 74.7 70.65 74.7 65.25 63.05 51.9 58.35 46.5 55 44 M 57.4 52.4 Q 57.4 53 57.35 52.9 57.2 53.15 56.65 53.15 55.4 53.15 54.8 51.5 L 54.45 50.05 Q 54.45 47.25 55.9 49.45 57.4 51.65 57.4 52.4 M 42.15 37.75 Q 42.05 37.7 42.05 37.65 21.7 32.7 15.35 34.75 11.9 35.95 11.9 41.2 11.9 41.25 13.3 50.15 15.45 59.1 19.2 59.1 21.65 59.1 32.1 49 42.2 39.25 42.2 38.2 42.2 37.9 42.15 37.75 M 31.6 42.1 Q 30.9 42.1 30.9 41.2 30.9 39.9 33.5 39.4 36.05 38.9 36.05 40.2 36.05 41.55 31.6 42.1 M 48.8 44.35 Q 47.5 40.3 47.3 39.75 45.95 39.5 38.6 47.1 29.1 57.1 27.2 59.85 24.7 63.65 24.7 70 24.7 73.7 26.75 77.3 30.6 83.9 38.85 83.9 47.05 83.9 49.15 67.8 49.65 63.85 49.9 56.15 50.05 48.4 48.8 44.35 M 43.45 47.5 Q 45.2 45.3 45.2 48.35 44.3 54.05 42.55 54.05 41.8 54.05 41.7 53.35 41.7 52.55 41.7 52.5 41.7 49.65 43.45 47.5 Z"/></g></defs><g transform="matrix( 1, 0, 0, 1, 0,0) "><use xlink:href="#a"/></g><text x="0" y="115" fill="#000000" font-size="5px" font-weight="bold" font-family="'Helvetica Neue', Helvetica, Arial-Unicode, Arial, Sans-serif">Created by Pencil</text><text x="0" y="120" fill="#000000" font-size="5px" font-weight="bold" font-family="'Helvetica Neue', Helvetica, Arial-Unicode, Arial, Sans-serif">from the Noun Project</text></svg>