<?xml version="1.0" encoding="UTF-8"?>
<svg xmlns="http://www.w3.org/2000/svg" xmlns:xlink="http://www.w3.org/1999/xlink" xml:space="preserve" version="1.1" style="shape-rendering:geometricPrecision;text-rendering:geometricPrecision;image-rendering:optimizeQuality;" viewBox="0 0 508000 635000" x="0px" y="0px" fill-rule="evenodd" clip-rule="evenodd">
    <path d="M298930 401930c4310,2080 3690,1130 6010,5710l-9510 420 3500 -6130zm-18830 1510l2880 3030c-1420,1070 440,1230 -2930,1480 -2940,220 -1210,30 -3680,-570l3730 -3940zm-28350 1900c-480,5490 1730,1730 -3370,3430 230,-430 530,-1610 690,-1270l2680 -2160zm174560 -7080c4090,3460 3020,4080 5450,7850 -14610,5700 -17790,-2400 -5450,-7850zm-171450 5220c780,-2140 -1220,-2930 7560,-7080 2350,2550 1970,2900 4210,5650 2420,2990 2600,2270 4940,6150l-13840 410 -2870 -5130zm-88150 -4630l7080 8810c-6270,70 -22780,0 -7080,-8810zm207380 -7160c2580,2670 12560,14740 14370,17240 -9360,490 -19950,470 -29380,360 -14750,-190 -15510,-7370 -5880,-13040 5980,3810 6060,8600 14540,11460 330,-8650 -3100,-10050 6350,-16020zm-41770 2370c4960,6190 7880,5740 5630,13960 -20730,2220 -17730,-7890 -5630,-13960zm-103310 6170c3010,-1990 6060,-4670 10810,-6270 4370,2550 3960,3190 7420,6090 -4490,11150 -13340,12870 -18230,180zm-20720 -3210l7660 -3860 6100 7150 -7590 7610c-3130,-2640 -5190,-6220 -6170,-10900zm96230 1010l5070 -4060c3720,4390 7550,9120 10080,14110l-9740 -100 -5410 -9950zm-15460 9760l-5950 -8480c2870,-4200 5370,-6560 10980,-8390l3020 6750c-2080,3640 -5330,7600 -8050,10120zm-133530 -430l-28780 -720 8470 -6620c7310,2840 3180,3770 11420,5300 -1290,-4160 -9620,-12470 -1280,-10800 3150,630 8510,9650 10170,12840zm-36520 -11280c2950,-3860 4050,-4140 8910,-5950 4140,4190 2430,1260 4740,5950l-7720 6160c-2410,-2320 -4050,-3810 -5930,-6160zm147680 -2990l3160 -2370c2280,1800 4630,4400 6690,7130l-3240 5140c-4680,-5010 -3690,-5930 -6610,-9900zm-79310 -340l7480 -4080 6400 8660c-3220,3290 -5520,3800 -5410,8390 3430,-420 5470,-2240 8160,-3800 3060,2900 2740,2170 4640,6230 -6280,200 -11880,20 -18120,-290 -9850,-470 -7690,1640 -13290,-4320l5890 -5840c4420,2930 1700,2930 7510,4140 -380,-2660 -2140,-7620 -3260,-9090zm-78700 7840c10430,-1200 6690,-1650 12880,5410 -12040,470 -22710,1180 -25980,-9920l8790 -6900c6960,6150 5490,3340 4310,11410zm303940 -1010c-1800,-5470 -2250,-5950 2510,-8830 5620,-3410 6060,-1790 8100,2340l-1380 1600c-3140,2830 -4630,3990 -9230,4890zm-11880 330c11730,-3600 6490,-240 12110,9670l-17880 180 -6330 -9210c4030,-4250 7530,-8470 12070,-11740 2570,5470 660,4540 30,11100zm-228080 -1030c-2310,-6090 900,-6300 7630,-8690 -830,4580 -3790,6740 -7630,8690zm163350 -8690l1580 -2010c80,-80 2240,-2180 2440,-2350 2160,-1760 2110,-1570 4220,-2610l5930 8190 -7190 7720 -6980 -8940zm-185660 430c3960,-3400 3600,-3160 9220,-3830l4480 8020c-3300,2340 -3180,3300 -7780,4320l-5920 -8510zm147540 -1860l5970 -4070 3060 5260 -5700 4910 -3330 -6100zm-53250 1570l8390 -4760c4000,3130 4300,3230 5870,7840l-6800 5220c-4430,-2620 -5270,-4590 -7460,-8300zm114030 2760l4740 -3310c1830,-780 3670,-1100 5940,-1530 -6500,13870 -8500,8910 -10680,4840zm-39780 4790l-5020 -7580c4550,-4130 6790,-6430 12480,-9090l2850 8920c-3350,2840 -5550,5640 -10310,7750zm-93600 -620c-1400,-2170 -2690,-3850 -3690,-7150 3760,-3240 7200,-5260 13280,-5770l2070 4270c-2250,4260 -7150,6830 -11660,8650zm181820 -7540c-1790,-3730 -3100,-3230 -120,-6840 2050,-2490 5210,-3180 8810,-3440 1670,4940 3720,6760 -8690,10280zm38650 -24900c6590,4560 12990,13700 7400,25470 -5990,-1680 -9900,-7410 -14840,-11940 2290,-7710 3380,-8310 7440,-13530zm16350 15270c-2960,-4170 -3660,-9210 4240,-11090 -120,5440 950,10380 -4240,11090zm-12170 -20250l4390 -1910 510 8600c-1600,-1120 -1490,-460 -2720,-2160 -700,-970 -1880,-4110 -2180,-4530zm-11890 6090c600,-4410 470,-3860 3170,-6530 2300,3890 -1000,4260 -3170,6530zm28540 -1550l-4960 -570c-1510,-11210 4300,-14120 8160,-16820 50,5780 -440,12990 -3200,17390zm-21680 -9200c3960,-4140 5090,-5410 10970,-8640 -990,4960 -850,4620 -4730,7340 -5180,3640 -3200,3610 -6240,1300zm-3040 -5830c1710,-2680 2020,-2800 4010,-5280 3140,-3910 2000,-3450 5620,-4740 -130,6920 2080,2040 -3750,6630 -3400,2680 -2340,2560 -5880,3390zm28680 -8770l-7100 3370 450 -13030c3490,2320 -3130,80 2850,1030 1530,240 2610,50 5130,340l-1330 8290zm-13320 -1390c-1670,-1470 -2360,-2310 -3890,-4120 6160,-12930 -1840,-8420 5070,-14340l-1180 18460zm-8690 -13790l-3960 -3900c150,-6890 3160,-11440 6950,-14700l4370 7200c-1530,5190 -4330,7750 -7360,11400zm18920 -9870c5680,7120 5010,-3000 5000,8950l-8270 3690c650,-12270 -2540,-12090 4870,-18930 -3650,-5510 -1990,0 -3450,-5610 5970,3060 3920,980 9440,-1480 -2750,13590 -3890,2090 -7590,13380zm-750 -14680l560 -7690 7860 -6150 150 9000 -8570 4840zm-7760 9540l-4940 -8210c1660,-5960 3260,-8340 7750,-12170l-2810 20380zm-6890 -14020c-3190,-2080 -850,930 -4150,-3930 1980,-3400 5620,-8650 7850,-11130 10,0 5270,-190 1230,6580 -2510,4200 -3160,3380 -4930,8480zm-6360 -9370c-2170,-1930 -3560,-3080 -5550,-5810 1360,-4960 4260,-8320 8020,-11540 240,-210 720,-530 1080,-790 1710,3810 2590,4540 4340,7890 -2210,3960 -4270,6980 -7890,10250zm-190960 -14410l5010 7000 -3640 7760 -3990 -8100c-1710,-5330 -2120,-4790 2620,-6660zm20570 -15500c310,260 800,230 940,780l1680 1610c4960,5810 4140,9190 2780,15070 -3370,-500 -5540,-3080 -7050,-6400 -2340,-5120 -90,-7490 1650,-11060zm176360 6230c1010,-1800 2870,-5620 5340,-6490 5500,-1960 6240,11390 670,16480 -5030,-3710 -3300,-5380 -6010,-9990zm-191470 9770c-860,-5590 2890,-8290 7140,-10590 -1450,2220 -1040,2550 -2180,5080 -3390,7560 -330,3010 -4960,5510zm-57480 -18400c2570,390 27980,17040 25010,23130 -3240,-3570 -1550,-4010 -5850,-4920 -4120,-870 -4260,1730 -7170,-3810 -9360,-17830 -7830,-890 -11990,-14400zm245960 4150c-2070,-4160 910,-8740 3950,-11320 710,980 6750,3500 -3950,11320zm22830 -5620l-280 -9470 7770 -6920c2360,12720 -1060,29750 -2650,42560 -4740,2870 -4070,2120 -7670,5800 -200,-11060 830,-7740 7080,-12920 -1900,-4470 -3090,-2990 -5690,-4470l380 -7460c7110,-3950 4460,-330 8530,-6330l-7470 -790zm-185220 -8280c730,7820 -280,7960 -2600,14590 -2710,-4120 -2950,-3670 -4750,-8490l7350 -6100zm-95200 840c8320,-530 2490,750 9700,4250l-3720 1490c-2400,650 -1060,230 -2670,410l-3310 -6150zm98650 -2550c1140,-4920 7090,-7870 11570,-10570 2590,5990 1880,2720 4440,6380 3700,5270 1190,3220 3160,10500 9300,1680 3870,-6650 9710,1860 2580,3780 3340,7390 6840,11270l16530 19270c4540,6020 11070,12900 16940,18910 11260,11530 23020,26370 35340,37770 13310,12330 21720,25360 34260,37340 4600,4390 15450,15940 17840,20120l-9570 6930c-3880,-2760 -7100,-8800 -9910,-13460 -2900,-4800 -5580,-13450 -8310,-16720 -11750,1100 -24490,17530 -34050,23820 -300,-250 -720,-1080 -850,-820l-6150 -8490 17330 -8980c3710,-1440 1110,180 3310,-1670 -8840,-5820 -16000,3450 -21810,4740 -3270,730 -4000,-670 -9870,2340 -4280,2200 -7970,3720 -12290,4830l-5040 -9440c4900,-2360 7960,-2090 10820,-3960 -4770,-6050 -13660,970 -17530,4170 -3210,2650 -4800,5570 -8110,3860 -9100,-4700 1140,-1410 2100,-7670 -9100,-180 -17570,3380 -23520,9990l-2980 -6210c-4000,450 -14700,3670 -17140,5200l-5680 5160c-2490,2130 -4220,3620 -7020,4450 -3530,-3700 -2890,-2620 -4100,-7020 5460,-4940 9310,-5230 14690,-8950 -1450,-990 1530,-4850 -12340,2970 -8750,4930 -1560,580 -10190,-1300 -3720,7630 5250,4290 -4470,9700 -4850,-3290 -3430,-3570 -5460,-8650 -7280,790 -10230,3760 -16780,5820 -2290,-4460 -890,-3440 -4320,-6860 -6450,280 -11110,5320 -16580,4910 -7840,-580 140,-950 -6090,-2450 -5250,8700 4870,4510 -7460,11440 -4280,-2590 -4680,-4310 -6500,-8970 4230,-1190 7130,-880 10520,-3600 -8360,-3990 -19070,3880 -24910,7620l1500 -4970c-11400,-410 -3700,-2710 -10690,-7000 -9410,-5770 -360,8870 130,10420l-8590 4140c-5470,-9260 -1850,-14750 -13140,-8290 -7910,4520 -8660,1680 -12970,6380 -1630,1770 1580,660 -3980,3400 -3750,-2270 -2910,-1980 -5240,-6150 4220,-3360 7260,-3170 10510,-5580 -4170,-3070 -9390,660 -17170,160 -1560,7130 -6010,9850 -11970,10280 -3120,-3220 -2600,-1590 -4370,-6180 3970,-2960 7830,-3710 13430,-6690 -6820,-5750 -17010,3540 -22760,8120 -2240,1790 -5020,3540 -7190,4710 -2100,-1980 -2560,-4640 -5750,-5890 -460,5050 790,7360 0,9830 -1700,5260 -3450,-1040 -3250,7840 5060,-2040 2670,-2330 7450,-3890 2010,2290 3190,3370 4880,7010 -11780,830 -24630,2520 -31490,-3170 1290,-6350 1000,-2410 5780,-6960 5470,3660 5340,6850 12240,7720 -2400,-5550 -3970,-4550 -6300,-10960 4720,-7490 16580,-13430 24860,-16740l5430 -2650c-1000,-740 -1460,-4430 -10710,80 -6290,3080 -10370,7410 -16110,10900 -4710,2860 -5260,790 -11200,950 200,9360 -40,6240 -5330,12000 -330,-220 -730,-1090 -860,-820 -130,260 -660,-650 -830,-820 -1940,-1880 -980,-3520 -5040,-3610l-140 7160c440,4840 120,3850 -210,9190 -7370,-610 -15290,-4420 -19680,-9970 5110,-14750 6130,-9930 14530,-19050 3400,-3690 4820,-6170 8390,-9500 9520,-8850 18360,-16760 26660,-27050 3580,-4440 4280,-6510 8130,-9770l26060 -26170c6770,-7160 46760,-52530 52510,-55250 -440,-3060 -4210,2750 6080,840 6940,-1290 2050,-520 5930,-3360 6980,-5140 -5210,1130 1900,-1360l3190 6220c-3360,8680 -3340,-1310 -5230,9300 5480,-1200 4420,-1550 8670,-3620 1250,4350 1040,3820 1850,8360 11350,650 4400,-5740 11060,8100l4940 3150c1520,-1030 900,-4950 3920,70 2430,4020 580,6220 260,10360 9990,1480 3800,690 10190,-3400 2970,3600 2220,4900 6350,7570l6290 2770c2790,-8200 1070,-6580 -720,-13990l7280 -4310c1820,3830 4840,8070 6140,11460 3280,8600 -2250,8840 8860,10750 -1870,-11540 -2130,-6210 1250,-17120 9080,5080 4290,10040 13580,12100 -630,-5160 -4060,-8130 -6850,-12110 -5360,-7660 -2990,-5050 -550,-13160 4450,3200 9370,11500 16560,11830 1250,-3760 -1400,-3080 1490,-9060 5260,2830 6130,6420 11630,7570 -640,-8280 -16690,-10800 -7160,-24670 4630,4350 6900,10840 14460,9860 -2940,-7270 -13570,-11170 -10070,-19120 8350,3120 5710,12440 16160,11830 -1090,-3620 -9670,-14580 -13090,-18190 -4100,940 -4260,1790 -8260,2590zm161510 -6200c1740,-4150 3480,-7190 5650,-10280 1530,-2170 4800,-4910 6250,-7300l-1660 31620 -6370 -8630c1250,-3920 3350,-5210 5310,-10220 -6890,-930 -1540,-2020 -9180,4810zm-146620 -6520l1870 170c1160,4980 -1860,970 -1870,-170zm-125980 3270c-3070,-1630 -2810,920 -3660,-5240 5090,3170 2550,-700 3660,5240zm-7470 -1520c1760,4910 2000,2810 -1550,5170 -1170,-1670 -3220,-5160 -4150,-7400 -2120,-5130 -2130,-2460 1230,-4860 1980,1950 3450,4220 4470,7090zm140520 -3780c-2130,-4450 1190,-4920 4820,-7100l-4820 7100zm168700 -24750l-710 26780c-3060,1890 -4090,1770 -7060,3960l-2350 -23350 10120 -7390zm-150840 13560c-1300,2890 240,-40 -1730,2810l-3800 -6750c3020,-3200 2640,-2610 6810,-3900 110,3460 -140,5290 -1280,7840zm-201090 -13080c-520,-1070 -3250,-4040 -4590,-6370 3990,1450 820,-2030 3810,3070 1140,1930 640,1770 780,3300zm328270 -3530c920,-4240 4590,-9010 8290,-11450 -2310,29220 970,18130 -9700,32980l-8330 9990c1900,-7140 7060,-16340 12000,-22460 190,-240 500,-580 680,-830l1150 -1920c4740,-7710 -2470,2100 1500,-2610l-5590 -3700zm13710 3620c-1090,-15080 -2690,-29600 9620,-34500l220 12980 -6170 3070c-3690,2690 -2460,1670 -3390,6530l9300 -3240c700,13520 290,7450 -9580,15160zm-17520 -9190c-1790,-6600 2350,-11240 6730,-17430l4280 5100c-310,240 -740,540 -930,720 -8450,7650 -2260,7380 -10080,11610zm-93740 -13520c5200,-2350 6330,-5170 11920,-8260 -4730,11510 -5260,2510 -6210,25560 -1760,-2010 -3940,-5010 -4100,-8720 -290,-6400 4190,-3430 -1610,-8580zm88470 5110c-550,-4080 4780,-13910 6990,-16020 1040,1750 3060,-2490 440,4840l-7430 11180zm-413780 -18930c1480,3860 2200,2000 50,5550 -1520,-1750 -790,2440 -1230,-2590 -520,-6010 -230,-620 1180,-2960zm62870 8740c-3600,-2830 -2390,-2720 -4350,-7550 5360,2940 7320,2270 4350,7550zm289840 -14010l-5040 9400c-1030,-1860 -1490,-2820 -2810,-5000l7850 -4400zm-348590 210c4290,-7080 5300,-1080 5320,-1080 0,700 980,1760 -1740,3520 -5960,3840 -2610,500 -3710,100 -390,-1280 -2670,2080 130,-2540zm-5880 -10370c2480,1430 1150,540 3220,2100 240,180 1850,1730 2320,2160l-4950 4650 -590 -8910zm9850 -10010l4390 4650 -4960 5260c-9780,-6620 -4860,-2180 -8900,-3770l9470 -6140zm360030 9120c2140,-4200 2770,-6200 6640,-7060l-3920 12280c-3150,-4760 -650,160 -2720,-5220zm69350 16780c420,-2460 1980,-7750 2270,-9650 1400,-9020 -8230,-22080 7130,-20850l-580 26200c-5190,1650 -4190,1750 -8820,4300zm-427780 -32350c19900,-9470 23000,17910 33990,25660 2090,1480 -380,210 1480,720 6870,1910 -5680,-380 2200,-180 2660,60 -1910,-2280 1970,210l8960 18080c560,2100 -1460,5830 4170,5410 4180,-310 1180,-100 3270,-3680 1460,-2500 -1350,-310 1460,-2070 10080,8760 430,10700 3050,13230 5830,5660 -2750,-7230 10490,4390l2600 2030c260,180 640,400 900,580 10810,7560 4080,10170 15320,8170l3990 8100c6560,-1170 -580,-60 3820,-1970l2060 -660c1050,6290 -950,-980 -1780,7500 8620,-340 4330,-3790 11770,12070 6490,-1040 1350,-1020 7460,-2590 10280,17160 3010,17220 -10610,30790 -3740,3720 -5730,6450 -9490,9900 -4010,3670 -5570,4400 -9530,8370 -16020,16080 -30790,29880 -45510,46980 -3600,4180 -4310,5610 -8770,9140 -10330,8180 -38670,47310 -43650,48900 -250,-11890 2830,-69880 1580,-78110 -660,-4320 -2380,-4510 -3240,-9600 -1220,-7290 1060,-15200 650,-23470 -660,-12880 -2440,-63640 1530,-69660 4330,3330 6290,7530 12340,4010 -2700,-5770 -3620,-2200 -6430,-8100 -2110,-4420 1560,-640 -1580,-3730 -1510,-1480 -3600,-1590 -5990,-2550 1000,-3030 800,-1960 1650,-3620 5480,-10690 -1620,4570 1780,-3250 6070,2830 990,2820 8880,3800 -1380,-7960 -1800,-3000 -4050,-9220l6660 -5150c280,-140 830,-380 1050,-500 240,-110 750,-260 1070,-490 -5320,-4720 -3590,-380 -5930,-5970 6820,-7610 2330,-1680 8340,-4470 -1320,-4840 -3600,-5620 -6640,-8950 3000,-4420 6300,-6960 8690,-11940 -14000,-5790 -6760,-2010 -9980,-8110zm-11270 7180c260,-8090 -1770,-15580 3240,-20650l5210 10110c-8730,7460 1230,5050 -8450,10540zm14530 -13040c-3820,-240 -2020,2390 -4120,-3720 4730,1950 3090,70 4120,3720zm430130 -10900c2410,3450 3430,6930 2440,12350l-4470 1640 -4010 -8510 6040 -5480zm-10240 -7890c2790,-1520 5280,-2680 9440,-3450 -90,8130 -1780,7900 -6590,10910 -2530,-3350 -1920,-2050 -2850,-7460zm-19900 23360c3660,-5630 520,-7930 8200,-13880l2810 -2180 -7700 -9000c1510,-1110 1840,-1540 3370,-2690 2060,-1560 530,-630 3120,-2200 12210,22740 6930,26480 7730,48970 450,12470 1870,12480 -5220,13580 -3280,-4520 370,-6950 1800,-12840 -5380,1820 -3080,3890 -7520,5800 -5190,-8930 -930,-9720 -9410,-10370 -1700,5830 3100,11040 7740,14610 -6650,23340 -6080,13510 -13630,16410 2140,5390 5350,6270 6620,10180 1010,3140 -650,7460 -780,12650 5720,-2520 2110,-720 5920,-5660 510,7800 -6460,8850 -7160,16310 -840,9050 -470,3620 1500,6230 4010,-5690 4110,-11830 10520,-15550 -1220,5130 -5590,13600 -8740,18360 -1770,2680 -4940,5700 -5600,7940 -1890,6330 1120,5890 2050,7030 170,190 760,1040 890,780 130,-260 660,470 940,760 -8440,8790 -1710,16320 -4760,26480l1470 150c110,0 580,10 690,10 9490,30 -4010,-3800 2280,-160 -5500,7190 -9950,12510 -10580,22370 250,90 680,40 800,30 3720,-50 1060,-1700 5410,-290 1720,4920 400,9150 -1190,15410 5050,-1070 3150,-1400 6160,-4670 180,-200 670,-360 800,-910 130,-550 490,-660 810,-910 2090,5130 1220,6580 -2290,11850 -3930,5890 -2940,3160 -8810,6340 1220,5320 5210,10080 9280,13020 -40,14420 490,12190 -10350,16810 440,6950 1970,6930 750,13220 -1010,5210 -1070,1190 -230,6910 70,450 210,810 290,1260 70,460 200,840 270,1290l400 5590c-7940,-4310 -23060,-28060 -30280,-35470 -2540,-2610 -4590,-4600 -7770,-8700 -4800,-6180 -1860,-3370 -8680,-7720 -8450,-5390 -15390,-17470 -22740,-24940l-22740 -26560c-6650,-7130 -8980,-10560 -14830,-17920l-14030 -17540 7280 -11460c2790,5160 5660,10560 11040,12790 2430,1010 930,340 2560,540 120,10 680,150 770,-100 90,-260 520,-70 760,-170 1080,-3170 -3350,-5830 -6210,-8550l4700 -10350c6990,5110 3680,7700 12430,10290 -2280,-8460 -5460,-8760 -9430,-15160 2590,-5560 3230,-2800 4380,-8950 -7910,-420 -4190,2480 -8410,0 2480,-4660 4290,-5120 10290,-8360 2640,10630 620,8690 1850,18170 5850,-540 1780,670 5300,-3520 4050,3140 4350,4330 8530,2480 -2280,-5380 -13280,-11250 -4050,-18640 4180,5780 4310,10790 10440,12460 2180,-4930 3160,-8600 2040,-14080 3970,2760 4770,6540 9250,7850 2660,-10210 -14810,-10860 -360,-24850l300 15750c2690,-450 870,-20 2960,-1550l2220 -2150c1730,1840 6340,8220 6480,1910 60,-2620 -3370,-4590 -5930,-9490l3800 -7230c5620,4680 4540,7810 12470,9110 -1760,-5740 -5000,-7150 -8210,-13660 1210,-3460 2420,-4330 3320,-7140 890,-2770 -160,-4280 1500,-6310 4340,5980 8820,15820 14950,17830 1730,-5900 140,-2660 -900,-7810 -820,-4120 -400,-6980 -270,-11430 5360,2910 6120,9430 14220,8940 -1500,-7490 -6810,-5090 -8760,-11710 -2200,-7420 1770,760 330,-5920 -1110,-5140 -380,1470 -2680,-4220l4870 -5560 3500 8000c620,1680 1470,4280 2600,6420 6420,1770 3830,2880 8260,1010 1860,-7210 -8900,-2870 -1810,-13950 3340,3170 4670,6380 9110,7790 330,-6680 -2490,-7420 -5900,-11740 1920,-4320 2210,-2510 4350,-7460l-5580 -1020c7530,-4220 9620,-7650 16110,-11610 840,5390 1150,3360 770,7540 -4770,2590 -2820,1530 -8430,350l-260 19640 5280 -4110c170,-210 450,-570 590,-800zm-208490 141410c-18010,-20110 -17430,-18060 -35120,-32770 -5950,-4940 -8310,-3780 -14120,-9760l-51340 -41160c-20340,-12730 -10060,-7520 -18780,-14000l-56460 -47970c-3730,-3370 -5660,-7470 -10840,-11540 -5060,-3960 -9800,-5960 -11350,-12230 3820,-2430 11380,-6680 15950,-8830 20900,-9800 22020,-5700 44810,-6140 23380,-450 53570,-3290 76090,-2890 7940,140 24020,3360 29160,2020 7230,-1890 110,-2120 17580,-2930l78570 400c9470,100 17490,-1560 26850,-1520 35120,120 65910,2250 101480,830 1180,2350 1070,3140 2690,4480 240,200 620,430 890,610 6120,4040 -4570,-2280 2060,960 4850,2380 7690,3410 12050,8670 -9510,7370 -31290,21980 -40830,30580l-141020 121500c-4950,4280 -7820,7760 -12400,11610l-15920 10080zm201380 -191670c12700,-8270 23440,7410 26120,14350 2590,6690 2490,5210 -2230,8510 -1440,-1110 -1090,-760 -2620,-2300 -11050,-11150 -5070,-4270 -13070,-9320 1850,-5890 6890,-3360 5370,-8020 -1200,-1600 960,-5240 -8820,3650 -3540,-2420 -3760,-2070 -4750,-6870zm-198630 -1540c2010,-2410 7630,-7700 10010,-1440 -3210,2620 -4660,1540 -10010,1440zm-30720 -4720c-1310,4830 -2280,6850 -7690,4270l7690 -4270zm212000 5640c6400,-3170 12930,-12710 20220,-5350 -9860,5520 -12220,7650 -20220,5350zm-24830 -50c2320,-3170 -40,-730 3400,-3840 8690,-7880 13930,-5930 25670,-5680l-10740 9880 -18330 -360zm-14400 -5300c1740,-1080 3680,-2240 5470,-3390 2630,-1690 2560,-4650 12980,-1750 -470,2400 -4830,5520 -8270,7990 -3750,2700 -9060,2140 -15620,2160l5440 -5010zm-260930 7470c3380,-3780 25240,-13390 29000,-11940 -5270,3000 -2170,-310 -6160,3650 -2450,2430 -1900,3030 -5200,5160 -4900,3150 -9990,3500 -17640,3130zm-9090 20c3310,-3150 6730,-4960 10410,-7330 5790,-3730 3020,-5030 10920,-3720 -1900,110 -2810,540 -5020,1830 -2810,1630 -2770,1500 -5950,3170 -10110,5290 1190,6050 -10360,6050zm-32940 1010c8120,-5890 32750,-12720 43290,-12670 -10560,12350 -27270,13710 -43290,12670zm275030 -3470c3330,-6270 7500,-7030 12300,-10110 5470,-3520 8350,-1460 16260,-1200 -5790,5800 -6310,3160 -9520,8120l-1650 3730 -17390 -540zm-18940 -270c5420,-8820 9540,-4330 15460,-12080l9920 420c-3500,2810 -6050,4590 -10890,5990l-530 5760 -13960 -90zm-25300 -110c2550,-4560 8490,-9430 13120,-11430 5170,-2230 16620,-1480 20520,-540 -3320,2690 -7400,5760 -13230,6440l-550 5280 -19860 250zm-31530 -990c14010,-3140 11390,-13570 36140,-10570 -2570,2000 -3610,3430 -8390,4650l-230 6210c-13430,-180 -30880,2330 -50280,1580 5810,-5540 15100,-9940 25060,-12060l-2300 10190zm5520 -7240c810,-4730 -3260,-3750 5580,-3220l-5580 3220zm-119610 8080c23000,-15240 10940,-3190 17110,-13450 24050,1070 70700,-620 89820,1750l-16890 7980 -460 -5000c-11400,-20 -14380,4070 -22560,6980l-2990 -5710c-7300,1980 -9300,5100 -16640,5760l3820 -7880c-16020,-1790 -13920,13890 -32850,10600 3090,-2070 3170,-1450 6350,-3020 4950,-2440 3950,-20 4360,-4830l-21990 7000c-4710,1220 -2450,2760 -7080,-180zm-21420 2110c2170,-3550 -920,-590 3130,-3890 6840,-5570 20130,-10280 28970,-9760 -9700,6550 -13190,10050 -18260,8030l-2980 5660 -10860 -40zm-118940 214690c9760,8300 3420,22930 2770,32250 -320,4560 390,8820 -380,13100 -1130,6280 -1730,-140 -1780,8290l-180 34670c12500,34680 47110,22840 77150,21480 30380,-1370 69560,3010 101450,2850 34810,-170 69550,560 104440,-40 33310,-570 69610,780 102940,2420 28760,1410 58350,-21570 60510,-44030l3110 -19690c1720,-7550 650,-16990 1580,-25080 930,-8140 2060,-14620 3180,-22400 1060,-7340 440,-14350 1100,-22540 1340,-16770 3640,-32390 4810,-47570 550,-7000 -1060,-15020 -820,-23740 260,-9500 -370,-16320 930,-25420 1800,-12610 810,-38420 380,-52220 -630,-20100 -13250,-38350 -26480,-51240 -5810,-5660 -9680,-6660 -18190,-8450 -7220,-1530 -14560,-4190 -21130,-4770 -7700,-680 -18970,-610 -26890,-610 -33200,20 -68390,-2080 -99920,-860 -13370,520 -38590,790 -51420,-650 -17510,-1970 -81000,-1350 -97970,2380 -20460,4490 -34130,-6870 -84500,19890 -14190,7540 -20960,10740 -27930,25830 -150,340 -350,710 -510,1040 -13930,29600 -720,169720 -6250,185110z"/>
    <path d="M240790 283610c-190,390 -5640,-1700 2650,8860 3860,4910 1810,5940 7060,8170 1530,-4920 210,-5470 -2030,-10220 -2400,-5050 -3000,-7550 -7680,-6810z"/>
    <path d="M50460 394470c-2970,-3670 -1100,-2740 -4770,-5550 -3920,6490 4090,11950 10030,13530 -2320,-7270 -1370,-3170 -5260,-7980z"/>
    <path d="M453930 132720c4190,-920 7000,-5140 5840,-10210 -5280,190 -6710,4710 -5840,10210z"/>
  <text x="0" y="508015" fill="#000000" font-size="5px" font-weight="bold" font-family="'Helvetica Neue', Helvetica, Arial-Unicode, Arial, Sans-serif">Created by Alex Muravev</text>
  <text x="0" y="508020" fill="#000000" font-size="5px" font-weight="bold" font-family="'Helvetica Neue', Helvetica, Arial-Unicode, Arial, Sans-serif">from the Noun Project</text>
</svg>
