<svg xmlns="http://www.w3.org/2000/svg" xmlns:xlink="http://www.w3.org/1999/xlink" version="1.1" x="0px" y="0px" viewBox="0 0 100 125" enable-background="new 0 0 100 100" xml:space="preserve"><g><path d="M63.447,49.326h-9.639c-1.099,0-1.991-0.903-1.991-2.015v-6.535h-6.463c-1.099,0-1.991-0.903-1.991-2.015v-9.765   c0-1.113,0.892-2.015,1.991-2.015h6.463v-6.536c0-1.112,0.892-2.015,1.991-2.015h9.639c1.099,0,1.991,0.902,1.991,2.015v6.536H71.9   c1.099,0,1.991,0.902,1.991,2.015v9.765c0,1.112-0.892,2.015-1.991,2.015h-6.463v6.535C65.438,48.423,64.546,49.326,63.447,49.326z    M55.799,45.296h5.656v-6.535c0-1.112,0.892-2.015,1.991-2.015h6.462V31.01h-6.462c-1.099,0-1.991-0.902-1.991-2.015V22.46h-5.656   v6.536c0,1.112-0.892,2.015-1.991,2.015h-6.462v5.735h6.462c1.099,0,1.991,0.903,1.991,2.015V45.296z"/></g><g><path d="M84.509,95H32.746c-1.099,0-1.991-0.903-1.991-2.015V7.015C30.754,5.903,31.646,5,32.746,5h51.764   C85.608,5,86.5,5.903,86.5,7.015v85.97C86.5,94.097,85.608,95,84.509,95z M34.737,90.97h47.782V9.03H34.737V90.97z"/></g><g><path d="M32.746,95H15.491c-1.099,0-1.991-0.903-1.991-2.015V7.015C13.5,5.903,14.392,5,15.491,5h17.254   c1.099,0,1.991,0.903,1.991,2.015v85.97C34.737,94.097,33.845,95,32.746,95z M17.482,90.97h13.272V9.03H17.482V90.97z"/></g><g><rect x="43.662" y="77.538" width="29.931" height="4.029"/></g><g><rect x="43.662" y="62.761" width="29.931" height="4.03"/></g><text x="0" y="115" fill="#000000" font-size="5px" font-weight="bold" font-family="'Helvetica Neue', Helvetica, Arial-Unicode, Arial, Sans-serif">Created by Royyan Wijaya</text><text x="0" y="120" fill="#000000" font-size="5px" font-weight="bold" font-family="'Helvetica Neue', Helvetica, Arial-Unicode, Arial, Sans-serif">from the Noun Project</text></svg>