<?xml version="1.0" encoding="UTF-8"?>
<svg xmlns:dc="http://purl.org/dc/elements/1.1/" xmlns:cc="http://creativecommons.org/ns#" xmlns:rdf="http://www.w3.org/1999/02/22-rdf-syntax-ns#" xmlns:svg="http://www.w3.org/2000/svg" xmlns="http://www.w3.org/2000/svg" xmlns:sodipodi="http://sodipodi.sourceforge.net/DTD/sodipodi-0.dtd" xmlns:inkscape="http://www.inkscape.org/namespaces/inkscape" version="1.1" x="0px" y="0px" viewBox="0 0 100 125">
  <g transform="translate(0,-952.36218)">
    <path style="font-size:medium;font-style:normal;font-variant:normal;font-weight:normal;font-stretch:normal;text-indent:0;text-align:start;text-decoration:none;line-height:normal;letter-spacing:normal;word-spacing:normal;text-transform:none;direction:ltr;block-progression:tb;writing-mode:lr-tb;text-anchor:start;baseline-shift:baseline;opacity:1;color:#000000;fill:#000000;fill-opacity:1;stroke:none;stroke-width:6;marker:none;visibility:visible;display:inline;overflow:visible;enable-background:accumulate;font-family:Sans;-inkscape-font-specification:Sans" d="M 19.6875 5 A 3.0003 3.0003 0 0 0 17 8 L 17 92 A 3.0003 3.0003 0 0 0 20 95 L 29 95 A 3.0003 3.0003 0 0 0 32 92 L 32 20 L 68 20 L 68 92 A 3.0003 3.0003 0 0 0 71 95 L 80 95 A 3.0003 3.0003 0 0 0 83 92 L 83 8 A 3.0003 3.0003 0 0 0 80 5 L 20 5 A 3.0003 3.0003 0 0 0 19.6875 5 z M 23 11 L 77 11 L 77 89 L 74 89 L 74 17 A 3.0003 3.0003 0 0 0 71 14 L 29 14 A 3.0003 3.0003 0 0 0 26 17 L 26 89 L 23 89 L 23 11 z M 50 23 C 44.512687 23 40 27.51269 40 33 C 40 38.48732 44.512692 43 50 43 C 55.487308 43 60 38.48732 60 33 C 60 27.51269 55.487313 23 50 23 z M 50 29 C 52.244667 29 54 30.75533 54 33 C 54 35.24468 52.244672 37 50 37 C 47.755328 37 46 35.24468 46 33 C 46 30.75533 47.755333 29 50 29 z M 50 46 C 41.767072 46 35 52.6326 35 60.8125 L 35 68 A 3.0003 3.0003 0 0 0 38 71 L 39 71 L 39 92 A 3.0003 3.0003 0 0 0 42 95 L 58 95 A 3.0003 3.0003 0 0 0 61 92 L 61 71 L 62 71 A 3.0003 3.0003 0 0 0 65 68 L 65 60.8125 C 65 52.6327 58.232958 46 50 46 z M 50 52 C 55.063042 52 59 55.9041 59 60.8125 L 59 65 L 58 65 A 3.0003 3.0003 0 0 0 55 68 L 55 89 L 45 89 L 45 68 A 3.0003 3.0003 0 0 0 42 65 L 41 65 L 41 60.8125 C 41 55.9039 44.936928 52 50 52 z " transform="translate(0,952.36218)"/>
  </g>
  <text x="0" y="115" fill="#000000" font-size="5px" font-weight="bold" font-family="'Helvetica Neue', Helvetica, Arial-Unicode, Arial, Sans-serif">Created by creative outlet</text>
  <text x="0" y="120" fill="#000000" font-size="5px" font-weight="bold" font-family="'Helvetica Neue', Helvetica, Arial-Unicode, Arial, Sans-serif">from the Noun Project</text>
</svg>
