<svg xmlns="http://www.w3.org/2000/svg" xmlns:xlink="http://www.w3.org/1999/xlink" version="1.1" x="0px" y="0px" viewBox="0 0 100 125" style="enable-background:new 0 0 100 100;" xml:space="preserve"><path d="M85,53.8h-2.5L59.8,17.4c-0.4-0.6-1.3-0.6-1.7,0l-5.3,8.6l-9.6-15.4c-0.4-0.6-1.3-0.6-1.7,0L14.7,53.8h-1.9  c-0.6,0-1,0.4-1,1s0.4,1,1,1H85c0.6,0,1-0.4,1-1S85.5,53.8,85,53.8z M70.1,53.8L57.3,33.1l0.9-1.2l1.3,1.6c0.2,0.2,0.5,0.4,0.8,0.4  c0.3,0,0.6-0.1,0.8-0.4l1.3-1.6l1.3,1.6c0.4,0.5,1.2,0.5,1.6,0l1.3-1.7l13.6,21.9H70.1z M59,19.8l6.4,10.3l-1,1.2l-1.3-1.6  c-0.2-0.2-0.5-0.4-0.8-0.4h0c-0.3,0-0.6,0.1-0.8,0.4l-1.3,1.6L59,29.7c-0.4-0.5-1.2-0.5-1.6,0l-1.3,1.6L54,27.8L59,19.8z M42.4,13  l8.4,13.5l-2.1,2.7l-2.4-3c-0.2-0.2-0.5-0.4-0.8-0.4h0c-0.3,0-0.6,0.1-0.8,0.4l-2.4,3l-2.4-3c-0.4-0.5-1.2-0.5-1.6,0l-2.4,3L34,26.5  L42.4,13z M32.9,28.3l2.4,3.1c0.4,0.5,1.2,0.5,1.6,0l2.4-3l2.4,3c0.2,0.2,0.5,0.4,0.8,0.4s0.6-0.1,0.8-0.4l2.4-3l2.4,3  c0.2,0.2,0.5,0.4,0.8,0.4s0.6-0.1,0.8-0.4l2.5-3.1l15.8,25.5H17.1L32.9,28.3z"/><path d="M85,62.1c-0.6,0-1,0.4-1,1c0,2.3-1.9,4.2-4.2,4.2s-4.2-1.9-4.2-4.2c0-0.6-0.4-1-1-1s-1,0.4-1,1c0,2.3-1.9,4.2-4.2,4.2  s-4.2-1.9-4.2-4.2c0-0.6-0.4-1-1-1s-1,0.4-1,1c0,2.3-1.9,4.2-4.2,4.2s-4.2-1.9-4.2-4.2c0-0.6-0.4-1-1-1s-1,0.4-1,1  c0,2.3-1.9,4.2-4.2,4.2s-4.2-1.9-4.2-4.2c0-0.6-0.4-1-1-1s-1,0.4-1,1c0,2.3-1.9,4.2-4.2,4.2s-4.2-1.9-4.2-4.2c0-0.6-0.4-1-1-1  s-1,0.4-1,1c0,2.3-1.9,4.2-4.2,4.2s-4.2-1.9-4.2-4.2c0-0.6-0.4-1-1-1s-1,0.4-1,1c0,2.3-1.9,4.2-4.2,4.2s-4.2-1.9-4.2-4.2  c0-0.6-0.4-1-1-1s-1,0.4-1,1c0,3.4,2.8,6.2,6.2,6.2c2.2,0,4.1-1.1,5.2-2.8c1.1,1.7,3,2.8,5.2,2.8c2.2,0,4.1-1.1,5.2-2.8  c1.1,1.7,3,2.8,5.2,2.8c2.2,0,4.1-1.1,5.2-2.8c1.1,1.7,3,2.8,5.2,2.8s4.1-1.1,5.2-2.8c1.1,1.7,3,2.8,5.2,2.8s4.1-1.1,5.2-2.8  c1.1,1.7,3,2.8,5.2,2.8s4.1-1.1,5.2-2.8c1.1,1.7,3,2.8,5.2,2.8c3.4,0,6.2-2.8,6.2-6.2C86,62.5,85.5,62.1,85,62.1z"/><path d="M85,71.8c-0.6,0-1,0.4-1,1c0,2.3-1.9,4.2-4.2,4.2s-4.2-1.9-4.2-4.2c0-0.6-0.4-1-1-1s-1,0.4-1,1c0,2.3-1.9,4.2-4.2,4.2  s-4.2-1.9-4.2-4.2c0-0.6-0.4-1-1-1s-1,0.4-1,1c0,2.3-1.9,4.2-4.2,4.2s-4.2-1.9-4.2-4.2c0-0.6-0.4-1-1-1s-1,0.4-1,1  c0,2.3-1.9,4.2-4.2,4.2s-4.2-1.9-4.2-4.2c0-0.6-0.4-1-1-1s-1,0.4-1,1c0,2.3-1.9,4.2-4.2,4.2s-4.2-1.9-4.2-4.2c0-0.6-0.4-1-1-1  s-1,0.4-1,1c0,2.3-1.9,4.2-4.2,4.2s-4.2-1.9-4.2-4.2c0-0.6-0.4-1-1-1s-1,0.4-1,1c0,2.3-1.9,4.2-4.2,4.2s-4.2-1.9-4.2-4.2  c0-0.6-0.4-1-1-1s-1,0.4-1,1c0,3.4,2.8,6.2,6.2,6.2c2.2,0,4.1-1.1,5.2-2.8c1.1,1.7,3,2.8,5.2,2.8c2.2,0,4.1-1.1,5.2-2.8  c1.1,1.7,3,2.8,5.2,2.8c2.2,0,4.1-1.1,5.2-2.8c1.1,1.7,3,2.8,5.2,2.8s4.1-1.1,5.2-2.8c1.1,1.7,3,2.8,5.2,2.8s4.1-1.1,5.2-2.8  c1.1,1.7,3,2.8,5.2,2.8s4.1-1.1,5.2-2.8c1.1,1.7,3,2.8,5.2,2.8c3.4,0,6.2-2.8,6.2-6.2C86,72.2,85.5,71.8,85,71.8z"/><path d="M85,81.5c-0.6,0-1,0.4-1,1c0,2.3-1.9,4.2-4.2,4.2s-4.2-1.9-4.2-4.2c0-0.6-0.4-1-1-1s-1,0.4-1,1c0,2.3-1.9,4.2-4.2,4.2  s-4.2-1.9-4.2-4.2c0-0.6-0.4-1-1-1s-1,0.4-1,1c0,2.3-1.9,4.2-4.2,4.2s-4.2-1.9-4.2-4.2c0-0.6-0.4-1-1-1s-1,0.4-1,1  c0,2.3-1.9,4.2-4.2,4.2s-4.2-1.9-4.2-4.2c0-0.6-0.4-1-1-1s-1,0.4-1,1c0,2.3-1.9,4.2-4.2,4.2s-4.2-1.9-4.2-4.2c0-0.6-0.4-1-1-1  s-1,0.4-1,1c0,2.3-1.9,4.2-4.2,4.2s-4.2-1.9-4.2-4.2c0-0.6-0.4-1-1-1s-1,0.4-1,1c0,2.3-1.9,4.2-4.2,4.2s-4.2-1.9-4.2-4.2  c0-0.6-0.4-1-1-1s-1,0.4-1,1c0,3.4,2.8,6.2,6.2,6.2c2.2,0,4.1-1.1,5.2-2.8c1.1,1.7,3,2.8,5.2,2.8c2.2,0,4.1-1.1,5.2-2.8  c1.1,1.7,3,2.8,5.2,2.8c2.2,0,4.1-1.1,5.2-2.8c1.1,1.7,3,2.8,5.2,2.8s4.1-1.1,5.2-2.8c1.1,1.7,3,2.8,5.2,2.8s4.1-1.1,5.2-2.8  c1.1,1.7,3,2.8,5.2,2.8s4.1-1.1,5.2-2.8c1.1,1.7,3,2.8,5.2,2.8c3.4,0,6.2-2.8,6.2-6.2C86,81.9,85.5,81.5,85,81.5z"/><text x="0" y="115" fill="#000000" font-size="5px" font-weight="bold" font-family="'Helvetica Neue', Helvetica, Arial-Unicode, Arial, Sans-serif">Created by Made by Made</text><text x="0" y="120" fill="#000000" font-size="5px" font-weight="bold" font-family="'Helvetica Neue', Helvetica, Arial-Unicode, Arial, Sans-serif">from the Noun Project</text></svg>