<svg xmlns="http://www.w3.org/2000/svg" xmlns:xlink="http://www.w3.org/1999/xlink" version="1.0" x="0px" y="0px" viewBox="0 0 100 125" enable-background="new 0 0 100 100" xml:space="preserve"><g><path d="M59.8283,82.5082c-0.1182-0.3563-0.2883-0.6931-0.5048-0.9998L36.1591,48.6972c-0.4918-0.6968-0.3257-1.6603,0.371-2.1522   l3.5809-2.5281c0.7694-0.5433,1.0523-1.6064,0.5501-2.4032c-0.5357-0.8498-1.6661-1.0676-2.4762-0.4956l-13.1415,9.2778   c-0.7695,0.5432-1.0524,1.6063-0.5501,2.4032c0.5357,0.8498,1.6661,1.0675,2.4763,0.4956l3.6613-2.5848   c0.6967-0.4919,1.6603-0.3258,2.1522,0.371l23.1644,32.8111c0.2165,0.3066,0.477,0.5797,0.7731,0.8104l4.0375,3.1445   c0.3403,0.265,0.8176-0.072,0.6818-0.4813L59.8283,82.5082z"/><path d="M75.6724,49.6736l-3.0197-4.1318c-0.2214-0.3031-0.4865-0.5718-0.7863-0.7976L39.7786,20.5879   c-0.6814-0.5129-0.818-1.4811-0.3051-2.1626l2.6364-3.5018c0.5665-0.7526,0.5107-1.8513-0.2111-2.4564   c-0.7698-0.6453-1.9127-0.507-2.5091,0.2853l-9.6751,12.8517c-0.5665,0.7525-0.5107,1.8513,0.2111,2.4563   c0.7699,0.6453,1.9127,0.507,2.5092-0.2853l2.6954-3.5804c0.513-0.6815,1.4812-0.818,2.1627-0.305L69.3808,48.046   c0.2999,0.2258,0.6314,0.4061,0.9839,0.5352l4.8057,1.7592C75.5754,50.4886,75.9268,50.0218,75.6724,49.6736z"/></g><text x="0" y="115" fill="#000000" font-size="5px" font-weight="bold" font-family="'Helvetica Neue', Helvetica, Arial-Unicode, Arial, Sans-serif">Created by Maciej Świerczek</text><text x="0" y="120" fill="#000000" font-size="5px" font-weight="bold" font-family="'Helvetica Neue', Helvetica, Arial-Unicode, Arial, Sans-serif">from the Noun Project</text></svg>