<?xml version="1.0" encoding="UTF-8"?>
<svg xmlns="http://www.w3.org/2000/svg" data-name="Layer 1" viewBox="0 0 128 160" x="0px" y="0px">
  <title>Artboard 31</title>
  <path d="M105.85,34.78,83.22,12.15l7-7L87.36,2.36l-9.79,9.79,9.9,9.9L67.2,42.32A45.77,45.77,0,0,0,52,40c-10.93,0-22,3.09-22,9v8.6c-5,6.81-8.38,16.95-10,30.16-1,8.64-2.33,16.23-3.57,23.58-.85,5-1.65,9.76-2.29,14.39l4,.55c.64-4.57,1.43-9.29,2.27-14.27,1.25-7.39,2.54-15,3.6-23.76,1.29-10.61,3.63-17.89,6-22.84V95c0,22.74,21.78,23,22,23,21.75,0,22-22.77,22-23V66.3c2.93,5.76,4.94,13.1,6,21.94.79,6.53,1.63,12.45,2.45,18.18,1,7,1.93,13.55,2.54,19.78l4-.39c-.62-6.31-1.57-12.94-2.56-19.95-.81-5.7-1.65-11.6-2.44-18.09-1.51-12.46-4.87-22.23-10-29V52.48L95.95,30.54l9.9,9.9,9.79-9.79-2.83-2.83ZM55.33,67a3,3,0,0,1-4.56.38l-.14-.14A3,3,0,0,1,51,62.67l13.62-9.73.43.43ZM64,45.49l-2,2a2,2,0,0,0-.23,2.55L49,59.19V44.09C50,44,51,44,52,44A45.25,45.25,0,0,1,64,45.49ZM34,49c0-1.36,4.05-3.58,11-4.53V60a8,8,0,0,0,.91,3.66,6.92,6.92,0,0,0,1.89,6.41l.14.14a7,7,0,0,0,4.95,2l.58,0c.18,0,.36,0,.54-.07v31.76c-.65.05-1.31.09-2,.09s-18-.22-18-19Zm18,65c-.67,0-15.05-.19-17.61-14.42C40.76,107.86,51.84,108,52,108c9,0,14.29-3.89,17.44-8.46C68.22,105.17,64.34,114,52,114ZM67.69,94.64A15.3,15.3,0,0,1,58,103.18V70a7,7,0,0,0,.58-.7l9.36-13.1a2,2,0,0,0,2.06.13V85A25.23,25.23,0,0,1,67.69,94.64Zm1.39-42.89-2.83-2.83,24-24,2.83,2.83Z"/>
  <text x="0" y="143" fill="#000000" font-size="5px" font-weight="bold" font-family="'Helvetica Neue', Helvetica, Arial-Unicode, Arial, Sans-serif">Created by Juraj Sedlák</text>
  <text x="0" y="148" fill="#000000" font-size="5px" font-weight="bold" font-family="'Helvetica Neue', Helvetica, Arial-Unicode, Arial, Sans-serif">from the Noun Project</text>
</svg>
