<?xml version="1.0" encoding="UTF-8"?>
<svg xmlns="http://www.w3.org/2000/svg" xmlns:xlink="http://www.w3.org/1999/xlink" version="1.1" x="0px" y="0px" viewBox="0 0 48 60" enable-background="new 0 0 48 48" xml:space="preserve"><g><path d="M43.7,16.2c-2,0-3.7,1.4-4.2,3.3H27.6c-0.2-1.1-0.6-2.2-1.3-3L34.8,8c0.6,0.4,1.4,0.6,2.2,0.6c2.4,0,4.3-1.9,4.3-4.3   S39.4,0,37,0c-2.4,0-4.3,1.9-4.3,4.3c0,0.9,0.3,1.6,0.7,2.3l-8.5,8.5c-1.1-0.8-4.4-2.5-8.1,0L8.2,6.4c0.3-0.6,0.4-1.2,0.4-1.9   c0-2.4-1.9-4.3-4.3-4.3C1.9,0.2,0,2.2,0,4.6s1.9,4.3,4.3,4.3c1,0,1.9-0.3,2.6-0.9l8.5,8.5c-0.8,1.1-1.3,2.5-1.3,4   c0,3.4,2.5,6.2,5.8,6.7v12.3c-1.9,0.5-3.3,2.2-3.3,4.2c0,2.4,1.9,4.3,4.3,4.3c2.4,0,4.3-1.9,4.3-4.3c0-2-1.4-3.7-3.3-4.2V27.2   c2.9-0.4,5.3-2.8,5.7-5.7h11.9c0.5,1.9,2.2,3.3,4.2,3.3c2.4,0,4.3-1.9,4.3-4.3S46.1,16.2,43.7,16.2z M37,2c1.3,0,2.3,1,2.3,2.3   s-1,2.3-2.3,2.3c-1.3,0-2.3-1-2.3-2.3S35.8,2,37,2z M4.3,6.9C3,6.9,2,5.8,2,4.6s1-2.3,2.3-2.3c1.3,0,2.3,1,2.3,2.3S5.6,6.9,4.3,6.9   z M23.2,43.7c0,1.3-1,2.3-2.3,2.3c-1.3,0-2.3-1-2.3-2.3c0-1.3,1-2.3,2.3-2.3C22.2,41.4,23.2,42.4,23.2,43.7z M20.9,25.3   c-2.6,0-4.8-2.1-4.8-4.8s2.1-4.8,4.8-4.8s4.8,2.1,4.8,4.8S23.5,25.3,20.9,25.3z M43.7,22.9c-1.3,0-2.3-1-2.3-2.3s1-2.3,2.3-2.3   c1.3,0,2.3,1,2.3,2.3S45,22.9,43.7,22.9z"/></g><text x="0" y="63" fill="#000000" font-size="5px" font-weight="bold" font-family="'Helvetica Neue', Helvetica, Arial-Unicode, Arial, Sans-serif">Created by Vectors Market</text><text x="0" y="68" fill="#000000" font-size="5px" font-weight="bold" font-family="'Helvetica Neue', Helvetica, Arial-Unicode, Arial, Sans-serif">from the Noun Project</text></svg>