<svg xmlns="http://www.w3.org/2000/svg" viewBox="0 0 68 82.5" x="0px" y="0px">
  <path fill="#000000" d="M417.000713,960 L428.411029,960 C424.627252,958.260779 422,954.437203 422,950 C422,943.924868 426.924868,939 433,939 C434.594954,939 436.110624,939.339453 437.478707,939.950054 L441.572516,934.832793 L440.231038,931 L438.004609,931 C437.449262,931 437,930.54809 437,929.990631 L437,928.009369 C437,927.443353 437.445655,927 437.995398,927 L446.004602,927 C446.544336,927 447,927.45191 447,928.009369 L447,929.990631 C447,930.556647 446.552136,931 445.999667,931 L444.468962,931 L445.168962,933 L460,933 L460,932.500862 C460,929.463941 462.465246,927 465.5,927 C468.537078,927 471,929.461768 471,932.497802 L471,933.996678 C471,934.552657 470.54809,935 469.990631,935 L468.009369,935 C467.443353,935 467,934.550797 467,933.996678 L467,932.497802 C467,931.671327 466.328358,931 465.5,931 C464.673911,931 464,931.673554 464,932.500862 L464,939.414065 C464.953664,939.144334 465.959976,939 467,939 C473.075132,939 478,943.924868 478,950 C478,954.437203 475.372748,958.260779 471.588971,960 L482.999287,960 C483.547788,960 484,960.45191 484,961.009369 L484,962.990631 C484,963.556647 483.551965,964 482.999287,964 L417.000713,964 C416.452212,964 416,963.54809 416,962.990631 L416,961.009369 C416,960.443353 416.448035,960 417.000713,960 Z M456,950 C456,946.584126 457.556993,943.531908 460,941.514324 L460,939.451562 L450.573279,951.234963 C450.110152,951.787146 449.528554,952.013914 448.957224,952 L443.818624,952 C443.163803,955.564901 440.790333,958.528487 437.588971,960 L462.411029,960 C458.627252,958.260779 456,954.437203 456,950 Z M446.181038,948 L443.131537,939.287141 L440.781293,942.224945 C442.322662,943.767543 443.408209,945.765665 443.818624,948 L446.181038,948 Z M456.83875,937 L446.568962,937 L449.69455,945.930251 L456.83875,937 Z M460,950 C460,953.865993 463.134007,957 467,957 C470.865993,957 474,953.865993 474,950 C474,946.134007 470.865993,943 467,943 C466.380484,943 465.779765,943.080479 465.207727,943.231553 L469.139469,949.108182 C469.451247,949.574184 469.312778,950.179514 468.840053,950.474967 L467.159947,951.525033 C466.679966,951.825021 466.056099,951.688141 465.750292,951.229431 L461.803746,945.309612 C460.682643,946.550845 460,948.195703 460,950 Z M433,943 C429.134007,943 426,946.134007 426,950 C426,953.865993 429.134007,957 433,957 C436.171021,957 438.849572,954.891489 439.710121,952 L432,952 C430.322988,952 429.390641,950.060137 430.438262,948.75061 L434.842693,943.245071 C434.25557,943.085285 433.637745,943 433,943 Z M439.710121,948 C439.41814,947.018926 438.916865,946.127991 438.258073,945.37897 L436.16125,948 L439.710121,948 Z M440.154524,913.595345 C438.128017,916.631424 434.720648,918.494878 431,918.494878 C424.924868,918.494878 420,913.57001 420,907.494878 C420,903.774229 421.863454,900.36686 424.899533,898.340353 C426.259067,897.432899 428.073981,898.45102 428.008246,900.084264 C428.002754,900.220719 428,900.357606 428,900.494878 C428,906.017725 432.477153,910.494878 438,910.494878 C438.137271,910.494878 438.274158,910.492124 438.410614,910.486631 C440.043857,910.420897 441.061979,912.235811 440.154524,913.595345 Z M457,918 C453.134007,918 450,914.865993 450,911 C450,907.134007 453.134007,904 457,904 C457.600651,904 458.183632,904.075652 458.739936,904.217948 C460.231337,900.570148 463.815523,898 468,898 C473.522847,898 478,902.477153 478,908 C478,908.033411 477.999836,908.066784 477.999509,908.100118 C478.322771,908.034465 478.657361,908 479,908 C481.761424,908 484,910.238576 484,913 C484,915.761424 481.761424,918 479,918 L457,918 Z" transform="translate(-416 -898)"/>
  <text x="0" y="81" fill="#000000" font-size="5px" font-weight="bold" font-family="'Helvetica Neue', Helvetica, Arial-Unicode, Arial, Sans-serif">Created by Andrejs Kirma</text>
  <text x="0" y="86" fill="#000000" font-size="5px" font-weight="bold" font-family="'Helvetica Neue', Helvetica, Arial-Unicode, Arial, Sans-serif">from the Noun Project</text>
</svg>
