<svg xmlns="http://www.w3.org/2000/svg" xmlns:xlink="http://www.w3.org/1999/xlink" version="1.1" x="0px" y="0px" viewBox="0 245.948 656.797 851.185" enable-background="new 0 245.948 656.797 680.948" xml:space="preserve"><circle cx="444.928" cy="472.686" r="40.038"/><path d="M356.61,553.385h39.8l-0.24-81.169c-0.012-3.513-1.156-6.799-2.586-9.975c-0.394-0.872-0.808-1.737-1.268-2.594  c-10.432-19.346-34.57-26.576-53.921-16.144l-79.138,42.666l58.754,58.754l38.513-20.765L356.61,553.385z"/><path d="M287.428,581.885l-68.832-68.833c-4.056,5.894-6.462,12.772-6.956,19.874L180.44,725.953  c-2.105,13.019,6.745,25.281,19.763,27.385c1.291,0.21,2.573,0.311,3.84,0.311c11.509,0,21.648-8.344,23.544-20.074l19.013-117.627  l29.305,119.623c2.67,10.899,12.432,18.203,23.175,18.203c1.88,0,3.792-0.223,5.7-0.691c12.811-3.137,20.649-16.067,17.511-28.877  L287.428,581.885z"/><path d="M345.651,744.268c0,5.275,4.276,9.553,9.55,9.553h97.772c1.826,0,3.527-0.522,4.979-1.413L335.01,629.467L345.651,744.268z"/><path d="M468.895,562.937H339.282c-0.985,0-1.937,0.15-2.831,0.427l130.725,130.725l11.271-121.599  C478.447,567.215,474.17,562.937,468.895,562.937z"/><path d="M612.34,475.029c-15.295-36.159-37.188-68.632-65.07-96.514c-27.883-27.883-60.356-49.775-96.518-65.07  c-37.447-15.839-77.217-23.87-118.204-23.87c-40.985,0-80.755,8.031-118.202,23.87c-36.162,15.295-68.635,37.188-96.518,65.07  s-49.776,60.355-65.07,96.515c-15.839,37.447-23.87,77.216-23.87,118.203s8.031,80.756,23.87,118.203  c15.294,36.162,37.188,68.635,65.07,96.518c27.883,27.882,60.356,49.775,96.518,65.07c37.447,15.839,77.217,23.869,118.202,23.869  c40.987,0,80.757-8.03,118.204-23.87c36.161-15.294,68.635-37.188,96.518-65.069c27.883-27.883,49.775-60.355,65.07-96.518  c15.839-37.448,23.87-77.216,23.87-118.204C636.21,552.246,628.179,512.476,612.34,475.029z M332.548,865.053  c-149.881,0-271.82-121.938-271.82-271.82c0-69.225,26.025-132.475,68.788-180.516l383.551,383.549  C465.023,839.028,401.772,865.053,332.548,865.053z M535.582,773.752L152.03,390.203c48.043-42.762,111.294-68.789,180.518-68.789  c149.883,0,271.821,121.938,271.821,271.818C604.369,662.458,578.344,725.709,535.582,773.752z"/><text x="0" y="941.896" fill="#000000" font-size="5px" font-weight="bold" font-family="'Helvetica Neue', Helvetica, Arial-Unicode, Arial, Sans-serif">Created by corpus delicti</text><text x="0" y="946.896" fill="#000000" font-size="5px" font-weight="bold" font-family="'Helvetica Neue', Helvetica, Arial-Unicode, Arial, Sans-serif">from the Noun Project</text></svg>