<svg xmlns="http://www.w3.org/2000/svg" xmlns:xlink="http://www.w3.org/1999/xlink" version="1.1" x="0px" y="0px" viewBox="0 0 180 225" style="enable-background:new 0 0 180 180;" xml:space="preserve">
  <g>
    <polygon points="119.333,74.667 81.959,74.667 108.625,101.333 119.333,101.333  "/>
    <path d="M117.333,106.667c-0.958,0-1.848,0.291-2.589,0.786l6.47,6.47c0.495-0.741,0.786-1.631,0.786-2.589   C122,108.756,119.911,106.667,117.333,106.667z"/>
    <path d="M123.333,136H114v-8H66v8h-9.333v-8h-5.333v-4h65.375l-2.667-2.667h-12.708v-10.667H98.51v10.667h-3.791v-10.667h-2.824   v10.667h-3.791v-10.667h-2.824v10.667H81.49v-10.667h-2.824v10.667H54h-2.667V104h-2.667H46h-4V90.667h6.667v8h2.667V65.333V64   v-5.375L35.478,42.77C24.487,55.44,17.813,71.95,17.813,90c0,39.804,32.383,72.187,72.188,72.187   c18.05,0,34.56-6.674,47.231-17.665l-13.897-13.897V136z"/>
    <polygon points="67.375,74.667 60.667,74.667 60.667,101.333 94.041,101.333  "/>
    <circle cx="62.667" cy="111.333" r="4.667"/>
    <polygon points="75.292,68 123.333,68 123.333,98.667 126,98.667 126,65.333 72.625,65.333  "/>
    <path d="M90,0C40.294,0,0,40.294,0,90s40.294,90,90,90s90-40.294,90-90S139.706,0,90,0z M90,172.5c-45.563,0-82.5-36.936-82.5-82.5   C7.5,44.436,44.437,7.5,90,7.5c45.564,0,82.5,36.936,82.5,82.5C172.5,135.563,135.564,172.5,90,172.5z"/>
    <polygon points="54,98.667 56.667,98.667 56.667,68 60.708,68 58.041,65.333 54,65.333  "/>
    <path d="M90,17.813c-18.05,0-34.56,6.674-47.231,17.665l8.564,8.564V44h77.333v20v1.333v33.333h2.667v-8H138V104h-4h-2.667h-2.667   v17.333h-0.041l15.897,15.897c10.99-12.671,17.665-29.181,17.665-47.231C162.188,50.196,129.804,17.813,90,17.813z"/>
  </g>
  <text x="0" y="195" fill="#000000" font-size="5px" font-weight="bold" font-family="'Helvetica Neue', Helvetica, Arial-Unicode, Arial, Sans-serif">Created by Gan Khoon Lay</text>
  <text x="0" y="200" fill="#000000" font-size="5px" font-weight="bold" font-family="'Helvetica Neue', Helvetica, Arial-Unicode, Arial, Sans-serif">from the Noun Project</text>
</svg>
