<svg xmlns="http://www.w3.org/2000/svg" xmlns:xlink="http://www.w3.org/1999/xlink" version="1.1" x="0px" y="0px" viewBox="0 0 24 30" style="enable-background:new 0 0 24 24;" xml:space="preserve"><path d="M13.911,12l8.245-7.768c0.099-0.093,0.155-0.221,0.157-0.356s-0.051-0.265-0.146-0.361C19.9,1.248,16.886,0,13.681,0  S7.462,1.248,5.196,3.515c-4.679,4.679-4.679,12.292,0,16.971C7.462,22.752,10.476,24,13.681,24s6.219-1.248,8.485-3.515  c0.096-0.096,0.148-0.226,0.146-0.361s-0.059-0.264-0.157-0.356L13.911,12z M13.681,5c0-0.551,0.448-1,1-1s1,0.449,1,1s-0.448,1-1,1  S13.681,5.552,13.681,5z"/><text x="0" y="39" fill="#000000" font-size="5px" font-weight="bold" font-family="'Helvetica Neue', Helvetica, Arial-Unicode, Arial, Sans-serif">Created by icon 54</text><text x="0" y="44" fill="#000000" font-size="5px" font-weight="bold" font-family="'Helvetica Neue', Helvetica, Arial-Unicode, Arial, Sans-serif">from the Noun Project</text></svg>