<svg xmlns="http://www.w3.org/2000/svg" xmlns:xlink="http://www.w3.org/1999/xlink" version="1.1" x="0px" y="0px" viewBox="0 0 100 125" style="enable-background:new 0 0 100 100;" xml:space="preserve"><style type="text/css">
	.st0{fill-rule:evenodd;clip-rule:evenodd;}
</style><path class="st0" d="M55.1,8.3c0.8-2.5,1.7-5.1,4.4-5.1c2.3-0.1,4.5,2.1,4.6,4.6c0.1,2.6-2.2,4.9-3.8,7c-1.8,2.3-3.4,4.1-4.8,5.9  c-1.9-1.4-3.3-3.3-4.9-5.5c-1.5-1.9-3.7-4.2-4-6.5C45.6,2.1,55.2,1.4,55.1,8.3z M48.2,53.2c5.2,1.4,9,4.7,13.3,7  c1.6,0.9,3.5,1.4,4.4,2.5c0.9,1.1,1.6,2.9,2.3,4.4c4.4,8.8-1.8,17.5-3.6,26.8c2.5-5,7.7-11.8,8.4-19c0.6-5.7-1.9-8.5-4-11.8  c1.3-3.7-1.2-8.3-1.1-11.8c0-1.5,1.1-3.6,1.7-5.7c1.7-5.8,3.9-11.8,4.2-18.7c0.2-5.1-0.2-11.9-3.4-13.1c-2.7-1.1-5,0.8-6.1,2.7  c-4.6,7.7-5.3,22-7,32c-0.6-0.2-1.4-0.2-1.9-0.6c-1.6-10.5-4.5-19.3-8.2-28.2c-1.1-2.7-2.7-6.3-4.8-7.4C38,10,35.1,14,35.1,18  c-0.1,5.7,2.2,12.4,4.2,18.1c2,5.8,4.3,11.4,6.7,15.6c-1.7-0.6-2.6-2.7-4.4-3.2c-3.9-1.1-7.3,2-6.7,6.3c-3.2-0.8-6.5,0.6-7,3.4  c-0.5,2.9,1.5,5.2,2.5,7.4c-1.9,5,0.7,8.3,1.7,12.2c0.6,2.5,0.8,5.2,1.5,7.2c1.5,4.4,4,8.3,5.5,12c2.3-11.1-7.6-14.3-6.5-24.9  c0.2,0.9,0.7,2.3,1.5,3c0.5,0.5,1.5,0.5,2.3,1c1.2,0.8,0.8,1.3,1.9,1.3c2.9,0.1,2.9-3.5,3.4-6.5c0.7,0.7,1.4,1.2,2.5,1.5  c0.5,1.2,0.9,2.2,1.9,2.5c5.6,1.2,3.6-7.1,3.2-10.5c2.3,2.1,5.6,2.4,7,5.3c1.8,3.6,0.8,8.7,3.6,11.8c-1.2-5.4,0.3-11.6-2.7-14.8  c-3.6-3.9-9.3-4.2-13.7-7.4C47.5,62.3,49.8,55.8,48.2,53.2z M69.9,14.6c1.1,1,1.5,2.1,1.7,3.4c0.8,5.8-0.7,12.3-2.3,17.7  c-0.7,2.3-1.4,5.1-2.1,7.8c-0.7,2.9-2,5.8-1.7,8.2c0.4,3.8,2.9,6.4,3.2,10.5c-0.5,0.3-1.6-1.7-2.5-2.3c-2-1.2-5.2-2.1-8-3.4  c-3.8-1.8-6.5-3.8-11.4-4.2c-2.6-8.1-4.4-16.6-7-25.1c-0.8-2.5-2-5.6-2.3-8.4c-0.3-3,0.1-5.6,2.7-5.7c3.3-0.2,5.1,4.4,5.9,7.4  c1.1,4,1.5,7.5,2.5,10.7c0.9,3.2,2,6.3,3.4,9.9c0.8,2.1,2.7,8.7,4.6,8.6c1.8-0.1,2.4-5.6,3.2-8.4c1.7-5.8,2.8-12,4-19  C64.5,18.3,65.2,13.8,69.9,14.6z M48,63.7c0.1,0.5,0.3,1,0.4,1.5c-0.3,0.6-0.9-0.5-1.5-0.6c-2.1-0.3-4.8,0.9-4.4,3.6  c-3.1-2.3-2.9-8.1-5.1-11.2c-0.4-3.2,0.4-6.2,3.2-5.5c-0.8,1.6-1.8,3.3-1.1,4.9c0.3,0.8,1.1,1,1.7,1.7c0.3,0.4,0.5,1.1,0.8,1.5  C43.6,61.9,46.1,63.1,48,63.7z M45.5,59.1c-5,0.6-6.2-5.1-2.9-7.2c2.2,0.4,5,0.7,5.3,2.7C48.3,56.2,46.6,57.9,45.5,59.1z M33.9,57.6  c3,3.8,6.6,8,6.5,14.3c-0.1-3.2-4.7-4.4-5.9-1.3c-0.1,0.9,0.3,1.2,0.4,1.9c-2.1-1.8-5.6-7.8-4.8-12.4C30.4,58.5,31.6,57.3,33.9,57.6  z M43.5,67.7c3.5-6.2,10.2,7.7,2.7,5.9C44.3,73.2,43.3,69.9,43.5,67.7z M40.4,75.1c-2.5,2.7-5.7-1-4.8-4  C38.1,68.7,40.1,72.5,40.4,75.1z"/><text x="0" y="115" fill="#000000" font-size="5px" font-weight="bold" font-family="'Helvetica Neue', Helvetica, Arial-Unicode, Arial, Sans-serif">Created by Rachel Pagliarini</text><text x="0" y="120" fill="#000000" font-size="5px" font-weight="bold" font-family="'Helvetica Neue', Helvetica, Arial-Unicode, Arial, Sans-serif">from the Noun Project</text></svg>