<svg xmlns="http://www.w3.org/2000/svg" xmlns:xlink="http://www.w3.org/1999/xlink" xmlns:sketch="http://www.bohemiancoding.com/sketch/ns" viewBox="0 0 32 40" version="1.1" x="0px" y="0px">
  <title>grapefruit_119-mmm-face-avatar-emoticon</title>
  <desc>Created with Sketch.</desc>
  <g stroke="none" stroke-width="1" fill="none" fill-rule="evenodd" sketch:type="MSPage">
    <path d="M10.0274705,15.3363789 C9.70399308,15.184117 9.51564967,14.9413484 9.48921079,14.5516852 C9.47612538,14.3588289 9.30917668,14.2130959 9.11632044,14.2261813 C8.92346419,14.2392667 8.77773114,14.4062154 8.79081655,14.5990717 C8.83683637,15.277324 9.20610908,15.7361014 9.76636867,15.9867101 C10.1096081,16.1402439 10.4443101,16.1901489 10.6824941,16.1901489 C10.7070326,16.1901489 10.7309812,16.1876237 10.7540943,16.1828189 L11.389528,16.496219 L10.2763932,17.0527864 C10.029404,17.176281 9.92929178,17.4766175 10.0527864,17.7236068 C10.176281,17.970596 10.4766175,18.0707082 10.7236068,17.9472136 L12.7236068,16.9472136 C13.0921311,16.7629515 13.0921311,16.2370485 12.7236068,16.0527864 L10.7236068,15.0527864 C10.4766175,14.9292918 10.176281,15.029404 10.0527864,15.2763932 C10.0429389,15.2960881 10.0345133,15.3161223 10.0274705,15.3363789 Z M21.5252808,15.4726123 C21.6536162,15.4524819 21.8038833,15.413466 21.9508579,15.347723 C22.2894583,15.1962643 22.4867346,14.951172 22.51384,14.5516852 C22.5269254,14.3588289 22.6938741,14.2130959 22.8867303,14.2261813 C23.0795866,14.2392667 23.2253196,14.4062154 23.2122342,14.5990717 C23.1662144,15.277324 22.7969417,15.7361014 22.2366821,15.9867101 C22.1210534,16.0384318 22.0063936,16.0783932 21.8960662,16.1086482 C21.9631501,16.3072452 22,16.523602 22,16.75 C22,17.7164983 21.3284271,18.5 20.5,18.5 C19.6715729,18.5 19,17.7164983 19,16.75 C19,15.7835017 19.6715729,15 20.5,15 C20.8965042,15 21.2570762,15.1794844 21.5252808,15.4726123 Z M18.5,23 C18.7761424,23 19,22.7761424 19,22.5 C19,22.2238576 18.7761424,22 18.5,22 L13.5,22 C13.2238576,22 13,22.2238576 13,22.5 C13,22.7761424 13.2238576,23 13.5,23 L18.5,23 Z" fill="#000000" sketch:type="MSShapeGroup"/>
    <g sketch:type="MSLayerGroup" transform="translate(-379.000000, -525.000000)" fill="#000000">
      <g transform="translate(384.000000, 528.000000)" sketch:type="MSShapeGroup">
        <path d="M0.0999999046,14.1477638 C0.0999999046,11.0794474 1.5792611,8.33093762 3.91366568,6.47993689 C5.51081956,5.36127677 5.37808758,0.707064178 11.0031908,0.70706326 C16.6282941,0.707062338 16.928244,5.39138192 18.2885653,6.47757623 C20.5095478,8.32511272 21.9063817,11.1661587 21.9063817,14.1477638 C21.9063817,19.7216163 17.0248572,24.2401161 11.0031908,24.2401161 C4.98152445,24.2401161 0.0999999046,19.7216163 0.0999999046,14.1477638 Z M20.9063817,14.1477638 C20.9063817,11.5091567 19.6778482,8.93402155 17.6645931,7.25902275 C17.3382555,6.99844753 17.0803399,6.65688704 16.803168,6.17642694 C16.7273084,6.04492912 16.0007209,4.64669174 15.7428262,4.23112655 C14.698818,2.54883764 13.3753641,1.70706287 11.003191,1.70706326 C8.6450906,1.70706364 7.44931051,2.50912548 6.48739407,4.20638392 C6.2969676,4.54238289 5.68147737,5.78146628 5.72418924,5.69888985 C5.32323026,6.47407869 4.98458364,6.95074673 4.53497311,7.26350378 C2.36508416,8.98405645 1.0999999,11.4737079 1.0999999,14.1477638 C1.0999999,19.1513306 5.51728618,23.2401161 11.0031908,23.2401161 C16.4890955,23.2401161 20.9063817,19.1513306 20.9063817,14.1477638 Z"/>
        <ellipse cx="11.0014491" cy="0.69129396" rx="0.681449432" ry="0.67282349"/>
      </g>
    </g>
  </g>
  <text x="0" y="47" fill="#000000" font-size="5px" font-weight="bold" font-family="'Helvetica Neue', Helvetica, Arial-Unicode, Arial, Sans-serif">Created by Pham Thi Dieu Linh</text>
  <text x="0" y="52" fill="#000000" font-size="5px" font-weight="bold" font-family="'Helvetica Neue', Helvetica, Arial-Unicode, Arial, Sans-serif">from the Noun Project</text>
</svg>
