<?xml version="1.0" encoding="UTF-8"?>
<svg xmlns="http://www.w3.org/2000/svg" viewBox="0 0 100 125" x="0px" y="0px">
  <path d="M 16.933922 5 C 10.350472 5 5 10.350472 5 16.933922 C 5 23.306017 10.011825 28.52319 16.303177 28.851595 l 0 20.364037 C 10.011825 49.544037 5 54.76121 5 61.133305 c 0 6.58345 5.350473 11.933925 11.933922 11.933925 c 6.372092 0 11.589265 -5.011826 11.917673 -11.30318 l 9.384355 0 l 0 9.38435 C 31.944599 71.47681 26.932773 76.69398 26.932773 83.06608 C 26.932773 89.64952 32.283246 95 38.866695 95 C 45.238787 95 50.45596 89.98818 50.784368 83.69682 l 20.364037 0 C 71.476814 89.98818 76.693987 95 83.066076 95 C 89.649523 95 95 89.64952 95 83.06608 C 95 76.69398 89.98818 71.47681 83.696824 71.1484 l 0 -20.364032 C 89.98818 50.455963 95 45.23879 95 38.866695 C 95 32.283245 89.649523 26.932773 83.066076 26.932773 c -6.372089 0 -11.589262 5.011823 -11.917671 11.303177 l -9.384355 0 l 0 -9.384355 C 68.055403 28.52319 73.067227 23.306017 73.067227 16.933922 C 73.067227 10.350472 67.716752 5 61.133305 5 C 54.761215 5 49.544041 10.011823 49.215632 16.303177 l -20.364037 0 C 28.523187 10.011822 23.306014 5 16.933922 5 Z M 16.920632 6.260012 L 6.2600158 16.917673 c .0002112 -.145274 .016226 -.28601 .022157 -.429851 L 16.489299 6.282169 c .144248 -.0059 .285639 -.02198 .431329 -.02216 z m 44.212677 0 l -10.67391 10.670956 c .000032 -.145317 .0164 -.285965 .02216 -.429852 L 60.701976 6.280692 c .144295 -.0058 .285596 -.02068 .431329 -.02068 z m -44.01917 .0089 c .12888 .0022 .256345 .01254 .38406 .0192 L 6.2880777 17.490809 c -.00656 -.126917 -.018586 -.253026 -.02068 -.381106 L 17.114135 6.268875 Z m 44.212677 0 c .128844 .0023 .256383 .0124 .38406 .0192 L 50.488937 17.501149 c -.0067 -.126861 -.01698 -.251603 -.0192 -.379628 L 61.326812 6.268875 Z m -45.039883 .02363 l -9.9944198 9.991466 c .00851 -.14152 .00673 -.285458 .02068 -.425421 L 15.864467 6.313222 c .139192 -.01379 .281735 -.01226 .422466 -.02068 z m 44.212677 0 l -10.007714 10.003283 c .0084 -.141562 .0084 -.285412 .02216 -.42542 l 9.561613 -9.557183 c .139238 -.01364 .283171 -.01241 .423943 -.02068 z m -42.812335 .0059 c .125088 .0087 .252822 .0092 .376674 .02216 L 6.3190979 18.062467 c -.013107 -.124843 -.01191 -.253516 -.02068 -.379628 L 17.687271 6.298418 Z m 44.212676 0 c .124744 .0088 .251687 .01056 .375198 .02363 l -11.75371 11.750755 c -.0132 -.124506 -.01475 -.25238 -.02363 -.378151 L 61.899947 6.298418 Z m -2.059151 .04727 l -9.294249 9.292771 c .0191 -.158207 .0435 -.315236 .06943 -.471212 l 8.752134 -8.750656 c .15682 -.02606 .313614 -.05173 .472689 -.0709 z m -44.215632 .0015 l -9.2780001 9.276523 c .019323 -.158202 .04624 -.31377 .072381 -.469735 L 15.153956 6.419592 c .156748 -.02627 .312205 -.053 .471212 -.07238 z m 2.621947 .0015 c .114231 .01399 .226673 .03267 .339746 .05022 l -3.159632 3.158154 c -.808503 .388056 -1.481673 1.070324 -1.901095 1.901096 l -7.1272657 7.122834 c -.017512 -.112841 -.03775 -.224269 -.0517 -.338268 L 18.247111 6.348641 Z m 44.2112 .0015 c .113857 .01406 .225563 .0341 .338269 .0517 l -3.14486 3.143382 c -.827255 .38959 -1.513623 1.088169 -1.936548 1.938025 l -7.11397 7.108062 c -.01768 -.113196 -.0376 -.225381 -.0517 -.339745 L 62.458316 6.350211 Z m -43.695673 .07533 c .114718 .01977 .232232 .03127 .345654 .05466 l -2.79182 2.790342 c -.185649 .0346 -.367226 .07989 -.543592 .143285 l 2.989758 -2.988282 z m 44.209723 .003 c .114747 .01988 .232205 .03115 .345654 .05465 l -2.785912 2.784434 c -.182623 .0332 -.362456 .07482 -.536206 .135898 l 2.976464 -2.974987 z m -3.840599 .02363 l -8.477383 8.474429 c .03238 -.170711 .07336 -.337531 .113741 -.505187 L 58.62658 6.565913 c .16728 -.04019 .334916 -.08151 .505186 -.113741 z m -44.215632 .003 l -8.461134 8.45818 c .032801 -.171679 .075801 -.339513 .1166952 -.50814 L 14.410948 6.57039 c .167718 -.04056 .334453 -.08266 .505186 -.115218 z m 4.351694 .06795 c .108497 .02416 .214807 .0553 .32202 .08272 l -2.605699 2.604221 c -.01506 -.000201 -.02922 -.003 -.04432 -.003 c -.127708 0 -.253298 .0081 -.378151 .02216 l 2.706145 -2.706145 z m 44.211201 .003 c .108458 .02426 .213366 .05373 .320542 .08124 l -2.604222 2.604221 c -.01872 -.000311 -.03736 -.0044 -.05613 -.0044 c -.123262 0 -.245713 .0091 -.366334 .02216 L 63.47903 6.526152 Z m -5.13754 .112264 l -7.500985 7.500985 c .05103 -.188978 .101509 -.376682 .162487 -.561318 L 57.781648 6.80235 C 57.96593 6.74157 58.152885 6.689273 58.341489 6.638386 Z m -44.217109 .0059 l -7.4803043 7.478827 c .05173 -.190392 .1050955 -.378301 .1669183 -.564273 l 6.750591 -6.749113 c .185156 -.06148 .373259 -.113966 .562795 -.165441 z m 5.616137 0 c .107344 .02914 .219012 .04887 .324974 .08124 l -2.539226 2.539227 c -.11941 -.02107 -.239432 -.0361 -.361903 -.04431 l 2.576155 -2.576155 z m 44.209723 .0015 c .107305 .02924 .219049 .05026 .324974 .08272 l -2.53775 2.53775 C 61.61881 9.244966 61.498747 9.229056 61.377039 9.220466 L 63.95024 6.645788 Z M 20.216161 6.777253 c .100007 .03221 .196746 .07278 .295431 .107832 l -2.500821 2.497866 c -.10282 -.03383 -.207201 -.06439 -.313157 -.08863 l 2.518547 -2.517069 z m 44.208246 .003 c .09997 .03229 .196783 .0727 .295431 .107832 L 62.219017 9.385951 C 62.116851 9.352021 62.0141 9.320281 61.908815 9.295841 L 64.424407 6.780249 Z M 57.46406 6.917628 L 51.121163 13.25757 c .08215 -.224211 .166476 -.446411 .262934 -.663241 l 5.413767 -5.412291 c .21787 -.09681 .440881 -.182036 .666196 -.26441 z m -44.218586 .0074 l -6.3177849 6.313353 c .083149 -.225569 .1697291 -.449607 .2673648 -.667673 L 12.574846 7.19387 c .21926 -.09808 .44379 -.185411 .670628 -.268842 z m 7.412356 .01329 c .0973 .03618 .196547 .06745 .292476 .106355 L 18.440622 9.552879 C 18.348942 9.509109 18.253458 9.472159 18.158487 9.436184 L 20.65783 6.938318 Z m 44.208245 .003 c .09726 .03626 .196588 .06885 .292477 .107833 L 62.647391 9.557357 C 62.555761 9.513307 62.463152 9.475437 62.368209 9.439185 L 64.866075 6.941318 Z M 21.102453 7.103805 c .09034 .03827 .176845 .08489 .265887 .125558 L 18.827637 9.76859 C 18.746627 9.71758 18.662367 9.67148 18.577998 9.626784 l 2.524455 -2.522979 z m 44.209723 .003 c .09013 .03827 .174099 .08638 .262933 .127035 L 63.032928 9.774544 C 62.952218 9.723434 62.870312 9.676084 62.786243 9.63126 L 65.312176 7.106805 Z M 21.502761 7.294403 c .09064 .04296 .182596 .08458 .271797 .12999 l -2.596836 2.596835 c -.07518 -.05963 -.151503 -.11747 -.230436 -.17135 l 2.555475 -2.555475 z m 44.208247 .0044 c .09076 .04311 .182473 .08442 .271795 .129989 l -2.596835 2.596836 C 63.311008 9.965888 63.232771 9.909773 63.154055 9.855755 l 2.556953 -2.556952 z m -9.301636 .0709 l -4.840631 4.839154 c .155255 -.314304 .325271 -.618574 .509618 -.914357 l 3.418133 -3.418133 c .295071 -.1838 .599386 -.35181 .91288 -.506664 z M 12.186355 7.380043 L 7.3796981 12.1867 C 7.5371597 11.86948 7.708159 11.562548 7.8952206 11.264607 L 11.266084 7.895221 C 11.563315 7.70871 11.870289 7.536758 12.186351 7.379694 Z m 9.724101 .109309 c .0878 .04628 .173657 .09613 .259979 .144761 l -2.670694 2.669217 c -.06821 -.06667 -.138953 -.130462 -.211233 -.192031 l 2.621948 -2.621947 z m 44.208245 .0044 c .08763 .04629 .172354 .09613 .258502 .144761 l -2.67217 2.670693 c -.06803 -.06686 -.137652 -.130312 -.209756 -.19203 l 2.623424 -2.623424 z m -43.828617 .21271 c .08561 .04973 .169998 .101599 .254071 .153624 l -2.757846 2.754891 c -.06187 -.07384 -.124176 -.144976 -.190553 -.214187 l 2.694328 -2.694328 z m 44.206769 .0044 c .08557 .0498 .170044 .101533 .25407 .153624 l -2.757845 2.756369 c -.06182 -.07411 -.125677 -.144715 -.19203 -.214187 L 66.496853 7.710862 Z M 22.671189 7.936867 c .08189 .05227 .16634 .0992 .246685 .153624 l -2.870109 2.868631 c -.05427 -.07954 -.10929 -.157906 -.168395 -.23339 l 2.791819 -2.788865 z m 44.206769 .0044 c .08185 .05234 .167855 .09913 .248162 .153624 l -2.873063 2.871587 c -.05408 -.07966 -.109468 -.157788 -.168396 -.233391 l 2.793297 -2.79182 z M 23.033088 8.17588 c .07828 .05457 .153716 .114751 .230437 .171349 l -2.986805 2.98385 C 20.22976 11.245089 20.1828 11.16083 20.130482 11.078486 L 23.033088 8.17588 Z m 44.208246 .0044 c .07823 .05463 .152284 .11469 .228959 .17135 l -2.989759 2.988281 c -.04691 -.08634 -.09247 -.171381 -.144761 -.25407 L 67.241334 8.18028 Z M 54.921875 8.26005 L 52.463891 10.713603 C 53.143579 9.767051 53.974745 8.938985 54.921875 8.26005 Z M 10.673746 8.29402 L 8.2999606 10.666329 C 8.9615103 9.755654 9.7625708 8.954925 10.673746 8.29402 Z m 12.709428 .143284 c .07402 .05624 .152044 .108804 .224527 .166918 l -3.13452 3.133042 c -.03827 -.09095 -.07707 -.182491 -.121126 -.270319 l 3.031119 -3.029641 z m 44.208246 .0044 c .07397 .0563 .150614 .108747 .22305 .166919 l -3.138951 3.137473 c -.03806 -.09105 -.0773 -.1809 -.121127 -.268842 L 67.59142 8.441704 Z M 23.721442 8.689866 c .07292 .06008 .139967 .127115 .211233 .189076 l -3.299961 3.298483 C 20.60253 12.076832 20.567927 11.978341 20.53079 11.88058 l 3.190652 -3.190651 z m 44.208245 .0044 c .07284 .06011 .137087 .128557 .208279 .190553 l -3.301437 3.301437 C 64.8067 12.085955 64.77138 11.986975 64.734605 11.889443 L 67.929687 8.694361 Z M 24.03903 8.976496 c .07124 .06364 .141736 .128002 .211233 .193508 l -3.502331 3.497899 c -.0196 -.111027 -.04581 -.219458 -.07386 -.327928 l 3.364956 -3.363479 z m 44.205291 .0059 c .07119 .0637 .143264 .127945 .21271 .193507 l -3.509716 3.505285 c -.01943 -.111764 -.04297 -.223164 -.0709 -.332359 L 68.244324 8.982396 Z M 24.350709 9.26011 c .06866 .06637 .138464 .131231 .205324 .199416 l -3.750492 3.749016 c -.0058 -.124865 -.01734 -.248056 -.03397 -.370766 L 24.350713 9.26011 Z m 44.206768 .0059 c .06863 .06645 .137025 .132634 .203848 .200893 l -3.756401 3.754924 c -.0056 -.125621 -.01462 -.250268 -.03102 -.37372 L 68.557477 9.26601 Z M 24.652048 9.564395 c .06537 .06846 .127007 .141049 .190553 .211233 l -4.053309 4.051831 c .01437 -.14007 .02649 -.27986 .02659 -.422466 l 0 -.0059 l 3.836167 -3.83469 z m 44.203815 .0074 c .06532 .06851 .128536 .140997 .19203 .211233 l -4.060695 4.05774 c .01491 -.141197 .02615 -.283096 .02659 -.426897 L 68.855865 9.571795 Z M 24.938616 9.881997 c .06224 .07061 .1287 .136024 .189076 .208279 l -4.484638 4.484637 c .04834 -.167548 .08596 -.33857 .113741 -.512572 l 4.181821 -4.180344 z m 44.205292 .0059 c .06218 .07066 .130233 .135974 .190552 .208278 l -4.499409 4.499409 c .04969 -.169072 .08944 -.342746 .118172 -.518481 l 4.190685 -4.189206 z m -43.920202 .317587 c .05856 .07211 .110222 .149398 .166919 .22305 l -5.224692 5.223215 c .149105 -.242992 .277813 -.500412 .378152 -.771074 l 4.679621 -4.675191 z m 44.203815 .0074 c .05848 .07216 .11028 .14935 .166918 .22305 l -5.249803 5.249803 c .154506 -.246888 .289114 -.508266 .392923 -.784368 l 4.689962 -4.688485 z M 16.93983 10.393087 c 1.324826 0 2.689523 1.448804 2.68842 3.006007 c -.0011 1.555718 -1.364662 3.006007 -2.68842 3.006007 c -1.323754 0 -2.695075 -1.450466 -2.695804 -3.006007 c -.000743 -1.55682 1.371093 -3.006007 2.695804 -3.006007 z m 44.199384 0 c 1.324825 0 2.691004 1.448804 2.689896 3.006007 c -.0012 1.555718 -1.366138 3.006007 -2.689896 3.006007 c -1.323755 0 -2.693598 -1.450466 -2.694328 -3.006007 c -.000743 -1.55682 1.369616 -3.006007 2.694328 -3.006007 z M 25.4763 10.545234 c .05712 .07631 .116253 .151079 .171349 .228959 l -6.279378 6.277901 C 19.273658 17.013538 19.17966 16.9725 19.081703 16.938353 L 25.4763 10.545234 Z m 44.205292 .0074 c .05706 .07636 .116314 .151031 .171349 .228958 l -6.276424 6.27347 c -.0945 -.0387 -.187249 -.07944 -.285091 -.113741 l 6.390166 -6.388687 z m -43.94679 .338267 c .05474 .07965 .105446 .16106 .158055 .242254 l -6.106552 6.106552 c -.08974 -.04486 -.180244 -.08923 -.273273 -.12999 l 6.22177 -6.218816 z m 44.205291 .0074 c .05476 .0798 .103969 .162383 .156579 .243731 l -6.103598 6.10212 c -.08955 -.04499 -.178974 -.08913 -.271797 -.129989 l 6.218816 -6.215862 z m -43.974855 .357471 c .05274 .08383 .104645 .168687 .155101 .254071 l -5.939634 5.938156 c -.08622 -.05138 -.177818 -.09433 -.267365 -.141807 l 6.051898 -6.05042 z m 44.205291 .0074 c .05266 .08387 .104713 .16864 .155101 .254071 l -5.936679 5.936679 c -.08611 -.0515 -.179408 -.09568 -.268842 -.143284 l 6.05042 -6.047466 z m -43.974855 .372243 c .04851 .08474 .101484 .166404 .147715 .252593 l -5.802259 5.799305 c -.07891 -.05486 -.157326 -.109515 -.239298 -.16101 l 5.893842 -5.890888 z m 44.205291 .0074 c .04858 .08507 .101412 .167552 .147716 .25407 l -5.800782 5.79635 c -.07854 -.05486 -.157717 -.10957 -.239298 -.16101 l 5.892364 -5.88941 z m -57.040277 .183167 c -.07386 .187029 -.131064 .381674 -.178736 .579044 l -6.7018444 6.698891 c -.023476 -.113706 -.033348 -.232119 -.053177 -.347132 l 6.9337574 -6.930803 z m 44.191997 .0192 c -.07263 .186371 -.129124 .379586 -.175781 .57609 l -6.694459 6.694459 c -.02359 -.113662 -.03323 -.232157 -.05318 -.347131 l 6.923418 -6.923418 z m -31.144301 .178736 c .04586 .0885 .08803 .18038 .131467 .270319 l -5.65159 5.650112 C 20.813841 17.884799 20.73821 17.82654 20.66078 17.770045 l 5.747604 -5.746127 z m 44.205291 .0074 c .04585 .08871 .08654 .180167 .129989 .270319 l -5.650111 5.648635 c -.07428 -.05962 -.148711 -.119208 -.226005 -.175782 l 5.746127 -5.743172 z m -44.007353 .403263 c .04132 .08888 .08811 .175695 .127035 .265888 l -5.517168 5.517167 c -.0687 -.06258 -.144121 -.118815 -.215664 -.178736 l 5.605797 -5.604319 z m 44.203815 .0089 c .04121 .08892 .08819 .174176 .127035 .26441 l -5.515691 5.515691 c -.0686 -.06266 -.142741 -.118724 -.214187 -.178736 l 5.602843 -5.601365 z m -57.684316 .218618 c -.02658 .149964 -.04289 .302815 -.05318 .456441 l -6.4669773 6.4655 c -.027324 -.106793 -.0616 -.211055 -.085675 -.319065 l 6.6058303 -6.602876 z m 44.197906 .01477 c -.02608 .149996 -.04343 .302826 -.05318 .45644 l -6.462546 6.461069 c -.02749 -.107035 -.05997 -.212283 -.0842 -.320542 l 6.599922 -6.596967 z M 26.793921 12.84231 c .03959 .09557 .07095 .195521 .107832 .292476 l -5.384224 5.382748 c -.06538 -.06725 -.131166 -.1346 -.199416 -.199416 l 5.475808 -5.475808 z m 44.203814 .0089 c .03954 .09561 .07103 .195481 .107832 .292476 l -5.382747 5.379793 c -.06529 -.06733 -.129785 -.134512 -.197938 -.199415 l 5.472853 -5.472854 z m -44.041327 .431329 c .03588 .0987 .0748 .195385 .107832 .295431 l -5.257189 5.254234 c -.06255 -.07229 -.125054 -.144136 -.190553 -.214187 l 5.33991 -5.335478 z m 44.202336 .01034 c .03571 .09852 .07644 .194098 .10931 .293954 l -5.255712 5.252757 c -.06249 -.07239 -.123644 -.145505 -.189075 -.215664 l 5.335477 -5.331047 z m -58.096441 .02954 c -.000457 .0255 -.003 .05125 -.003 .07681 c .00005 .10546 .01276 .207477 .02068 .311679 l -6.3517136 6.34867 C 6.6960195 19.9542 6.6745973 19.845787 6.6455488 19.739036 l 6.4167542 -6.416754 z m 44.199383 .01329 c -.000311 .02107 -.0044 .0424 -.0044 .06352 c .000053 .109919 .01209 .216429 .02068 .324974 l -6.347328 6.34585 c -.03235 -.105335 -.05358 -.215308 -.08272 -.322019 l 6.4138 -6.412323 z m -30.145745 .38406 c .03288 .104598 .05595 .213096 .08567 .319066 l -5.121291 5.119813 c -.05852 -.07557 -.123213 -.146465 -.184644 -.220096 l 5.220261 -5.218783 z m 44.203813 .0089 c .03286 .10485 .05448 .214318 .0842 .320543 l -5.118336 5.116859 c -.05842 -.07563 -.123309 -.146398 -.184645 -.220096 l 5.218783 -5.217306 z m -58.227908 .169873 c .01391 .114953 .03754 .227123 .06056 .339745 l -6.2690384 6.264608 c -.034573 -.09731 -.076026 -.192406 -.1078323 -.291 l 6.3163077 -6.313353 z m 44.197906 .01329 c .01417 .114218 .04034 .226371 .06352 .338269 l -6.266084 6.261653 c -.03458 -.09704 -.07749 -.191196 -.109309 -.289523 l 6.311876 -6.310399 z m -30.046777 .285091 c .02812 .106511 .05636 .212744 .08124 .320542 l -4.992778 4.989824 c -.05467 -.07872 -.109352 -.156305 -.166919 -.23339 l 5.078453 -5.076976 z m 44.202338 .01034 c .02803 .106551 .0579 .212706 .08272 .320542 l -4.991301 4.98687 c -.05451 -.0787 -.110985 -.15632 -.168396 -.233391 l 5.076977 -5.074021 z m -58.261884 .20237 c .02566 .103988 .06145 .204485 .09454 .305771 l -6.2306325 6.227678 c -.038888 -.09574 -.073144 -.19389 -.1093093 -.290999 l 6.2454038 -6.24245 z m 44.200861 .01034 c .02586 .103662 .06277 .203336 .09602 .304294 l -6.229156 6.229155 c -.03912 -.09604 -.07293 -.195054 -.109309 -.292476 l 6.24245 -6.240973 z m -30.020188 .258502 c .02379 .110952 .04171 .223098 .06204 .335313 l -4.855404 4.855404 c -.05081 -.08147 -.101417 -.162104 -.155101 -.242253 l 4.948464 -4.948464 z m 44.203814 .01034 c .02376 .111313 .04033 .224211 .06056 .336791 l -4.853925 4.852449 c -.0508 -.08163 -.09996 -.163421 -.153625 -.243731 l 4.946987 -4.945509 z m -58.239725 .184644 c .03456 .09366 .07603 .182561 .116695 .273274 l -6.2158616 6.215861 c -.040954 -.08956 -.087031 -.176486 -.125558 -.267365 l 6.2247246 -6.22177 z m 44.20086 .01034 c .03471 .09333 .07888 .182887 .119649 .273274 l -6.215861 6.212906 c -.04104 -.08954 -.08695 -.176502 -.125558 -.267364 l 6.22177 -6.218816 z m -30.074843 .314634 c .01836 .112451 .03688 .224653 .0517 .338268 L 22.796744 20.2457 c -.0079 -.01405 -.01569 -.02882 -.02363 -.04284 c -.0389 -.06866 -.08325 -.135874 -.12408 -.203847 l 4.805179 -4.800748 z m 44.202338 .0089 c .01832 .112819 .03697 .225757 .0517 .339745 l -4.707688 4.706211 c -.0095 -.0169 -.01854 -.03336 -.02807 -.05022 c -.03732 -.06585 -.08057 -.129762 -.119649 -.194984 l 4.803703 -4.800748 z m -58.148143 .07977 c .04354 .08877 .09116 .174656 .14033 .259979 l -6.22177 6.220293 c -.044852 -.088 -.089006 -.176489 -.1314667 -.265888 l 6.2129067 -6.214384 z m 44.203815 .0089 c .04375 .08871 .09096 .174739 .140329 .259979 l -6.22177 6.218816 c -.04501 -.08813 -.08738 -.176361 -.129989 -.265888 l 6.21143 -6.212907 z m -43.98815 .376674 c .05137 .08267 .103067 .164958 .159533 .243731 l -6.2513137 6.249835 c -.049009 -.08688 -.093706 -.176035 -.1403296 -.26441 l 6.2321103 -6.229156 z m 44.203814 .0089 c .05154 .08254 .102907 .1651 .159532 .24373 l -6.251313 6.248359 c -.04899 -.08669 -.09224 -.176226 -.138852 -.26441 l 6.230633 -6.227679 z m -30.395384 .0325 c .01375 .121227 .02135 .243897 .03102 .366334 l -4.559971 4.558494 c -.04443 -.08716 -.09051 -.173608 -.137376 -.259979 l 4.666328 -4.664849 z m 44.202336 .01182 c .01361 .121191 .02149 .242458 .03102 .364856 l -4.558496 4.557018 c -.04436 -.08719 -.09059 -.173578 -.137375 -.259979 l 4.66485 -4.661895 z m -57.765559 .299862 c .05876 .07672 .113828 .156628 .177259 .228958 l -6.285288 6.282334 c -.0515 -.08316 -.1058428 -.164974 -.155101 -.249639 l 6.26313 -6.261653 z m 44.203815 .0089 c .05887 .07653 .116674 .15387 .180212 .226004 l -6.288241 6.283811 c -.05156 -.08312 -.104299 -.165017 -.153624 -.249639 L 58.17309 16.034659 Z M 27.573857 16.27248 c .0078 .128211 .01591 .256128 .0192 .385537 l -4.3901 4.3901 c -.04297 -.09257 -.08301 -.185654 -.128512 -.277705 l 4.499408 -4.497932 z m 44.200861 .01182 c .0077 .128245 .01604 .256094 .0192 .385537 l -4.387146 4.387145 c -.0428 -.09241 -.08465 -.18581 -.129989 -.277705 L 71.774715 16.2843 Z M 14.24698 16.35668 c .06466 .06894 .129133 .138167 .197938 .20237 l -1.162519 1.161042 c -.644274 .456012 -1.186483 1.017886 -1.636686 1.63521 L 8.0931592 22.909333 C 8.0388862 22.829233 7.9916694 22.74428 7.9395352 22.662648 L 14.24698 16.356355 Z m 44.206768 .0074 c .06482 .0688 .127518 .138326 .196462 .20237 l -1.127068 1.127068 c -.678367 .472203 -1.24445 1.060634 -1.710543 1.709066 l -3.515626 3.515625 c -.05442 -.08016 -.09988 -.166467 -.152146 -.248162 l 6.308921 -6.305967 z m -43.900997 .29066 c .102007 .08881 .204986 .176262 .314633 .254071 c -.369512 .123005 -.710373 .284029 -1.034007 .465303 l .719374 -.719374 z m 44.206768 .0059 c .09981 .08649 .200157 .172167 .307248 .248162 c -.358611 .119375 -.690571 .274645 -1.005941 .449054 l .698693 -.697216 z m -31.156118 .181689 c .000262 .03096 .0044 .06056 .0044 .09158 c 0 .110209 -.01442 .217066 -.01772 .326451 l -4.203979 4.201024 c -.04015 -.09473 -.07998 -.187572 -.122603 -.282136 l 4.339876 -4.336923 z m 44.20086 .01034 c .000204 .02729 .0044 .0539 .0044 .08124 c 0 .11428 -.0142 .224876 -.01773 .338268 l -4.202501 4.199547 c -.04016 -.09481 -.07853 -.18748 -.121127 -.282136 l 4.336923 -4.336922 z m -44.224495 .620404 c -.007 .141058 -.0097 .28441 -.02216 .423943 L 23.55452 21.898624 C 23.51708 21.801914 23.4821 21.70457 23.442257 21.607625 l 4.137506 -4.134552 z m 44.20086 .01329 c -.0073 .141017 -.0095 .282978 -.02216 .422465 l -4.000131 3.998655 c -.03732 -.09645 -.07258 -.19283 -.112264 -.289523 l 4.134552 -4.131597 z m -42.929031 .07681 l 20.364037 0 c .31752 6.082766 5.205614 10.969532 11.288406 11.286929 l 0 9.385832 l -9.71967 0 C 50.45596 31.944596 45.238787 26.932773 38.866695 26.932773 c -6.58345 0 -11.933922 5.350472 -11.933922 11.933922 c 0 6.372095 5.011825 11.589268 11.303177 11.917673 l 0 9.71967 l -9.384355 0 C 28.534075 54.421254 23.645981 49.534506 17.563189 49.217109 l 0 -20.366991 C 23.645981 28.532721 28.534075 23.645955 28.851595 17.563189 Z M 16.93983 17.746357 c 2.463101 0 3.854416 1.313917 4.827338 3.031118 c .866754 1.529815 1.308091 3.321234 1.642594 4.63383 c -1.795977 1.372747 -4.0356 2.196527 -6.47584 2.196527 c -2.440027 0 -4.678465 -.823997 -6.474363 -2.196527 c .335201 -1.312322 .778829 -3.104001 1.647026 -4.63383 c .97458 -1.717289 2.370148 -3.031118 4.833245 -3.031118 z m 44.199384 0 c 2.463099 0 3.854415 1.313917 4.827337 3.031118 c .866718 1.529752 1.306623 3.321247 1.641117 4.63383 c -1.795898 1.37253 -4.034337 2.196527 -6.474363 2.196527 c -2.440241 0 -4.679863 -.82378 -6.475841 -2.196527 c .335206 -1.312335 .780272 -3.103937 1.648504 -4.63383 c .97458 -1.717289 2.370148 -3.031118 4.833246 -3.031118 z m -33.600808 .372242 c -.01761 .15936 -.04785 .314082 -.07238 .471212 l -3.743106 3.743107 c -.03387 -.09528 -.07621 -.192125 -.112264 -.288046 l 3.927751 -3.926273 z m 44.197905 .01329 c -.01782 .159699 -.04757 .315237 -.07238 .472689 l -3.738675 3.737199 c -.03391 -.09543 -.07469 -.191961 -.110786 -.288046 l 3.921841 -3.921842 z M 27.42762 18.836496 c -.02969 .16489 -.06032 .328285 -.09749 .490414 l -3.455063 3.453585 c -.03296 -.10088 -.05925 -.196266 -.09454 -.298385 l 3.647092 -3.645614 z m 44.199382 .01329 c -.03007 .165816 -.06281 .328877 -.100446 .491892 l -3.449153 3.449153 c -.03292 -.100867 -.0593 -.196268 -.09454 -.298385 L 71.627 18.849786 Z m -44.369255 .754825 c -.04635 .179575 -.085 .361942 -.140329 .537684 l -3.097591 3.097591 c -.03016 -.09988 -.0637 -.201128 -.09602 -.302817 l 3.333936 -3.332458 z m 44.196429 .01625 c -.04672 .179958 -.08605 .361587 -.141807 .537684 l -3.090205 3.091681 c -.03014 -.09984 -.06372 -.202624 -.09602 -.304293 l 3.328027 -3.325072 z m -60.21468 .345653 c -.04803 .07904 -.09937 .156363 -.144761 .236345 c -.119893 .211261 -.230202 .425075 -.335314 .641085 L 8.3472295 23.256138 C 8.2909007 23.179812 8.2287301 23.10798 8.1744026 23.030134 l 3.0650934 -3.063617 z m 44.178702 .0325 c -.04085 .0679 -.08516 .135265 -.12408 .203847 c -.124593 .219542 -.238516 .443069 -.347131 .667674 l -2.394466 2.392989 c -.05639 -.07626 -.118438 -.148207 -.172827 -.226006 l 3.038504 -3.038504 z M 27.000722 20.45841 c -.07615 .217441 -.151206 .434805 -.240776 .645516 l -2.59979 2.59979 c -.02912 -.103529 -.06173 -.2069 -.09306 -.313157 l 2.933626 -2.932149 z m 44.193475 .0192 c -.07656 .217248 -.150811 .435014 -.240777 .645516 l -2.592404 2.592404 c -.02927 -.104036 -.06012 -.207824 -.09158 -.314634 L 71.1942 20.47761 Z m -60.614989 .75778 c -.09728 .218196 -.176823 .43349 -.261456 .651424 L 8.6072085 23.595881 C 8.5488505 23.523081 8.4938113 23.448653 8.4373359 23.374308 L 10.579208 21.23539 Z m 44.186089 .02511 c -.09615 .216998 -.173351 .431847 -.257025 .648471 L 52.8125 23.603269 c -.05842 -.07275 -.113337 -.147275 -.169872 -.221572 l 2.122669 -2.121193 z M 26.58121 21.479123 c -.13719 .290529 -.284184 .573982 -.4461 .849363 l -1.847919 1.847919 c -.02774 -.104869 -.05724 -.208834 -.08715 -.317588 l 2.38117 -2.379694 z m 44.189044 .02216 c -.139544 .293689 -.29013 .580103 -.454964 .858226 l -1.827239 1.827239 c -.02766 -.104698 -.0558 -.208989 -.08567 -.317588 l 2.367878 -2.367877 z m -60.582491 .720851 c -.07498 .206358 -.145834 .406745 -.2112334 .608587 L 8.8790045 23.928243 C 8.8170785 23.85703 8.755891 23.786906 8.6958377 23.714056 l 1.4919253 -1.491925 z m 44.190519 .02216 c -.07417 .20523 -.142072 .403486 -.206801 .604156 l -1.085708 1.085708 c -.062 -.07119 -.123037 -.141363 -.183166 -.214188 l 1.475675 -1.475676 z m -28.566668 .605633 c -.41484 .620941 -.887313 1.199524 -1.419545 1.719407 c -.01883 -.07368 -.04515 -.160122 -.06499 -.236345 l 1.484539 -1.483062 z m 44.181657 .03102 c -.410062 .609225 -.878351 1.177063 -1.401819 1.688387 c -.01807 -.07065 -.04157 -.15301 -.06056 -.226005 l 1.462382 -1.462382 z M 9.8849459 23.123195 c -.060678 .19707 -.1227509 .391894 -.1757814 .580521 L 9.1714811 24.239922 C 9.1061668 24.170577 9.0399563 24.102711 8.9764965 24.031644 l .9084494 -.908449 z m 44.1949511 .01772 c -.06041 .19702 -.12298 .392043 -.175781 .580522 l -.527343 .525866 c -.06557 -.0695 -.131273 -.138519 -.194985 -.209755 L 54.079897 23.14092 Z M 9.6367841 23.972558 c -.054643 .201758 -.113397 .410211 -.1610092 .59677 c -.07386 -.07214 -.1394819 -.153242 -.2112331 -.227482 l .3722423 -.369288 z m 44.1949519 .01625 c -.05283 .195643 -.11032 .399271 -.156578 .580521 c -.07161 -.06995 -.134218 -.148179 -.203847 -.220096 l .360425 -.360425 z M 38.853401 28.192785 L 28.192785 38.850446 c .000211 -.145275 .01623 -.28601 .02216 -.429851 l 10.20713 -10.205653 c .144249 -.0059 .285639 -.02197 .431329 -.02216 z m 44.212675 0 l -10.673908 10.670956 c .000032 -.145317 .0164 -.285965 .02216 -.429852 L 82.634749 28.213465 c .144295 -.0057 .285587 -.02068 .431327 -.02068 z m -44.019168 .0089 c .12888 .0022 .256345 .01254 .38406 .0192 L 28.220851 39.423582 c -.0066 -.126917 -.01859 -.253026 -.02068 -.381105 L 39.046908 28.201648 Z m 44.212675 0 c .128844 .0023 .256387 .0124 .384066 .0192 L 72.421711 39.433922 c -.0067 -.126861 -.01698 -.251603 -.0192 -.379628 L 83.259583 28.201648 Z m -45.039881 .02363 l -9.99442 9.991466 c .0085 -.14152 .0067 -.285458 .02068 -.42542 l 9.551274 -9.545366 c .139192 -.0138 .281735 -.01225 .422466 -.02068 z m 44.212675 0 l -10.007712 10.003283 c .0083 -.141562 .0084 -.285412 .02216 -.42542 l 9.561616 -9.557183 c .139236 -.01364 .283168 -.01241 .423938 -.02068 z m -42.812333 .0059 c .125088 .0087 .252823 .0092 .376674 .02216 L 28.251871 39.99524 c -.01311 -.124843 -.01191 -.253516 -.02068 -.379628 L 39.620044 28.231191 Z m 44.21268 0 c .12473 .0088 .251683 .01056 .375194 .02363 L 72.454208 40.00558 c -.0132 -.124506 -.01475 -.252379 -.02363 -.378151 l 11.40215 -11.396238 z m -2.059154 .04727 l -9.29425 9.292771 c .0191 -.158207 .0435 -.315236 .06943 -.471212 l 8.752135 -8.750656 c .156819 -.02606 .313616 -.05173 .472689 -.0709 z m -44.215633 .0015 l -9.278 9.276523 c .01932 -.158202 .04624 -.31377 .07238 -.469735 l 8.734408 -8.734408 c .156748 -.02627 .312205 -.053 .471212 -.07238 z m 2.621947 .0015 c .114231 .01399 .226673 .03266 .339746 .05022 l -3.159632 3.158155 c -.808503 .388055 -1.481673 1.070324 -1.901095 1.901095 l -7.127266 7.122834 c -.01752 -.11284 -.03775 -.224269 -.0517 -.338268 L 40.179884 28.281414 Z m 44.211203 .0015 c .113854 .01407 .22556 .03409 .338264 .0517 l -3.144857 3.143382 c -.827251 .38959 -1.513626 1.088169 -1.93655 1.938025 l -7.113969 7.108062 c -.01768 -.113196 -.0376 -.225381 -.0517 -.339745 L 84.391087 28.282891 Z m -43.695676 .07534 c .114718 .01977 .232232 .03127 .345654 .05465 l -2.79182 2.790342 c -.185649 .0346 -.367226 .07989 -.543592 .143285 l 2.989758 -2.988282 z m 44.20972 .003 c .114746 .01988 .232208 .03115 .345661 .05465 l -2.785916 2.784434 c -.182625 .0332 -.362458 .07482 -.536204 .135899 l 2.976459 -2.974987 z m -3.840595 .02363 l -8.477384 8.474429 c .03238 -.170711 .07336 -.337531 .113741 -.505187 l 7.858456 -7.855502 c .167279 -.04019 .334921 -.08151 .505187 -.11374 z m -44.215632 .003 l -8.461135 8.45818 c .0328 -.171679 .0758 -.339513 .116695 -.50814 l 7.839253 -7.834822 c .167718 -.04056 .334454 -.08266 .505187 -.115218 z m 4.351693 .06795 c .108497 .02416 .214807 .0553 .32202 .08272 l -2.605699 2.604221 c -.01506 -.000201 -.02922 -.003 -.04432 -.003 c -.127708 0 -.253298 .0081 -.378151 .02216 l 2.706145 -2.706145 z m 44.211204 .003 c .108454 .02425 .21336 .05373 .320536 .08124 l -2.604222 2.604221 c -.01868 -.000311 -.03737 -.0044 -.05612 -.0044 c -.123262 0 -.245723 .0091 -.366338 .02216 l 2.706149 -2.703191 z m -5.13754 .112264 l -7.500988 7.500985 c .05104 -.188978 .101509 -.376682 .162487 -.561318 L 79.714415 28.7349 c .184281 -.06078 .371239 -.113077 .559846 -.163964 z m -44.217112 .0059 l -7.480304 7.478827 c .05173 -.190392 .105095 -.379778 .166918 -.56575 l 6.750591 -6.747636 c .185157 -.06148 .373259 -.113967 .562795 -.165441 z m 5.616137 0 c .107344 .02914 .219013 .04887 .324974 .08124 l -2.539226 2.53775 c -.11941 -.02107 -.239432 -.03462 -.361903 -.04284 l 2.576155 -2.576155 z m 44.209722 .0015 c .107304 .02924 .219055 .05026 .324975 .08272 l -2.53775 2.53775 c -.118649 -.02129 -.23872 -.0372 -.360424 -.04579 l 2.573199 -2.574678 z M 42.14893 28.709788 c .100007 .03221 .196746 .07131 .295431 .106355 l -2.500821 2.499344 c -.10282 -.03383 -.207201 -.06439 -.313157 -.08863 l 2.518547 -2.51707 z m 44.208249 .003 c .09997 .03229 .196782 .0727 .295427 .107832 l -2.50082 2.497866 c -.102169 -.03393 -.20492 -.06567 -.310205 -.09011 l 2.515598 -2.515592 z m -6.96035 .137375 l -6.342896 6.339943 c .08215 -.224212 .166475 -.446412 .262933 -.663242 l 5.413766 -5.41229 c .217868 -.09681 .440886 -.182038 .666197 -.264411 z m -44.218586 .0074 l -6.317785 6.313353 c .08315 -.225503 .16973 -.449607 .267365 -.667673 l 5.379793 -5.376838 c .219259 -.09808 .443789 -.18541 .670627 -.268842 z m 7.412356 .01182 c .0973 .03617 .196547 .06893 .292476 .107832 l -2.509684 2.508207 c -.09168 -.04377 -.187163 -.08072 -.282135 -.116696 l 2.499343 -2.499343 z m 44.208246 .0044 c .09726 .03626 .196593 .06885 .292477 .107833 l -2.511159 2.508207 c -.09162 -.04405 -.184243 -.08192 -.279181 -.118173 l 2.497863 -2.497867 z M 43.035222 29.03627 c .09034 .03827 .176845 .08489 .265887 .125559 l -2.540703 2.539227 c -.08101 -.05098 -.16527 -.09711 -.249639 -.141807 l 2.524455 -2.522979 z m 44.20972 .003 c .09013 .03827 .174101 .08638 .262936 .127035 l -2.542182 2.540704 c -.08071 -.05111 -.162613 -.09846 -.246683 -.143284 L 87.244942 29.03927 Z M 43.43553 29.226792 c .09063 .04296 .182596 .08458 .271797 .12999 l -2.596836 2.596835 c -.07518 -.05963 -.151503 -.11747 -.230436 -.17135 l 2.555475 -2.555475 z m 44.208248 .0044 c .09076 .04311 .182466 .08442 .271793 .129991 l -2.596833 2.596835 c -.07495 -.05974 -.153197 -.115855 -.231913 -.169873 l 2.556953 -2.556953 z m -9.301636 .0709 l -4.840632 4.839155 c .155255 -.314305 .325271 -.618575 .509618 -.914358 l 3.418134 -3.418134 c .295072 -.183799 .599385 -.351809 .91288 -.506663 z m -44.223018 .01034 l -4.806657 4.806657 c .157466 -.316871 .328465 -.623803 .515527 -.921744 l 3.370863 -3.369386 c .297231 -.186511 .604205 -.358463 .920267 -.515527 z m 9.724101 .10931 c .0878 .04628 .173657 .09612 .259979 .144761 l -2.670693 2.669216 c -.06821 -.06667 -.138954 -.130462 -.211234 -.192031 l 2.621948 -2.621946 z m 44.208246 .0044 c .08762 .04629 .172353 .09613 .258504 .144761 l -2.672176 2.670693 c -.06799 -.06686 -.137647 -.130312 -.209753 -.19203 l 2.623425 -2.623424 z m -43.828618 .21271 c .08561 .04974 .169998 .101599 .254071 .153624 l -2.757846 2.754891 c -.06187 -.07384 -.124176 -.144976 -.190553 -.214187 l 2.694328 -2.694328 z m 44.206769 .0044 c .08557 .0498 .170047 .101533 .254072 .153624 l -2.757849 2.756369 c -.06179 -.07411 -.125675 -.144715 -.192026 -.214187 l 2.695803 -2.695806 z m -43.825664 .226005 c .0819 .05227 .16634 .0992 .246685 .153624 l -2.870109 2.868632 c -.05427 -.07955 -.10929 -.157907 -.168395 -.233391 l 2.791819 -2.788865 z m 44.206772 .0044 c .08185 .05234 .167846 .09913 .248158 .153623 l -2.873064 2.871587 c -.05408 -.07966 -.10946 -.157788 -.168391 -.233391 l 2.793297 -2.791819 z m -43.844869 .234867 c .07828 .05457 .153717 .114752 .230437 .171349 l -2.986805 2.983851 c -.04696 -.08599 -.09392 -.17025 -.146238 -.252594 l 2.902606 -2.902606 z m 44.20825 .0044 c .07823 .05463 .152281 .114691 .228955 .17135 l -2.989762 2.988281 c -.04689 -.08635 -.09247 -.171381 -.144756 -.25407 l 2.905563 -2.905561 z m -12.319465 .07977 l -2.457981 2.453552 c .679687 -.946551 1.510851 -1.774618 2.457981 -2.453552 z m -44.248127 .03397 l -2.373785 2.372309 c .661549 -.910672 1.46261 -1.711404 2.373785 -2.372309 z m 12.709428 .143284 c .07402 .05624 .152044 .108805 .224527 .166918 l -3.13452 3.133042 c -.03827 -.09095 -.07707 -.182491 -.121126 -.270319 l 3.031119 -3.029641 z m 44.208249 .0044 c .07397 .0563 .150617 .108747 .223049 .166918 l -3.138951 3.137475 c -.03804 -.09105 -.0773 -.1809 -.121129 -.268842 l 3.037031 -3.035551 z M 45.654215 30.62251 c .07292 .06008 .139967 .127116 .211233 .189076 l -3.299961 3.298483 c -.03018 -.100656 -.06479 -.199147 -.101924 -.296908 l 3.190652 -3.190651 z m 44.208245 .0044 c .07283 .06012 .137087 .128557 .208278 .190553 L 86.769303 34.1189 c -.0298 -.100396 -.06515 -.199376 -.101927 -.296908 l 3.195084 -3.194858 z m -43.890657 .28236 c .07124 .06363 .141736 .128001 .211233 .193507 l -3.502331 3.497899 c -.0196 -.111026 -.04581 -.219458 -.07386 -.327928 l 3.364956 -3.363478 z m 44.205294 .0059 c .07117 .06369 .143258 .127944 .21271 .193506 l -3.50972 3.505286 c -.01944 -.111765 -.043 -.223165 -.0709 -.33236 l 3.367914 -3.366432 z m -43.893614 .277704 c .06866 .06637 .138463 .131231 .205324 .199416 l -3.750493 3.749016 c -.0058 -.124865 -.01734 -.248056 -.03397 -.370766 l 3.579143 -3.577666 z m 44.206768 .0059 c .0686 .06645 .13702 .132634 .203846 .200893 l -3.756403 3.754924 c -.0053 -.12562 -.0146 -.250267 -.03102 -.37372 l 3.583573 -3.582097 z m -43.90543 .298385 c .06538 .06846 .127007 .141049 .190553 .211233 l -4.053309 4.051832 c .01437 -.140071 .02649 -.279861 .02659 -.422466 l 0 -.0059 l 3.836167 -3.83469 z m 44.203814 .0074 c .06535 .06851 .128534 .140997 .192033 .211233 l -4.060694 4.05774 c .0149 -.141197 .02621 -.283096 .02658 -.426897 l 3.842077 -3.842076 z m -43.917246 .310202 c .06224 .07061 .1287 .136024 .189076 .208279 l -4.484638 4.484637 c .04834 -.167548 .08596 -.338569 .113741 -.512572 l 4.181821 -4.180344 z m 44.205292 .0059 c .06217 .07066 .130227 .135974 .19055 .208278 l -4.49941 4.499409 c .04969 -.169072 .08945 -.342746 .118172 -.518481 l 4.190688 -4.189206 z m -43.920202 .317587 c .05856 .07211 .110223 .149398 .166919 .22305 l -5.224692 5.223215 c .149105 -.242992 .277813 -.500412 .378152 -.771074 l 4.679621 -4.675191 z m 44.203815 .0074 c .05846 .07216 .110277 .14935 .166916 .22305 L 86.277412 37.6185 c .154512 -.246888 .289112 -.508266 .392922 -.784368 l 4.68996 -4.688485 z M 38.872603 32.32586 c 1.324826 0 2.689523 1.448804 2.68842 3.006007 c -.0011 1.555718 -1.364662 3.006007 -2.68842 3.006007 c -1.323754 0 -2.695075 -1.450466 -2.695804 -3.006007 c -.000743 -1.55682 1.371093 -3.006007 2.695804 -3.006007 z m 44.199387 0 c 1.324823 0 2.691 1.448804 2.689896 3.006007 c -.0015 1.555718 -1.36614 3.006007 -2.689896 3.006007 c -1.323756 0 -2.693594 -1.450466 -2.694328 -3.006007 c -.000741 -1.55682 1.369611 -3.006007 2.694328 -3.006007 z m -35.662917 .152147 c .05712 .07631 .116253 .151079 .17135 .228959 l -6.279379 6.277901 c -.09461 -.03856 -.188611 -.07959 -.286568 -.113741 l 6.394597 -6.393119 z m 44.205293 .0074 c .05703 .07636 .116312 .151031 .171348 .228958 l -6.276426 6.273471 c -.0945 -.0387 -.187245 -.07944 -.285088 -.113741 l 6.390166 -6.388688 z M 47.667575 32.82366 c .05474 .07965 .105446 .16106 .158055 .242254 l -6.106552 6.106552 c -.08974 -.04486 -.180243 -.08922 -.273273 -.129989 l 6.22177 -6.218817 z m 44.205288 .0074 c .05476 .0798 .103976 .162383 .156585 .243731 l -6.103603 6.10212 c -.08955 -.04499 -.178972 -.08913 -.271793 -.129989 l 6.218811 -6.215862 z m -43.974852 .357471 c .05274 .08383 .104645 .168687 .155101 .254071 l -5.939634 5.938156 c -.08622 -.05138 -.177818 -.09433 -.267365 -.141807 l 6.051898 -6.05042 z m 44.20529 .0074 c .05264 .08387 .104717 .168641 .155102 .254071 l -5.936679 5.936679 c -.08611 -.0515 -.179411 -.09568 -.268843 -.143284 l 6.05042 -6.047466 z m -43.974854 .372243 c .04851 .08474 .101484 .166404 .147715 .252593 l -5.802258 5.799305 c -.07891 -.05485 -.157327 -.109515 -.239299 -.16101 l 5.893842 -5.890888 z m 44.205292 .0074 c .04855 .08507 .101405 .167552 .147713 .25407 l -5.80078 5.79635 c -.07854 -.05486 -.157719 -.10957 -.239301 -.16101 l 5.892368 -5.88941 z m -57.040277 .183167 c -.07386 .187029 -.131065 .381674 -.178737 .579044 l -6.701844 6.698891 c -.02348 -.113705 -.03335 -.232119 -.05318 -.347132 l 6.933759 -6.930803 z m 44.191998 .0192 c -.07261 .18637 -.129124 .379585 -.17578 .57609 l -6.694462 6.694458 c -.02359 -.113661 -.03323 -.232157 -.05318 -.347131 l 6.92342 -6.923417 z m -31.144303 .178735 c .04586 .0885 .08803 .18038 .131467 .270319 l -5.65159 5.650112 c -.07442 -.05955 -.150051 -.117809 -.227481 -.174304 l 5.747604 -5.746127 z m 44.205292 .0074 c .04583 .08871 .08654 .180167 .129985 .270319 l -5.650109 5.648635 c -.07427 -.05962 -.148712 -.119208 -.226006 -.175782 l 5.74613 -5.743172 z m -44.007354 .403263 c .04132 .08888 .08811 .175695 .127035 .265888 l -5.517167 5.517167 c -.0687 -.06258 -.144122 -.118815 -.215665 -.178735 l 5.605797 -5.60432 z m 44.203811 .0089 c .04123 .08892 .08818 .174176 .127036 .26441 L 87.35425 40.15625 c -.06859 -.06266 -.142744 -.118724 -.214184 -.178735 l 5.60284 -5.601366 z m -57.684312 .218618 c -.02658 .149965 -.04289 .302815 -.05318 .456441 l -6.466977 6.4655 c -.02733 -.106793 -.0616 -.211055 -.08568 -.319065 l 6.60583 -6.602876 z m 44.197903 .01477 c -.02609 .149996 -.04342 .302826 -.05318 .45644 l -6.462545 6.461069 c -.0275 -.107035 -.05997 -.212283 -.0842 -.320542 l 6.599919 -6.596967 z m -30.529803 .165442 c .03959 .09557 .07095 .19552 .107832 .292475 l -5.384224 5.382748 c -.06538 -.06725 -.131166 -.1346 -.199416 -.199416 l 5.475808 -5.475807 z m 44.203813 .0089 c .03955 .09561 .07106 .195481 .107833 .292476 l -5.382748 5.379793 c -.06527 -.06733 -.129782 -.134512 -.19794 -.199415 l 5.472855 -5.472854 z m -44.041326 .431329 c .03588 .0987 .0748 .195386 .107832 .295431 l -5.257189 5.254234 C 43.67727 40.69255 43.61477 40.620701 43.549271 40.55065 l 5.33991 -5.335478 z m 44.202335 .01034 c .0357 .09852 .07644 .194098 .109308 .293954 l -5.255705 5.252757 c -.06247 -.07239 -.123648 -.145505 -.189075 -.215664 l 5.335472 -5.331047 z m -58.09644 .02954 c -.000457 .0255 -.003 .05125 -.003 .07681 c .00005 .10546 .01276 .207478 .02068 .311679 l -6.35176 6.348805 c -.03225 -.105378 -.05367 -.213791 -.08272 -.320542 l 6.416754 -6.416754 z m 44.199381 .01329 c -.00031 .02107 -.0044 .0424 -.0044 .06352 c .000053 .109919 .01206 .216429 .02069 .324974 l -6.34733 6.345851 c -.03235 -.105336 -.05358 -.215309 -.08272 -.32202 l 6.413798 -6.412323 z m -30.145743 .38406 c .03288 .104598 .05595 .213096 .08567 .319066 l -5.121291 5.119813 c -.05852 -.07557 -.123213 -.146465 -.184644 -.220095 l 5.220261 -5.218784 z m 44.203811 .0089 c .0329 .10485 .05451 .214317 .0842 .320542 l -5.118337 5.116859 C 88.16 41.023044 88.095079 40.952276 88.033743 40.878578 l 5.218782 -5.217305 z M 35.024619 35.8313 c .01391 .114953 .03754 .227123 .06056 .339745 l -6.26904 6.264608 c -.03457 -.0973 -.07603 -.192406 -.107832 -.291 L 35.024615 35.8313 Z m 44.197905 .01329 c .01414 .114219 .0403 .226371 .06352 .338269 l -6.266087 6.261653 c -.03458 -.09704 -.07749 -.191196 -.109309 -.289523 l 6.311875 -6.310399 z m -30.046776 .28494 c .02812 .106511 .05636 .212744 .08124 .320542 l -4.992778 4.989825 c -.05467 -.07873 -.109352 -.156305 -.166919 -.233391 l 5.078453 -5.076976 z m 44.202339 .01034 c .02806 .106551 .05793 .212706 .08272 .320542 l -4.991301 4.98687 c -.05453 -.0787 -.110973 -.156321 -.168391 -.233391 l 5.076976 -5.074021 z m -58.261885 .20237 c .02566 .103988 .06145 .204485 .09454 .305771 l -6.230633 6.227678 c -.03889 -.09574 -.07314 -.19389 -.109309 -.290999 l 6.245404 -6.24245 z m 44.200859 .01034 c .02587 .103663 .06278 .203336 .09601 .304294 l -6.229152 6.229155 c -.03912 -.09604 -.07293 -.195054 -.109309 -.292476 l 6.242448 -6.240973 z m -30.020186 .258502 c .02379 .110953 .04171 .223099 .06204 .335313 l -4.855404 4.855404 c -.05081 -.08147 -.101417 -.162104 -.155101 -.242253 l 4.948464 -4.948464 z m 44.203816 .01034 c .02375 .111313 .0403 .224211 .06056 .336791 l -4.853926 4.852449 c -.05082 -.08163 -.09996 -.163421 -.153628 -.243731 l 4.94699 -4.945509 z m -58.239727 .184645 c .03456 .09365 .07603 .18256 .116695 .273273 l -6.215861 6.215861 c -.04095 -.08956 -.08703 -.176486 -.125559 -.267365 l 6.224725 -6.221769 z m 44.200861 .01034 c .03471 .09333 .07888 .182887 .119647 .273274 l -6.21586 6.212906 c -.04104 -.08954 -.08695 -.176502 -.125558 -.267364 l 6.221771 -6.218816 z M 49.386981 37.13104 c .01836 .112452 .03688 .224654 .0517 .338268 l -4.709164 4.709165 c -.0079 -.01405 -.01569 -.02882 -.02363 -.04284 c -.0389 -.06866 -.08325 -.135874 -.12408 -.203847 l 4.805179 -4.800748 z m 44.202341 .0089 c .0183 .112819 .03695 .225757 .05169 .339745 l -4.707681 4.706211 c -.0095 -.0169 -.01854 -.03336 -.02807 -.05022 c -.03729 -.06585 -.08057 -.129762 -.119655 -.194984 l 4.803709 -4.800748 z m -58.148146 .07977 c .04354 .08877 .09116 .174656 .14033 .259979 l -6.22177 6.220293 c -.04486 -.088 -.08901 -.176488 -.131467 -.265888 l 6.212907 -6.214384 z m 44.203818 .0089 c .04379 .08871 .09095 .174739 .140324 .259979 l -6.221768 6.218816 c -.04502 -.08813 -.08738 -.176361 -.129989 -.265888 l 6.211433 -6.212907 z m -43.988153 .376674 c .05137 .08267 .103067 .164958 .159533 .243731 l -6.251313 6.249836 c -.04901 -.08688 -.09371 -.176036 -.14033 -.264411 l 6.23211 -6.229156 z m 44.203813 .0089 c .05158 .08253 .10291 .165101 .159534 .24373 l -6.251314 6.248359 c -.04899 -.08669 -.09224 -.176226 -.138851 -.26441 l 6.230631 -6.227679 z m -30.395383 .0325 c .01375 .121227 .02135 .243897 .03102 .366334 l -4.559971 4.558494 c -.04443 -.08716 -.09051 -.173608 -.137376 -.259979 l 4.666328 -4.664849 z m 44.202336 .01182 c .01361 .121191 .02149 .242458 .03102 .364856 l -4.5585 4.557019 C 89.095737 42.493189 89.049537 42.4068 89.002752 42.3204 l 4.664852 -4.661896 z m -57.765559 .299862 c .05876 .07672 .113828 .156629 .177259 .228958 l -6.285288 6.282334 c -.0515 -.08316 -.105843 -.164974 -.155101 -.249639 l 6.26313 -6.261653 z m 44.203814 .0089 c .05884 .07653 .116675 .15387 .180212 .226004 l -6.28824 6.283811 c -.05156 -.08312 -.104299 -.165018 -.153624 -.249639 l 6.261652 -6.260176 z m -30.599231 .237822 c .0078 .12821 .01591 .256127 .0192 .385536 l -4.3901 4.3901 c -.04297 -.09257 -.08301 -.185654 -.128512 -.277705 l 4.499409 -4.497931 z m 44.200863 .01182 c .0077 .128245 .01603 .256094 .0192 .385537 l -4.387152 4.387145 c -.04281 -.09241 -.08465 -.18581 -.129986 -.277705 l 4.497935 -4.494977 z m -57.527741 .07238 c .06466 .06894 .129133 .138168 .197939 .20237 l -1.16252 1.161042 c -.644274 .456012 -1.186483 1.017886 -1.636686 1.63521 l -3.552554 3.554031 c -.05427 -.0801 -.101489 -.165053 -.153624 -.246685 l 6.307445 -6.305968 z m 44.206765 .0074 c .06482 .0688 .127521 .138326 .196465 .20237 l -1.127065 1.127068 c -.678365 .472203 -1.24445 1.060634 -1.710544 1.709067 l -3.515628 3.515624 c -.05442 -.08016 -.09988 -.166467 -.152146 -.248162 l 6.308918 -6.305967 z m -43.900994 .290999 c .102007 .08881 .204986 .176262 .314634 .254071 c -.369513 .123005 -.710374 .284029 -1.034007 .465303 l .719373 -.719374 z m 44.206768 .0059 c .09982 .08649 .200155 .172167 .307247 .248162 c -.358615 .119375 -.690572 .274645 -1.005942 .449054 l .698695 -.697216 z m -31.156118 .18169 c .000262 .03096 .0044 .06055 .0044 .09158 c 0 .110209 -.01442 .217066 -.01772 .326451 l -4.203979 4.201024 c -.04015 -.09473 -.07998 -.187572 -.122603 -.282136 l 4.339876 -4.336922 z m 44.200861 .01034 c .000204 .02729 .0044 .0539 .0044 .08124 c 0 .114281 -.01425 .224875 -.01773 .338268 l -4.2025 4.199547 c -.04016 -.09481 -.07853 -.18748 -.12113 -.282136 l 4.336926 -4.336922 z M 49.51254 39.405856 c -.007 .141059 -.0097 .28441 -.02216 .423943 l -4.003086 4.001609 c -.03744 -.09671 -.07242 -.194055 -.112263 -.291 l 4.137507 -4.134552 z m 44.200861 .01329 c -.0076 .141017 -.0095 .282978 -.02216 .422465 l -4.000129 3.998655 c -.03729 -.09645 -.07255 -.19283 -.112266 -.289523 l 4.134555 -4.131597 z m -42.929033 .07681 l 9.71967 0 l 0 9.721147 C 54.421246 49.5345 49.533152 54.421266 49.215632 60.504032 l -9.71967 0 l 0 -9.721147 c 6.082793 -.317397 10.970886 -5.204163 11.288406 -11.286929 z m 10.979682 0 l 9.384355 0 c .31752 6.082766 5.205616 10.969532 11.288404 11.286929 l 0 20.366989 c -6.082788 .3174 -10.970884 5.20416 -11.288404 11.28693 l -20.364037 0 c -.31752 -6.08279 -5.205613 -10.96953 -11.288406 -11.28693 l 0 -9.38583 l 9.71967 0 c .328409 6.291354 5.545583 11.30318 11.917673 11.30318 c 6.583447 0 11.933922 -5.350475 11.933922 -11.933925 c 0 -6.372095 -5.011824 -11.589268 -11.303177 -11.917673 l 0 -9.71967 z M 38.872603 39.67913 c 2.463101 0 3.854416 1.313917 4.827338 3.031118 c .866754 1.529815 1.308091 3.321234 1.642595 4.63383 c -1.795978 1.372747 -4.0356 2.196527 -6.475841 2.196527 c -2.440027 0 -4.678464 -.823997 -6.474363 -2.196527 c .335201 -1.312322 .778829 -3.104001 1.647026 -4.63383 c .97458 -1.717288 2.370148 -3.031118 4.833245 -3.031118 z m 44.199387 0 c 2.463096 0 3.854413 1.313917 4.827335 3.031118 c .866723 1.529752 1.306619 3.321247 1.641116 4.63383 c -1.795901 1.37253 -4.034344 2.196527 -6.474365 2.196527 c -2.440241 0 -4.679864 -.82378 -6.475838 -2.196527 c .335206 -1.312335 .780267 -3.103937 1.648502 -4.63383 c .974579 -1.717288 2.370147 -3.031118 4.83325 -3.031118 z m -33.600811 .372242 c -.01761 .15936 -.04785 .314082 -.07238 .471212 l -3.743106 3.743107 c -.03387 -.09528 -.07621 -.192124 -.112264 -.288046 l 3.927751 -3.926273 z m 44.197903 .01329 c -.01785 .159699 -.04757 .315237 -.07238 .472689 l -3.738675 3.737199 c -.03388 -.09543 -.07469 -.191961 -.110783 -.288045 l 3.921837 -3.921843 z m -44.308689 .704603 c -.02969 .16489 -.06032 .328285 -.09749 .490414 l -3.455062 3.453585 c -.03296 -.10088 -.05925 -.196266 -.09454 -.298385 l 3.647092 -3.645614 z m 44.19938 .01329 c -.0301 .165816 -.06283 .328877 -.100444 .491892 l -3.449156 3.449154 c -.0329 -.100867 -.05933 -.196269 -.09454 -.298386 l 3.644138 -3.64266 z M 49.19052 41.537388 c -.04635 .179575 -.085 .361942 -.140329 .537684 L 45.9526 45.172663 c -.03016 -.09988 -.0637 -.201128 -.09601 -.302817 l 3.333935 -3.332458 z m 44.19643 .01625 c -.04674 .179958 -.08605 .361587 -.141806 .537684 l -3.090207 3.091682 c -.03018 -.09984 -.06369 -.202624 -.09601 -.304293 l 3.328026 -3.325073 z m -60.214681 .345654 c -.04803 .07904 -.09937 .156363 -.144761 .236344 c -.119893 .211261 -.230202 .425075 -.335314 .641085 l -2.412192 2.412192 c -.05633 -.07633 -.118499 -.148159 -.172826 -.226005 l 3.065093 -3.063616 z m 44.178701 .0325 c -.04084 .0679 -.08515 .135266 -.124079 .203847 c -.124586 .219543 -.238515 .443069 -.347128 .667674 l -2.394469 2.392989 c -.05639 -.07626 -.118438 -.148207 -.172827 -.226005 l 3.038503 -3.038505 z m -28.417475 .459395 c -.07615 .217441 -.151206 .434805 -.240776 .645516 l -2.59979 2.59979 c -.02912 -.103529 -.06173 -.2069 -.09306 -.313157 l 2.933626 -2.932149 z m 44.193476 .0192 c -.07657 .217248 -.150814 .435014 -.240776 .645516 l -2.592408 2.592404 c -.02927 -.104036 -.06008 -.207824 -.09158 -.314634 l 2.924765 -2.923286 z m -60.61499 .75778 c -.09728 .218196 -.176823 .43349 -.261456 .651424 l -1.710544 1.709067 c -.05836 -.0728 -.113397 -.147228 -.169872 -.221573 l 2.141872 -2.138918 z m 44.186089 .02511 c -.09614 .216998 -.173355 .431847 -.257024 .648471 l -1.695773 1.694294 c -.05842 -.07275 -.113337 -.147275 -.169872 -.221572 l 2.122669 -2.121193 z m -28.184086 .218619 c -.137191 .290529 -.284185 .573982 -.446101 .849363 l -1.847919 1.847919 c -.02774 -.104869 -.05724 -.208834 -.08715 -.317588 l 2.381171 -2.379694 z m 44.189042 .02216 c -.139545 .293689 -.290125 .580103 -.454961 .858226 l -1.827242 1.827239 c -.02768 -.104698 -.05584 -.208989 -.08567 -.317588 l 2.367877 -2.367877 z m -60.58249 .720851 c -.07498 .206359 -.145834 .406745 -.211233 .608587 l -1.097525 1.097525 c -.06193 -.07121 -.123114 -.141337 -.183167 -.214187 l 1.491925 -1.491925 z m 44.190519 .02216 c -.07419 .20523 -.142069 .403486 -.206801 .604156 l -1.085708 1.085708 c -.062 -.07119 -.123037 -.141363 -.183166 -.214187 l 1.475675 -1.475677 z M 47.744387 44.7827 c -.41484 .620941 -.887313 1.199524 -1.419545 1.719407 c -.01883 -.07368 -.04515 -.160122 -.06499 -.236345 L 47.744391 44.7827 Z m 44.181659 .03102 c -.410059 .609226 -.878347 1.177064 -1.401822 1.688387 c -.01808 -.07065 -.04158 -.15301 -.06056 -.226005 L 91.92605 44.81372 Z m -60.108327 .242254 c -.06068 .19707 -.12275 .391894 -.175781 .580521 l -.537684 .536207 C 31.03894 46.10335 30.972729 46.035483 30.90927 45.964417 l .908449 -.908449 z m 44.194952 .01773 c -.06041 .19702 -.122981 .392043 -.175782 .580522 l -.527343 .525867 c -.06557 -.0695 -.131273 -.13852 -.194985 -.209756 l .89811 -.896633 z m -44.443114 .831638 c -.05464 .201758 -.113397 .410211 -.161009 .59677 c -.07386 -.07214 -.139482 -.153242 -.211233 -.227482 l .372242 -.369288 z m 44.194952 .01625 c -.05283 .195643 -.11032 .399271 -.156578 .580521 c -.07161 -.06995 -.134218 -.148179 -.203847 -.220096 L 75.764509 45.92158 Z M 16.933922 50.459395 L 6.2600118 61.131828 c .0000324 -.145318 .014924 -.287441 .02068 -.431329 L 16.502593 50.481552 c .144296 -.0057 .285596 -.02216 .431329 -.02216 z m 44.199383 0 l .01182 0 l -10.685727 10.68425 l 0 -.01034 c 0 -.142069 .01668 -.278808 .02216 -.419511 L 60.713794 50.481552 c .140304 -.0054 .561172 -.02216 .419511 -.02216 z m -44.005876 .01034 c .128844 .0023 .254906 .0124 .382583 .0192 L 6.2880777 61.702009 C 6.281392 61.575146 6.2710975 61.44893 6.2688748 61.320903 L 17.127429 50.469735 Z m 44.211201 0 c .128811 .0024 .254939 .01375 .382582 .02068 L 50.490415 61.713826 c -.0068 -.126845 -.01832 -.253094 -.02068 -.381105 L 61.33863 50.469735 Z m -.825729 .02068 l -10.022486 10.018054 c .0082 -.14161 .0085 -.285361 .02216 -.42542 l 9.576386 -9.570477 c .139287 -.01348 .283123 -.01406 .423943 -.02216 z m -44.214155 .0015 l -10.0062368 10.003283 c .00836 -.141564 .00688 -.285413 .02068 -.425421 L 15.87628 50.51405 c .139238 -.01364 .281692 -.01389 .422466 -.02216 z m 1.400342 .0059 c .124744 .0088 .251687 .01204 .375196 .02511 L 6.3205751 62.273668 c -.013201 -.124507 -.01327 -.252379 -.022157 -.378152 L 17.699088 50.497801 Z m 44.2112 .0015 c .124782 .009 .251652 .01043 .375197 .02363 L 50.522912 62.284008 c -.01333 -.124546 -.01462 -.252338 -.02363 -.378152 l 11.41101 -11.406578 z m -2.054721 .04431 l -9.311975 9.307544 c .01892 -.158329 .04664 -.313634 .07238 -.469735 L 59.3814 50.616006 c .157337 -.02595 .314566 -.05337 .474166 -.07238 z m -44.215632 .0015 l -9.2942483 9.292772 c .019105 -.158207 .04498 -.313758 .070903 -.469734 l 8.7506563 -8.752134 c .15682 -.02606 .313615 -.05173 .472689 -.0709 z m 2.617517 .0044 c .113856 .01407 .227039 .03557 .339745 .05318 l -3.14486 3.141905 c -.826721 .389329 -1.512099 1.08721 -1.935071 1.936548 l -7.1169246 7.111016 c -.017685 -.113196 -.0376 -.22538 -.0517 -.339745 L 18.257452 50.549501 Z m 44.211199 .0015 c .113822 .01418 .225601 .03399 .338269 .0517 l -3.133042 3.133042 c -.843607 .39103 -1.5435 1.102038 -1.969046 1.969045 l -7.102153 7.096245 c -.01774 -.112829 -.039 -.224275 -.05318 -.338268 l 11.91915 -11.911765 z m -43.69715 .07829 c .114746 .01988 .232206 .02968 .345654 .05318 l -2.784434 2.784434 c -.182832 .03322 -.362281 .07471 -.536207 .135898 l 2.974987 -2.97351 z m 44.2112 0 c .114442 .01995 .231029 .03258 .344177 .05613 l -2.780003 2.778526 c -.182231 .03228 -.359773 .07436 -.533253 .13442 l 2.969079 -2.969078 z m -3.837644 .02068 l -8.493632 8.490678 c .03206 -.1702 .07225 -.336491 .112264 -.503709 l 7.880613 -7.874705 c .166373 -.03967 .331434 -.08045 .500755 -.112264 z m -44.214155 .003 l -8.4773831 8.472951 c .032387 -.170662 .073358 -.337531 .1137408 -.505186 l 7.8599333 -7.854024 c .16728 -.04019 .333439 -.08151 .503709 -.113741 z m 4.347262 .07238 c .108459 .02425 .214845 .0552 .32202 .08272 l -2.604222 2.601267 c -.01913 -.000325 -.03695 -.003 -.05613 -.003 c -.123235 0 -.244269 .0091 -.364856 .02216 l 2.70319 -2.703191 z m 44.209723 .003 c .108421 .02435 .214887 .05364 .32202 .08124 l -2.601268 2.59979 c -.02316 -.000477 -.04618 -.003 -.06942 -.003 c -.118374 0 -.235615 .0086 -.351563 .02068 l 2.700236 -2.698759 z m -5.130153 .106355 l 0 .0015 l -7.521665 7.520187 c .05045 -.188043 .09924 -.376079 .159532 -.55984 l 6.805246 -6.802292 c .182944 -.05994 .369701 -.109333 .556887 -.159532 z m -44.215632 .0044 l -7.5024617 7.500985 c .051038 -.188977 .1029854 -.37816 .1639639 -.562796 L 13.580784 51.00151 c .184282 -.06079 .372715 -.111601 .561318 -.162487 z m 5.608751 .0074 c .107304 .02924 .217578 .05026 .323497 .08272 l -2.536272 2.536272 c -.119012 -.02158 -.239819 -.03569 -.361903 -.04431 l 2.574678 -2.574679 z m 44.209723 .003 c .107268 .02934 .217622 .04868 .323497 .08124 l -2.534795 2.536272 c -.118583 -.0219 -.23877 -.03675 -.360425 -.04579 l 2.571723 -2.571725 z m -43.735557 .1313 c .09997 .03229 .195309 .0727 .293954 .107832 l -2.499343 2.497867 c -.102164 -.03397 -.204916 -.0671 -.310202 -.09158 l 2.515591 -2.514115 z m 44.209724 .0015 c .09993 .03238 .195348 .07262 .293953 .107832 l -2.499343 2.497867 c -.101727 -.0341 -.205362 -.06688 -.310202 -.09158 l 2.515592 -2.514115 z m -6.951484 .128512 l -6.369486 6.365054 c .08116 -.222851 .164693 -.44322 .259979 -.65881 l 5.447742 -5.446265 c .21631 -.09547 .438154 -.178722 .661765 -.259979 z m -44.218586 .0074 l -6.3443736 6.338465 c .082153 -.224116 .1664752 -.446411 .2629333 -.663242 L 12.597 51.381138 c .21787 -.09681 .442357 -.18056 .667673 -.262933 z m 7.400539 .02216 c .09726 .03626 .196588 .06885 .292475 .107833 l -2.508206 2.508206 c -.09189 -.04424 -.186906 -.08031 -.282136 -.116695 l 2.497867 -2.499344 z m 44.209723 .0044 c .09745 .03642 .196408 .0672 .292476 .106355 L 62.65625 53.76084 c -.09162 -.04436 -.1857 -.08161 -.280659 -.118172 l 2.499344 -2.497866 z m -43.763624 .162487 c .09013 .03827 .17558 .0849 .264411 .125558 l -2.54218 2.540703 c -.08066 -.0511 -.164157 -.09698 -.248162 -.141806 l 2.525931 -2.524455 z m 44.208246 .003 c .09009 .03835 .17562 .0863 .264411 .127036 l -2.543658 2.54218 c -.08041 -.0512 -.162923 -.09981 -.246684 -.144761 l 2.525931 -2.524455 z m -43.809414 .189076 c .09076 .04311 .182473 .08294 .271796 .128512 l -2.596836 2.596836 c -.07505 -.05987 -.151616 -.115748 -.230435 -.169873 l 2.555475 -2.555475 z m 44.208246 .003 c .09055 .0431 .182684 .08443 .271796 .129989 l -2.598313 2.598313 c -.07491 -.06002 -.151748 -.11706 -.230435 -.171349 l 2.556952 -2.556953 z m -9.285386 .05613 l -4.874606 4.873129 c .152902 -.311418 .319315 -.612159 .500755 -.905495 l 3.469833 -3.468356 c .292456 -.18077 .5936 -.346867 .904018 -.499278 z m -44.224495 .01034 l -4.839154 4.840631 C 7.5246076 56.09533 7.6931477 55.790892 7.8774947 55.495109 l 3.4196103 -3.418133 c .295071 -.183801 .597908 -.353287 .911403 -.508141 z m 9.710807 .124081 c .08762 .04628 .172351 .09761 .258502 .146238 l -2.672171 2.670693 C 19.437726 54.443107 19.367873 54.37801 19.29589 54.31634 l 2.623425 -2.623424 z m 44.206769 .0059 c .08774 .04644 .173719 .09449 .259979 .143283 l -2.675126 2.673648 c -.06778 -.06687 -.136422 -.131688 -.208278 -.193507 l 2.623425 -2.623424 z m -43.828618 .21271 c .08557 .0498 .170043 .101532 .25407 .153624 l -2.757845 2.756368 c -.06159 -.07386 -.12594 -.146404 -.19203 -.215665 l 2.695805 -2.694327 z m 44.206769 .0044 c .08552 .04987 .170087 .101466 .25407 .153624 l -2.7608 2.759323 c -.06151 -.07402 -.123093 -.14772 -.189076 -.217142 l 2.695806 -2.695805 z M 22.678571 52.14193 c .08186 .05234 .166379 .09913 .246685 .153624 l -2.873063 2.871586 c -.05418 -.07985 -.107869 -.159085 -.166918 -.234867 l 2.793296 -2.790343 z m 44.206769 .0044 c .08182 .0524 .167893 .09906 .248162 .153624 l -2.876018 2.87454 c -.05408 -.08001 -.107978 -.160396 -.166918 -.236344 l 2.794774 -2.79182 z m -43.844866 .234868 c .07823 .05463 .152287 .113213 .228959 .169872 l -2.989759 2.989758 c -.04678 -.08619 -.0926 -.172993 -.14476 -.255547 l 2.90556 -2.904083 z m 44.206769 .0044 c .07811 .05465 .152402 .114679 .228959 .171349 l -2.991236 2.991236 c -.04659 -.08616 -.09277 -.172902 -.144761 -.255547 l 2.907038 -2.907038 z m -12.276622 .03841 l -2.54218 2.539226 c .697775 -.983446 1.558139 -1.842234 2.54218 -2.539226 z m -44.249606 .03545 l -2.4565061 2.455029 c .6796874 -.94655 1.5093755 -1.776095 2.4565061 -2.455029 z m 12.669544 .183168 c .07397 .0563 .152093 .108746 .224527 .166918 l -3.13895 3.137473 c -.03803 -.09112 -.07877 -.182353 -.122604 -.270319 l 3.037027 -3.034072 z m 44.208246 .0044 c .07386 .05631 .149255 .110219 .221573 .168395 l -3.138951 3.138951 c -.03781 -.09098 -.08052 -.180953 -.124081 -.268842 l 3.041459 -3.038504 z m -43.869977 .248162 c .07284 .06012 .138565 .128557 .209756 .190552 l -3.301439 3.299961 c -.02986 -.100415 -.06663 -.197877 -.103401 -.295431 l 3.195084 -3.195082 z m 44.206768 .0059 c .07279 .06017 .138619 .128501 .209756 .190552 l -3.305869 3.304392 c -.02964 -.100507 -.06685 -.197772 -.103401 -.295431 l 3.199514 -3.199513 z m -43.890657 .280658 c .07119 .0637 .141788 .127947 .211233 .193508 l -3.50824 3.505284 c -.0194 -.111777 -.04296 -.221671 -.0709 -.330882 l 3.36791 -3.36791 z m 44.206768 .0074 c .07115 .06377 .143301 .126394 .21271 .19203 l -3.515625 3.509716 c -.01918 -.112149 -.04165 -.222774 -.06943 -.332359 l 3.372341 -3.369387 z m -43.895089 .277705 c .06863 .06645 .137023 .132633 .203847 .200893 l -3.756401 3.754924 c -.0054 -.125613 -.01462 -.250256 -.03102 -.373721 l 3.583574 -3.582096 z m 44.206768 .0059 c .06857 .0665 .137079 .13258 .203847 .200893 l -3.760832 3.759355 c -.0049 -.12562 -.01641 -.25023 -.0325 -.37372 l 3.589482 -3.586528 z m -43.906907 .299861 c .06532 .06851 .127062 .139521 .190554 .209756 l -4.060695 4.059218 c .01491 -.141197 .02764 -.283098 .02807 -.426898 l 3.842075 -3.842076 z m 44.206769 .0059 c .06526 .06857 .12712 .139469 .190553 .209756 l -4.06808 4.066604 c .01541 -.141499 .0272 -.28423 .02806 -.428375 l 3.849462 -3.847985 z m -43.918723 .308725 c .06218 .07066 .128756 .137452 .189076 .209756 l -4.496456 4.494978 c .0493 -.168313 .08666 -.339141 .115218 -.51405 l 4.192162 -4.190684 z m 44.205291 .0059 c .06213 .07071 .130295 .137402 .190553 .209756 l -4.511226 4.509749 c .05056 -.169459 .09015 -.342248 .119649 -.518481 l 4.201024 -4.201024 z m -43.921678 .319065 c .0585 .07215 .110281 .150827 .166919 .224527 l -5.248326 5.245372 c .153521 -.245972 .288199 -.506499 .391445 -.781414 l 4.689962 -4.688485 z m 44.205291 .0074 c .05848 .0722 .110343 .15078 .166919 .224527 l -5.273438 5.27196 c .159389 -.250225 .299247 -.51681 .406218 -.797662 l 4.700301 -4.698825 z m -52.493599 .17139 c 1.324826 0 2.689523 1.450281 2.68842 3.007485 c -.0011 1.555718 -1.364662 3.007485 -2.68842 3.007485 c -1.323754 0 -2.695075 -1.451945 -2.695804 -3.007485 c -.000743 -1.55682 1.371093 -3.007485 2.695804 -3.007485 z m 44.199384 0 c 1.324825 0 2.691004 1.450282 2.689896 3.007485 c -.0012 1.555718 -1.366138 3.007485 -2.689896 3.007485 c -1.323755 0 -2.693598 -1.451944 -2.694328 -3.007485 c -.000743 -1.55682 1.369616 -3.007485 2.694328 -3.007485 z m -35.657006 .16101 c .05706 .07636 .11484 .152509 .169873 .230437 l -6.276425 6.273469 c -.09451 -.03869 -.187235 -.07946 -.28509 -.11374 l 6.391642 -6.390166 z m 44.205292 .0074 c .05693 .07635 .116426 .151053 .171349 .228959 l -6.273469 6.270516 c -.0944 -.03883 -.188826 -.07931 -.286569 -.113741 L 69.6875 54.759388 Z M 25.739233 55.09767 c .05474 .0798 .103968 .163859 .156578 .245208 l -6.10212 6.100643 c -.0897 -.04501 -.180277 -.08907 -.273273 -.12999 l 6.218815 -6.215861 z m 44.206769 .0059 c .0547 .0799 .102516 .163752 .155101 .245208 l -6.099166 6.099166 c -.08951 -.04511 -.179006 -.08897 -.271796 -.12999 l 6.215861 -6.214384 z m -43.976333 .358948 c .05268 .08387 .104714 .168641 .155102 .254071 l -5.93668 5.936679 c -.08612 -.05149 -.179392 -.09422 -.268842 -.141807 l 6.05042 -6.048943 z m 44.205291 .0074 c .0526 .08392 .104781 .168595 .155101 .25407 l -5.933725 5.933725 c -.08602 -.05161 -.179493 -.09409 -.268841 -.141807 L 70.17496 55.469918 Z M 26.201582 55.84216 c .0486 .08507 .09993 .167553 .146238 .254071 l -5.799304 5.796349 c -.07882 -.05492 -.157419 -.10941 -.239298 -.161009 l 5.892364 -5.889411 z m 44.203815 .0074 c .04864 .08524 .09993 .168856 .146238 .255548 l -5.79635 5.793395 c -.07872 -.05505 -.157519 -.109298 -.239299 -.16101 l 5.889411 -5.887933 z m -57.050618 .194985 c -.07274 .186615 -.129065 .379323 -.175781 .576089 l -6.6974132 6.69446 c -.023588 -.113663 -.033234 -.232158 -.053178 -.347132 l 6.9263712 -6.923417 z m 44.191998 .02068 c -.0715 .186033 -.128646 .377153 -.174304 .573135 l -6.688551 6.687074 c -.02363 -.113327 -.03465 -.231021 -.05466 -.345655 l 6.91751 -6.914554 z M 26.414292 56.23211 c .04589 .08871 .08507 .180166 .128513 .270319 l -5.648635 5.647157 c -.07431 -.05963 -.148687 -.11773 -.226004 -.174304 l 5.746126 -5.743172 z m 44.203815 .0074 c .04579 .08876 .08514 .1816 .128512 .271796 l -5.64568 5.644203 c -.07418 -.0597 -.148828 -.119129 -.226004 -.175781 l 5.743172 -5.740218 z m -44.007353 .40474 c .04124 .08892 .08819 .174176 .127035 .264411 l -5.515691 5.514213 c -.06839 -.06245 -.142977 -.118922 -.214187 -.178736 l 5.602843 -5.599888 z m 44.203814 .0074 c .04109 .08879 .08981 .174312 .128512 .26441 l -5.51569 5.512737 c -.06829 -.06253 -.14307 -.11883 -.214188 -.178736 l 5.601366 -5.598411 z m -57.688747 .224527 c -.02612 .150058 -.04338 .30129 -.05318 .454963 l -6.4655001 6.462546 c -.027488 -.106974 -.058492 -.212284 -.082721 -.320542 l 6.6013991 -6.596967 z m 44.196428 .01625 c -.02549 .149707 -.04246 .300229 -.0517 .453487 l -6.461069 6.458114 c -.02758 -.106934 -.0584 -.212322 -.08272 -.320542 l 6.595489 -6.591059 z M 26.798352 57.05193 c .03952 .09561 .07104 .195481 .107833 .292477 l -5.382748 5.378315 c -.0653 -.06741 -.131253 -.134523 -.199415 -.199416 l 5.47433 -5.471376 z m 44.203814 .0074 c .03954 .09587 .06956 .19669 .106355 .293953 l -5.379792 5.376838 c -.06521 -.0674 -.129872 -.135912 -.197939 -.200892 l 5.471376 -5.469899 z m -44.042804 .432806 c .03571 .09852 .07496 .195575 .107832 .295431 L 21.81296 63.04031 c -.06251 -.0724 -.125095 -.145496 -.190553 -.215665 l 5.336955 -5.332523 z m 44.203814 .0089 c .03564 .09856 .07504 .195537 .107832 .295431 l -5.252757 5.25128 c -.06244 -.07251 -.123681 -.146865 -.189075 -.217142 l 5.334 -5.329569 z m -58.100873 .03397 c -.000322 .02147 -.003 .042 -.003 .06352 c .000051 .109514 .01215 .216824 .02068 .324973 L 6.7312237 64.269302 C 6.6988791 64.163966 6.6761707 64.055469 6.647026 63.948759 l 6.415277 -6.413799 z m 44.197905 .01477 c -.000191 .01662 -.003 .03211 -.003 .04875 c .000055 .113594 .01298 .224672 .02216 .336791 l -6.345851 6.344373 c -.03244 -.105293 -.05496 -.215349 -.0842 -.322019 l 6.410845 -6.407891 z m -30.141313 .379628 c .03286 .104849 .05598 .212841 .08567 .319065 l -5.118336 5.118337 c -.05846 -.07566 -.123267 -.147844 -.184644 -.221574 l 5.217306 -5.215828 z m 44.203813 .0089 c .03273 .104875 .05461 .214295 .0842 .320543 l -5.11686 5.113905 c -.05836 -.07574 -.121875 -.146286 -.183167 -.220096 l 5.215828 -5.214352 z m -58.230862 .172827 c .01414 .114153 .03744 .224955 .06056 .336791 l -6.2660842 6.26313 c -.034575 -.09704 -.07601 -.189718 -.1078322 -.288045 l 6.3133534 -6.311876 z m 44.199383 .01182 c .01447 .114193 .04005 .226415 .06352 .338268 l -6.266084 6.260177 c -.03475 -.09722 -.07438 -.192485 -.106355 -.291 l 6.308922 -6.307445 z m -30.046777 .285091 c .02803 .10655 .05793 .211229 .08272 .319065 l -4.991301 4.988347 c -.05459 -.07877 -.109439 -.157729 -.166918 -.234867 l 5.075498 -5.072545 z m 44.203815 .0089 c .02791 .10659 .05654 .212667 .08124 .320542 l -4.988346 4.985393 c -.05433 -.07855 -.109736 -.156452 -.166919 -.23339 l 5.074022 -5.072545 z m -58.261883 .20237 c .0259 .103934 .05975 .204554 .09306 .30577 L 7.0502889 65.154116 C 7.0111699 65.058075 6.9788348 64.959062 6.9424567 64.86164 l 6.2439273 -6.24245 z m 44.20086 .01034 c .0261 .103607 .06255 .203404 .09601 .304294 l -6.229156 6.227678 c -.03905 -.09565 -.07298 -.193973 -.109309 -.290999 l 6.24245 -6.240973 z m -30.020188 .258502 c .02376 .111312 .04177 .224212 .06204 .336791 l -4.853926 4.852448 c -.05079 -.08161 -.09996 -.164917 -.153624 -.245207 l 4.945509 -4.944032 z m 44.202337 .01034 c .0237 .111613 .04032 .225383 .06056 .338268 l -4.850971 4.848017 c -.05074 -.08169 -.10003 -.163356 -.153624 -.24373 l 4.944032 -4.942555 z m -58.238248 .184644 c .03469 .09335 .07742 .182861 .118172 .273274 L 7.2319787 65.570674 C 7.1909404 65.48113 7.1450332 65.39417 7.1064207 65.303309 l 6.2247243 -6.220293 z m 44.202338 .0089 c .03492 .09328 .07721 .182951 .118172 .273273 l -6.215862 6.214384 c -.04113 -.08953 -.08686 -.176519 -.125558 -.267364 l 6.223248 -6.220293 z M 27.457162 59.40799 c .01831 .112819 .03546 .225758 .05022 .339745 l -4.707688 4.706211 c -.0094 -.01675 -.01712 -.03352 -.02659 -.05022 c -.03748 -.06615 -.08038 -.13095 -.119649 -.196462 l 4.803702 -4.799271 z m 44.200861 .01034 c .01813 .112464 .03562 .224646 .05022 .338268 l -4.704734 4.706211 c -.01095 -.0196 -.01995 -.03954 -.03102 -.05909 c -.03589 -.06334 -.07769 -.124838 -.115218 -.187599 l 4.800749 -4.797794 z m -58.146666 .07829 c .04366 .08855 .09254 .173406 .141807 .258502 L 7.4299173 65.975414 C 7.3849082 65.887289 7.342538 65.797575 7.2999278 65.708049 l 6.2114292 -6.21143 z m 44.203815 .0074 c .04387 .08848 .09234 .174965 .141807 .259979 l -6.223248 6.220293 c -.04508 -.08808 -.0873 -.177882 -.129989 -.267365 l 6.21143 -6.212907 z m -43.986673 .378151 c .05147 .08245 .104469 .162226 .16101 .240776 L 7.6352416 66.37426 c -.04899 -.08669 -.092239 -.176227 -.1388525 -.264411 l 6.2321099 -6.227678 z m 44.205291 .0074 c .05166 .08237 .104276 .162314 .16101 .240776 l -6.254267 6.251313 c -.04899 -.08653 -.09371 -.176394 -.140329 -.264411 l 6.233586 -6.227678 z m -30.399815 .03545 c .01362 .121192 .02148 .243935 .03102 .366334 l -4.555541 4.55554 c -.04437 -.0872 -.09205 -.17356 -.138853 -.259979 l 4.663374 -4.661895 z m 44.202336 .01034 c .01361 .121867 .02008 .244726 .02954 .367811 l -4.552587 4.552586 c -.0443 -.08722 -.09213 -.17353 -.138852 -.259979 l 4.661895 -4.660418 z m -57.762605 .298384 c .05888 .07657 .115188 .155307 .178736 .227482 L 7.8656775 66.743533 C 7.8141113 66.660416 7.7599019 66.579994 7.7105764 66.495372 l 6.2631296 -6.261654 z m 44.205292 .0074 c .05904 .07644 .116508 .153969 .180213 .226004 l -6.288242 6.28381 c -.05163 -.08307 -.105709 -.163585 -.155101 -.248162 l 6.26313 -6.261652 z m -30.603663 .242252 c .0077 .128247 .01603 .256096 .0192 .385538 l -4.388623 4.387145 c -.04283 -.09243 -.08316 -.185783 -.128512 -.277705 l 4.497932 -4.494978 z m 44.199383 .01182 c .0076 .128284 .01623 .256059 .0192 .385537 l -4.384192 4.384191 c -.04269 -.09227 -.08332 -.184461 -.128512 -.276228 l 4.493501 -4.4935 z m -57.521829 .06795 c .06479 .06881 .129012 .138315 .197938 .20237 l -1.131499 1.130022 c -.675549 .470936 -1.238369 1.057248 -1.703158 1.703158 l -3.5200566 3.518579 c -.054412 -.08025 -.099878 -.166467 -.1521468 -.248161 l 6.3089224 -6.305968 z m 44.206768 .0059 c .06494 .06866 .127398 .139952 .196461 .203848 l -1.096047 1.09457 c -.709732 .486502 -1.298295 1.101638 -1.778493 1.778493 l -3.480173 3.478696 c -.05448 -.08011 -.09981 -.166513 -.152147 -.248162 l 6.310399 -6.307445 z m -43.89952 .291 c .09999 .08668 .199951 .172021 .307247 .248161 c -.360043 .119853 -.692434 .276702 -1.008895 .452009 l .701648 -.70017 z m 44.205291 .0059 c .09779 .08438 .196599 .167926 .301339 .242252 c -.349142 .116225 -.671221 .268723 -.979353 .437238 l .678014 -.67949 z m -31.162027 .187597 c .000204 .02729 .0044 .05242 .0044 .07977 c 0 .114282 -.01417 .224874 -.01772 .338268 l -4.201025 4.201024 c -.04018 -.09497 -.07846 -.190281 -.121126 -.285091 l 4.335445 -4.333968 z m 44.20086 .01182 c .000148 .02323 .0044 .04468 .0044 .06795 c 0 .11878 -.01537 .233742 -.0192 .351562 L 67.59142 65.68146 C 67.55126 65.5864 67.51293 65.492753 67.470293 65.397847 l 4.333968 -4.332491 z M 27.579766 61.68576 c -.0072 .141019 -.0095 .284454 -.02216 .423943 l -4.000132 3.997177 c -.03732 -.09657 -.07255 -.191229 -.112263 -.288044 l 4.134552 -4.133076 z m 44.199383 .01329 c -.0073 .140971 -.0093 .284504 -.02216 .423943 L 67.759815 66.11722 C 67.722559 66.0207 67.6872 65.924474 67.647551 65.827698 l 4.131598 -4.128643 z M 16.93983 61.947216 c 2.463101 0 3.854415 1.31244 4.827338 3.029642 c .866754 1.529814 1.308091 3.321236 1.642594 4.63383 c -1.795977 1.372748 -4.0356 2.198002 -6.47584 2.198002 c -2.440027 0 -4.678465 -.82547 -6.474363 -2.198002 c .335201 -1.312321 .778829 -3.104001 1.647026 -4.63383 c .97458 -1.717289 2.370148 -3.029642 4.833245 -3.029642 z m 44.199384 0 c 2.463099 0 3.854415 1.31244 4.827337 3.029642 c .866718 1.529752 1.306623 3.321247 1.641117 4.63383 c -1.795898 1.372531 -4.034337 2.198002 -6.474363 2.198002 c -2.440241 0 -4.679863 -.825252 -6.475841 -2.198002 c .335206 -1.312333 .780272 -3.103938 1.648504 -4.63383 c .97458 -1.717289 2.370148 -3.029642 4.833246 -3.029642 z m -33.602285 .385538 c -.01785 .159699 -.04757 .315236 -.07238 .472689 l -3.738675 3.737198 c -.03391 -.09555 -.07468 -.19332 -.110787 -.289523 l 3.921843 -3.920364 z m 44.197905 .01477 c -.01807 .159694 -.04883 .315248 -.07386 .472689 l -3.73129 3.729812 c -.03378 -.09527 -.07629 -.190631 -.112263 -.286568 l 3.91741 -3.915933 z m -44.308691 .701648 c -.03008 .165816 -.06281 .330353 -.100447 .493369 l -3.449153 3.447676 c -.03289 -.100825 -.05934 -.196311 -.09454 -.298385 l 3.644138 -3.64266 z m 44.197905 .01477 c -.03051 .166771 -.06379 .330915 -.101924 .494845 l -3.441767 3.440291 c -.03286 -.100783 -.05936 -.196344 -.09454 -.298385 l 3.638229 -3.636751 z m -44.370733 .756302 c -.04674 .179958 -.08605 .363064 -.141806 .539161 l -3.090205 3.090205 c -.03009 -.0998 -.06229 -.201191 -.09454 -.302817 l 3.326549 -3.326549 z m 44.194952 .01773 c -.04734 .180901 -.08686 .363653 -.143284 .540638 l -3.079865 3.081342 c -.03007 -.09974 -.0638 -.202719 -.09601 -.304294 l 3.319164 -3.317686 z m -60.227974 .358948 c -.04133 .06866 -.0862 .137443 -.125558 .206802 c -.124147 .218756 -.237339 .440972 -.345654 .664718 L 8.3531382 67.464384 C 8.2967476 67.388123 8.2347006 67.316178 8.1803112 67.23838 l 3.0399818 -3.041459 z m 44.178703 .03397 c -.03427 .05748 -.07199 .11487 -.104878 .172828 c -.128573 .226554 -.245899 .456514 -.357471 .688353 l -2.378218 2.378217 c -.05645 -.07622 -.118377 -.148252 -.172826 -.226005 l 3.013393 -3.013393 z m -28.40566 .446101 c -.07656 .217248 -.150812 .436493 -.240775 .646993 l -2.590927 2.58945 c -.02913 -.103758 -.06171 -.206645 -.09306 -.313157 l 2.924763 -2.923286 z m 44.193475 .0192 c -.07697 .217054 -.15042 .436702 -.240777 .646993 l -2.582063 2.580587 c -.02927 -.10423 -.06006 -.207606 -.09158 -.314634 l 2.914424 -2.912946 z m -60.617943 .760734 c -.09663 .217714 -.175905 .432612 -.259979 .649947 l -1.6957718 1.69725 C 8.5546972 67.731374 8.4983027 67.65537 8.4417673 67.581073 l 2.1271007 -2.124146 z m 44.187565 .02511 c -.09551 .216532 -.173897 .430949 -.257024 .646994 l -1.682478 1.682477 c -.05852 -.07276 -.111756 -.150217 -.168395 -.224527 l 2.107897 -2.104944 z M 26.57087 65.70214 c -.139544 .293688 -.291611 .580105 -.45644 .858226 l -1.825762 1.825762 c -.02767 -.104745 -.05583 -.208949 -.08567 -.317588 l 2.367876 -2.3664 z m 44.187566 .02363 c -.141722 .296326 -.29486 .585226 -.462348 .865612 l -1.805082 1.805081 c -.0276 -.104618 -.05586 -.209059 -.08567 -.317588 l 2.353105 -2.353105 z m -60.578059 .716419 c -.07447 .205707 -.143311 .404503 -.2082786 .605633 l -1.0871849 1.087185 c -.062002 -.07118 -.1230378 -.14284 -.1831672 -.215665 l 1.4786307 -1.477153 z m 44.19052 .02068 c -.07384 .205069 -.140889 .403732 -.205325 .604156 l -1.07389 1.07389 c -.06203 -.0711 -.124486 -.141446 -.184644 -.214187 l 1.463859 -1.463859 z m -28.578486 .618928 c -.410062 .609222 -.876861 1.177061 -1.400342 1.688385 c -.01813 -.07094 -.0415 -.154186 -.06056 -.227481 l 1.460905 -1.460904 z m 44.18018 .0325 c -.404988 .597027 -.866816 1.153509 -1.381139 1.655888 c -.01733 -.06794 -.03942 -.14852 -.05761 -.218618 l 1.438748 -1.43727 z M 9.8790376 67.340303 c -.060459 .196952 -.1229475 .392098 -.1757813 .580521 l -.5258662 .527344 c -.06558 -.0695 -.1312722 -.138519 -.1949846 -.209756 l .8966321 -.898109 z m 44.1934744 .0192 c -.06019 .196896 -.120223 .390772 -.172827 .579044 l -.518481 .515527 c -.06543 -.06925 -.128444 -.138775 -.19203 -.209756 l .883338 -.884815 z m -44.4416361 .83016 c -.052866 .195639 -.1088418 .399251 -.155101 .580521 c -.071614 -.06995 -.1356936 -.148177 -.2053248 -.220095 l .3604258 -.360426 z m 44.1964281 .01477 c -.05121 .190058 -.107128 .389342 -.152146 .565749 c -.06977 -.06815 -.131525 -.144166 -.199416 -.214187 l .351562 -.351562 z m -14.960609 4.187732 l -10.67391 10.67243 c .000033 -.14532 .01492 -.28744 .02068 -.43133 l 10.221901 -10.21894 c .144296 -.006 .285597 -.0222 .431329 -.0222 z m 44.199381 0 l .01182 0 l -10.685729 10.68425 l 0 -.0103 c 0 -.14208 .01668 -.27881 .02216 -.41951 L 82.64657 72.41433 c .140309 -.005 .561169 -.0222 .419506 -.0222 z m -44.005874 .0103 c .128844 .002 .254906 .0124 .382583 .0192 l -11.221934 11.21307 c -.0067 -.12686 -.01698 -.25308 -.0192 -.3811 l 10.858554 -10.85117 z m 44.211202 0 c .128814 .002 .254942 .0137 .382583 .0207 L 72.423188 83.6466 c -.0068 -.12684 -.01832 -.25309 -.02068 -.3811 L 83.271404 72.40251 Z m -.825731 .0207 l -10.022485 10.01805 c .0082 -.14161 .0085 -.28537 .02216 -.42542 l 9.576383 -9.57047 c .139288 -.0135 .283122 -.0141 .423945 -.0222 z m -44.214154 .001 l -10.006237 10.00328 c .0084 -.14157 .0069 -.28542 .02068 -.42542 l 9.563091 -9.55571 c .139238 -.0136 .281692 -.0139 .422466 -.0221 z m 1.400342 .006 c .124744 .009 .251687 .012 .375196 .0251 l -11.753709 11.75075 c -.0132 -.1245 -.01327 -.25237 -.02216 -.37815 l 11.40067 -11.39772 z m 44.211202 .001 c .124782 .009 .251652 .0104 .375194 .0236 l -11.762572 11.76109 c -.01333 -.12455 -.01462 -.25234 -.02363 -.37815 l 11.411012 -11.40658 z m -2.054723 .0443 l -9.311974 9.30754 c .01892 -.15833 .04663 -.31363 .07238 -.46973 l 8.76543 -8.76543 c .157334 -.0259 .314562 -.0534 .474164 -.0724 z m -44.215632 .001 l -9.294248 9.29277 c .0191 -.15821 .04498 -.31375 .0709 -.46973 l 8.750656 -8.75213 c .15682 -.0261 .313615 -.0517 .472689 -.0709 z m 2.617517 .004 c .113856 .0141 .227039 .0356 .339745 .0532 l -3.14486 3.14191 c -.826722 .38933 -1.512099 1.08721 -1.93507 1.93655 l -7.116926 7.11101 c -.01768 -.1132 -.0376 -.22539 -.0517 -.33975 l 11.908811 -11.9029 z m 44.211201 .001 c .113824 .0142 .225598 .034 .338264 .0517 l -3.133036 3.13304 c -.84361 .39103 -1.543508 1.10204 -1.969049 1.96905 l -7.102153 7.09624 c -.01774 -.11283 -.039 -.22426 -.05318 -.33826 l 11.919152 -11.91177 z m -43.697152 .0783 c .114747 .0199 .232206 .0297 .345654 .0532 l -2.784434 2.78443 c -.182832 .0332 -.362281 .0747 -.536207 .1359 l 2.974987 -2.97351 z m 44.211203 0 c .114444 .02 .23102 .0326 .344171 .0561 l -2.780002 2.77853 c -.182231 .0323 -.359773 .0744 -.533254 .13442 l 2.969085 -2.96908 z m -3.837645 .0207 l -8.493634 8.49068 c .03206 -.1702 .07225 -.33649 .112264 -.50371 l 7.880614 -7.87471 c .166372 -.0397 .331435 -.0804 .500756 -.11226 z m -44.214157 .003 l -8.477383 8.47296 c .03238 -.17066 .07336 -.33753 .113741 -.50519 l 7.859933 -7.85402 c .167281 -.0402 .333439 -.0815 .503709 -.11375 z m 4.347262 .0724 c .108459 .0242 .214845 .0552 .32202 .0827 l -2.604222 2.60126 c -.01913 -.00032 -.03695 -.003 -.05613 -.003 c -.123235 0 -.244269 .009 -.364856 .0222 l 2.70319 -2.70319 z m 44.20972 .003 c .108424 .0243 .214896 .0536 .322026 .0812 l -2.601272 2.59979 c -.02314 -.00047 -.04613 -.003 -.06942 -.003 c -.118369 0 -.235619 .009 -.351567 .0207 l 2.700234 -2.69876 z m -5.130151 .10636 l 0 .001 l -7.521664 7.52019 c .05045 -.18805 .09924 -.37609 .159532 -.55984 l 6.805244 -6.80229 c .182942 -.06 .369703 -.10934 .556888 -.15953 z m -44.21563 .004 l -7.502462 7.50098 c .05104 -.18898 .102985 -.37816 .163964 -.5628 l 6.777179 -6.7757 c .184282 -.0608 .372715 -.1116 .561319 -.16248 z m 5.60875 .007 c .107304 .0292 .217578 .0503 .323497 .0827 l -2.536272 2.53627 c -.119012 -.0216 -.239818 -.0357 -.361903 -.0443 l 2.574678 -2.57468 z m 44.20972 .003 c .107267 .0293 .217626 .0487 .323501 .0812 l -2.534793 2.53627 c -.118581 -.0219 -.23878 -.0367 -.360431 -.0458 l 2.571723 -2.57172 z m -43.735553 .13146 c .09997 .0323 .195308 .0727 .293953 .10784 l -2.499343 2.49786 c -.102164 -.034 -.204916 -.0671 -.310202 -.0916 l 2.515592 -2.51412 z m 44.209725 .001 c .09993 .0324 .195345 .0726 .293952 .10783 l -2.499346 2.49787 c -.101722 -.0341 -.205358 -.0669 -.310197 -.0916 l 2.515591 -2.51412 z m -6.951487 .12851 l -6.369484 6.36506 c .08116 -.22285 .164692 -.44322 .259979 -.65882 l 5.44774 -5.44626 c .21631 -.0955 .438157 -.17872 .661765 -.25998 z m -44.218585 .007 l -6.344374 6.33847 c .08215 -.22412 .166476 -.44642 .262934 -.66325 l 5.413767 -5.41229 c .21787 -.0968 .442357 -.18056 .667673 -.26293 z m 7.400539 .0222 c .09726 .0363 .196588 .0689 .292476 .10783 l -2.508207 2.5082 c -.09189 -.0442 -.186905 -.0803 -.282136 -.11669 l 2.497867 -2.49934 z m 44.209723 .004 c .09744 .0364 .196412 .0672 .292478 .10635 l -2.511159 2.50969 c -.09162 -.0444 -.185703 -.0816 -.280664 -.11818 l 2.499345 -2.49786 z m -43.763623 .16248 c .09013 .0383 .175579 .0849 .26441 .12556 l -2.54218 2.54071 c -.08066 -.0511 -.164157 -.097 -.248162 -.14181 l 2.525932 -2.52446 z m 44.208246 .003 c .09009 .0384 .175621 .0863 .264411 .12703 l -2.543657 2.54218 c -.08042 -.0512 -.162923 -.0998 -.246683 -.14476 l 2.525929 -2.52445 z m -43.809415 .18907 c .09076 .0431 .182473 .0829 .271796 .12852 l -2.596835 2.59683 c -.07505 -.0599 -.151616 -.11575 -.230436 -.16987 l 2.555475 -2.55548 z m 44.208244 .003 c .09055 .0431 .182685 .0844 .2718 .12999 l -2.598315 2.59831 c -.07495 -.0601 -.151753 -.11706 -.230438 -.17135 l 2.556953 -2.55695 z m -9.285384 .0561 l -4.874606 4.87313 c .152902 -.31141 .319315 -.61216 .500755 -.9055 l 3.469836 -3.46835 c .292454 -.18077 .593599 -.34687 .904015 -.49928 z m -44.224494 .0103 l -4.839155 4.84063 c .155254 -.31414 .323794 -.61857 .508141 -.91436 l 3.41961 -3.41813 c .295071 -.1838 .597909 -.35329 .911404 -.50814 z m 9.710806 .12408 c .08762 .0463 .172351 .0976 .258502 .14624 l -2.672171 2.67069 c -.06792 -.0667 -.137773 -.13184 -.209755 -.1935 l 2.623424 -2.62343 z m 44.206772 .006 c .08774 .0464 .173715 .0945 .259979 .14328 l -2.675126 2.67365 c -.06776 -.0669 -.136421 -.13169 -.208278 -.19351 l 2.623425 -2.62342 z m -43.828621 .21271 c .08557 .0498 .170043 .10153 .25407 .15362 l -2.757845 2.75637 c -.06159 -.0739 -.12594 -.1464 -.19203 -.21566 l 2.695805 -2.69433 z m 44.206772 .004 c .08552 .0499 .170085 .10147 .254065 .15362 l -2.7608 2.75933 c -.06149 -.074 -.123088 -.14772 -.189075 -.21714 l 2.69581 -2.69581 z m -43.825666 .22601 c .08185 .0523 .166379 .0991 .246684 .15362 l -2.873063 2.87158 c -.05418 -.0799 -.107869 -.15908 -.166918 -.23487 l 2.793297 -2.79033 z m 44.206767 .004 c .08182 .0524 .167891 .0991 .248165 .15362 l -2.876022 2.87454 c -.05407 -.08 -.107977 -.16039 -.166916 -.23634 l 2.794773 -2.79182 z m -43.844865 .23486 c .07823 .0546 .152287 .11322 .228959 .16988 l -2.989759 2.98975 c -.04678 -.0862 -.0926 -.17299 -.14476 -.25554 l 2.90556 -2.90409 z m 44.206771 .004 c .07812 .0546 .152395 .11467 .228955 .17135 l -2.991237 2.99123 c -.04659 -.0861 -.09277 -.1729 -.144756 -.25554 l 2.907038 -2.90704 z m -12.276621 .0384 l -2.542183 2.53923 c .697775 -.98345 1.558138 -1.84224 2.542183 -2.53923 z m -44.249609 .0354 l -2.456506 2.45503 c .679687 -.94655 1.509375 -1.77609 2.456506 -2.45503 z m 12.669544 .18317 c .07397 .0563 .152093 .10875 .224528 .16692 l -3.138951 3.13747 c -.03803 -.0911 -.07877 -.18235 -.122604 -.27032 l 3.037027 -3.03407 z m 44.208245 .004 c .07389 .0563 .149257 .11022 .221574 .1684 l -3.13895 3.13895 c -.03781 -.091 -.08052 -.18095 -.124079 -.26884 l 3.041455 -3.03851 z m -43.869976 .24816 c .07284 .0601 .138565 .12856 .209756 .19056 l -3.301439 3.29996 c -.02986 -.10042 -.06663 -.19788 -.103401 -.29544 l 3.195084 -3.19508 z m 44.206765 .006 c .07276 .0602 .138623 .1285 .209761 .19056 l -3.305874 3.30439 c -.02965 -.10051 -.06685 -.19778 -.103394 -.29543 l 3.199507 -3.19952 z m -43.890654 .28066 c .07119 .0637 .141788 .12795 .211233 .19351 l -3.50824 3.50529 c -.0194 -.11178 -.04296 -.22168 -.0709 -.33089 l 3.36791 -3.36791 z m 44.206766 .007 c .07117 .0638 .143297 .12639 .21271 .19203 l -3.515627 3.50971 c -.01921 -.11215 -.04166 -.22276 -.06942 -.33235 l 3.372338 -3.36939 z m -43.895087 .2777 c .06863 .0665 .137023 .13264 .203847 .20089 l -3.756401 3.75493 c -.0054 -.12562 -.01462 -.25026 -.03102 -.37372 l 3.583574 -3.5821 z m 44.206767 .006 c .0686 .0665 .13708 .13258 .203846 .20089 l -3.760828 3.75936 c -.0045 -.12563 -.01639 -.25024 -.0325 -.37372 l 3.58948 -3.58653 z m -43.906905 .29986 c .06532 .0685 .127062 .13952 .190553 .20976 l -4.060695 4.05921 c .01491 -.14119 .02764 -.2831 .02807 -.42689 l 3.842076 -3.84208 z m 44.206771 .006 c .06527 .0686 .12712 .13947 .190551 .20976 l -4.068083 4.0666 c .01543 -.1415 .02723 -.28423 .02807 -.42838 l 3.849466 -3.84798 z m -43.918726 .30873 c .06218 .0707 .128756 .13744 .189076 .20975 l -4.496456 4.49498 c .0493 -.16832 .08666 -.33914 .115219 -.51405 l 4.192161 -4.19068 z m 44.205289 .006 c .06209 .0707 .130304 .13741 .190558 .20976 l -4.511231 4.50975 c .05052 -.16947 .09016 -.34224 .119647 -.51848 l 4.201026 -4.20103 z m -43.921676 .31907 c .0585 .0722 .110281 .15083 .166919 .22453 l -5.248326 5.24537 c .153521 -.24597 .2882 -.5065 .391445 -.78142 l 4.689962 -4.68848 z m 44.20529 .007 c .05846 .0722 .110344 .15078 .166923 .22452 l -5.27344 5.27197 c .159391 -.25023 .299254 -.51534 .406218 -.79619 l 4.700299 -4.7003 z m -52.493598 .17282 c 1.324826 0 2.689523 1.44881 2.68842 3.00601 c -.0011 1.55572 -1.364662 3.00749 -2.68842 3.00749 c -1.323754 0 -2.695075 -1.45195 -2.695804 -3.00749 c -.000743 -1.55682 1.371093 -3.00601 2.695804 -3.00601 z m 44.199387 0 c 1.324823 0 2.691 1.44881 2.689896 3.00601 c -.0015 1.55572 -1.36614 3.00749 -2.689896 3.00749 c -1.323756 0 -2.693594 -1.45195 -2.694328 -3.00749 c -.000741 -1.55682 1.369611 -3.00601 2.694328 -3.00601 z m -35.657009 .16101 c .05706 .0764 .11484 .15103 .169874 .22896 l -6.276426 6.27347 c -.09451 -.0387 -.187235 -.0795 -.28509 -.11374 l 6.391642 -6.38869 z m 44.205292 .007 c .05695 .0763 .116418 .14957 .171348 .22748 l -6.273469 6.27199 c -.0944 -.0388 -.188826 -.0793 -.28657 -.11374 l 6.388691 -6.38573 z m -43.948267 .33827 c .05474 .0798 .103968 .16238 .156578 .24372 l -6.10212 6.10065 c -.08971 -.045 -.180277 -.0876 -.273273 -.12851 l 6.218815 -6.21586 z m 44.206771 .006 c .05468 .0799 .10251 .16375 .155095 .2452 l -6.099164 6.09769 c -.08951 -.0451 -.179001 -.089 -.271792 -.12999 l 6.215861 -6.2129 z m -43.976335 .35894 c .05268 .0839 .104714 .16864 .155102 .25408 l -5.93668 5.93668 c -.08612 -.0515 -.179391 -.0957 -.268842 -.14329 l 6.05042 -6.04747 z m 44.205291 .007 c .05256 .0839 .104785 .1686 .155102 .25407 l -5.933722 5.93373 c -.08602 -.0516 -.179501 -.0956 -.268843 -.14329 l 6.047463 -6.04451 z m -43.973378 .37224 c .0486 .0851 .09993 .16756 .146238 .25407 l -5.799303 5.79635 c -.07882 -.0558 -.15742 -.11088 -.239299 -.16248 l 5.892364 -5.88794 z m 44.203816 .007 c .04863 .0852 .09994 .16885 .146238 .25555 l -5.796348 5.79339 c -.07872 -.0551 -.157522 -.11077 -.239301 -.16249 l 5.889411 -5.88645 z m -57.050618 .19498 c -.07274 .18662 -.129066 .37932 -.175782 .57609 l -6.697413 6.69446 c -.02359 -.11367 -.03323 -.23216 -.05318 -.34713 l 6.926372 -6.92342 z m 44.192 .0207 c -.07147 .18603 -.128647 .37716 -.174305 .57314 l -6.688553 6.68559 c -.02363 -.11332 -.03465 -.23102 -.05466 -.34565 l 6.917513 -6.91308 z m -31.132488 .16692 c .04588 .0887 .08507 .18017 .128513 .27032 l -5.648635 5.64716 c -.07431 -.0596 -.148687 -.11773 -.226004 -.17431 l 5.746126 -5.74317 z m 44.203816 .007 c .04583 .0888 .08514 .18161 .128511 .2718 l -5.645678 5.64421 c -.07419 -.0597 -.148832 -.11914 -.226006 -.17578 l 5.743173 -5.74023 z m -44.007354 .40475 c .04124 .0889 .08819 .17417 .127035 .26441 l -5.51569 5.51421 c -.06839 -.0625 -.142978 -.11892 -.214188 -.17873 l 5.602843 -5.59989 z m 44.203811 .007 c .04107 .0888 .08981 .1743 .128518 .2644 l -5.515691 5.51274 c -.06829 -.0626 -.143078 -.11884 -.214193 -.17874 l 5.601366 -5.5984 z m -57.688744 .22452 c -.02611 .15006 -.04338 .30129 -.05318 .45496 l -6.4655 6.46255 c -.02749 -.10698 -.05849 -.21228 -.08272 -.32054 l 6.601399 -6.59697 z m 44.196428 .0148 c -.02549 .14971 -.04247 .3017 -.0517 .45496 l -6.461068 6.45812 c -.02758 -.10693 -.0584 -.21232 -.08272 -.32054 l 6.595489 -6.59254 z m -30.523896 .15953 c .03952 .0956 .07103 .19549 .107832 .29248 l -5.382748 5.37979 c -.0653 -.0674 -.131253 -.13452 -.199415 -.19941 l 5.474331 -5.47286 z m 44.203813 .009 c .03955 .0959 .06959 .19668 .106358 .29395 l -5.379791 5.37683 c -.0652 -.0674 -.129872 -.1359 -.19794 -.20088 l 5.471373 -5.4699 z m -44.042804 .4328 c .03571 .0985 .07496 .19558 .107832 .29543 l -5.254234 5.25128 c -.06251 -.0724 -.125095 -.14403 -.190553 -.21419 l 5.336955 -5.33252 z m 44.203813 .009 c .03562 .0986 .07504 .19406 .107834 .29396 l -5.252756 5.25128 c -.06247 -.0725 -.123686 -.14539 -.189076 -.21566 l 5.333998 -5.32958 z m -58.100872 .034 c -.000322 .0215 -.003 .042 -.003 .0635 c .000051 .10951 .01215 .21683 .02068 .32497 l -6.348806 6.34585 c -.03235 -.10533 -.05505 -.21383 -.0842 -.32054 l 6.415277 -6.4138 z m 44.197906 .0133 c -.000189 .0166 -.003 .0336 -.003 .0502 c .000053 .1136 .01293 .22467 .02216 .33679 l -6.345851 6.34437 c -.03244 -.10529 -.05496 -.21535 -.0842 -.32202 l 6.410846 -6.40937 z m -30.141314 .37964 c .03286 .10484 .05598 .2143 .08567 .32053 l -5.118336 5.11687 c -.05846 -.0757 -.123267 -.14637 -.184644 -.2201 l 5.217306 -5.2173 z m 44.203814 .0103 c .03275 .10488 .05457 .2143 .0842 .32055 l -5.116864 5.1139 c -.05839 -.0757 -.12187 -.14629 -.183161 -.22009 l 5.215825 -5.21436 z m -58.230863 .17283 c .01414 .11415 .03744 .22495 .06056 .33679 l -6.266085 6.26313 c -.03458 -.097 -.07601 -.1912 -.107833 -.28952 l 6.313354 -6.3104 z m 44.199379 .0118 c .01445 .11419 .04008 .22493 .06352 .33679 l -6.266085 6.26165 c -.03474 -.0972 -.07438 -.19248 -.106355 -.291 l 6.308918 -6.30744 z m -30.046773 .28361 c .02803 .10656 .05793 .2127 .08272 .32055 l -4.991301 4.98834 c -.05459 -.0788 -.109439 -.15773 -.166918 -.23487 l 5.075498 -5.07402 z m 44.203819 .0103 c .02791 .10659 .05653 .21267 .08124 .32054 l -4.988352 4.98539 c -.0543 -.0785 -.109732 -.15645 -.166916 -.23339 l 5.074026 -5.07254 z m -58.261887 .20237 c .0259 .10393 .05975 .20455 .09306 .30577 l -6.229156 6.22768 c -.03912 -.096 -.07145 -.19506 -.107833 -.29248 l 6.243928 -6.24097 z m 44.200861 .0103 c .02609 .10361 .06255 .2034 .09601 .30429 l -6.229155 6.22768 c -.03906 -.0956 -.07297 -.19397 -.109309 -.291 l 6.242451 -6.24097 z m -30.020189 .2585 c .02376 .11132 .04177 .22421 .06204 .33679 l -4.853926 4.85245 c -.05079 -.0816 -.09996 -.16491 -.153624 -.2452 l 4.945509 -4.94404 z m 44.202337 .0103 c .02367 .11162 .04037 .22538 .06056 .33827 l -4.850969 4.84802 c -.05075 -.0817 -.100037 -.16336 -.153628 -.24374 l 4.944033 -4.94255 z m -58.238248 .18465 c .03469 .0934 .07742 .18286 .118172 .27327 l -6.217338 6.21438 c -.04104 -.0896 -.08695 -.1765 -.125558 -.26736 l 6.224724 -6.22029 z m 44.202339 .009 c .03494 .0933 .07721 .18295 .118172 .27328 l -6.215862 6.2129 c -.04113 -.0895 -.08686 -.17504 -.125559 -.26589 l 6.223249 -6.22029 z m -30.076322 .31611 c .01831 .11282 .03546 .22576 .05022 .33974 l -4.707688 4.70621 c -.0094 -.0167 -.01712 -.035 -.02659 -.0517 c -.03747 -.0662 -.08038 -.12947 -.119649 -.19498 l 4.803702 -4.79927 z m 44.200862 .0103 c .01815 .11246 .03562 .22465 .05022 .33827 l -4.704731 4.70621 c -.01097 -.0196 -.0199 -.041 -.03102 -.0606 c -.03585 -.0634 -.0777 -.12336 -.115223 -.18611 l 4.800752 -4.7978 z m -58.146666 .0783 c .04366 .0885 .09255 .1734 .141806 .2585 l -6.223246 6.22029 c -.04501 -.0881 -.08738 -.17784 -.12999 -.26736 l 6.21143 -6.21143 z m 44.203813 .007 c .04387 .0885 .09234 .17348 .141806 .2585 l -6.223245 6.22177 c -.04508 -.0881 -.08731 -.17788 -.12999 -.26737 l 6.211429 -6.2129 z m -43.986671 .37815 c .05147 .0824 .104468 .16222 .161009 .24077 l -6.254267 6.25131 c -.04899 -.0867 -.09224 -.17622 -.138853 -.26441 l 6.232111 -6.22767 z m 44.205288 .007 c .05165 .0824 .104278 .16231 .161009 .24077 l -6.254264 6.25132 c -.04899 -.0865 -.09371 -.17492 -.140329 -.26293 l 6.233584 -6.22916 z m -30.399813 .0354 c .01362 .1212 .02147 .24394 .03102 .36634 l -4.555541 4.55554 c -.04437 -.0872 -.09205 -.17356 -.138853 -.25998 l 4.663374 -4.6619 z m 44.202334 .0103 c .01361 .12187 .02009 .24473 .02955 .36781 l -4.552585 4.55259 c -.04432 -.0872 -.09213 -.17353 -.138858 -.25998 l 4.661895 -4.66042 z m -57.762603 .29839 c .05888 .0766 .115188 .1553 .178736 .22748 l -6.286765 6.28233 c -.05156 -.0831 -.105775 -.16354 -.155101 -.24816 l 6.26313 -6.26165 z m 44.20529 .007 c .05907 .0764 .116508 .15397 .180212 .226 l -6.288239 6.28528 c -.05163 -.0831 -.105708 -.16505 -.155101 -.24963 l 6.263128 -6.26165 z m -30.603661 .24225 c .0077 .12824 .01603 .2561 .0192 .38554 l -4.388622 4.38714 c -.04283 -.0924 -.08316 -.18578 -.128513 -.27771 l 4.497932 -4.49497 z m 44.199386 .0133 c .0076 .12829 .01625 .25606 .0192 .38554 l -4.384195 4.38272 c -.04266 -.0923 -.08331 -.18447 -.128511 -.27624 l 4.493503 -4.49202 z m -57.521832 .068 c .06479 .0688 .129012 .13684 .197939 .2009 l -1.1315 1.12854 c -.675549 .47094 -1.238368 1.05872 -1.703158 1.70463 l -3.520056 3.51859 c -.05442 -.0802 -.09988 -.16647 -.152147 -.24817 l 6.308922 -6.30449 z m 44.206771 .006 c .06497 .0687 .127391 .13847 .196457 .20237 l -1.096049 1.09457 c -.709737 .4865 -1.298291 1.10164 -1.778491 1.77849 l -3.480172 3.4787 c -.05448 -.0801 -.09981 -.16504 -.152147 -.24668 l 6.310402 -6.30745 z m -43.899523 .28952 c .09999 .0867 .199951 .1735 .307248 .24964 c -.360044 .11985 -.692435 .2767 -1.008896 .45201 l .701648 -.70165 z m 44.205288 .006 c .09779 .0844 .196601 .1694 .301341 .24373 c -.349147 .11622 -.671218 .26725 -.979351 .43576 l .67801 -.67949 z m -31.162024 .1876 c .000204 .0273 .0044 .0539 .0044 .0812 c 0 .11428 -.01417 .22488 -.01772 .33827 l -4.201025 4.19955 c -.04018 -.095 -.07846 -.18881 -.121126 -.28362 l 4.335445 -4.33544 z m 44.200861 .0118 c .000152 .0232 .0044 .0461 .0044 .0694 c 0 .11878 -.01534 .23375 -.0192 .35156 l -4.198069 4.1966 c -.04016 -.0951 -.07849 -.19018 -.12113 -.28509 l 4.333969 -4.3325 z m -44.224495 .62189 c -.0072 .14102 -.0095 .28298 -.02216 .42246 l -4.000131 3.99866 c -.03732 -.0966 -.07255 -.19271 -.112264 -.28952 l 4.134553 -4.1316 z m 44.199386 .0133 c -.0076 .14097 -.0094 .28303 -.02216 .42247 l -3.997179 3.99422 c -.03729 -.0965 -.07263 -.19128 -.112266 -.28804 l 4.131605 -4.12865 z m -54.839323 .24669 c 2.463101 0 3.854415 1.31391 4.827338 3.03111 c .866754 1.52982 1.308091 3.31976 1.642595 4.63236 c -1.795978 1.37275 -4.0356 2.198 -6.475841 2.198 c -2.440027 0 -4.678464 -.82547 -6.474363 -2.198 c .335201 -1.31232 .778829 -3.10252 1.647026 -4.63236 c .97458 -1.71728 2.370148 -3.03111 4.833245 -3.03111 z m 44.199387 0 c 2.463096 0 3.854413 1.31391 4.827335 3.03111 c .866723 1.52976 1.306619 3.31977 1.641116 4.63236 c -1.795901 1.37253 -4.034344 2.198 -6.474365 2.198 c -2.440241 0 -4.679864 -.82525 -6.475838 -2.198 c .335206 -1.31234 .780267 -3.10246 1.648502 -4.63236 c .974579 -1.71728 2.370147 -3.03111 4.83325 -3.03111 z M 49.469702 84.267 c -.01785 .15969 -.04757 .31524 -.07238 .47269 l -3.738674 3.7372 c -.03391 -.0955 -.07468 -.19184 -.110787 -.28804 L 49.469703 84.267 Z m 44.197905 .0148 c -.01808 .1597 -.04883 .31526 -.07386 .47269 l -3.731286 3.73129 c -.03381 -.0953 -.0763 -.1921 -.112266 -.28804 l 3.917413 -3.91594 z m -44.308691 .70313 c -.03008 .16582 -.06281 .32888 -.100447 .49189 l -3.449153 3.44916 c -.03289 -.10083 -.05934 -.19632 -.09454 -.29839 l 3.644138 -3.64266 z m 44.197908 .0133 c -.03048 .16678 -.06379 .33239 -.101927 .49633 l -3.441767 3.43881 c -.0329 -.10078 -.05933 -.19635 -.09454 -.29839 l 3.638232 -3.63675 z m -44.370736 .75778 c -.04674 .17996 -.08605 .36159 -.141806 .53769 l -3.090205 3.09168 c -.03008 -.0998 -.06229 -.20266 -.09454 -.30429 l 3.326549 -3.32508 z m 44.194956 .0162 c -.04735 .18091 -.08687 .36514 -.143289 .54211 l -3.079861 3.07987 c -.0301 -.0997 -.06385 -.20123 -.09602 -.30281 l 3.31917 -3.31917 z m -60.227978 .36043 c -.04133 .0687 -.0862 .13596 -.125558 .20533 c -.124147 .21875 -.23734 .44097 -.345654 .66471 l -2.395943 2.39594 c -.05639 -.0763 -.118437 -.1482 -.172827 -.226 l 3.039982 -3.03998 z m 44.178701 .034 c -.03426 .0575 -.07195 .11339 -.104876 .17136 c -.128572 .22655 -.245904 .4565 -.357474 .68835 l -2.378215 2.37821 c -.05645 -.0775 -.118377 -.14826 -.172826 -.226 l 3.013391 -3.01192 z m -28.405658 .44611 c -.07656 .21724 -.150812 .43501 -.240775 .64551 l -2.590927 2.59092 c -.02913 -.10375 -.06171 -.20663 -.09306 -.31315 l 2.924763 -2.92328 z m 44.193473 .0192 c -.07698 .21705 -.150413 .43522 -.240776 .64551 l -2.582062 2.58059 c -.02927 -.10424 -.06008 -.20613 -.09158 -.31316 l 2.914419 -2.91294 z M 32.501641 87.3912 c -.09663 .21771 -.175905 .43261 -.259979 .64995 L 30.54589 89.7384 c -.05842 -.0728 -.114814 -.14728 -.17135 -.22157 l 2.127101 -2.12563 z m 44.187566 .0266 c -.09551 .21653 -.173899 .42948 -.257025 .64551 l -1.682478 1.68248 c -.05852 -.0727 -.111756 -.14873 -.168395 -.22305 l 2.107898 -2.10494 z m -28.185564 .21862 c -.139544 .29369 -.291611 .58011 -.45644 .85823 l -1.825761 1.82723 c -.02767 -.10474 -.05583 -.21042 -.08568 -.31906 l 2.367876 -2.3664 z m 44.18757 .0251 c -.141724 .29632 -.294868 .58522 -.462351 .86561 l -1.805082 1.8036 c -.0276 -.10462 -.05583 -.20906 -.08567 -.31759 l 2.353107 -2.35162 z M 32.11315 88.37646 c -.07447 .2057 -.143311 .4045 -.208278 .60563 l -1.087185 1.08718 c -.062 -.0712 -.123039 -.14136 -.183168 -.21418 l 1.478631 -1.47863 z m 44.19052 .0221 c -.07381 .20507 -.140888 .40225 -.205325 .60268 l -1.07389 1.07536 c -.06203 -.0711 -.124486 -.14144 -.184644 -.21418 l 1.463859 -1.46386 z m -28.578486 .61745 c -.410062 .60923 -.876861 1.17706 -1.400342 1.68839 c -.01813 -.071 -.0415 -.15419 -.06056 -.22748 l 1.460905 -1.46091 z m 44.180177 .0325 c -.404992 .59703 -.866821 1.1535 -1.381137 1.65589 c -.01732 -.0679 -.03938 -.14705 -.05761 -.21715 l 1.438744 -1.43874 z m -60.09355 .22748 c -.06046 .19695 -.122948 .3921 -.175782 .58052 l -.525866 .52587 c -.06558 -.0695 -.131272 -.13852 -.194984 -.20976 l .896632 -.89663 z m 44.193474 .0177 c -.06019 .19689 -.120222 .39076 -.172827 .57904 l -.518481 .51552 c -.06543 -.0693 -.128444 -.13877 -.19203 -.20975 l .883338 -.88481 z m -44.441636 .83015 c -.05287 .19564 -.108842 .39926 -.155101 .58053 c -.07161 -.07 -.135694 -.14818 -.205325 -.2201 l .360426 -.36043 z m 44.196429 .0163 c -.05121 .19006 -.107128 .38786 -.152147 .56427 c -.06977 -.0682 -.131525 -.14416 -.199416 -.21419 l .351563 -.35008 z"/>
  <text x="0" y="115" fill="#000000" font-size="5px" font-weight="bold" font-family="'Helvetica Neue', Helvetica, Arial-Unicode, Arial, Sans-serif">Created by Magicon</text>
  <text x="0" y="120" fill="#000000" font-size="5px" font-weight="bold" font-family="'Helvetica Neue', Helvetica, Arial-Unicode, Arial, Sans-serif">from the Noun Project</text>
</svg>
