<svg xmlns="http://www.w3.org/2000/svg" xmlns:xlink="http://www.w3.org/1999/xlink" version="1.1" preserveAspectRatio="none" x="0px" y="0px" viewBox="0 0 100 125"><defs><g id="a"><path fill="#000000" stroke="none" d=" M 34.05 -12 Q 29.35 -19.25 25.15 -22.95 11.75 -34.95 1.55 -36.3 -8.35 -37.65 -8.35 -28.4 -8.35 -28.2 -8.35 -28.05 -13.75 -22.55 -18.35 -14.3 -23.7 -3.65 -26.75 1.4 -29.15 5.35 -33.65 15.55 -39.15 28.25 -39.15 32.6 L -39 34.55 Q -38.6 36.5 -37.45 36.5 -36.8 36.5 -30.85 32.3 -23.15 26.9 -20.95 25.55 -8.75 17.95 1.1 14.25 6.4 12.3 21.9 8 26.8 6.65 33.35 5.45 37.05 5.05 38.4 3.2 39.15 2.15 39.15 0.05 39.15 -4.05 34.05 -12 M 17.6 -15.05 Q 15.95 -16.7 12 -19.8 7.5 -23.35 5.7 -24.75 -0.95 -27.9 -3.2 -28.6 -5 -29.1 -6.2 -29.05 -6.65 -29.15 -6.25 -31.2 -5.9 -33.25 -2.35 -34.45 L 0.4 -34.45 Q 13.5 -32.45 26 -18.7 30.95 -13.2 34.1 -7.55 36 -4.2 36.7 -1.7 36.4 -1.8 36 -1.8 32.3 -1.55 30.95 -0.3 30.2 0.4 30.1 1.55 28.8 -1.3 25.35 -5.95 21.1 -11.6 17.6 -15.05 M 9.3 -20.25 Q 13.85 -16.35 17.75 -12.2 22.6 -7.35 26.65 -0.5 28 1.8 28.1 3.2 19.85 3.9 -1.3 12.55 -25.5 22.4 -36.65 32.55 L -36.65 32.25 Q -33.1 18.25 -24.55 1.55 -18.25 -10.7 -8.25 -26.2 -8.2 -26.2 -8.15 -26.2 -8.05 -26.35 -7.85 -26.85 -7.6 -27.15 -7.4 -27.5 -6.75 -27.95 -5.15 -27.95 0.2 -27.95 9.3 -20.25 M 37.15 1.05 Q 37.15 1.35 37 1.6 L 36.6 1.95 Q 36.45 2.1 36.35 2.2 35.55 2.7 33.9 3 L 32.7 2.75 Q 31.45 2.5 31.45 1.95 31.45 1.4 32.5 0.7 33.6 -0.05 34.65 -0.05 36.2 -0.05 36.85 0.55 37.05 0.7 37.15 0.95 37.15 1 37.15 1.05 M -7.05 -0.9 Q -8.85 -2.85 -12.75 -2.15 -16.4 -1.55 -19.65 0.95 -23.1 3.7 -24 7 -24.5 8.85 -24.25 9.9 -23.6 12.75 -19.35 13.9 -13.3 15.55 -9.35 11.55 -7 9.25 -6.25 6.4 -4.9 1.35 -7.05 -0.9 M -8.5 0.4 Q -6.75 2.05 -7.8 5.9 -8.25 8.3 -10.1 10.1 -13.75 13.7 -20.75 11.85 -23.55 11.1 -22.6 7.55 -21.8 4.65 -19 2.35 -16.3 0.2 -13.25 -0.5 -10.15 -1.1 -8.5 0.4 M 9.15 -10.4 Q 5.6 -9.55 3.15 -7.1 0.4 -4.35 0.4 -0.7 0.4 0.7 1.5 2.05 3.5 4.4 8.15 4.4 13.7 4.4 16.25 0.55 17.9 -1.95 17.9 -4.9 17.9 -8.45 15.15 -9.9 12.7 -11.2 9.15 -10.4 M 1.8 -2.15 Q 1.8 -4.3 4.05 -6.15 6.15 -7.9 9.05 -8.55 12.05 -9.25 14.05 -8.35 16.3 -7.35 16.3 -4.7 16.3 -2.75 15.25 -0.95 13.2 2.55 8.1 2.55 3.8 2.55 2.4 0.5 1.8 -0.4 1.8 -2.15 M 3.15 -12.45 Q 5.05 -15.5 5.05 -18.1 5.05 -20.35 3.25 -22.2 1.3 -24.25 -1.85 -24.7 -7.85 -23.7 -10.35 -19.5 -11.95 -16.8 -11.95 -13.2 -11.95 -11.65 -11 -10.4 -9.15 -8.1 -4.5 -8.1 0.4 -8.1 3.15 -12.45 M 3.15 -18.15 Q 3.15 -16.1 1.9 -13.75 -0.2 -9.95 -4.65 -9.95 -10.35 -9.95 -10.35 -13.25 -10.35 -16.65 -8.25 -19.2 -6.35 -21.4 -3.6 -22.2 -0.9 -23 1.05 -22 3.15 -20.9 3.15 -18.15 Z"/></g></defs><g transform="matrix( 1.150146484375, 0, 0, 1.150146484375, 50,50) "><g transform="matrix( 1, 0, 0, 1, 0,0) "><g transform="matrix( 1, 0, 0, 1, 0,0) "><use xlink:href="#a"/></g></g></g><text x="0" y="115" fill="#000000" font-size="5px" font-weight="bold" font-family="'Helvetica Neue', Helvetica, Arial-Unicode, Arial, Sans-serif">Created by Pencil</text><text x="0" y="120" fill="#000000" font-size="5px" font-weight="bold" font-family="'Helvetica Neue', Helvetica, Arial-Unicode, Arial, Sans-serif">from the Noun Project</text></svg>