<?xml version="1.0" encoding="UTF-8"?>
<svg   xmlns:dc="http://purl.org/dc/elements/1.1/"   xmlns:cc="http://creativecommons.org/ns#"   xmlns:rdf="http://www.w3.org/1999/02/22-rdf-syntax-ns#"   xmlns:svg="http://www.w3.org/2000/svg"   xmlns="http://www.w3.org/2000/svg"   xmlns:sodipodi="http://sodipodi.sourceforge.net/DTD/sodipodi-0.dtd"   xmlns:inkscape="http://www.inkscape.org/namespaces/inkscape"   version="1.1"   x="0px"   y="0px"   viewBox="0 0 47.904755 47.984909"   enable-background="new 0 0 48 48"   xml:space="preserve"   id="svg3720"   sodipodi:docname="planet.svg"   width="47.904755"   height="47.984909"   inkscape:version="0.92.1 r15371">
  <g     id="g3714"     transform="translate(-0.04917936,-0.01509073)">
    <path       d="m 46.4,1.6 c -2.4,-2.5 -7.3,-2 -13.6,1.2 0,0 -0.1,0.1 -0.1,0.1 C 30,1.8 27.1,1.2 24,1.2 11.4,1.2 1.2,11.4 1.2,24 c 0,3.1 0.6,6 1.7,8.7 C 2.8,32.8 2.8,32.8 2.7,32.9 -0.4,39.2 -0.8,44 1.6,46.4 2.7,47.5 4.2,48 6,48 c 2.6,0 5.8,-1 9.4,-2.8 2.7,1.1 5.6,1.7 8.6,1.7 12.6,0 22.9,-10.3 22.9,-22.9 0,-3.1 -0.6,-6 -1.7,-8.6 C 48.3,9.2 48.9,4.1 46.4,1.6 Z M 45,3 C 46.6,4.6 46.3,8.3 44.1,13.1 42,9.3 38.8,6.1 35,4 39.7,1.8 43.4,1.4 45,3 Z M 24,3.2 c 8.4,0 15.7,5 19,12.2 C 40.5,20 36.5,25.4 30.9,30.9 25.4,36.4 20,40.5 15.4,43 8.2,39.7 3.2,32.4 3.2,24 3.2,12.5 12.5,3.2 24,3.2 Z M 3,45 C 1.4,43.4 1.7,39.7 3.9,34.9 6,38.8 9.2,41.9 13.1,44.1 8.3,46.3 4.7,46.6 3,45 Z M 44.9,24 c 0,11.5 -9.4,20.9 -20.9,20.9 -2.2,0 -4.3,-0.3 -6.3,-1 4.6,-2.7 9.7,-6.6 14.6,-11.6 4.9,-4.9 8.9,-10 11.6,-14.6 0.6,2 1,4.1 1,6.3 z"       id="path3712"        />
  </g>
</svg>
