<svg xmlns="http://www.w3.org/2000/svg" xmlns:xlink="http://www.w3.org/1999/xlink" version="1.1" x="0px" y="0px" viewBox="0 0 346.109 339.7575" style="enable-background:new 0 0 346.109 271.806;" xml:space="preserve"><g><path d="M260.322,34c5.523,0,10-4.478,10-10V10c0-5.523-4.477-10-10-10h-43.605v34H260.322z M259.219,4.334v4.333h-37.334V4.334   H259.219z"/><path d="M135.383,0v34h75.334V0H135.383z M141.717,8.667V4.334h62.668v4.333H141.717z"/><path d="M85.777,0c-5.521,0-10,4.477-10,10v14c0,5.522,4.479,10,10,10h43.605V0H85.777z M86.883,8.667V4.334h37.334v4.333H86.883z"/><path d="M201.4,79.229c0.889,1.402,2.902,1.824,5.521,1.732c0.081,0.606,0.403,1.193,0.94,1.75   c-0.943,2.483-1.465,5.174-1.465,7.988c0,12.428,10.074,22.5,22.5,22.5c12.428,0,22.502-10.072,22.502-22.5   c0-2.814-0.521-5.505-1.465-7.988c0.537-0.557,0.859-1.144,0.94-1.75c2.618,0.092,4.631-0.33,5.521-1.732   c1.508-2.377,0.294-8.568-4.221-14.111c-1.666-0.148-3.438-0.293-5.33-0.446l-3.355-0.272c-2.33-0.194-4.972-0.392-7.834-0.587   c-0.805,0.48-1.688,0.946-2.571,1.302c-0.653,1.681-2.274,2.875-4.186,2.875c-1.91,0-3.533-1.194-4.186-2.875   c-1.444-0.58-2.893-1.46-3.982-2.199c-4.04-0.214-8.234-0.416-12.464-0.599C201.602,68.397,199.631,76.439,201.4,79.229z    M228.896,70.322c12.152,0,22.002,3.136,22.002,7c0,0.575-0.223,1.133-0.633,1.668c-2.352-3.062-11.023-5.333-21.369-5.333   c-10.344,0-19.016,2.271-21.367,5.333c-0.41-0.535-0.633-1.093-0.633-1.668C206.896,73.458,216.746,70.322,228.896,70.322z"/><path d="M42.342,122.094l0.547-1.443l0.197-0.524c0.938-2.479,2.285-6.046,3.868-10.247h-6.237v-4.071   c0-4.498-3.647-8.144-8.143-8.144H8.143c-4.496,0-8.143,3.646-8.143,8.144v8.143c0,4.498,3.646,8.144,8.143,8.144h28.506h4.068   H42.342z"/><path d="M337.967,97.663h-24.434c-4.496,0-8.145,3.646-8.145,8.144v4.071h-6.245c1.48,3.929,2.67,7.077,3.37,8.931l0.699,1.841   l0.201,0.532l0.346,0.911h1.629h4.074h28.504c4.494,0,8.143-3.646,8.143-8.144v-8.143   C346.109,101.309,342.461,97.663,337.967,97.663z"/><path d="M182.553,66.32h-18.998c-2.623,0-4.75,2.126-4.75,4.751c0,2.621,2.127,4.749,4.75,4.749h18.998   c2.625,0,4.75-2.128,4.75-4.749C187.303,68.446,185.178,66.32,182.553,66.32z"/><path d="M302.189,124.393l-1.111-2.935c-0.021-0.057-21.131-55.871-24.09-64.725c-1.797-5.655-6.521-8.793-12.029-10.141   c-5.564-1.443-12.41-1.79-20.775-2.493c-18.219-1.52-51.383-3.026-71.131-3.026c-19.756,0-52.914,1.507-71.133,3.026   c-8.363,0.703-15.209,1.05-20.779,2.493c-5.5,1.348-10.234,4.485-12.031,10.141c-2.949,8.854-24.066,64.656-24.09,64.725   l-1.111,2.938c-8.807,4.431-29.203,16.604-29.203,34.343c0,22.623,0,48.862,0,48.862h316.697c0,0,0-26.239,0-48.862   C331.402,140.995,310.992,128.82,302.189,124.393z M74.908,70.604c1.215-3.388,3.162-4.83,7.785-6.157   c4.564-1.211,11.289-1.619,19.734-2.321c17.967-1.499,51.158-3.001,70.625-3.001c19.461,0,52.658,1.502,70.623,3.001   c8.443,0.702,15.174,1.11,19.73,2.321c4.621,1.327,6.578,2.77,7.789,6.157c2.574,7.706,17.668,35.803,22.604,48.886h-241.5   C57.24,106.407,72.338,78.311,74.908,70.604z M94.721,178.001c0,5.522-4.479,10-10,10H41.387c-5.523,0-10-4.478-10-10v-10.667   c0-5.522,4.477-10,10-10h43.334c5.521,0,10,4.478,10,10V178.001z M216.553,194.751h-87v-7.5h87V194.751z M216.553,181.084h-87v-7.5   h87V181.084z M216.553,167.418h-87v-7.5h87V167.418z M314.721,167.334v10.667c0,5.522-4.479,10-10,10h-43.334   c-5.523,0-10-4.478-10-10v-10.667c0-5.522,4.477-10,10-10h43.334C310.242,157.334,314.721,161.811,314.721,167.334z"/><path d="M10.18,212.688c0,0,0,21.116,13.568,21.116c0.642,0,1.558,0,2.717,0v29.858c0,4.497,3.645,8.144,8.146,8.144h32.574   c4.492,0,8.145-3.647,8.145-8.144v-16.289c48.572,0,156.205,0,200.41,0v16.824c0,4.201,3.4,7.608,7.607,7.608h30.428   c4.199,0,7.609-3.407,7.609-7.608v-30.394c0.365,0,0.702,0,0.973,0c13.57,0,13.57-21.116,13.57-21.116H173.053H10.18z"/><path d="M84.719,161.334H41.387c-3.309,0-6,2.692-6,6v10.667c0,3.308,2.691,6,6,6h43.332c3.311,0,6.002-2.692,6.002-6v-10.667   C90.721,164.026,88.029,161.334,84.719,161.334z"/><path d="M261.387,161.334c-3.309,0-6,2.692-6,6v10.667c0,3.308,2.691,6,6,6h43.332c3.311,0,6.002-2.692,6.002-6v-10.667   c0-3.308-2.691-6-6.002-6H261.387z"/></g><text x="0" y="286.806" fill="#000000" font-size="5px" font-weight="bold" font-family="'Helvetica Neue', Helvetica, Arial-Unicode, Arial, Sans-serif">Created by Gan Khoon Lay</text><text x="0" y="291.806" fill="#000000" font-size="5px" font-weight="bold" font-family="'Helvetica Neue', Helvetica, Arial-Unicode, Arial, Sans-serif">from the Noun Project</text></svg>