<svg xmlns="http://www.w3.org/2000/svg" xmlns:xlink="http://www.w3.org/1999/xlink" version="1.1" x="0px" y="0px" viewBox="0 0 100 125" enable-background="new 0 0 100 100" xml:space="preserve"><path fill="#000000" d="M61.923,33.809c0.061,0.823-0.463,1.691-1.562,1.691H38.666c-1.1,0-1.623-0.868-1.564-1.691h-2.508v4.017  h2.729c0.279,0,0.523,0.246,0.523,0.521v11.471h23.106V38.347c0-0.278,0.246-0.521,0.521-0.521h2.73v-4.017H61.923z M64.206,38.874  h-2.209v11.471c0,0.278-0.246,0.521-0.522,0.521H37.321c-0.281,0-0.521-0.245-0.521-0.521V38.874h-2.211v30.758h29.617V38.874  L64.206,38.874z M31.457,68.706h-6.375v2.779v7.846h11.818v-2.136h-4.932c-0.283,0-0.525-0.246-0.523-0.522L31.457,68.706z   M28.508,66.614h2.939V53.978h-2.939V66.614z M31.449,33.203h-4.93v17.632h1.059h0.406h3.465V33.203z M36.906,90.304l-0.006-9.927  H24.985l-2.387,9.927H36.906z M73.712,79.331v-7.846v-2.776h-2.904h-3.461v7.966c0,0.275-0.244,0.523-0.523,0.523h-4.93v2.133  H73.712z M76.196,90.304l-2.391-9.927H61.894l-0.008,9.927H76.196z M70.286,66.614V53.978h-2.938v12.637H70.286z M67.347,50.835  h3.461h1.469V33.203h-4.93V50.835L67.347,50.835z M64.155,70.681H34.64l6.719,3.283l8.041,0.033l8.037-0.033L64.155,70.681z   M67.317,32.156h5.479c0.279,0,0.525,0.247,0.525,0.524v11.101l1.904,0.8c0.062,0.027,0.115,0.1,0.115,0.161v3.554  c0,0.065-0.053,0.137-0.115,0.161l-1.904,0.802v2.098c0,0.281-0.246,0.525-0.525,0.525h-0.045v15.777h1.484  c0.279,0,0.527,0.245,0.527,0.523v3.299v8.369l2.689,11.199c0.11,0.461-0.443,2.502-1.109,2.502H62.946  c-0.068,0-0.354-0.137-0.4-0.188l-1.577-1.856c-0.025-0.029-0.125-0.301-0.125-0.342l0.004-14.499c0-0.276,0.246-0.521,0.521-0.521  h2.836v-1.992l-4.897,2.402c-1.285,0.623-1.369,0.617-2.535,0.617h-7.338h-0.08h-7.336c-1.166,0-1.248,0.006-2.531-0.617  l-4.902-2.402v1.992h2.834c0.279,0,0.521,0.248,0.521,0.521l0.008,14.499c0,0.041-0.096,0.309-0.127,0.342l-1.58,1.856  c-0.041,0.052-0.33,0.188-0.398,0.188H22.444c-0.666,0-1.221-2.041-1.109-2.502l2.693-11.199v-8.367v-3.301  c0-0.278,0.246-0.522,0.523-0.522h1.482l0.002-15.776h-0.049c-0.275,0-0.518-0.248-0.518-0.525v-2.098l-1.907-0.803  c-0.062-0.025-0.113-0.096-0.113-0.16v-3.555c0-0.062,0.051-0.136,0.113-0.161l1.908-0.8V32.681c0-0.279,0.244-0.524,0.518-0.524  h5.443v-6.15c0-9.382,7.609-16.989,16.992-16.989h1.897c9.382,0,16.99,7.608,16.99,16.989v6.138v0.013h0.006L67.317,32.156  L67.317,32.156z M66.271,30.752H32.49v0.868h33.781V30.752z M60.989,21.974h4.768c-0.983-3.788-3.327-7.025-6.479-9.166h-9.434  v-2.745h-0.998v2.747h-9.361c-3.148,2.141-5.49,5.379-6.479,9.166h11.852c-0.051,1.597-0.068,3.095-0.068,4.741l-12.298,0.012v0.882  h33.781v-0.895h-4.861v-0.709C61.411,24.616,61.261,23.265,60.989,21.974z M45.017,38.034h1.871c0.346-0.465,0.9-0.787,1.674-0.787  h7.797c0.773,0,1.334,0.32,1.678,0.787h1.019c1.743,0,1.743,2.618,0,2.618h-1.019c-0.348,0.464-0.902,0.786-1.678,0.786h-7.797  c-0.771,0-1.334-0.319-1.674-0.786h-1.871c-0.344,0.464-0.9,0.786-1.674,0.786h-2.598c-2.795,0-2.795-4.188,0-4.188h2.598  C44.121,37.247,44.674,37.567,45.017,38.034z M53.972,47.122h-1.869c-0.346,0.465-0.9,0.785-1.674,0.785h-7.793  c-0.775,0-1.336-0.32-1.68-0.785h-1.02c-1.742,0-1.742-2.619,0-2.619h1.02c0.344-0.463,0.902-0.786,1.68-0.786h7.793  c0.773,0,1.332,0.32,1.674,0.786h1.869c0.348-0.463,0.902-0.786,1.676-0.786h2.6c2.793,0,2.793,4.188,0,4.188h-2.6  C54.876,47.907,54.319,47.587,53.972,47.122z M46.121,52.32h6.684v15.532h-6.684V52.32z M56.308,52.296h4.125  c0.867,0,1.57,0.704,1.57,1.571v12.376c0,0.87-0.703,1.57-1.57,1.57h-4.125c-0.863,0-1.566-0.7-1.566-1.57V53.867  C54.741,53,55.44,52.296,56.308,52.296z M56.308,53.343c-0.289,0-0.52,0.235-0.52,0.524v12.376c0,0.289,0.233,0.521,0.52,0.521  h4.125c0.287,0,0.52-0.236,0.52-0.521V53.867c0-0.289-0.231-0.524-0.52-0.524H56.308z M37.547,64.181h4.502v1.444h-4.502V64.181  L37.547,64.181z M37.547,61.925h4.502v1.446h-4.502V61.925L37.547,61.925z M37.547,59.669h4.502v1.445h-4.502V59.669L37.547,59.669z   M37.547,66.435h4.502v1.445h-4.502V66.435L37.547,66.435z M38.353,52.33h4.934c0.869,0,1.568,0.706,1.568,1.573v3.111  c0,0.867-0.701,1.567-1.568,1.567h-4.934c-0.867,0-1.572-0.7-1.572-1.567v-3.111C36.781,53.036,37.485,52.33,38.353,52.33z   M38.353,53.376c-0.289,0-0.523,0.236-0.523,0.527v3.109c0,0.291,0.234,0.521,0.523,0.521h4.934c0.291,0,0.523-0.235,0.523-0.521  v-3.109c0-0.292-0.234-0.527-0.523-0.527H38.353L38.353,53.376z M49.442,18.241c0,1.526,1.232,2.767,2.766,2.767  c1.529,0,2.765-1.238,2.765-2.767s-1.231-2.766-2.765-2.766C50.677,15.474,49.442,16.711,49.442,18.241z M47.319,15.402  c0.09-0.55,0.617-0.998,1.168-0.998h3.74h3.738c0.553,0,1.074,0.448,1.168,0.998l0.943,5.538c0.092,0.552-0.277,1-0.828,1h-5.025  h-5.016c-0.555,0-0.926-0.448-0.832-1L47.319,15.402z M55.778,26.715h-5.912v-3.184h5.912V26.715z M47.995,26.715h-2.271  c0,0,0.004-2.281,0.02-3.184h3.076v3.184H47.995z M59.308,24.848c0.346,0,0.621-0.279,0.621-0.622c0-0.343-0.275-0.621-0.621-0.621  s-0.621,0.278-0.621,0.621C58.687,24.569,58.962,24.848,59.308,24.848z M56.638,25.083c0-0.882,0.592-1.628,1.402-1.86  c0.295-0.374,0.754-0.614,1.268-0.614c0.896,0,1.619,0.727,1.619,1.621c0,0.422-0.164,0.811-0.434,1.1  c-0.117,0.954-0.935,1.69-1.923,1.69C57.505,27.019,56.638,26.152,56.638,25.083z"/><text x="0" y="115" fill="#000000" font-size="5px" font-weight="bold" font-family="'Helvetica Neue', Helvetica, Arial-Unicode, Arial, Sans-serif">Created by Simon Child</text><text x="0" y="120" fill="#000000" font-size="5px" font-weight="bold" font-family="'Helvetica Neue', Helvetica, Arial-Unicode, Arial, Sans-serif">from the Noun Project</text></svg>