<?xml version="1.0" encoding="UTF-8"?>
<svg xmlns="http://www.w3.org/2000/svg" xmlns:xlink="http://www.w3.org/1999/xlink" version="1.1" x="0px" y="0px" viewBox="206 206 100 125" enable-background="new 206 206 100 100" xml:space="preserve">
  <g>
    <path fill="#000000" d="M259.678,272.181c0.448,0.218,0.815,0.718,1.097,1.499c0.128,0.355,0.464,0.578,0.821,0.578   c0.098,0,0.197-0.018,0.295-0.053c0.453-0.163,0.689-0.662,0.525-1.116c-0.348-0.97-0.834-1.691-1.452-2.16   c1.004-2.342,1.825-4.599,2.487-6.77c0.485,0.237,0.933,0.52,1.336,0.847c0.021,0.017,0.044,0.03,0.066,0.045   c0.017,0.018,0.031,0.035,0.05,0.052c0.583,0.496,1.06,1.087,1.417,1.754c0.157,0.294,0.459,0.462,0.771,0.462   c0.139,0,0.279-0.033,0.41-0.104c0.426-0.228,0.585-0.755,0.358-1.181c-0.46-0.86-1.074-1.622-1.824-2.261   c-0.025-0.021-0.054-0.037-0.081-0.056c-0.021-0.022-0.042-0.047-0.067-0.068c-0.583-0.473-1.234-0.869-1.944-1.188   c3.553-13.029,1.325-22.808-1.548-29.111c-2.646-5.815-5.842-8.79-5.978-8.914c-0.167-0.153-0.379-0.23-0.591-0.23   c-0.211,0-0.424,0.077-0.59,0.231c-0.136,0.125-3.354,3.125-6.002,8.937c0,0.001,0,0.002,0,0.003   c-2.856,6.311-5.067,16.088-1.536,29.086c-0.709,0.318-1.36,0.717-1.941,1.188c-0.374,0.304-0.431,0.853-0.127,1.227   c0.173,0.213,0.424,0.322,0.678,0.322c0.193,0,0.388-0.063,0.549-0.194c0.401-0.326,0.847-0.607,1.331-0.844   c0.661,2.172,1.481,4.432,2.483,6.775c-0.611,0.469-1.095,1.188-1.441,2.152c-0.014,0.036-0.021,0.074-0.028,0.111   c-0.016,0.033-0.033,0.065-0.045,0.102l-0.02,0.063c-0.001,0.005-0.003,0.011-0.004,0.016c-0.015,0.047-0.03,0.096-0.044,0.144   c-0.007,0.024-0.013,0.048-0.018,0.072c-0.009,0.023-0.017,0.048-0.023,0.071c-0.223,0.8-0.375,1.759-0.451,2.854   c-0.033,0.48,0.33,0.897,0.81,0.931c0.021,0.002,0.041,0.002,0.062,0.002c0.455,0,0.837-0.352,0.87-0.812   c0.068-0.977,0.199-1.819,0.391-2.505c0.006-0.019,0.011-0.039,0.014-0.059c0.008-0.019,0.014-0.039,0.02-0.058   c0.011-0.036,0.021-0.071,0.032-0.106c0.001-0.004,0.002-0.007,0.003-0.01l0.019-0.056c0.008-0.026,0.011-0.054,0.018-0.08   c0.014-0.029,0.029-0.058,0.04-0.089c0.281-0.782,0.649-1.282,1.095-1.5H259.678z M251.164,233.373   c0.024-0.049,0.048-0.096,0.073-0.145c0.09-0.184,0.18-0.366,0.271-0.543c0.036-0.071,0.073-0.139,0.109-0.208   c0.079-0.152,0.158-0.303,0.238-0.449c0.042-0.077,0.083-0.15,0.124-0.226c0.075-0.135,0.149-0.27,0.224-0.4   c0.044-0.078,0.088-0.152,0.132-0.228c0.072-0.123,0.143-0.247,0.214-0.366c0.046-0.076,0.091-0.149,0.136-0.224   c0.07-0.114,0.14-0.228,0.209-0.338c0.045-0.073,0.091-0.144,0.136-0.215c0.068-0.107,0.136-0.212,0.204-0.315   c0.045-0.068,0.09-0.136,0.134-0.203c0.067-0.1,0.134-0.199,0.2-0.296c0.043-0.064,0.087-0.127,0.13-0.189   c0.065-0.095,0.131-0.187,0.195-0.278c0.042-0.059,0.083-0.117,0.125-0.174c0.064-0.088,0.128-0.175,0.19-0.26   c0.04-0.054,0.08-0.108,0.119-0.16c0.062-0.083,0.124-0.164,0.185-0.243c0.037-0.048,0.074-0.096,0.109-0.143   c0.063-0.08,0.122-0.156,0.182-0.23c0.032-0.041,0.065-0.083,0.097-0.123c0.061-0.076,0.12-0.147,0.178-0.219   c0.028-0.033,0.057-0.069,0.084-0.102c0.061-0.072,0.118-0.141,0.176-0.208c0.022-0.025,0.045-0.054,0.067-0.079   c0.064-0.075,0.125-0.145,0.185-0.212c0.012-0.013,0.024-0.028,0.036-0.042c0.071-0.08,0.138-0.154,0.2-0.223   c0.695,0.761,1.919,2.229,3.21,4.375c0.003,0.006,0.008,0.011,0.011,0.017c0.105,0.176,0.212,0.358,0.317,0.542   c0.016,0.026,0.03,0.052,0.045,0.078c0.095,0.166,0.189,0.336,0.284,0.509c0.025,0.046,0.05,0.091,0.075,0.138   c0.085,0.155,0.168,0.315,0.251,0.476c0.034,0.066,0.069,0.13,0.104,0.197c0.074,0.146,0.147,0.296,0.222,0.446   c0.041,0.084,0.084,0.167,0.125,0.252c0.003,0.006,0.006,0.013,0.01,0.02c-1.432,0.82-3.003,1.236-4.68,1.236   c-1.645,0-3.238-0.418-4.652-1.215C251.155,233.393,251.159,233.383,251.164,233.373z M250.432,234.999   c1.641,0.895,3.477,1.364,5.37,1.364c1.931,0,3.741-0.467,5.399-1.386c3.114,7.394,5.057,19.299-1.925,35.458h-6.922   C245.403,254.311,247.335,242.402,250.432,234.999z"/>
    <path fill="#000000" d="M244.143,267.214c0.131,0.07,0.272,0.104,0.412,0.104c0.312,0,0.613-0.167,0.77-0.461   c0.048-0.089,0.098-0.177,0.148-0.262l0.053-0.087c0.255-0.409,0.13-0.947-0.278-1.202c-0.409-0.256-0.947-0.13-1.202,0.278   c-0.023,0.036-0.045,0.072-0.067,0.109c0,0.001-0.001,0.002-0.001,0.002c-0.065,0.109-0.129,0.223-0.191,0.337   C243.559,266.458,243.719,266.986,244.143,267.214z"/>
    <path fill="#000000" d="M243.902,276.586c0.125,0.36,0.463,0.588,0.825,0.588c0.094,0,0.19-0.015,0.285-0.048   c0.456-0.157,0.697-0.654,0.541-1.109c-0.417-1.21-0.715-2.359-0.884-3.417c-0.004-0.027-0.014-0.053-0.021-0.08   c-0.001-0.028,0-0.055-0.004-0.083l-0.006-0.041c0-0.002-0.002-0.013-0.002-0.014c0,0,0,0,0-0.001l-0.015-0.105   c-0.003-0.019-0.006-0.036-0.009-0.055c-0.001-0.018-0.003-0.036-0.005-0.053c-0.074-0.563-0.111-1.11-0.111-1.626   c0-0.175,0.004-0.348,0.013-0.517c0.023-0.481-0.347-0.891-0.829-0.915c-0.485-0.022-0.891,0.347-0.915,0.829   c-0.01,0.197-0.015,0.4-0.015,0.603c0,0.591,0.042,1.214,0.125,1.851c0.002,0.021,0.006,0.041,0.01,0.061   c0.001,0.021,0.003,0.04,0.006,0.061l0.018,0.122c0,0.002,0,0.004,0.001,0.007c0,0.002,0,0.004,0.001,0.006l0.007,0.047   c0.004,0.032,0.015,0.062,0.022,0.093c0.002,0.029,0,0.058,0.005,0.088C243.13,274.033,243.452,275.281,243.902,276.586z"/>
    <path fill="#000000" d="M245.216,277.646c-0.443,0.19-0.647,0.703-0.458,1.146l0.047,0.108c0,0,0,0,0,0.001   c0.046,0.106,0.093,0.215,0.141,0.323c0.144,0.325,0.463,0.519,0.798,0.519c0.118,0,0.239-0.024,0.354-0.075   c0.44-0.195,0.64-0.711,0.444-1.151c-0.045-0.104-0.091-0.206-0.135-0.308c0-0.001,0-0.001,0-0.002l-0.044-0.104   C246.172,277.66,245.659,277.455,245.216,277.646z"/>
    <path fill="#000000" d="M250.698,284.055c-0.063-0.479-0.5-0.813-0.978-0.753c-0.212,0.027-0.395,0.129-0.529,0.274   c-0.366-0.619-0.716-1.23-1.041-1.824c-0.23-0.424-0.761-0.579-1.184-0.35c-0.424,0.231-0.58,0.762-0.349,1.185   c0.404,0.741,0.846,1.509,1.312,2.282c0.019,0.03,0.039,0.06,0.061,0.088c0.011,0.021,0.018,0.042,0.03,0.062   c0.474,0.781,0.982,1.584,1.512,2.388c0.165,0.252,0.442,0.393,0.729,0.393c0.11,0,0.221-0.021,0.328-0.064   c0.386-0.157,0.607-0.564,0.528-0.973C251.115,286.752,250.905,285.647,250.698,284.055z"/>
    <path fill="#000000" d="M250.375,280.865c-0.033-0.48-0.449-0.843-0.931-0.811c-0.481,0.033-0.844,0.45-0.811,0.931   c0.01,0.139,0.02,0.276,0.031,0.413c0,0.001,0,0.001,0,0.002l0.011,0.136c0.037,0.457,0.418,0.804,0.869,0.804   c0.024,0,0.047-0.001,0.07-0.003c0.48-0.038,0.839-0.459,0.801-0.939l-0.011-0.134l0,0   C250.394,281.132,250.384,280.999,250.375,280.865z"/>
    <path fill="#000000" d="M261.009,283.591c-0.004,0.021-0.009,0.043-0.011,0.065l-0.017,0.133c-0.001,0.006-0.001,0.011-0.002,0.018   l-0.006,0.05c-0.005,0.034-0.003,0.067-0.003,0.102c-0.009,0.032-0.019,0.063-0.023,0.098c-0.208,1.591-0.42,2.696-0.422,2.707   c-0.078,0.408,0.144,0.815,0.529,0.973c0.106,0.044,0.219,0.064,0.328,0.064c0.286,0,0.563-0.141,0.729-0.393   c0.534-0.81,1.043-1.613,1.512-2.388c0.251-0.412,0.119-0.948-0.294-1.198c-0.181-0.109-0.385-0.145-0.579-0.116   c0.114-0.937,0.201-1.852,0.262-2.72c0.033-0.48-0.33-0.897-0.811-0.931c-0.481-0.031-0.898,0.329-0.932,0.81   c-0.058,0.849-0.145,1.743-0.255,2.66C261.012,283.547,261.01,283.568,261.009,283.591z"/>
    <path fill="#000000" d="M261.28,276.256c0.012,0.128,0.021,0.256,0.031,0.386c0.031,0.461,0.415,0.813,0.869,0.813   c0.021,0,0.041,0,0.061-0.002c0.48-0.033,0.844-0.449,0.811-0.93c-0.009-0.143-0.021-0.285-0.033-0.425   c0-0.003-0.001-0.006-0.001-0.009l-0.012-0.134c-0.048-0.479-0.475-0.831-0.954-0.782c-0.48,0.047-0.83,0.475-0.783,0.953   l0.012,0.126C261.28,276.253,261.28,276.254,261.28,276.256z"/>
    <path fill="#000000" d="M264.799,283.002l0.058-0.104c0-0.001,0-0.001,0-0.001c0.057-0.104,0.113-0.205,0.169-0.309   c0.231-0.423,0.074-0.953-0.35-1.184c-0.423-0.229-0.953-0.073-1.184,0.351c-0.053,0.099-0.107,0.197-0.163,0.297   c0,0-0.001,0-0.001,0.001l-0.053,0.097c-0.235,0.421-0.085,0.953,0.336,1.188c0.135,0.075,0.28,0.111,0.424,0.111   C264.342,283.449,264.639,283.287,264.799,283.002z"/>
    <path fill="#000000" d="M267.976,271.876c-0.476-0.076-0.923,0.247-0.999,0.725c-0.17,1.058-0.467,2.207-0.885,3.417   c-0.009,0.027-0.012,0.054-0.019,0.08c-0.012,0.024-0.024,0.046-0.033,0.07l-0.021,0.057c-0.001,0.002-0.001,0.003-0.002,0.004   l-0.037,0.106c-0.007,0.019-0.012,0.035-0.018,0.054c-0.007,0.016-0.014,0.033-0.021,0.051c-0.242,0.669-0.526,1.368-0.841,2.079   c-0.196,0.44,0.002,0.955,0.442,1.151c0.116,0.052,0.235,0.075,0.354,0.075c0.334,0,0.653-0.192,0.798-0.519   c0.332-0.747,0.63-1.484,0.888-2.191c0.007-0.02,0.013-0.038,0.018-0.058c0.008-0.018,0.015-0.036,0.022-0.055l0.038-0.108   c0.001-0.003,0.002-0.005,0.003-0.007l0.016-0.046c0.011-0.028,0.015-0.056,0.021-0.084c0.014-0.028,0.029-0.059,0.04-0.091   c0.449-1.305,0.771-2.554,0.958-3.711C268.777,272.4,268.452,271.952,267.976,271.876z"/>
    <path fill="#000000" d="M268.894,270.312c-0.003-0.126-0.007-0.25-0.013-0.371c-0.024-0.481-0.433-0.852-0.914-0.829   c-0.481,0.023-0.853,0.434-0.829,0.914c0.005,0.104,0.01,0.212,0.012,0.319l0.001,0.106c0.004,0.479,0.394,0.865,0.871,0.865   c0.004,0,0.007,0,0.009,0c0.482-0.005,0.869-0.398,0.864-0.88l-0.001-0.116C268.894,270.318,268.894,270.315,268.894,270.312z"/>
    <path fill="#000000" d="M261.275,247.216c0-1.46-0.568-2.832-1.6-3.863s-2.403-1.599-3.863-1.599c-3.012,0-5.463,2.45-5.463,5.462   s2.451,5.463,5.463,5.463C258.824,252.678,261.275,250.228,261.275,247.216z M252.094,247.216c0-2.05,1.668-3.717,3.718-3.717   c0.993,0,1.927,0.386,2.629,1.088c0.701,0.702,1.088,1.635,1.088,2.629c0,2.05-1.667,3.718-3.718,3.718   C253.762,250.933,252.094,249.265,252.094,247.216z"/>
    <path fill="#000000" d="M217.668,254.795c0.016,0.001,0.032,0.001,0.047,0.001c0.46,0,0.846-0.36,0.87-0.826l0.009-0.164   c0-0.003,0-0.007,0.001-0.01c0.01-0.174,0.021-0.348,0.034-0.522c0.035-0.48-0.327-0.898-0.807-0.934   c-0.479-0.034-0.898,0.327-0.934,0.808c-0.013,0.178-0.024,0.356-0.035,0.535c0,0.004,0,0.007-0.001,0.011l-0.01,0.183   C216.817,254.359,217.187,254.77,217.668,254.795z"/>
    <path fill="#000000" d="M218.401,248.422c0.065,0.015,0.129,0.021,0.193,0.021c0.398,0,0.759-0.275,0.85-0.681   c0.408-1.81,0.958-3.603,1.633-5.331c0.175-0.449-0.046-0.955-0.495-1.13c-0.449-0.176-0.955,0.046-1.13,0.495   c-0.708,1.81-1.283,3.688-1.71,5.583C217.636,247.849,217.931,248.317,218.401,248.422z"/>
    <path fill="#000000" d="M221.325,239.636c0.126,0.063,0.26,0.094,0.392,0.094c0.319,0,0.626-0.176,0.78-0.48l0.079-0.154   c0,0,0-0.001,0.001-0.001c0.079-0.156,0.159-0.311,0.241-0.465c0.225-0.427,0.062-0.955-0.364-1.179s-0.954-0.062-1.179,0.364   c-0.086,0.162-0.17,0.324-0.253,0.487c-0.001,0.001-0.002,0.003-0.003,0.005l-0.08,0.158   C220.722,238.895,220.895,239.42,221.325,239.636z"/>
    <path fill="#000000" d="M231.426,227.528c0.197,0,0.395-0.066,0.558-0.202l0.133-0.111c0,0,0.001,0,0.001-0.001   c0.134-0.11,0.27-0.22,0.406-0.329c0.375-0.301,0.437-0.851,0.135-1.227c-0.301-0.376-0.85-0.437-1.227-0.135   c-0.142,0.114-0.283,0.229-0.423,0.344c0,0-0.001,0-0.001,0.001l-0.002,0.001l0,0l-0.138,0.115   c-0.371,0.308-0.421,0.858-0.113,1.229C230.927,227.421,231.175,227.528,231.426,227.528z"/>
    <path fill="#000000" d="M222.239,272.232c-0.21-0.434-0.732-0.615-1.166-0.404c-0.434,0.209-0.616,0.73-0.405,1.165   c0.844,1.744,1.829,3.44,2.926,5.043c0.169,0.247,0.442,0.38,0.721,0.38c0.17,0,0.341-0.051,0.492-0.153   c0.397-0.272,0.499-0.815,0.227-1.213C223.985,275.519,223.045,273.898,222.239,272.232z"/>
    <path fill="#000000" d="M219.185,262.993c-0.344-1.815-0.555-3.679-0.626-5.536c-0.019-0.481-0.419-0.857-0.906-0.839   c-0.481,0.019-0.857,0.424-0.838,0.905c0.075,1.945,0.295,3.895,0.655,5.796c0.08,0.418,0.446,0.71,0.856,0.71   c0.054,0,0.108-0.005,0.164-0.016C218.964,263.924,219.275,263.467,219.185,262.993z"/>
    <path fill="#000000" d="M220.869,269.029l-0.061-0.164c0-0.001-0.001-0.002-0.001-0.003c-0.06-0.163-0.118-0.325-0.176-0.489   c-0.159-0.454-0.658-0.693-1.112-0.533c-0.455,0.159-0.694,0.657-0.535,1.113c0.06,0.171,0.122,0.342,0.184,0.512   c0,0.001,0.001,0.002,0.001,0.003l0.063,0.172c0.13,0.351,0.463,0.567,0.817,0.567c0.102,0,0.205-0.018,0.305-0.056   C220.808,269.983,221.037,269.48,220.869,269.029z"/>
    <path fill="#000000" d="M264.798,219.8l0.161,0.041c0.003,0,0.005,0.001,0.008,0.002c0.169,0.042,0.337,0.086,0.506,0.131   c0.075,0.021,0.15,0.03,0.226,0.03c0.386,0,0.737-0.257,0.843-0.647c0.124-0.466-0.152-0.944-0.618-1.068   c-0.174-0.047-0.348-0.092-0.521-0.136c-0.003,0-0.005-0.001-0.007-0.002l-0.18-0.044c-0.469-0.116-0.94,0.17-1.056,0.639   C264.044,219.212,264.33,219.684,264.798,219.8z"/>
    <path fill="#000000" d="M278.521,226.414l0.131,0.102c0.003,0.002,0.005,0.003,0.008,0.005c0.138,0.107,0.274,0.215,0.411,0.324   c0.16,0.128,0.353,0.191,0.544,0.191c0.256,0,0.51-0.112,0.682-0.328c0.301-0.376,0.239-0.925-0.137-1.226   c-0.14-0.112-0.28-0.223-0.423-0.333c-0.003-0.002-0.006-0.005-0.009-0.007l-0.144-0.111c-0.381-0.294-0.93-0.222-1.223,0.16   C278.067,225.572,278.139,226.12,278.521,226.414z"/>
    <path fill="#000000" d="M288.545,238.107c0.002,0.002,0.005,0.005,0.006,0.008c0.082,0.15,0.163,0.301,0.243,0.452   c0.156,0.295,0.459,0.463,0.772,0.463c0.138,0,0.277-0.033,0.408-0.102c0.425-0.226,0.587-0.754,0.36-1.18   c-0.084-0.161-0.171-0.32-0.258-0.48c-0.002-0.003-0.004-0.007-0.006-0.011l-0.083-0.149c-0.234-0.421-0.766-0.573-1.187-0.339   c-0.421,0.234-0.573,0.766-0.339,1.187L288.545,238.107z"/>
    <path fill="#000000" d="M292.951,252.503l0.015,0.175c0,0,0,0,0.001,0.001c0.016,0.173,0.029,0.347,0.043,0.52   c0.034,0.458,0.416,0.808,0.868,0.808c0.022,0,0.044-0.001,0.066-0.003c0.48-0.036,0.841-0.454,0.805-0.935   c-0.013-0.182-0.028-0.363-0.044-0.544c0,0,0-0.001,0-0.001v-0.001c0,0,0,0,0,0l-0.017-0.178c-0.044-0.48-0.471-0.832-0.949-0.789   C293.26,251.598,292.907,252.022,292.951,252.503z"/>
    <path fill="#000000" d="M293.946,257.966c-0.485-0.038-0.898,0.326-0.934,0.807c-0.136,1.853-0.413,3.707-0.821,5.51   c-0.106,0.471,0.188,0.938,0.658,1.044c0.065,0.016,0.13,0.022,0.194,0.022c0.397,0,0.758-0.274,0.85-0.68   c0.428-1.889,0.718-3.83,0.859-5.769C294.787,258.42,294.427,258.001,293.946,257.966z"/>
    <path fill="#000000" d="M228.883,281.789c-0.002-0.003-0.005-0.006-0.008-0.01c-0.121-0.125-0.241-0.252-0.359-0.38   c-0.328-0.353-0.88-0.373-1.233-0.044c-0.353,0.328-0.373,0.881-0.044,1.232c0.121,0.13,0.242,0.26,0.365,0.388   c0.004,0.004,0.007,0.007,0.01,0.011l0.127,0.132c0.171,0.177,0.399,0.267,0.627,0.267c0.219,0,0.437-0.081,0.606-0.245   c0.346-0.335,0.356-0.887,0.021-1.234L228.883,281.789z"/>
    <path fill="#000000" d="M245.182,220.216c0.081,0,0.162-0.011,0.243-0.034l0.164-0.047c0.001,0,0.003-0.001,0.004-0.001   c0.167-0.048,0.335-0.095,0.504-0.14c0.465-0.125,0.741-0.604,0.615-1.07c-0.125-0.465-0.604-0.742-1.069-0.615   c-0.174,0.047-0.348,0.095-0.521,0.144c-0.002,0-0.004,0.001-0.006,0.001l-0.176,0.05c-0.463,0.134-0.729,0.618-0.595,1.082   C244.455,219.968,244.803,220.216,245.182,220.216z"/>
    <path fill="#000000" d="M251.57,218.952c3.239-0.368,6.59-0.31,9.811,0.171c0.043,0.007,0.087,0.01,0.13,0.01   c0.425,0,0.797-0.311,0.861-0.744c0.071-0.477-0.258-0.921-0.734-0.992c-3.368-0.503-6.875-0.564-10.264-0.18   c-0.479,0.054-0.823,0.487-0.769,0.965C250.658,218.663,251.091,219.006,251.57,218.952z"/>
    <path fill="#000000" d="M250.302,292.889c-1.835-0.272-3.664-0.687-5.434-1.229c-0.461-0.141-0.949,0.118-1.09,0.578   c-0.142,0.461,0.118,0.949,0.579,1.091c1.854,0.567,3.768,1.001,5.689,1.286c0.043,0.007,0.086,0.01,0.129,0.01   c0.425,0,0.798-0.312,0.862-0.745C251.109,293.403,250.779,292.96,250.302,292.889z"/>
    <path fill="#000000" d="M279.091,285.145c-1.449,1.159-2.995,2.217-4.598,3.146c-0.417,0.242-0.559,0.775-0.317,1.193   c0.162,0.278,0.454,0.436,0.755,0.436c0.149,0,0.3-0.039,0.438-0.119c1.677-0.972,3.297-2.078,4.813-3.291   c0.377-0.301,0.438-0.852,0.137-1.228C280.017,284.906,279.467,284.844,279.091,285.145z"/>
    <path fill="#000000" d="M286.633,234.99c0.169,0.248,0.443,0.381,0.722,0.381c0.169,0,0.341-0.049,0.491-0.152   c0.397-0.272,0.5-0.815,0.228-1.213c-1.094-1.601-2.317-3.134-3.639-4.557c-0.328-0.354-0.88-0.374-1.233-0.046   c-0.353,0.328-0.374,0.88-0.046,1.233C284.418,231.996,285.588,233.46,286.633,234.99z"/>
    <path fill="#000000" d="M228.174,228.446c-1.37,1.375-2.649,2.864-3.799,4.426c-0.286,0.388-0.203,0.934,0.185,1.22   c0.156,0.115,0.337,0.17,0.517,0.17c0.268,0,0.532-0.123,0.703-0.355c1.1-1.492,2.321-2.915,3.63-4.229   c0.341-0.341,0.34-0.894-0.002-1.234C229.067,228.104,228.515,228.104,228.174,228.446z"/>
    <path fill="#000000" d="M283.642,280.837l-0.115,0.128c0,0.001-0.001,0.002-0.002,0.003c-0.117,0.129-0.233,0.257-0.352,0.384   c-0.327,0.354-0.308,0.906,0.047,1.233c0.168,0.156,0.381,0.233,0.593,0.233c0.234,0,0.468-0.095,0.64-0.279   c0.125-0.134,0.247-0.269,0.37-0.404c0.001-0.002,0.002-0.003,0.004-0.004l0.118-0.132c0.32-0.36,0.289-0.912-0.069-1.233   C284.515,280.445,283.963,280.477,283.642,280.837z"/>
    <path fill="#000000" d="M265.509,292.024c-1.787,0.479-3.628,0.827-5.474,1.035c-0.479,0.054-0.824,0.485-0.77,0.964   c0.05,0.446,0.428,0.775,0.866,0.775c0.032,0,0.065-0.001,0.099-0.005c1.932-0.217,3.859-0.582,5.73-1.084   c0.466-0.125,0.742-0.604,0.617-1.069S265.976,291.899,265.509,292.024z"/>
    <path fill="#000000" d="M271.402,289.894l-0.159,0.072l0,0c-0.158,0.072-0.317,0.143-0.477,0.213   c-0.44,0.193-0.642,0.708-0.449,1.149c0.145,0.327,0.464,0.522,0.8,0.522c0.118,0,0.236-0.023,0.351-0.073   c0.166-0.072,0.332-0.147,0.497-0.222c0.002-0.001,0.003-0.002,0.005-0.003l0.16-0.072c0.438-0.201,0.63-0.719,0.429-1.157   S271.838,289.693,271.402,289.894z"/>
    <path fill="#000000" d="M270.736,221.813c1.697,0.742,3.354,1.619,4.926,2.608c0.145,0.091,0.306,0.134,0.464,0.134   c0.29,0,0.574-0.145,0.739-0.408c0.257-0.408,0.135-0.947-0.273-1.203c-1.645-1.036-3.38-1.954-5.157-2.731   c-0.442-0.193-0.957,0.009-1.148,0.45C270.092,221.107,270.293,221.621,270.736,221.813z"/>
    <path fill="#000000" d="M289.988,273.05c-0.425-0.226-0.954-0.063-1.18,0.363c-0.865,1.638-1.864,3.226-2.967,4.719   c-0.286,0.388-0.204,0.934,0.185,1.221c0.155,0.115,0.337,0.171,0.517,0.171c0.268,0,0.532-0.123,0.703-0.355   c1.154-1.563,2.199-3.224,3.106-4.938C290.577,273.802,290.414,273.275,289.988,273.05z"/>
    <path fill="#000000" d="M256.558,293.287l-0.174,0.003c-0.174,0.003-0.349,0.005-0.524,0.005c-0.481,0.001-0.872,0.392-0.871,0.873   c0.001,0.482,0.391,0.871,0.873,0.871c0,0,0.001,0,0.002,0c0.182,0,0.364-0.001,0.545-0.004c0.002,0,0.003,0,0.005,0l0.178-0.003   c0.482-0.01,0.865-0.408,0.855-0.89C257.438,293.66,257.035,293.27,256.558,293.287z"/>
    <path fill="#000000" d="M241.59,290.482l-0.149-0.063c-0.004-0.002-0.008-0.004-0.013-0.005c-0.161-0.068-0.322-0.137-0.482-0.206   c-0.442-0.193-0.957,0.009-1.148,0.452c-0.193,0.441,0.009,0.956,0.452,1.148c0.162,0.07,0.325,0.141,0.489,0.209   c0.005,0.002,0.01,0.004,0.016,0.007l0.167,0.069c0.109,0.045,0.223,0.066,0.334,0.066c0.343,0,0.667-0.202,0.807-0.538   C242.247,291.177,242.035,290.667,241.59,290.482z"/>
    <path fill="#000000" d="M236.016,287.605c-1.569-0.985-3.079-2.099-4.486-3.308c-0.366-0.314-0.916-0.272-1.23,0.093   c-0.314,0.366-0.272,0.917,0.093,1.23c1.473,1.267,3.053,2.431,4.695,3.463c0.144,0.091,0.305,0.134,0.463,0.134   c0.291,0,0.574-0.145,0.74-0.408C236.547,288.401,236.425,287.862,236.016,287.605z"/>
    <path fill="#000000" d="M241.487,219.684c-1.802,0.711-3.567,1.567-5.246,2.542c-0.417,0.242-0.559,0.776-0.316,1.193   c0.162,0.278,0.455,0.434,0.755,0.434c0.149,0,0.3-0.038,0.438-0.119c1.604-0.931,3.29-1.748,5.011-2.428   c0.448-0.177,0.668-0.684,0.491-1.133C242.442,219.727,241.936,219.507,241.487,219.684z"/>
    <path fill="#000000" d="M292.467,249.053c0.079,0.419,0.445,0.711,0.856,0.711c0.054,0,0.107-0.005,0.162-0.015   c0.474-0.089,0.785-0.545,0.695-1.019c-0.358-1.908-0.866-3.804-1.508-5.635c-0.159-0.455-0.657-0.695-1.111-0.535   c-0.456,0.159-0.695,0.657-0.536,1.112C291.639,245.42,292.122,247.231,292.467,249.053z"/>
    <path fill="#000000" d="M292.362,267.083c-0.457-0.149-0.95,0.1-1.1,0.559l-0.056,0.165l0,0c-0.055,0.167-0.111,0.331-0.169,0.496   c-0.158,0.456,0.081,0.954,0.536,1.112c0.096,0.033,0.192,0.05,0.288,0.05c0.36,0,0.697-0.227,0.823-0.586   c0.061-0.172,0.119-0.345,0.177-0.518c0-0.001,0-0.001,0-0.002l0.001-0.002l0.001-0.001l0.057-0.172   C293.07,267.725,292.821,267.233,292.362,267.083z"/>
  </g>
  <text x="206" y="321" fill="#000000" font-size="5px" font-weight="bold" font-family="'Helvetica Neue', Helvetica, Arial-Unicode, Arial, Sans-serif">Created by Iconika</text>
  <text x="206" y="326" fill="#000000" font-size="5px" font-weight="bold" font-family="'Helvetica Neue', Helvetica, Arial-Unicode, Arial, Sans-serif">from the Noun Project</text>
</svg>
