<svg xmlns:dc="http://purl.org/dc/elements/1.1/" xmlns:cc="http://creativecommons.org/ns#" xmlns:rdf="http://www.w3.org/1999/02/22-rdf-syntax-ns#" xmlns:svg="http://www.w3.org/2000/svg" xmlns="http://www.w3.org/2000/svg" xmlns:sodipodi="http://sodipodi.sourceforge.net/DTD/sodipodi-0.dtd" xmlns:inkscape="http://www.inkscape.org/namespaces/inkscape" viewBox="0 0 32 40.00000125" version="1.1" x="0px" y="0px">
  <g transform="translate(0,-1020.3622)">
    <path style="color:#000000;font-style:normal;font-variant:normal;font-weight:normal;font-stretch:normal;font-size:medium;line-height:normal;font-family:sans-serif;text-indent:0;text-align:start;text-decoration:none;text-decoration-line:none;text-decoration-style:solid;text-decoration-color:#000000;letter-spacing:normal;word-spacing:normal;text-transform:none;direction:ltr;block-progression:tb;writing-mode:lr-tb;baseline-shift:baseline;text-anchor:start;white-space:normal;clip-rule:nonzero;display:inline;overflow:visible;visibility:visible;opacity:1;isolation:auto;mix-blend-mode:normal;color-interpolation:sRGB;color-interpolation-filters:linearRGB;solid-color:#000000;solid-opacity:1;fill:#000000;fill-opacity:1;fill-rule:evenodd;stroke:none;stroke-width:1px;stroke-linecap:butt;stroke-linejoin:round;stroke-miterlimit:4;stroke-dasharray:none;stroke-dashoffset:0;stroke-opacity:1;color-rendering:auto;image-rendering:auto;shape-rendering:auto;text-rendering:auto;enable-background:accumulate" d="m 13.858347,1028.1914 c -3.30721,0.5019 -6.5580991,1.8642 -10.9140623,2.9473 -0.2047121,0.051 -0.3990709,0.2053 -0.4960938,0.3789 -0.097023,0.1736 -0.119315,0.3456 -0.1171875,0.5039 0.00426,0.3165 0.1029863,0.6104 0.2421875,0.8945 0.1392013,0.2841 0.3218765,0.551 0.5585938,0.7637 0.2367173,0.2127 0.5900175,0.4137 0.9960937,0.291 2.4093243,-0.7281 4.6278043,-1.3431 5.6152344,-1.6191 l -2.7050781,4.7812 0.8710937,0.4922 3.3066406,-5.8457 a 0.50005,0.50005 0 0 0 -0.56836,-0.7285 c 0,0 -3.8774825,1.0771 -6.8085931,1.9629 0.07406,-0.022 0.063878,0.014 -0.039063,-0.078 -0.1029403,-0.092 -0.2365608,-0.2721 -0.328125,-0.4589 -0.080924,-0.1652 -0.1144373,-0.3198 -0.125,-0.4141 4.3404494,-1.0935 7.5702831,-2.4136 10.6621091,-2.8828 0.0046,-7e-4 0.01485,-0.01 0.07813,0.041 0.06327,0.049 0.153117,0.1531 0.222656,0.2852 0.139078,0.2641 0.165087,0.6348 0.132812,0.7246 -0.07806,0.2171 -0.373549,0.8341 -0.751953,1.5605 -0.378403,0.7265 -0.84587,1.5898 -1.300781,2.418 -0.909822,1.6563 -1.767578,3.168 -1.767578,3.168 l 0.86914,0.4941 c 0,0 0.859498,-1.5159 1.773438,-3.1797 0.45697,-0.8319 0.928244,-1.7018 1.3125,-2.4394 0.384256,-0.7377 0.674708,-1.3166 0.80664,-1.6836 0.190311,-0.5296 0.05428,-1.0645 -0.189453,-1.5274 -0.121867,-0.2314 -0.279893,-0.4447 -0.496093,-0.6113 -0.216201,-0.1666 -0.519081,-0.2869 -0.839844,-0.2383 z"/>
    <path style="color:#000000;font-style:normal;font-variant:normal;font-weight:normal;font-stretch:normal;font-size:medium;line-height:normal;font-family:sans-serif;text-indent:0;text-align:start;text-decoration:none;text-decoration-line:none;text-decoration-style:solid;text-decoration-color:#000000;letter-spacing:normal;word-spacing:normal;text-transform:none;direction:ltr;block-progression:tb;writing-mode:lr-tb;baseline-shift:baseline;text-anchor:start;white-space:normal;clip-rule:nonzero;display:inline;overflow:visible;visibility:visible;opacity:1;isolation:auto;mix-blend-mode:normal;color-interpolation:sRGB;color-interpolation-filters:linearRGB;solid-color:#000000;solid-opacity:1;fill:#000000;fill-opacity:1;fill-rule:evenodd;stroke:none;stroke-width:0.99999994px;stroke-linecap:butt;stroke-linejoin:miter;stroke-miterlimit:4;stroke-dasharray:none;stroke-dashoffset:0;stroke-opacity:1;color-rendering:auto;image-rendering:auto;shape-rendering:auto;text-rendering:auto;enable-background:accumulate" d="m 15.245066,1022.7031 c -0.442918,-0.051 -0.900416,0 -1.322266,0.2031 -0.744164,0.3536 -1.104878,1.1167 -1.238281,1.7989 -0.139379,0.7122 -0.05814,1.5577 0.46875,2.1836 0.519506,0.6161 1.325281,0.8372 2.041015,0.8183 0.747783,-0.019 1.55678,-0.306 2.064453,-0.9511 l 0,0 c 0.439754,-0.5591 0.501376,-1.2779 0.378907,-1.8906 -0.13504,-0.675 -0.517398,-1.3474 -1.15625,-1.7324 -0.365092,-0.2202 -0.79341,-0.3767 -1.236328,-0.4278 z m -0.892579,1.1055 c 0.418139,-0.1986 1.147071,-0.1034 1.613282,0.1777 0.320262,0.193 0.6068,0.6514 0.691406,1.0742 0.07484,0.3745 -8.53e-4,0.8439 -0.183594,1.0762 -0.254326,0.3232 -0.820414,0.5578 -1.304687,0.5703 l -0.002,0 c -0.46087,0.012 -1.00908,-0.1794 -1.248047,-0.4629 -0.246077,-0.2923 -0.343193,-0.8814 -0.251953,-1.3476 0.08859,-0.453 0.384777,-0.945 0.685546,-1.0879 z"/>
    <path style="color:#000000;font-style:normal;font-variant:normal;font-weight:normal;font-stretch:normal;font-size:medium;line-height:normal;font-family:sans-serif;text-indent:0;text-align:start;text-decoration:none;text-decoration-line:none;text-decoration-style:solid;text-decoration-color:#000000;letter-spacing:normal;word-spacing:normal;text-transform:none;direction:ltr;block-progression:tb;writing-mode:lr-tb;baseline-shift:baseline;text-anchor:start;white-space:normal;clip-rule:nonzero;display:inline;overflow:visible;visibility:visible;opacity:1;isolation:auto;mix-blend-mode:normal;color-interpolation:sRGB;color-interpolation-filters:linearRGB;solid-color:#000000;solid-opacity:1;fill:#000000;fill-opacity:1;fill-rule:evenodd;stroke:none;stroke-width:1px;stroke-linecap:butt;stroke-linejoin:round;stroke-miterlimit:4;stroke-dasharray:none;stroke-dashoffset:0;stroke-opacity:1;color-rendering:auto;image-rendering:auto;shape-rendering:auto;text-rendering:auto;enable-background:accumulate" d="m 27.627878,1028.1914 c -3.30721,0.5019 -6.558099,1.8642 -10.914062,2.9473 -0.204712,0.051 -0.401024,0.2053 -0.498047,0.3789 -0.09702,0.1736 -0.117362,0.3456 -0.115235,0.5039 0.0043,0.3165 0.102987,0.6104 0.242188,0.8945 0.139201,0.2841 0.319923,0.551 0.556641,0.7637 0.236717,0.2127 0.59197,0.4137 0.998046,0.291 2.409966,-0.7283 4.628648,-1.3434 5.615235,-1.6191 l -2.705078,4.7812 0.86914,0.4922 3.306641,-5.8457 a 0.50005,0.50005 0 0 0 -0.56836,-0.7285 c 0,0 -3.875529,1.0771 -6.80664,1.9629 0.07406,-0.022 0.06192,0.014 -0.04102,-0.078 -0.10294,-0.092 -0.234607,-0.2721 -0.326172,-0.4589 -0.08092,-0.1652 -0.114437,-0.3198 -0.125,-0.4141 4.339427,-1.0934 7.568809,-2.4137 10.660157,-2.8828 0.0046,-7e-4 0.0168,-0.01 0.08008,0.041 0.06327,0.049 0.151164,0.1531 0.220703,0.2852 0.139078,0.2641 0.16704,0.6348 0.134766,0.7246 -0.07806,0.2171 -0.375503,0.8341 -0.753907,1.5605 -0.378403,0.7265 -0.84587,1.5898 -1.300781,2.418 -0.909822,1.6563 -1.767578,3.168 -1.767578,3.168 l 0.86914,0.4941 c 0,0 0.861451,-1.5159 1.775391,-3.1797 0.45697,-0.8319 0.926291,-1.7018 1.310547,-2.4394 0.384256,-0.7377 0.674708,-1.3166 0.806641,-1.6836 0.19031,-0.5296 0.05428,-1.0645 -0.189453,-1.5274 -0.121868,-0.2314 -0.279894,-0.4447 -0.496094,-0.6113 -0.2162,-0.1666 -0.517127,-0.2869 -0.837891,-0.2383 z"/>
    <path style="color:#000000;font-style:normal;font-variant:normal;font-weight:normal;font-stretch:normal;font-size:medium;line-height:normal;font-family:sans-serif;text-indent:0;text-align:start;text-decoration:none;text-decoration-line:none;text-decoration-style:solid;text-decoration-color:#000000;letter-spacing:normal;word-spacing:normal;text-transform:none;direction:ltr;block-progression:tb;writing-mode:lr-tb;baseline-shift:baseline;text-anchor:start;white-space:normal;clip-rule:nonzero;display:inline;overflow:visible;visibility:visible;opacity:1;isolation:auto;mix-blend-mode:normal;color-interpolation:sRGB;color-interpolation-filters:linearRGB;solid-color:#000000;solid-opacity:1;fill:#000000;fill-opacity:1;fill-rule:evenodd;stroke:none;stroke-width:0.99999994px;stroke-linecap:butt;stroke-linejoin:miter;stroke-miterlimit:4;stroke-dasharray:none;stroke-dashoffset:0;stroke-opacity:1;color-rendering:auto;image-rendering:auto;shape-rendering:auto;text-rendering:auto;enable-background:accumulate" d="m 28.961863,1022.6855 c -0.715615,-0.019 -1.519533,0.2042 -2.039063,0.8204 -0.526893,0.6258 -0.610071,1.4693 -0.470703,2.1816 0.133409,0.6821 0.49607,1.4453 1.240234,1.7988 0.8437,0.4007 1.828431,0.2175 2.558594,-0.2226 0.638778,-0.3851 1.019257,-1.0595 1.154297,-1.7344 0.122467,-0.6127 0.06082,-1.3316 -0.378906,-1.8906 -0.507663,-0.6453 -1.316671,-0.9337 -2.064453,-0.9532 z m -0.02539,1 c 0.484273,0.013 1.05035,0.249 1.304687,0.5723 0.182068,0.2328 0.258304,0.7024 0.183594,1.0762 -0.08461,0.4229 -0.37107,0.8791 -0.691406,1.0722 -0.466231,0.2811 -1.195143,0.3763 -1.613281,0.1778 -0.30077,-0.1429 -0.596958,-0.635 -0.685547,-1.0879 -0.09112,-0.4657 0.0066,-1.053 0.251953,-1.3457 0.238944,-0.2834 0.789011,-0.4769 1.25,-0.4649 z"/>
    <path style="color:#000000;font-style:normal;font-variant:normal;font-weight:normal;font-stretch:normal;font-size:medium;line-height:normal;font-family:sans-serif;text-indent:0;text-align:start;text-decoration:none;text-decoration-line:none;text-decoration-style:solid;text-decoration-color:#000000;letter-spacing:normal;word-spacing:normal;text-transform:none;direction:ltr;block-progression:tb;writing-mode:lr-tb;baseline-shift:baseline;text-anchor:start;white-space:normal;clip-rule:nonzero;display:inline;overflow:visible;visibility:visible;opacity:1;isolation:auto;mix-blend-mode:normal;color-interpolation:sRGB;color-interpolation-filters:linearRGB;solid-color:#000000;solid-opacity:1;fill:#000000;fill-opacity:1;fill-rule:evenodd;stroke:none;stroke-width:1px;stroke-linecap:butt;stroke-linejoin:miter;stroke-miterlimit:4;stroke-dasharray:none;stroke-dashoffset:0;stroke-opacity:1;color-rendering:auto;image-rendering:auto;shape-rendering:auto;text-rendering:auto;enable-background:accumulate" d="m 4.7313941,1033.082 -0.9433594,0.3301 4.2851562,12.3047 0.9453125,-0.3281 -4.2871093,-12.3067 z"/>
    <path style="color:#000000;font-style:normal;font-variant:normal;font-weight:normal;font-stretch:normal;font-size:medium;line-height:normal;font-family:sans-serif;text-indent:0;text-align:start;text-decoration:none;text-decoration-line:none;text-decoration-style:solid;text-decoration-color:#000000;letter-spacing:normal;word-spacing:normal;text-transform:none;direction:ltr;block-progression:tb;writing-mode:lr-tb;baseline-shift:baseline;text-anchor:start;white-space:normal;clip-rule:nonzero;display:inline;overflow:visible;visibility:visible;opacity:1;isolation:auto;mix-blend-mode:normal;color-interpolation:sRGB;color-interpolation-filters:linearRGB;solid-color:#000000;solid-opacity:1;fill:#000000;fill-opacity:1;fill-rule:evenodd;stroke:none;stroke-width:1px;stroke-linecap:round;stroke-linejoin:round;stroke-miterlimit:4;stroke-dasharray:none;stroke-dashoffset:0;stroke-opacity:1;color-rendering:auto;image-rendering:auto;shape-rendering:auto;text-rendering:auto;enable-background:accumulate" d="m 8.4462378,1044.8984 a 0.50005,0.50005 0 0 0 -0.4160156,0.2559 l -0.84375,1.5156 a 0.50005,0.50005 0 0 0 -0.037109,0.4043 l 0.7792969,2.2949 a 0.50005,0.50005 0 0 0 0.2421875,0.2813 c 0,0 0.1635202,0.086 0.3710937,0.1738 0.2075735,0.088 0.4404976,0.19 0.7421875,0.207 0.3985311,0.023 0.9342732,0.021 1.3730472,-0.3593 0.295789,-0.2566 0.349628,-0.53 0.416016,-0.7598 0.06639,-0.2298 0.0957,-0.4277 0.0957,-0.4277 a 0.50005,0.50005 0 0 0 -0.01172,-0.2129 l -0.628906,-2.2305 a 0.50005,0.50005 0 0 0 -0.259766,-0.3125 l -1.5800747,-0.7793 a 0.50005,0.50005 0 0 0 -0.2421875,-0.051 z m 0.2265625,1.1582 0.953125,0.4707 0.5332027,1.8946 c -0.0097,0.052 -0.01421,0.1 -0.04687,0.2129 -0.04679,0.1619 -0.167192,0.3297 -0.111328,0.2812 -0.086929,0.075 -0.3632757,0.1343 -0.6601559,0.1172 -0.019648,0 -0.2434402,-0.061 -0.4101563,-0.1309 -0.06934,-0.029 -0.073019,-0.035 -0.1230469,-0.058 l -0.640625,-1.8809 0.5058594,-0.9063 z"/>
    <path style="color:#000000;font-style:normal;font-variant:normal;font-weight:normal;font-stretch:normal;font-size:medium;line-height:normal;font-family:sans-serif;text-indent:0;text-align:start;text-decoration:none;text-decoration-line:none;text-decoration-style:solid;text-decoration-color:#000000;letter-spacing:normal;word-spacing:normal;text-transform:none;direction:ltr;block-progression:tb;writing-mode:lr-tb;baseline-shift:baseline;text-anchor:start;white-space:normal;clip-rule:nonzero;display:inline;overflow:visible;visibility:visible;opacity:1;isolation:auto;mix-blend-mode:normal;color-interpolation:sRGB;color-interpolation-filters:linearRGB;solid-color:#000000;solid-opacity:1;fill:#000000;fill-opacity:1;fill-rule:evenodd;stroke:none;stroke-width:1px;stroke-linecap:butt;stroke-linejoin:miter;stroke-miterlimit:4;stroke-dasharray:none;stroke-dashoffset:0;stroke-opacity:1;color-rendering:auto;image-rendering:auto;shape-rendering:auto;text-rendering:auto;enable-background:accumulate" d="m 18.586863,1033.082 -0.945313,0.3301 4.287109,12.3047 0.94336,-0.3281 -4.285156,-12.3067 z"/>
    <path style="color:#000000;font-style:normal;font-variant:normal;font-weight:normal;font-stretch:normal;font-size:medium;line-height:normal;font-family:sans-serif;text-indent:0;text-align:start;text-decoration:none;text-decoration-line:none;text-decoration-style:solid;text-decoration-color:#000000;letter-spacing:normal;word-spacing:normal;text-transform:none;direction:ltr;block-progression:tb;writing-mode:lr-tb;baseline-shift:baseline;text-anchor:start;white-space:normal;clip-rule:nonzero;display:inline;overflow:visible;visibility:visible;opacity:1;isolation:auto;mix-blend-mode:normal;color-interpolation:sRGB;color-interpolation-filters:linearRGB;solid-color:#000000;solid-opacity:1;fill:#000000;fill-opacity:1;fill-rule:evenodd;stroke:none;stroke-width:1px;stroke-linecap:round;stroke-linejoin:round;stroke-miterlimit:4;stroke-dasharray:none;stroke-dashoffset:0;stroke-opacity:1;color-rendering:auto;image-rendering:auto;shape-rendering:auto;text-rendering:auto;enable-background:accumulate" d="m 22.301706,1044.8984 a 0.50005,0.50005 0 0 0 -0.416015,0.2559 l -0.84375,1.5156 a 0.50005,0.50005 0 0 0 -0.03711,0.4043 l 0.779297,2.2949 a 0.50005,0.50005 0 0 0 0.242188,0.2813 c 0,0 0.16352,0.086 0.371093,0.1738 0.207574,0.088 0.438545,0.19 0.740235,0.207 0.398698,0.023 0.933688,0.022 1.373047,-0.3593 0.29579,-0.2566 0.349627,-0.53 0.416015,-0.7598 0.06639,-0.2298 0.09766,-0.4277 0.09766,-0.4277 a 0.50005,0.50005 0 0 0 -0.01367,-0.2129 l -0.626954,-2.2305 a 0.50005,0.50005 0 0 0 -0.259765,-0.3125 l -1.580078,-0.7793 a 0.50005,0.50005 0 0 0 -0.242188,-0.051 z m 0.22461,1.1602 0.955078,0.4687 0.533203,1.8946 c -0.0097,0.052 -0.01421,0.1 -0.04687,0.2129 -0.04679,0.1619 -0.167192,0.3297 -0.111328,0.2812 -0.08693,0.075 -0.365229,0.1343 -0.66211,0.1172 -0.01965,0 -0.241487,-0.061 -0.408203,-0.1309 -0.06934,-0.029 -0.07302,-0.035 -0.123047,-0.058 l -0.640625,-1.8809 0.503907,-0.9043 z"/>
    <path style="color:#000000;font-style:normal;font-variant:normal;font-weight:normal;font-stretch:normal;font-size:medium;line-height:normal;font-family:sans-serif;text-indent:0;text-align:start;text-decoration:none;text-decoration-line:none;text-decoration-style:solid;text-decoration-color:#000000;letter-spacing:normal;word-spacing:normal;text-transform:none;direction:ltr;block-progression:tb;writing-mode:lr-tb;baseline-shift:baseline;text-anchor:start;white-space:normal;clip-rule:nonzero;display:inline;overflow:visible;visibility:visible;opacity:1;isolation:auto;mix-blend-mode:normal;color-interpolation:sRGB;color-interpolation-filters:linearRGB;solid-color:#000000;solid-opacity:1;fill:#000000;fill-opacity:1;fill-rule:evenodd;stroke:none;stroke-width:1px;stroke-linecap:round;stroke-linejoin:round;stroke-miterlimit:4;stroke-dasharray:none;stroke-dashoffset:0;stroke-opacity:1;color-rendering:auto;image-rendering:auto;shape-rendering:auto;text-rendering:auto;enable-background:accumulate" d="m 0.46576905,1035.7207 a 0.50005,0.50005 0 0 0 -0.34375,0.8262 l 3.55078125,4.1133 a 0.50005,0.50005 0 1 0 0.7558594,-0.6543 l -2.3378906,-2.709 2.1445312,0.7383 a 0.50005,0.50005 0 0 0 0.1640625,0.027 l 22.2968742,-0.043 a 0.50005,0.50005 0 0 0 0.117188,-0.014 l 2.738281,-0.6661 -3.048828,2.5684 a 0.50005,0.50005 0 1 0 0.644531,0.7637 l 4.675782,-3.9395 a 0.50005,0.50005 0 0 0 -0.439454,-0.8672 l -4.748046,1.1543 -22.1542969,0.043 -3.81835942,-1.3145 a 0.50005,0.50005 0 0 0 -0.19726563,-0.027 z"/>
    <path style="color:#000000;font-style:normal;font-variant:normal;font-weight:normal;font-stretch:normal;font-size:medium;line-height:normal;font-family:sans-serif;text-indent:0;text-align:start;text-decoration:none;text-decoration-line:none;text-decoration-style:solid;text-decoration-color:#000000;letter-spacing:normal;word-spacing:normal;text-transform:none;direction:ltr;block-progression:tb;writing-mode:lr-tb;baseline-shift:baseline;text-anchor:start;white-space:normal;clip-rule:nonzero;display:inline;overflow:visible;visibility:visible;opacity:1;isolation:auto;mix-blend-mode:normal;color-interpolation:sRGB;color-interpolation-filters:linearRGB;solid-color:#000000;solid-opacity:1;fill:#000000;fill-opacity:1;fill-rule:evenodd;stroke:none;stroke-width:1px;stroke-linecap:round;stroke-linejoin:round;stroke-miterlimit:4;stroke-dasharray:none;stroke-dashoffset:0;stroke-opacity:1;color-rendering:auto;image-rendering:auto;shape-rendering:auto;text-rendering:auto;enable-background:accumulate" d="m 6.6688941,1039.9199 -5.5859376,0.021 a 0.50005,0.50005 0 1 0 0.00391,1 l 5.5859375,-0.021 a 0.50005,0.50005 0 1 0 -0.00391,-1 z"/>
    <path style="color:#000000;font-style:normal;font-variant:normal;font-weight:normal;font-stretch:normal;font-size:medium;line-height:normal;font-family:sans-serif;text-indent:0;text-align:start;text-decoration:none;text-decoration-line:none;text-decoration-style:solid;text-decoration-color:#000000;letter-spacing:normal;word-spacing:normal;text-transform:none;direction:ltr;block-progression:tb;writing-mode:lr-tb;baseline-shift:baseline;text-anchor:start;white-space:normal;clip-rule:nonzero;display:inline;overflow:visible;visibility:visible;opacity:1;isolation:auto;mix-blend-mode:normal;color-interpolation:sRGB;color-interpolation-filters:linearRGB;solid-color:#000000;solid-opacity:1;fill:#000000;fill-opacity:1;fill-rule:evenodd;stroke:none;stroke-width:1px;stroke-linecap:round;stroke-linejoin:round;stroke-miterlimit:4;stroke-dasharray:none;stroke-dashoffset:0;stroke-opacity:1;color-rendering:auto;image-rendering:auto;shape-rendering:auto;text-rendering:auto;enable-background:accumulate" d="m 9.0380347,1039.877 a 0.50011538,0.50011538 0 0 0 0.021484,1 l 9.2226563,0.2597 a 0.50018689,0.50018689 0 1 0 0.02734,-1 l -9.2226566,-0.2597 a 0.50005,0.50005 0 0 0 -0.048828,0 z"/>
    <path style="color:#000000;font-style:normal;font-variant:normal;font-weight:normal;font-stretch:normal;font-size:medium;line-height:normal;font-family:sans-serif;text-indent:0;text-align:start;text-decoration:none;text-decoration-line:none;text-decoration-style:solid;text-decoration-color:#000000;letter-spacing:normal;word-spacing:normal;text-transform:none;direction:ltr;block-progression:tb;writing-mode:lr-tb;baseline-shift:baseline;text-anchor:start;white-space:normal;clip-rule:nonzero;display:inline;overflow:visible;visibility:visible;opacity:1;isolation:auto;mix-blend-mode:normal;color-interpolation:sRGB;color-interpolation-filters:linearRGB;solid-color:#000000;solid-opacity:1;fill:#000000;fill-opacity:1;fill-rule:evenodd;stroke:none;stroke-width:1px;stroke-linecap:round;stroke-linejoin:round;stroke-miterlimit:4;stroke-dasharray:none;stroke-dashoffset:0;stroke-opacity:1;color-rendering:auto;image-rendering:auto;shape-rendering:auto;text-rendering:auto;enable-background:accumulate" d="m 29.803659,1039.9199 -7.013672,0.1289 a 0.50007726,0.50007726 0 1 0 0.01758,1 l 7.013671,-0.1289 a 0.50007726,0.50007726 0 1 0 -0.01758,-1 z"/>
    <path style="color:#000000;font-style:normal;font-variant:normal;font-weight:normal;font-stretch:normal;font-size:medium;line-height:normal;font-family:sans-serif;text-indent:0;text-align:start;text-decoration:none;text-decoration-line:none;text-decoration-style:solid;text-decoration-color:#000000;letter-spacing:normal;word-spacing:normal;text-transform:none;direction:ltr;block-progression:tb;writing-mode:lr-tb;baseline-shift:baseline;text-anchor:start;white-space:normal;clip-rule:nonzero;display:inline;overflow:visible;visibility:visible;opacity:1;isolation:auto;mix-blend-mode:normal;color-interpolation:sRGB;color-interpolation-filters:linearRGB;solid-color:#000000;solid-opacity:1;fill:#000000;fill-opacity:1;fill-rule:evenodd;stroke:none;stroke-width:1px;stroke-linecap:round;stroke-linejoin:round;stroke-miterlimit:4;stroke-dasharray:none;stroke-dashoffset:0;stroke-opacity:1;color-rendering:auto;image-rendering:auto;shape-rendering:auto;text-rendering:auto;enable-background:accumulate" d="m 28.786081,1041.7383 -4.849609,0.3027 a 0.50005,0.50005 0 1 0 0.0625,0.9981 l 4.849609,-0.3028 a 0.50005,0.50005 0 1 0 -0.0625,-0.998 z"/>
    <path style="color:#000000;font-style:normal;font-variant:normal;font-weight:normal;font-stretch:normal;font-size:medium;line-height:normal;font-family:sans-serif;text-indent:0;text-align:start;text-decoration:none;text-decoration-line:none;text-decoration-style:solid;text-decoration-color:#000000;letter-spacing:normal;word-spacing:normal;text-transform:none;direction:ltr;block-progression:tb;writing-mode:lr-tb;baseline-shift:baseline;text-anchor:start;white-space:normal;clip-rule:nonzero;display:inline;overflow:visible;visibility:visible;opacity:1;isolation:auto;mix-blend-mode:normal;color-interpolation:sRGB;color-interpolation-filters:linearRGB;solid-color:#000000;solid-opacity:1;fill:#000000;fill-opacity:1;fill-rule:evenodd;stroke:none;stroke-width:1px;stroke-linecap:round;stroke-linejoin:round;stroke-miterlimit:4;stroke-dasharray:none;stroke-dashoffset:0;stroke-opacity:1;color-rendering:auto;image-rendering:auto;shape-rendering:auto;text-rendering:auto;enable-background:accumulate" d="m 24.155222,1043.6855 a 0.50005,0.50005 0 0 0 0.0078,1 l 3.205079,0.1309 a 0.50042048,0.50042048 0 1 0 0.04102,-1 l -3.205078,-0.1309 a 0.50005,0.50005 0 0 0 -0.04883,0 z"/>
    <path style="color:#000000;font-style:normal;font-variant:normal;font-weight:normal;font-stretch:normal;font-size:medium;line-height:normal;font-family:sans-serif;text-indent:0;text-align:start;text-decoration:none;text-decoration-line:none;text-decoration-style:solid;text-decoration-color:#000000;letter-spacing:normal;word-spacing:normal;text-transform:none;direction:ltr;block-progression:tb;writing-mode:lr-tb;baseline-shift:baseline;text-anchor:start;white-space:normal;clip-rule:nonzero;display:inline;overflow:visible;visibility:visible;opacity:1;isolation:auto;mix-blend-mode:normal;color-interpolation:sRGB;color-interpolation-filters:linearRGB;solid-color:#000000;solid-opacity:1;fill:#000000;fill-opacity:1;fill-rule:evenodd;stroke:none;stroke-width:0.99999994px;stroke-linecap:round;stroke-linejoin:round;stroke-miterlimit:4;stroke-dasharray:none;stroke-dashoffset:0;stroke-opacity:1;color-rendering:auto;image-rendering:auto;shape-rendering:auto;text-rendering:auto;enable-background:accumulate" d="m 20.229441,1043.8906 -1.917969,0.045 a 0.50013734,0.50013734 0 1 0 0.02344,1 l 1.917969,-0.047 a 0.50004997,0.50004997 0 1 0 -0.02344,-0.9981 z"/>
    <path style="color:#000000;font-style:normal;font-variant:normal;font-weight:normal;font-stretch:normal;font-size:medium;line-height:normal;font-family:sans-serif;text-indent:0;text-align:start;text-decoration:none;text-decoration-line:none;text-decoration-style:solid;text-decoration-color:#000000;letter-spacing:normal;word-spacing:normal;text-transform:none;direction:ltr;block-progression:tb;writing-mode:lr-tb;baseline-shift:baseline;text-anchor:start;white-space:normal;clip-rule:nonzero;display:inline;overflow:visible;visibility:visible;opacity:1;isolation:auto;mix-blend-mode:normal;color-interpolation:sRGB;color-interpolation-filters:linearRGB;solid-color:#000000;solid-opacity:1;fill:#000000;fill-opacity:1;fill-rule:evenodd;stroke:none;stroke-width:0.99999994px;stroke-linecap:round;stroke-linejoin:round;stroke-miterlimit:4;stroke-dasharray:none;stroke-dashoffset:0;stroke-opacity:1;color-rendering:auto;image-rendering:auto;shape-rendering:auto;text-rendering:auto;enable-background:accumulate" d="m 9.9208472,1043.8594 a 0.50004997,0.50004997 0 1 0 0,1 l 6.5097658,0 a 0.50004997,0.50004997 0 1 0 0,-1 l -6.5097658,0 z"/>
    <path style="color:#000000;font-style:normal;font-variant:normal;font-weight:normal;font-stretch:normal;font-size:medium;line-height:normal;font-family:sans-serif;text-indent:0;text-align:start;text-decoration:none;text-decoration-line:none;text-decoration-style:solid;text-decoration-color:#000000;letter-spacing:normal;word-spacing:normal;text-transform:none;direction:ltr;block-progression:tb;writing-mode:lr-tb;baseline-shift:baseline;text-anchor:start;white-space:normal;clip-rule:nonzero;display:inline;overflow:visible;visibility:visible;opacity:1;isolation:auto;mix-blend-mode:normal;color-interpolation:sRGB;color-interpolation-filters:linearRGB;solid-color:#000000;solid-opacity:1;fill:#000000;fill-opacity:1;fill-rule:evenodd;stroke:none;stroke-width:1px;stroke-linecap:round;stroke-linejoin:round;stroke-miterlimit:4;stroke-dasharray:none;stroke-dashoffset:0;stroke-opacity:1;color-rendering:auto;image-rendering:auto;shape-rendering:auto;text-rendering:auto;enable-background:accumulate" d="m 10.180613,1041.7383 -1.1679689,0.043 a 0.50030889,0.50030889 0 1 0 0.035156,1 l 1.1699219,-0.043 a 0.50034417,0.50034417 0 1 0 -0.03711,-1 z"/>
    <path style="color:#000000;font-style:normal;font-variant:normal;font-weight:normal;font-stretch:normal;font-size:medium;line-height:normal;font-family:sans-serif;text-indent:0;text-align:start;text-decoration:none;text-decoration-line:none;text-decoration-style:solid;text-decoration-color:#000000;letter-spacing:normal;word-spacing:normal;text-transform:none;direction:ltr;block-progression:tb;writing-mode:lr-tb;baseline-shift:baseline;text-anchor:start;white-space:normal;clip-rule:nonzero;display:inline;overflow:visible;visibility:visible;opacity:1;isolation:auto;mix-blend-mode:normal;color-interpolation:sRGB;color-interpolation-filters:linearRGB;solid-color:#000000;solid-opacity:1;fill:#000000;fill-opacity:1;fill-rule:evenodd;stroke:none;stroke-width:0.99999994px;stroke-linecap:round;stroke-linejoin:round;stroke-miterlimit:4;stroke-dasharray:none;stroke-dashoffset:0;stroke-opacity:1;color-rendering:auto;image-rendering:auto;shape-rendering:auto;text-rendering:auto;enable-background:accumulate" d="m 15.997019,1041.9121 -4.244141,0.043 a 0.50004997,0.50004997 0 1 0 0.0098,1 l 4.24414,-0.043 a 0.50004997,0.50004997 0 1 0 -0.0098,-1 z"/>
    <path style="color:#000000;font-style:normal;font-variant:normal;font-weight:normal;font-stretch:normal;font-size:medium;line-height:normal;font-family:sans-serif;text-indent:0;text-align:start;text-decoration:none;text-decoration-line:none;text-decoration-style:solid;text-decoration-color:#000000;letter-spacing:normal;word-spacing:normal;text-transform:none;direction:ltr;block-progression:tb;writing-mode:lr-tb;baseline-shift:baseline;text-anchor:start;white-space:normal;clip-rule:nonzero;display:inline;overflow:visible;visibility:visible;opacity:1;isolation:auto;mix-blend-mode:normal;color-interpolation:sRGB;color-interpolation-filters:linearRGB;solid-color:#000000;solid-opacity:1;fill:#000000;fill-opacity:1;fill-rule:evenodd;stroke:none;stroke-width:1px;stroke-linecap:round;stroke-linejoin:round;stroke-miterlimit:4;stroke-dasharray:none;stroke-dashoffset:0;stroke-opacity:1;color-rendering:auto;image-rendering:auto;shape-rendering:auto;text-rendering:auto;enable-background:accumulate" d="m 17.793894,1041.8672 a 0.50005,0.50005 0 0 0 0,1 l 1.777343,0.086 a 0.50005,0.50005 0 1 0 0.04883,-0.998 l -1.777344,-0.086 a 0.50005,0.50005 0 0 0 -0.04883,0 z"/>
    <path style="color:#000000;font-style:normal;font-variant:normal;font-weight:normal;font-stretch:normal;font-size:medium;line-height:normal;font-family:sans-serif;text-indent:0;text-align:start;text-decoration:none;text-decoration-line:none;text-decoration-style:solid;text-decoration-color:#000000;letter-spacing:normal;word-spacing:normal;text-transform:none;direction:ltr;block-progression:tb;writing-mode:lr-tb;baseline-shift:baseline;text-anchor:start;white-space:normal;clip-rule:nonzero;display:inline;overflow:visible;visibility:visible;opacity:1;isolation:auto;mix-blend-mode:normal;color-interpolation:sRGB;color-interpolation-filters:linearRGB;solid-color:#000000;solid-opacity:1;fill:#000000;fill-opacity:1;fill-rule:evenodd;stroke:none;stroke-width:1px;stroke-linecap:round;stroke-linejoin:round;stroke-miterlimit:4;stroke-dasharray:none;stroke-dashoffset:0;stroke-opacity:1;color-rendering:auto;image-rendering:auto;shape-rendering:auto;text-rendering:auto;enable-background:accumulate" d="m 5.2372534,1041.8672 a 0.50005,0.50005 0 0 0 -0.035156,0 l -2.3378907,0.086 a 0.50005,0.50005 0 1 0 0.037109,0.998 l 2.3378906,-0.086 a 0.50005,0.50005 0 0 0 -0.00195,-1 z"/>
    <path style="color:#000000;font-style:normal;font-variant:normal;font-weight:normal;font-stretch:normal;font-size:medium;line-height:normal;font-family:sans-serif;text-indent:0;text-align:start;text-decoration:none;text-decoration-line:none;text-decoration-style:solid;text-decoration-color:#000000;letter-spacing:normal;word-spacing:normal;text-transform:none;direction:ltr;block-progression:tb;writing-mode:lr-tb;baseline-shift:baseline;text-anchor:start;white-space:normal;clip-rule:nonzero;display:inline;overflow:visible;visibility:visible;opacity:1;isolation:auto;mix-blend-mode:normal;color-interpolation:sRGB;color-interpolation-filters:linearRGB;solid-color:#000000;solid-opacity:1;fill:#000000;fill-opacity:1;fill-rule:evenodd;stroke:none;stroke-width:1px;stroke-linecap:round;stroke-linejoin:round;stroke-miterlimit:4;stroke-dasharray:none;stroke-dashoffset:0;stroke-opacity:1;color-rendering:auto;image-rendering:auto;shape-rendering:auto;text-rendering:auto;enable-background:accumulate" d="m 2.6220191,1043.7285 a 0.50005,0.50005 0 1 0 0,1 l 3.5078124,0 a 0.50005,0.50005 0 1 0 0,-1 l -3.5078124,0 z"/>
    <path style="color:#000000;font-style:normal;font-variant:normal;font-weight:normal;font-stretch:normal;font-size:medium;line-height:normal;font-family:sans-serif;text-indent:0;text-align:start;text-decoration:none;text-decoration-line:none;text-decoration-style:solid;text-decoration-color:#000000;letter-spacing:normal;word-spacing:normal;text-transform:none;direction:ltr;block-progression:tb;writing-mode:lr-tb;baseline-shift:baseline;text-anchor:start;white-space:normal;clip-rule:nonzero;display:inline;overflow:visible;visibility:visible;opacity:1;isolation:auto;mix-blend-mode:normal;color-interpolation:sRGB;color-interpolation-filters:linearRGB;solid-color:#000000;solid-opacity:1;fill:#000000;fill-opacity:1;fill-rule:evenodd;stroke:none;stroke-width:0.5;stroke-linecap:round;stroke-linejoin:round;stroke-miterlimit:4;stroke-dasharray:none;stroke-dashoffset:0;stroke-opacity:1;color-rendering:auto;image-rendering:auto;shape-rendering:auto;text-rendering:auto;enable-background:accumulate" d="m 15.032175,1024.0859 a 0.250025,0.250025 0 0 0 -0.08789,0.024 l -1.839843,0.8437 a 0.25039485,0.25039485 0 1 0 0.208984,0.4551 l 1.839844,-0.8437 a 0.250025,0.250025 0 0 0 -0.121094,-0.4786 z"/>
    <path style="color:#000000;font-style:normal;font-variant:normal;font-weight:normal;font-stretch:normal;font-size:medium;line-height:normal;font-family:sans-serif;text-indent:0;text-align:start;text-decoration:none;text-decoration-line:none;text-decoration-style:solid;text-decoration-color:#000000;letter-spacing:normal;word-spacing:normal;text-transform:none;direction:ltr;block-progression:tb;writing-mode:lr-tb;baseline-shift:baseline;text-anchor:start;white-space:normal;clip-rule:nonzero;display:inline;overflow:visible;visibility:visible;opacity:1;isolation:auto;mix-blend-mode:normal;color-interpolation:sRGB;color-interpolation-filters:linearRGB;solid-color:#000000;solid-opacity:1;fill:#000000;fill-opacity:1;fill-rule:evenodd;stroke:none;stroke-width:0.5;stroke-linecap:round;stroke-linejoin:round;stroke-miterlimit:4;stroke-dasharray:none;stroke-dashoffset:0;stroke-opacity:1;color-rendering:auto;image-rendering:auto;shape-rendering:auto;text-rendering:auto;enable-background:accumulate" d="m 15.309519,1024.7559 a 0.250025,0.250025 0 0 0 -0.134766,0.041 l -2.035156,1.2773 a 0.250025,0.250025 0 1 0 0.267578,0.4219 l 2.033203,-1.2773 a 0.250025,0.250025 0 0 0 -0.130859,-0.4629 z"/>
    <path style="color:#000000;font-style:normal;font-variant:normal;font-weight:normal;font-stretch:normal;font-size:medium;line-height:normal;font-family:sans-serif;text-indent:0;text-align:start;text-decoration:none;text-decoration-line:none;text-decoration-style:solid;text-decoration-color:#000000;letter-spacing:normal;word-spacing:normal;text-transform:none;direction:ltr;block-progression:tb;writing-mode:lr-tb;baseline-shift:baseline;text-anchor:start;white-space:normal;clip-rule:nonzero;display:inline;overflow:visible;visibility:visible;opacity:1;isolation:auto;mix-blend-mode:normal;color-interpolation:sRGB;color-interpolation-filters:linearRGB;solid-color:#000000;solid-opacity:1;fill:#000000;fill-opacity:1;fill-rule:evenodd;stroke:none;stroke-width:0.5;stroke-linecap:round;stroke-linejoin:round;stroke-miterlimit:4;stroke-dasharray:none;stroke-dashoffset:0;stroke-opacity:1;color-rendering:auto;image-rendering:auto;shape-rendering:auto;text-rendering:auto;enable-background:accumulate" d="m 15.754831,1025.2969 a 0.250025,0.250025 0 0 0 -0.152344,0.061 l -1.625,1.3633 a 0.25019553,0.25019553 0 1 0 0.322266,0.3828 l 1.623047,-1.3633 a 0.250025,0.250025 0 0 0 -0.167969,-0.4433 z"/>
    <path style="color:#000000;font-style:normal;font-variant:normal;font-weight:normal;font-stretch:normal;font-size:medium;line-height:normal;font-family:sans-serif;text-indent:0;text-align:start;text-decoration:none;text-decoration-line:none;text-decoration-style:solid;text-decoration-color:#000000;letter-spacing:normal;word-spacing:normal;text-transform:none;direction:ltr;block-progression:tb;writing-mode:lr-tb;baseline-shift:baseline;text-anchor:start;white-space:normal;clip-rule:nonzero;display:inline;overflow:visible;visibility:visible;opacity:1;isolation:auto;mix-blend-mode:normal;color-interpolation:sRGB;color-interpolation-filters:linearRGB;solid-color:#000000;solid-opacity:1;fill:#000000;fill-opacity:1;fill-rule:evenodd;stroke:none;stroke-width:0.5;stroke-linecap:round;stroke-linejoin:round;stroke-miterlimit:4;stroke-dasharray:none;stroke-dashoffset:0;stroke-opacity:1;color-rendering:auto;image-rendering:auto;shape-rendering:auto;text-rendering:auto;enable-background:accumulate" d="m 28.364206,1023.8887 a 0.250025,0.250025 0 0 0 -0.111328,0.037 l -1.453125,0.8887 a 0.250025,0.250025 0 1 0 0.259766,0.4257 l 1.455078,-0.8867 a 0.250025,0.250025 0 0 0 -0.150391,-0.4648 z"/>
    <path style="color:#000000;font-style:normal;font-variant:normal;font-weight:normal;font-stretch:normal;font-size:medium;line-height:normal;font-family:sans-serif;text-indent:0;text-align:start;text-decoration:none;text-decoration-line:none;text-decoration-style:solid;text-decoration-color:#000000;letter-spacing:normal;word-spacing:normal;text-transform:none;direction:ltr;block-progression:tb;writing-mode:lr-tb;baseline-shift:baseline;text-anchor:start;white-space:normal;clip-rule:nonzero;display:inline;overflow:visible;visibility:visible;opacity:1;isolation:auto;mix-blend-mode:normal;color-interpolation:sRGB;color-interpolation-filters:linearRGB;solid-color:#000000;solid-opacity:1;fill:#000000;fill-opacity:1;fill-rule:evenodd;stroke:none;stroke-width:0.5;stroke-linecap:round;stroke-linejoin:round;stroke-miterlimit:4;stroke-dasharray:none;stroke-dashoffset:0;stroke-opacity:1;color-rendering:auto;image-rendering:auto;shape-rendering:auto;text-rendering:auto;enable-background:accumulate" d="m 28.7353,1024.4551 a 0.250025,0.250025 0 0 0 -0.130859,0.049 l -1.683594,1.2246 a 0.250025,0.250025 0 1 0 0.292969,0.4043 l 1.685547,-1.2246 a 0.250025,0.250025 0 0 0 -0.164063,-0.4531 z"/>
    <path style="color:#000000;font-style:normal;font-variant:normal;font-weight:normal;font-stretch:normal;font-size:medium;line-height:normal;font-family:sans-serif;text-indent:0;text-align:start;text-decoration:none;text-decoration-line:none;text-decoration-style:solid;text-decoration-color:#000000;letter-spacing:normal;word-spacing:normal;text-transform:none;direction:ltr;block-progression:tb;writing-mode:lr-tb;baseline-shift:baseline;text-anchor:start;white-space:normal;clip-rule:nonzero;display:inline;overflow:visible;visibility:visible;opacity:1;isolation:auto;mix-blend-mode:normal;color-interpolation:sRGB;color-interpolation-filters:linearRGB;solid-color:#000000;solid-opacity:1;fill:#000000;fill-opacity:1;fill-rule:evenodd;stroke:none;stroke-width:0.5;stroke-linecap:round;stroke-linejoin:round;stroke-miterlimit:4;stroke-dasharray:none;stroke-dashoffset:0;stroke-opacity:1;color-rendering:auto;image-rendering:auto;shape-rendering:auto;text-rendering:auto;enable-background:accumulate" d="m 29.186472,1025.1738 a 0.250025,0.250025 0 0 0 -0.169922,0.078 l -1.347656,1.3925 a 0.250025,0.250025 0 1 0 0.359375,0.3477 l 1.347656,-1.3926 a 0.250025,0.250025 0 0 0 -0.189453,-0.4258 z"/>
  </g>
  <text x="0" y="47.000001" fill="#000000" font-size="5px" font-weight="bold" font-family="'Helvetica Neue', Helvetica, Arial-Unicode, Arial, Sans-serif">Created by anbileru adaleru</text>
  <text x="0" y="52.000001" fill="#000000" font-size="5px" font-weight="bold" font-family="'Helvetica Neue', Helvetica, Arial-Unicode, Arial, Sans-serif">from the Noun Project</text>
</svg>
