<?xml version="1.0" encoding="UTF-8"?>
<svg xmlns="http://www.w3.org/2000/svg" xmlns:xlink="http://www.w3.org/1999/xlink" viewBox="0 0 100 125" version="1.1" x="0px" y="0px">
  <title>Canned food</title>
  <desc>Created with Sketch.</desc>
  <g stroke="none" stroke-width="1" fill="none" fill-rule="evenodd">
    <g>
      <g transform="translate(3.000000, 0.000000)">
        <path d="M19.1448245,27.0775342 L19.1448245,28.9035616 C19.1448245,30.0378082 20.0693027,30.9583562 21.2083918,30.9583562 C22.347481,30.9583562 23.2719592,30.0378082 23.2719592,28.9035616 L23.2719592,27.0775342 C23.2719592,25.9432877 22.347481,25.0227397 21.2083918,25.0227397 C20.0693027,25.0227397 19.1448245,25.9432877 19.1448245,27.0775342" fill="#000000"/>
        <path d="M35.5390417,27.0775342 L35.5390417,28.9035616 C35.5390417,30.0378082 36.4635199,30.9583562 37.6026091,30.9583562 C38.7416983,30.9583562 39.6661765,30.0378082 39.6661765,28.9035616 L39.6661765,27.0775342 C39.6661765,25.9432877 38.7416983,25.0227397 37.6026091,25.0227397 C36.4635199,25.0227397 35.5390417,25.9432877 35.5390417,27.0775342" fill="#000000"/>
        <path d="M51.6460104,27.0775342 L51.6460104,28.9035616 C51.6460104,30.0378082 52.5704886,30.9583562 53.7095778,30.9583562 C54.848667,30.9583562 55.7731452,30.0378082 55.7731452,28.9035616 L55.7731452,27.0775342 C55.7731452,25.9432877 54.848667,25.0227397 53.7095778,25.0227397 C52.5704886,25.0227397 51.6460104,25.9432877 51.6460104,27.0775342" fill="#000000"/>
        <path d="M70.0179507,55.5369863 L70.0179507,90.5835616 C70.0179507,93.1972603 67.8828463,95.3232877 65.2593643,95.3232877 L9.69162239,95.3232877 C7.06814042,95.3232877 4.93303605,93.1972603 4.93303605,90.5835616 L4.93303605,8.84794521 C4.93303605,6.23561644 7.06814042,4.10958904 9.69162239,4.10958904 L65.2593643,4.10958904 C67.8828463,4.10958904 70.0179507,6.23561644 70.0179507,8.84794521 L70.0179507,35.0410959 C69.9436622,35.0205479 69.8666224,35.0136986 69.792334,34.9945205 C69.4731689,34.9123288 69.1498767,34.8452055 68.8210816,34.7931507 C68.6945161,34.7726027 68.5693264,34.7506849 68.4413852,34.7342466 C68.0094118,34.6808219 67.5705598,34.6452055 67.1234535,34.6452055 L66.2553795,34.6452055 L66.2553795,9.02191781 C66.2553795,7.88767123 65.3309013,6.96712329 64.1918121,6.96712329 L10.7605503,6.96712329 C9.6214611,6.96712329 8.69698292,7.88767123 8.69698292,9.02191781 L8.69698292,36.7 L8.69698292,90.4109589 C8.69698292,91.5452055 9.6214611,92.4657534 10.7605503,92.4657534 L64.1918121,92.4657534 C65.3309013,92.4657534 66.2553795,91.5452055 66.2553795,90.4109589 L66.2553795,55.9328767 L67.1234535,55.9328767 C67.5705598,55.9328767 68.0094118,55.8972603 68.4413852,55.8438356 C68.5693264,55.8273973 68.6945161,55.8054795 68.8210816,55.7863014 C69.1498767,55.7328767 69.4731689,55.6657534 69.792334,55.5835616 C69.8666224,55.5643836 69.9436622,55.5575342 70.0179507,55.5369863 L70.0179507,55.5369863 Z M12.8241176,40.4082192 C12.8736433,40.4452055 12.9231689,40.4808219 12.9726945,40.5164384 C13.1556641,40.6520548 13.3413852,40.7931507 13.5257306,40.9383562 C13.609649,41.0041096 13.6935674,41.0671233 13.7788615,41.1342466 C14.0416224,41.3465753 14.3043833,41.5643836 14.5630171,41.7917808 C14.6042884,41.8287671 14.6441841,41.8684932 14.6868311,41.9054795 C14.9028178,42.1 15.1160531,42.2986301 15.3237856,42.5027397 C15.4035769,42.5821918 15.4806167,42.6616438 15.5590323,42.7424658 C15.7337476,42.9205479 15.9015844,43.1027397 16.0639184,43.2876712 C16.1340797,43.3657534 16.2056167,43.4438356 16.2730266,43.5246575 C16.490389,43.7835616 16.6981214,44.0465753 16.8852182,44.3136986 C16.9044782,44.3410959 16.9182353,44.3684932 16.9361195,44.3945205 C17.1025806,44.6369863 17.2511575,44.8821918 17.3846015,45.130137 C17.4313757,45.2164384 17.4726471,45.3027397 17.5139184,45.3890411 C17.6129696,45.590411 17.6982638,45.7931507 17.7725522,45.9972603 C17.8028178,46.0835616 17.8372106,46.1684932 17.8633491,46.2561644 C17.9486433,46.5383562 18.0174288,46.8219178 18.0476945,47.1068493 C18.2279127,48.8438356 17.2552846,50.5342466 15.0747818,52.2739726 C14.3910531,52.8205479 14.1282922,53.7369863 14.4185674,54.5589041 C14.7088425,55.3821918 15.488871,55.9328767 16.3651992,55.9328767 L62.1282448,55.9328767 L62.1282448,88.3561644 L12.8241176,88.3561644 L12.8241176,40.4082192 Z M27.0641082,34.6452055 L15.3540512,34.6452055 C15.8768216,32.2191781 17.6790038,24.8260274 21.2090797,19.6630137 C24.7391556,24.8260274 26.5413378,32.2191781 27.0641082,34.6452055 L27.0641082,34.6452055 Z M43.458463,34.6452055 L31.7484061,34.6452055 C32.2711765,32.2191781 34.0733586,24.8260274 37.6020588,19.6630137 C41.1335104,24.8260274 42.9356926,32.2191781 43.458463,34.6452055 L43.458463,34.6452055 Z M59.5652941,34.6452055 L47.8552372,34.6452055 C48.3780076,32.2191781 50.1801898,24.8260274 53.7102657,19.6630137 C57.2403416,24.8260274 59.0425237,32.2191781 59.5652941,34.6452055 L59.5652941,34.6452055 Z M62.1282448,28.2328767 C60.796556,24.0164384 58.5954175,18.6506849 55.2414326,14.9506849 C54.4586528,14.0863014 52.9605028,14.0863014 52.177723,14.9506849 C49.1181404,18.3273973 47.0133017,23.0972603 45.6568501,27.1109589 C44.2990228,23.0972603 42.1941841,18.3273973 39.1346015,14.9506849 C38.3518216,14.0863014 36.8536717,14.0863014 36.0708918,14.9506849 C32.8971252,18.4534247 30.7551423,23.4493151 29.4055693,27.5493151 C28.0559962,23.4493151 25.9140133,18.4534247 22.7402467,14.9506849 C21.9574668,14.0863014 20.4593169,14.0863014 19.676537,14.9506849 C16.3500664,18.6219178 14.1585579,23.9315068 12.8241176,28.1328767 L12.8241176,11.0767123 L62.1282448,11.0767123 L62.1282448,28.2328767 Z M70.8502562,50.6575342 C70.7484535,50.7273973 70.6397723,50.7808219 70.5338425,50.8452055 C70.3082258,50.9835616 70.0757306,51.1136986 69.8322296,51.2246575 C69.7056641,51.2821918 69.5749715,51.3315068 69.4456546,51.3808219 C69.1952751,51.4753425 68.9393928,51.5547945 68.6766319,51.6191781 C68.5555693,51.6479452 68.4358824,51.6808219 68.3120683,51.7041096 C67.9254934,51.7739726 67.5306641,51.8232877 67.1234535,51.8232877 L64.1918121,51.8232877 L20.9765844,51.8232877 C21.9450854,50.1931507 22.3385389,48.4753425 22.1528178,46.6835616 C22.1101708,46.2739726 22.0358824,45.8726027 21.9368311,45.4794521 C21.9051898,45.3561644 21.8570398,45.2383562 21.8212713,45.1164384 C21.7414801,44.8493151 21.6630645,44.5821918 21.5612619,44.3232877 C21.5048577,44.1821918 21.4346964,44.0479452 21.3727894,43.909589 C21.269611,43.6767123 21.1678083,43.4438356 21.0481214,43.2191781 C20.9710816,43.0753425 20.8830361,42.9369863 20.7991176,42.7958904 C20.6766793,42.5863014 20.554241,42.3753425 20.4194213,42.1712329 C20.3244972,42.0287671 20.2226945,41.8931507 20.1222676,41.7547945 C19.9833207,41.5616438 19.8443738,41.3671233 19.695797,41.1808219 C19.5884915,41.0438356 19.4756831,40.9150685 19.3642505,40.7821918 C19.2115465,40.6027397 19.0602182,40.4232877 18.9020114,40.2506849 C18.7837002,40.1219178 18.6626376,39.9986301 18.5429507,39.8739726 C18.3806167,39.7082192 18.2196584,39.5424658 18.0545731,39.3835616 C17.930759,39.2630137 17.806945,39.1493151 17.6817552,39.0328767 C17.5813283,38.9410959 17.4836528,38.8438356 17.3832258,38.7547945 L64.1918121,38.7547945 L67.1234535,38.7547945 C67.5320398,38.7547945 67.9268691,38.8041096 68.313444,38.8739726 C68.4358824,38.8972603 68.5541935,38.9287671 68.6738805,38.9589041 C68.9393928,39.0232877 69.1994023,39.1027397 69.4511575,39.1986301 C69.577723,39.2479452 69.7042884,39.2945205 69.8281025,39.3506849 C70.0771063,39.4643836 70.3137287,39.5972603 70.5448482,39.7383562 C70.6452751,39.8 70.7512049,39.8520548 70.8488805,39.9191781 C72.5602657,41.1 73.6869734,43.0630137 73.6869734,45.2890411 C73.6869734,47.5136986 72.5602657,49.4767123 70.8502562,50.6575342 L70.8502562,50.6575342 Z M86.4123055,31.9054795 C82.6827514,31.9054795 79.6479317,34.9260274 79.6479317,38.639726 L79.6479317,39.1589041 C79.6479317,40.2931507 80.5724099,41.2136986 81.7114991,41.2136986 C82.8505882,41.2136986 83.7750664,40.2931507 83.7750664,39.1589041 L83.7750664,38.639726 C83.7750664,37.1917808 84.9581784,36.0150685 86.4123055,36.0150685 C87.8664326,36.0150685 89.0481689,37.1917808 89.0481689,38.639726 L89.0481689,49.5465753 C89.0481689,50.9945205 87.8664326,52.1726027 86.4123055,52.1726027 C84.9581784,52.1726027 83.7750664,50.9945205 83.7750664,49.5465753 L83.7750664,45.2890411 C83.7750664,44.1534247 82.8505882,43.2342466 81.7114991,43.2342466 L77.6105028,43.2342466 C77.1455123,40.8780822 75.8936148,38.8041096 74.1450854,37.2821918 L74.1450854,8.84794521 C74.1450854,3.96849315 70.159649,0 65.2593643,0 L9.69162239,0 C4.79271347,0 0.805901328,3.96849315 0.805901328,8.84794521 L0.805901328,90.5835616 C0.805901328,95.4630137 4.79271347,99.4328767 9.69162239,99.4328767 L65.2593643,99.4328767 C70.159649,99.4328767 74.1450854,95.4630137 74.1450854,90.5835616 L74.1450854,53.2958904 C75.8936148,51.7739726 77.1455123,49.7 77.6105028,47.3438356 L79.6479317,47.3438356 L79.6479317,49.5465753 C79.6479317,53.260274 82.6827514,56.2821918 86.4123055,56.2821918 C90.1418596,56.2821918 93.1753036,53.260274 93.1753036,49.5465753 L93.1753036,38.639726 C93.1753036,34.9260274 90.1418596,31.9054795 86.4123055,31.9054795 L86.4123055,31.9054795 Z" fill="#000000"/>
      </g>
    </g>
  </g>
  <text x="0" y="115" fill="#000000" font-size="5px" font-weight="bold" font-family="'Helvetica Neue', Helvetica, Arial-Unicode, Arial, Sans-serif">Created by AomAm</text>
  <text x="0" y="120" fill="#000000" font-size="5px" font-weight="bold" font-family="'Helvetica Neue', Helvetica, Arial-Unicode, Arial, Sans-serif">from the Noun Project</text>
</svg>
