<svg xmlns="http://www.w3.org/2000/svg" xmlns:xlink="http://www.w3.org/1999/xlink" version="1.1" x="0px" y="0px" viewBox="0 0 64 80" enable-background="new 0 0 64 64" xml:space="preserve">
    <path d="M48.587,15.121c1.283-2.222,1.623-4.81,0.959-7.289C48.883,5.354,47.293,3.283,45.072,2L32,24.66l-5.543,9.609   l-3.619,6.275c-2.214-2.063-5.182-3.326-8.447-3.326C7.548,37.217,2,42.765,2,49.609C2,56.452,7.548,62,14.391,62   c4.514,0,8.464-2.415,10.63-6.022l0.017-0.029c0.062-0.103,0.122-0.208,0.18-0.313L32,43.88l5.543-9.611L48.587,15.121z    M14.391,56.783c-3.956,0-7.174-3.218-7.174-7.174s3.218-7.174,7.174-7.174s7.174,3.218,7.174,7.174S18.347,56.783,14.391,56.783   L14.391,56.783z M14.391,56.783"/>
    <path d="M49.609,37.217c-3.265,0-6.234,1.263-8.447,3.326l-1.972-3.419l-5.543,9.61l5.134,8.901c0.059,0.105,0.118,0.21,0.18,0.313   l0.017,0.03C41.144,59.585,45.094,62,49.609,62C56.452,62,62,56.452,62,49.609C62,42.765,56.452,37.217,49.609,37.217z    M49.609,56.783c-3.956,0-7.174-3.218-7.174-7.174c0-3.956,3.218-7.174,7.174-7.174s7.174,3.218,7.174,7.174   C56.783,53.564,53.564,56.783,49.609,56.783z"/>
    <path d="M24.81,31.414l5.543-9.609L18.928,2c-2.221,1.283-3.811,3.354-4.475,5.832c-0.664,2.478-0.323,5.066,0.96,7.289   L24.81,31.414z"/>
  <text x="0" y="79" fill="#000000" font-size="5px" font-weight="bold" font-family="'Helvetica Neue', Helvetica, Arial-Unicode, Arial, Sans-serif">Created by Arosh Khan</text>
  <text x="0" y="84" fill="#000000" font-size="5px" font-weight="bold" font-family="'Helvetica Neue', Helvetica, Arial-Unicode, Arial, Sans-serif">from the Noun Project</text>
</svg>
