<svg xmlns="http://www.w3.org/2000/svg" xmlns:xlink="http://www.w3.org/1999/xlink" version="1.1" x="0px" y="0px" viewBox="0 0 100 125" enable-background="new 0 0 100 100" xml:space="preserve"><g><path d="M93.533,69.673H77.511V37.748c0-0.811-0.657-1.467-1.467-1.467h-2.287v-3.586c0-0.811-0.657-1.467-1.467-1.467H56.406   c-0.811,0-1.467,0.657-1.467,1.467v3.586h-0.819V25.243c0-0.811-0.657-1.467-1.467-1.467h-3.138v-4.732   c0-0.811-0.657-1.467-1.467-1.467h-0.392v-3.581c0-0.811-0.657-1.467-1.467-1.467h-6.904V5.626h-1.957v6.902h-6.904   c-0.811,0-1.467,0.657-1.467,1.467v3.581h-0.393c-0.811,0-1.467,0.657-1.467,1.467v4.732h-3.138c-0.811,0-1.467,0.657-1.467,1.467   v36.849H6.467C5.657,62.091,5,62.748,5,63.559v29.348c0,0.811,0.657,1.467,1.467,1.467h17.489h28.695h23.392h17.489   c0.811,0,1.467-0.657,1.467-1.467V71.14C95,70.33,94.343,69.673,93.533,69.673z M74.577,71.14V91.44h-2.825V39.215h0.538h2.287   V71.14z M60.157,39.215v0.948H58.9v-0.948H60.157z M69.795,84.348h-1.256v-6.88h1.256V84.348z M58.9,42.119h1.256V49H58.9V42.119z    M63.369,59.793v6.88h-1.256v-6.88H63.369z M62.113,57.837v-6.88h1.256v6.88H62.113z M63.369,68.63v6.881h-1.256V68.63H63.369z    M65.326,68.63h1.256v6.881h-1.256V68.63z M65.326,66.674v-6.88h1.256v6.88H65.326z M65.326,57.837v-6.88h1.256v6.88H65.326z    M65.326,49v-6.88h1.256V49H65.326z M65.326,40.163v-0.948h1.256v0.948H65.326z M63.369,40.163h-1.256v-0.948h1.256V40.163z    M63.369,42.119V49h-1.256v-6.88H63.369z M58.9,50.956h1.256v6.88H58.9V50.956z M58.9,59.793h1.256v6.88H58.9V59.793z M58.9,68.63   h1.256v6.881H58.9V68.63z M58.9,77.468h1.256v6.88H58.9V77.468z M62.113,77.468h1.256v6.88h-1.256V77.468z M65.326,77.468h1.256   v6.88h-1.256V77.468z M69.795,75.511h-1.256V68.63h1.256V75.511z M69.795,66.674h-1.256v-6.88h1.256V66.674z M69.795,57.837h-1.256   v-6.88h1.256V57.837z M69.795,49h-1.256v-6.88h1.256V49z M69.795,40.163h-1.256v-0.948h1.256V40.163z M58.9,86.305h1.256v5.135   H58.9V86.305z M62.113,86.305h1.256v5.135h-1.256V86.305z M65.326,86.305h1.256v5.135h-1.256V86.305z M68.539,86.305h1.256v5.135   h-1.256V86.305z M57.873,34.161h12.949v2.119h-0.731v-1.059h-1.957v1.059h-1.112v-1.059h-1.957v1.059h-1.112v-1.059h-1.957v1.059   h-1.112v-1.059h-1.957v1.059h-1.056V34.161z M51.184,37.748V91.44h-4.02V26.71h0.881h3.138V37.748z M33.384,26.71v1.717H31.4V26.71   H33.384z M45.208,82.629h-1.985v-8.884h1.985V82.629z M31.4,30.384h1.984v8.884H31.4V30.384z M37.326,52.065v8.884h-1.985v-8.884   H37.326z M35.341,50.108v-8.884h1.985v8.884H35.341z M37.326,62.905v8.884h-1.985v-8.884H37.326z M39.282,62.905h1.985v8.884   h-1.985V62.905z M39.282,60.948v-8.884h1.985v8.884H39.282z M39.282,50.108v-8.884h1.985v8.884H39.282z M39.282,39.268v-8.884   h1.985v8.884H39.282z M37.326,39.268h-1.985v-8.884h1.985V39.268z M31.4,41.224h1.984v8.884H31.4V41.224z M31.4,52.065h1.984v8.884   H31.4V52.065z M31.4,62.905h1.984v8.884H31.4V62.905z M31.4,73.746h1.984v8.884H31.4V73.746z M35.341,73.746h1.985v8.884h-1.985   V73.746z M39.282,73.746h1.985v8.884h-1.985V73.746z M45.208,71.789h-1.985v-8.884h1.985V71.789z M45.208,60.948h-1.985v-8.884   h1.985V60.948z M45.208,50.108h-1.985v-8.884h1.985V50.108z M45.208,39.268h-1.985v-8.884h1.985V39.268z M45.208,28.427h-1.985   V26.71h1.985V28.427z M41.267,26.71v1.717h-1.985V26.71H41.267z M37.326,26.71v1.717h-1.985V26.71H37.326z M31.4,84.586h1.984   v6.854H31.4V84.586z M35.341,84.586h1.985v6.854h-1.985V84.586z M39.282,84.586h1.985v6.854h-1.985V84.586z M43.223,84.586h1.985   v6.854h-1.985V84.586z M31.889,15.462h12.83v2.114h-12.83V15.462z M30.029,20.511h0.393h15.765h0.392v3.264h-1.451v-1.632h-1.957   v1.632h-1.808v-1.632h-1.957v1.632h-1.808v-1.632h-1.957v1.632h-1.808v-1.632h-1.957v1.632h-1.85V20.511z M7.935,65.026h14.554   V91.44h-1.53V67.978h-1.957V91.44H17.78V67.978h-1.957V91.44H14.6V67.978h-1.957V91.44h-1.223V67.978H9.464V91.44h-1.53V65.026z    M25.424,63.559V26.71h3.138h0.882v64.73h-4.02V63.559z M54.119,39.215h2.287h0.538V91.44h-2.824V39.215z M92.065,91.44h-1.53   V75.208h-1.957V91.44h-1.223V75.208H85.4V91.44h-1.223V75.208H82.22V91.44h-1.223V75.208h-1.957V91.44h-1.53V72.608h14.554V91.44z"/></g><text x="0" y="115" fill="#000000" font-size="5px" font-weight="bold" font-family="'Helvetica Neue', Helvetica, Arial-Unicode, Arial, Sans-serif">Created by Maxim Kulikov</text><text x="0" y="120" fill="#000000" font-size="5px" font-weight="bold" font-family="'Helvetica Neue', Helvetica, Arial-Unicode, Arial, Sans-serif">from the Noun Project</text></svg>