<svg xmlns:dc="http://purl.org/dc/elements/1.1/" xmlns:cc="http://creativecommons.org/ns#" xmlns:rdf="http://www.w3.org/1999/02/22-rdf-syntax-ns#" xmlns:svg="http://www.w3.org/2000/svg" xmlns="http://www.w3.org/2000/svg" xmlns:sodipodi="http://sodipodi.sourceforge.net/DTD/sodipodi-0.dtd" xmlns:inkscape="http://www.inkscape.org/namespaces/inkscape" viewBox="0 0 47.999997 60" version="1.1" x="0px" y="0px">
  <path style="color:#000000;font-style:normal;font-variant:normal;font-weight:normal;font-stretch:normal;font-size:medium;line-height:normal;font-family:sans-serif;text-indent:0;text-align:start;text-decoration:none;text-decoration-line:none;text-decoration-style:solid;text-decoration-color:#000000;letter-spacing:normal;word-spacing:normal;text-transform:none;direction:ltr;block-progression:tb;writing-mode:lr-tb;baseline-shift:baseline;text-anchor:start;white-space:normal;clip-rule:nonzero;display:inline;overflow:visible;visibility:visible;opacity:1;isolation:auto;mix-blend-mode:normal;color-interpolation:sRGB;color-interpolation-filters:linearRGB;solid-color:#000000;solid-opacity:1;fill:#000000;fill-opacity:1;fill-rule:nonzero;stroke:none;stroke-width:1.99999988;stroke-linecap:butt;stroke-linejoin:round;stroke-miterlimit:4;stroke-dasharray:none;stroke-dashoffset:0;stroke-opacity:1;marker:none;color-rendering:auto;image-rendering:auto;shape-rendering:auto;text-rendering:auto;enable-background:accumulate" d="M 12.986328,0 C 10.796936,-3.6663932e-7 9.0000001,1.7969456 9,3.9863281 L 9,44 c 0,2.19047 1.797529,3.990353 3.986328,3.998047 L 35.013672,48 C 37.202471,47.992259 39,46.19047 39,44 L 39,3.9863281 C 39,1.7969456 37.203064,-3.6663931e-7 35.013672,0 Z m 0,2 22.027344,0 C 36.122202,1.9999998 37,2.8778439 37,3.9863281 L 37,8 11,8 11,3.9863281 C 11,2.8778439 11.877798,1.9999998 12.986328,2 Z M 6,4 C 3.8106082,3.9999999 2.0000001,5.7969458 2,7.9863281 L 2,40 c 0,2.195163 1.8048369,4 4,4 0.357021,-5.28e-4 0.6867241,-0.191056 0.8652344,-0.5 0.178775,-0.309401 0.178775,-0.690599 0,-1 C 6.6867241,42.191056 6.357021,42.000528 6,42 4.8973631,42 4,41.102637 4,40 L 4,7.9863281 C 4,6.877844 4.8914704,6 6,6 6.357021,5.9994721 6.6867241,5.8089439 6.8652344,5.5 c 0.178775,-0.3094011 0.178775,-0.6905989 0,-1 C 6.6867241,4.1910561 6.357021,4.0005279 6,4 Z m 16,0 c -0.554,0 -1,0.446 -1,1 0,0.554 0.446,1 1,1 l 4,0 C 26.554,6 27,5.554 27,5 27,4.446 26.554,4 26,4 Z m 20,0 c -0.357021,5.28e-4 -0.686724,0.1910562 -0.865234,0.5 -0.178775,0.3094011 -0.178775,0.6905989 0,1 C 41.313276,5.8089438 41.642979,5.999472 42,6 c 1.108532,-2e-7 2,0.8778439 2,1.9863281 L 44,40 c 0,1.102637 -0.897363,2 -2,2 -0.357021,5.28e-4 -0.686724,0.191056 -0.865234,0.5 -0.178775,0.309401 -0.178775,0.690599 0,1 0.17851,0.308944 0.508213,0.499472 0.865234,0.5 2.195163,0 4,-1.804837 4,-4 L 46,7.9863281 C 46,5.7969456 44.189392,3.9999996 42,4 Z m -31,6 26,0 0,28 -26,0 z m 0,30 26,0 0,4 c 0,1.102637 -0.897363,2 -2,2 l -22,0 c -1.102637,0 -2,-0.897363 -2,-2 z m 13,2 c -0.552285,0 -1,0.447715 -1,1 0,0.552285 0.447715,1 1,1 0.552285,0 1,-0.447715 1,-1 0,-0.552285 -0.447715,-1 -1,-1 z" transform="translate(-1.9073486e-6,0)"/>
  <text x="0" y="63" fill="#000000" font-size="5px" font-weight="bold" font-family="'Helvetica Neue', Helvetica, Arial-Unicode, Arial, Sans-serif">Created by ICONCRAFT</text>
  <text x="0" y="68" fill="#000000" font-size="5px" font-weight="bold" font-family="'Helvetica Neue', Helvetica, Arial-Unicode, Arial, Sans-serif">from the Noun Project</text>
</svg>
