<svg xmlns="http://www.w3.org/2000/svg" xmlns:xlink="http://www.w3.org/1999/xlink" version="1.1" x="0px" y="0px" viewBox="0 0 100 125" style="enable-background:new 0 0 100 100;" xml:space="preserve"><path d="M25.9,73.2c-8.3,0-15-6.7-15-15c0-8.3,6.7-15,15-15h35c8.3,0,15,6.7,15,15c0,8.3-6.7,15-15,15s-15-6.7-15-15h-5  C40.9,66.5,34.2,73.2,25.9,73.2z M84.8,33.5v-3.1c0-1.1-0.9-2-2-2s-2,0.9-2,2v3.1c-1.4,0.7-2.4,2.2-2.4,3.9s1,3.1,2.4,3.9V63  c0,10.8-8.8,19.6-19.6,19.6h-2.9c-0.1,0-0.2,0-0.3,0c-0.8-2.5-3.1-4.2-5.9-4.2h-0.9c-1.8-2.3-4.7-3.8-7.8-3.8s-6,1.5-7.8,3.8h-0.9  c-3.4,0-6.2,2.8-6.2,6.2v0c0,3.4,2.8,6.2,6.2,6.2h0.9c1.8,2.3,4.7,3.8,7.8,3.8s6-1.5,7.8-3.8h0.9c2.7,0,5-1.8,5.9-4.2  c0.1,0,0.2,0,0.3,0h2.9c13,0,23.6-10.6,23.6-23.6V41.2c1.4-0.7,2.4-2.2,2.4-3.9S86.2,34.2,84.8,33.5z M76.6,23.6  c0,1.4,1.1,2.5,2.5,2.5s2.5-1.1,2.5-2.5s-1.1-2.5-2.5-2.5S76.6,22.2,76.6,23.6z M85.3,13.9c-2.1,0-3.9,1.7-3.9,3.9  c0,2.1,1.7,3.9,3.9,3.9s3.9-1.7,3.9-3.9C89.1,15.7,87.4,13.9,85.3,13.9z M79.6,14.2c2.4,0,4.4-2,4.4-4.4s-2-4.4-4.4-4.4  s-4.4,2-4.4,4.4S77.2,14.2,79.6,14.2z"/><text x="0" y="115" fill="#000000" font-size="5px" font-weight="bold" font-family="'Helvetica Neue', Helvetica, Arial-Unicode, Arial, Sans-serif">Created by Pravin Unagar</text><text x="0" y="120" fill="#000000" font-size="5px" font-weight="bold" font-family="'Helvetica Neue', Helvetica, Arial-Unicode, Arial, Sans-serif">from the Noun Project</text></svg>