<svg xmlns="http://www.w3.org/2000/svg" xmlns:xlink="http://www.w3.org/1999/xlink" version="1.1" x="0px" y="0px" viewBox="0 0 100 125" enable-background="new 0 0 100 100" xml:space="preserve"><g><g><path d="M75.045,57.281l-0.475,0.542l-0.469,0.538v0.202h-0.473l0.404,0.674h0.674h0.471l0.607-0.473l0.404-0.505    c0,0,0-0.235,0-0.437c0-0.203,0-0.203,0-0.203l-0.404-0.339H75.045z"/></g><g><path d="M75.551,60.822c-0.305-0.303-0.305-0.303-0.305-0.303l-0.338-0.07v0.407v0.335h0.607h0.404l0.27-0.369h-0.336    C75.854,60.822,75.854,61.125,75.551,60.822z"/></g><g><path d="M87.377,51.689l-0.688,0.268c0,0-0.203,0-0.324,0c0.324,0-0.064-0.471-0.064-0.471v-0.81l-0.607,0.405v-0.405    c0,0-0.066-0.065-0.404,0c-0.338,0.066-0.338,0.066-0.338,0.066s-0.203-0.123-0.539-0.095c-0.338,0.028-0.338,0.028-0.338,0.028    s-0.943,0.475-1.281,0.676c-0.336,0.202-0.604,0.539-0.873,0.74c-0.271,0.203-0.676,0.203-0.676,0.473s0.203,0.337,0,0.538    c-0.201,0.202-0.201,0.202-0.201,0.202s0.27,0.811,0.469,0.877c0.205,0.067,0,0.136,0.473,0c0.473-0.134,0.137-0.337,0.574-0.405    c0.438-0.063,0.842-0.063,0.842-0.063s0.135,0.354,0.27,0.549c0.135,0.19,0.135,0.19,0.135,0.19H83.4c0,0-0.807,0.403-0.203,0.473    c0.607,0.068-0.066-0.134,0.607,0.068c0.676,0.199,0.676,0.199,0.676,0.199s0.402,0.271,0.471,0.473    c0.066,0.201-0.27,0.268,0,0.471s0.27,0.203,0.27,0.203s0.27,0.404,0.674,0c0.406-0.406-0.268,0.27,0.406-0.406    c0.672-0.674,0.875-1.077,1.076-1.278c0.201-0.202-0.268-0.496,0-1.056c0.27-0.562,0.473-0.765,0.607-0.967    c0.135-0.201,0.539,0.27,0.135-0.201C87.713,51.957,87.377,51.689,87.377,51.689z"/></g><g><path d="M93.375,50.644l-0.338-0.319l-0.336-0.792l-0.902-0.299h-1.254c0,0-0.539,0.698-0.336,0.769    c0.203,0.071,0.336,0.642,0.336,0.642s0.268,0.033,0.539,0c0.27-0.032-0.404-0.166,0.27-0.032c0.674,0.132,0.74-0.242,1.08,0.046    c0.334,0.291,0.807,0.963,0.941,0.695C93.51,51.082,93.375,50.644,93.375,50.644z"/></g><g><path d="M81.512,36.66c0.205-0.068,1.418-0.068,1.418-0.068s2.83-2.561,3.234-2.965s0.404-0.943,0.404-0.943l-0.336-0.81    l-0.27-0.808l0.605-0.473c0.268-0.337,0-0.74,0-0.74l-0.203-0.338l-0.201-0.337c0,0-0.943,0.269-1.146,0    c-0.201-0.27-1.82,0-1.82,0v0.473l-1.076,0.337l-1.35-0.93c0,0-0.809-0.321-0.875,0c-0.066,0.323-0.674,0.393-0.674,0.393h-1.215    l-0.875-0.535H75.92c0,0-0.809,0.613-0.742,0c0.068-0.613-0.004-1.152-0.004-1.152s-1.141-1.078-1.342-0.944    c-0.203,0.136-0.678,0.651-1.012-0.011c-0.338-0.663-0.607-0.999-1.078-0.999c-0.473,0-0.943,0-1.146,0s0,0.538,0,0.538    l-0.09,0.54h-2.268l-0.473,0.134l-0.674-0.27l-1.551,0.337c0,0-1.012-1.55-1.752-1.279c-0.742,0.271-0.742,0.271-0.742,0.271    l-0.74-0.303v0.368l-1.482-1.752c0,0-0.539,0-0.811,0c-0.246,0-2.414-0.678-2.775-0.792c0.061-0.514,0.131-1.38-0.055-1.567    c-0.268-0.27-0.74-0.471-1.145-0.403s-1.01-0.014-1.01-0.014h-0.676h-2.156c0,0-3.046-0.795-3.511-0.863    c-0.467-0.067-1.205-0.538-1.678,0c-0.471,0.539-0.203,0.674-1.215,0.271c-1.01-0.405-1.279-0.525-1.279-0.525    s-1.146-0.688-1.549-0.62c-0.404,0.067-0.945,0.404-0.945,0.404s-2.291,0.201-2.492,0.336c-0.203,0.135-0.337,0.271-1.012,0.271    c-0.674,0-6.605-1.016-6.605-1.016l-2.426-0.332c0,0-0.472-0.674-1.078-0.674s-1.348,0-1.348,0v0.471l-1.482-0.067l-5.459-0.066    l-1.82-1.146h-1.078c0,0,0-0.471-0.336-0.405c-0.338,0.068-1.686-0.005-1.686-0.005l-0.875,1.017l-1.281,0.54l-0.337,0.674    l0.538,0.538l-0.066,0.405l-0.472,0.134h-0.674l-0.944,0.337l-1.279,0.271H9.334L8.39,21.9l-0.741,0.809    c0,0-0.605,0.338-0.605,0.539c0,0.202-0.539,0.674-0.473,0.943c0.067,0.27-0.006,0.741-0.006,0.741l0.814,0.068v0.471v1.214    l1.078-0.338c0,0-0.471,0.472-0.471,0.877c0,0.403-0.068,1.752,0.135,1.481c0.201-0.269,0.809-1.145,1.01-1.078    c0.203,0.068-0.134-0.471,0.203,0.068c0.336,0.539-0.066,1.078-0.066,1.078s-0.473,1.348-0.271,1.214    c0.202-0.135,0.876,0.009,0.876,0.009l-0.27,0.597l-0.067,0.675l-0.269,0.605c0,0-0.203,0.473-0.203,0.742    S8.93,33.897,8.93,33.897l0.053,0.372c0.354-0.274,0.767-0.602,0.824-0.677c0.1-0.135,0.842-1.077,0.842-1.077l1.078-0.169    c0,0,0.674-0.101,0.775-0.169s0.438-0.438,0.572-0.505c0.135-0.067,0.472-0.271,0.472-0.271v0.573c0,0-0.337,0.304,0,0.371    s0.741,0.032,0.741,0.032s-0.033,0.271,0,0.373c0.035,0.101-0.371,0.336-0.404,0.471s-0.371,0.404-0.337,0.539    c0.034,0.136,0.169,0.606,0.304,0.641c0.135,0.033-0.203,0,0.135,0.033s0.538-0.033,0.775-0.101    c0.234-0.068,0.066,0.201,0.234-0.068c0.169-0.269,0.305-0.74,0.438-0.707c0.136,0.033,0,0.438,0,0.438s-0.183,0.236,0.061,0.269    c0.243,0.034,0.21-0.269,1.018-0.403c0.81-0.136,0.81-0.136,0.81-0.136v0.809c0,0,0.471,0.034,0.639-0.101    c0.17-0.135-0.168-0.067,0.17-0.135c0.337-0.066,0.607,0.067,0.607,0.067s0.168,0,0.336-0.033c0.17-0.034,0.741-0.304,0.741-0.304    s-0.202,0.034,0-0.134c0.202-0.17,0.135-0.204,0.202-0.371c0.067-0.169,0.067-0.169,0.067-0.169l0.237-0.32v0.175    c0.032-0.021,0.137-0.041,0.438-0.023c0.572,0.034,1.887,0.203,1.887,0.203s0-0.539,0.168-0.354    c0.17,0.186,0.27,0.287,0.439,0.354c0.168,0.066,0.773,0.066,0.773,0.066s-0.101,0.035,0,0.235c0.102,0.204,0,0.541,0,0.541    s-0.012,0.302,0.045,0.438c0.057,0.134-0.213,0.74-0.18,0.842c0.034,0.102,0.188,0.236,0.188,0.236s0.386-0.067,0.487,0    c0.101,0.066,0.202-0.202,0.472,0c0.268,0.202,0.067,0.101,0.504,0.304c0.439,0.201,0.607,0.136,0.676,0.235    c0.066,0.101,0,0.606,0,0.606l-0.338,0.91l-0.134,0.27h-0.337l-0.371,0.168c0,0-0.033,0.202,0,0.304    c0.033,0.101-0.573,0.572-0.573,0.572l-0.808,0.169l-0.473,0.37c0,0-0.809,0.978-0.809,1.214c0,0.235,0,0.235,0,0.235h-0.844    l0.742,1.584c0,0.006,0,0.039,0,0.202c0,0.236,0,0.741,0,0.909c0,0.169,0.168,1.585,0.168,1.585l-0.235,0.438l-0.202,0.538    c0,0,0.305,0.507,0.338,0.606c0.033,0.102-0.17,0.438-0.17,0.438l-0.336,0.169l-0.708,0.438l-0.304,0.438    c0,0,0.068,0.473,0.304,0.54c0.235,0.066,0.336,0.073,0.573,0.239c0.236,0.164,0.236,0.629,0.236,0.769    c0,0.137-0.17,0.476-0.17,0.575s0.17,0.034-0.1,0.304c-0.271,0.271-0.068-0.068-0.271,0.271c-0.202,0.335-0.202,1.582-0.202,1.582    s-1.146,0.035-1.348,0c-0.202-0.032-1.045-0.004-1.214,0.016c-0.168,0.02-0.606,0-0.606,0l-0.236,0.009l0.168,0.583    c0,0-0.032,0.201,0.204,0.233c0.235,0.034,0.505,0.239,0.505,0.239c0.101,0.235,0,0.065,0.101,0.235    c0.101,0.169,0.505,0.437,0.505,0.437l-0.201,0.642l0.101,0.403c0,0,0.203,0.235,0.304,0.305c0.102,0.068,0.202,0.302,0.237,0.403    c0.032,0.102-0.169,0.406,0,0.471c0.168,0.069,0.47,0,0.47,0s0.203,0.404,0.27,0.538c0.068,0.136,0.877,0.337,0.877,0.337    s0.033,0.136,0.067,0.239c0.034,0.1-0.067,0.437-0.067,0.437l-0.37,0.574l-1.382,1.686l-0.169,0.303v0.438l0.102,0.2l-0.269,0.406    c0,0-0.237,0.57-0.203,0.672c0.033,0.104,0,0.337,0,0.337l0.472,0.475c0,0,0.303,0.536,0.337,0.706    c0.034,0.167,0.303,0.741,0.303,0.741h0.303h0.944l-0.034,0.876l-0.471,0.638l-0.236-0.233l-0.336,0.233c0,0-0.237-0.134-0.372,0    c-0.135,0.14-0.539,0.173-0.539,0.173l-0.236,1.213l-0.404,0.604c0,0-0.337,0.136-0.337,0.239c0,0.098-0.168,0.335-0.135,0.435    c0.034,0.102-0.168,0.337-0.201,0.438c-0.034,0.102-0.271,0.403-0.236,0.505c0.033,0.1-0.068,0.201,0,0.305    c0.067,0.1,0.067,0.572,0.135,0.674s0.369,0.337,0.369,0.337l0.068,0.606l0.102,0.74v0.592c0.552-0.099,1.137-0.186,1.314-0.186    c0.27,0,0.473-0.271,1.348-0.067c0.875,0.199,0.809-0.204,1.213,0.404c0.404,0.604,0.742,1.043,1.078,1.397    c0.338,0.355,1.349,0.621,1.551,0.961c0.201,0.336,0.135,0.336,0.268,0.673c0.137,0.337-0.066,0.402,0.473,1.013    c0.539,0.604,0.338,1.145,0.338,1.348c0,0.201,0.809,1.683,1.011,1.887c0.202,0.201,1.214,0.875,1.415,0.875    c0.203,0,0.27-0.337,0.539,0s1.078,0.875,1.078,0.875h0.674l0.607-0.538l0.943-1.078c0,0,0-0.675,0.27-0.941    c0.27-0.273,0.473-0.945,0.742-0.945c0.268,0,0.877-0.337,1.076-0.405c0.203-0.069,0.607-0.069,0.607-0.069    s0.404-0.063,0.674-0.132c0.27-0.064,1.012-0.337,1.214-0.473c0.202-0.134,0.472-0.81,0.472-0.81l1.686-0.337    c0,0,6.873,0,7.547-0.065c0.674-0.068,0.406,0.27,0.877,0.337c0.471,0.065-0.338,0.065,0.471,0.065s1.08-0.536,1.348-0.605    c0.27-0.068,0-0.471,0.473-0.403c0.471,0.066,0.539-0.201,0.943-0.067c0.406,0.134,0-0.202,0.406,0.134    c0.404,0.337,1.146,0.406,1.146,0.406l1.008-0.81l0.271-0.608l0.27-1.009c0,0,1.617-3.507,3.908-3.979    c2.289-0.469,2.289-0.469,2.289-0.469h0.541l0.674-0.069l-0.404-0.673c0,0-0.605-0.54-0.404-0.54c0.203,0,0.809-1.011,0.809-1.011    s0.676-2.291,0.877-2.628s1.146-1.011,1.348-1.213c0.203-0.201,0.404-0.811,0.74-0.942c0.336-0.136,1.213-0.541,1.416-0.676    c0.201-0.134,0.27-0.473,0.539-0.606s1.146-0.876,1.146-0.876v-0.538l-0.539-0.067l-0.742-0.403l-1.281-1.35v-0.742    c0,0-0.203-0.808-0.336-1.011c-0.135-0.201-0.809-1.21-0.809-1.21s-0.135-0.407,0-0.878c0.135-0.473,2.156-3.235,2.291-3.505    s0.406-0.743,0.607-1.011c0.201-0.271,0.404-0.54,0.605-0.674c0.203-0.136,0.338-0.541,0.541-0.675    c0.201-0.133,0.402-0.452,0.402-0.452l0.607-1.772l1.01-1.146c0,0,0.137-0.336,0.338-0.336c0.203,0,0.809-0.201,0.809-0.201    l0.607-0.404v-0.337l-0.541-0.339l0.338-0.875c0.674-0.472,0.473-0.943,0.943-1.079c0.473-0.134,0-0.472,1.012-0.403    c1.01,0.067,1.279,0.201,1.551,0c0.27-0.203,0.402-0.54,0.875-0.81c0.471-0.27,0.068-0.068,0.471-0.27    c0.406-0.202,0.607-0.336,1.08-0.472c0.471-0.136,1.279-0.473,1.684-0.539c0.404-0.067,0.473,0.741,0.945,0.135    c0.471-0.606,0.402-1.078,0.674-1.28C80.771,37.469,81.312,36.728,81.512,36.66z"/></g></g><text x="0" y="115" fill="#000000" font-size="5px" font-weight="bold" font-family="'Helvetica Neue', Helvetica, Arial-Unicode, Arial, Sans-serif">Created by Randomhero</text><text x="0" y="120" fill="#000000" font-size="5px" font-weight="bold" font-family="'Helvetica Neue', Helvetica, Arial-Unicode, Arial, Sans-serif">from the Noun Project</text></svg>