<svg xmlns="http://www.w3.org/2000/svg" xmlns:xlink="http://www.w3.org/1999/xlink" version="1.1" x="0px" y="0px" viewBox="0 0 59.96 75.1875" enable-background="new 0 0 59.96 60.15" xml:space="preserve"><g><path d="M36.41,7.78c-0.39-0.39-1.02-0.39-1.41,0s-0.39,1.02,0,1.41l4.24,4.24c0.2,0.2,0.45,0.29,0.71,0.29s0.51-0.1,0.71-0.29   c0.39-0.39,0.39-1.02,0-1.41L36.41,7.78z"/><path d="M52.71,22.45c-0.39-0.39-1.02-0.39-1.41,0l-1.79,1.79l-1.79-1.79c-0.39-0.39-1.02-0.39-1.41,0s-0.39,1.02,0,1.41l1.79,1.79   l-1.79,1.79c-0.39,0.39-0.39,1.02,0,1.41c0.2,0.2,0.45,0.29,0.71,0.29s0.51-0.1,0.71-0.29l1.79-1.79l1.79,1.79   c0.2,0.2,0.45,0.29,0.71,0.29s0.51-0.1,0.71-0.29c0.39-0.39,0.39-1.02,0-1.41l-1.79-1.79l1.79-1.79   C53.1,23.47,53.1,22.84,52.71,22.45z"/><path d="M57.63,17.68c-1.5-1.51-3.51-2.33-5.66-2.33c-1.09,0-2.15,0.22-3.12,0.63L32.88,0l-0.71,0.71c-3.9,3.9-3.9,10.24,0,14.14   l8.49,8.49l-3.27,3.27l-2.39-5.06l-4.19,2.69l-2.35-5.15l-4.21,2.7l-2.35-5.15l-4.21,2.7l-2.35-5.15l-4.21,2.7l-1.79-3.92   c-0.17-0.38-0.56-0.63-0.98-0.63l-0.77,0.05l-2.62,7.03C3.8,22.54,5.38,26,8.5,27.16c13.14,4.61,18.69,6.49,21.07,7.26L25.6,38.4   l-7.58-2.33L17.81,36h-0.17c-0.32,0-0.63,0.14-0.84,0.37c-0.22,0.24-0.33,0.56-0.3,0.89c0.1,1.06-0.12,1.36-0.17,1.41   c-0.06,0.06-0.17,0.09-0.34,0.09c-1.67,0-5.07-2.57-6.19-3.42L9.47,35.1c-0.31-0.23-0.69-0.35-1.12-0.35c0,0,0,0,0,0L3.7,34.87   c-1.2-0.18-2.35,0.53-2.75,1.65l-0.8,2.25c-0.41,1.17,0.07,2.45,1.15,3.05l4.19,2.33l14.65,5.02c0.18,0.81,0.49,1.58,0.91,2.29   c-0.06,0.06-0.14,0.11-0.2,0.17c-1.95,1.95-1.95,5.12,0,7.07c0.94,0.94,2.2,1.46,3.54,1.46c1.33,0,2.59-0.52,3.54-1.46   c0.93-0.93,1.44-2.17,1.45-3.46c1.59-0.29,3.04-1.04,4.2-2.2l24.04-24.04c1.51-1.51,2.33-3.51,2.33-5.66S59.13,19.18,57.63,17.68z    M6.83,20.14l1.6-4.3l1.83,4l4.21-2.7l2.35,5.15l4.21-2.7l2.35,5.15l4.21-2.7l2.35,5.15l4.22-2.71l1.73,3.65l-4.73,4.73   c-2.52-0.76-14.17-4.81-21.98-7.55C7.11,24.51,6.06,22.21,6.83,20.14z M33.59,13.44c-2.88-2.88-3.1-7.43-0.66-10.56l14.1,14.1   l-0.71,0.71c0,0,0,0,0,0l-4.24,4.24L33.59,13.44z M2.27,40.07c-0.22-0.12-0.32-0.39-0.24-0.63l0.8-2.25   c0.08-0.24,0.33-0.39,0.59-0.34l0.11,0.02l4.8-0.13l0.26,0.19c2.5,1.89,5.33,3.82,7.39,3.82c0.94,0,1.51-0.41,1.82-0.75   c0.39-0.42,0.61-0.99,0.69-1.71L24,40l-1.72,1.72c-0.18,0.18-0.35,0.36-0.51,0.56c-1.1,1.32-1.72,2.95-1.81,4.69   c0,0.01,0,0.02,0,0.03L6.38,42.36L2.27,40.07z M26.52,57.28c-1.13,1.13-3.11,1.13-4.24,0c-1.17-1.17-1.17-3.07,0-4.24c0,0,0,0,0,0   c0,0,0,0,0,0c0.18,0.18,0.37,0.35,0.56,0.51c0.08,0.06,0.16,0.12,0.23,0.18c0.12,0.09,0.24,0.18,0.36,0.27   c0.11,0.07,0.21,0.14,0.32,0.2c0.1,0.06,0.2,0.12,0.3,0.18c0.13,0.07,0.26,0.13,0.39,0.2c0.09,0.04,0.17,0.08,0.26,0.12   c0.15,0.07,0.3,0.12,0.45,0.18c0.07,0.03,0.14,0.05,0.22,0.08c0.17,0.06,0.34,0.11,0.51,0.15c0.06,0.01,0.11,0.03,0.17,0.04   c0.19,0.04,0.38,0.08,0.57,0.12c0.04,0.01,0.08,0.01,0.12,0.02c0.21,0.03,0.42,0.06,0.64,0.07c0.01,0,0.01,0,0.02,0   C27.34,56.06,27.04,56.75,26.52,57.28z M56.21,27.58L32.17,51.62c-0.98,0.98-2.25,1.58-3.62,1.72l-0.3,0.02   c-1.48,0.08-2.92-0.38-4.07-1.29c-0.01-0.01-0.02-0.02-0.03-0.03c-0.16-0.13-0.32-0.27-0.47-0.42c0,0,0,0,0,0   c-0.17-0.17-0.33-0.35-0.47-0.54l-0.01-0.02c-0.57-0.73-0.96-1.57-1.14-2.48l-0.05-0.32c-0.21-1.4,0.09-2.82,0.8-4   c0.01-0.02,0.02-0.04,0.03-0.05c0.1-0.17,0.21-0.32,0.33-0.48c0.02-0.03,0.05-0.06,0.07-0.09c0.14-0.17,0.29-0.34,0.44-0.5   l18.38-18.38l0,0l5.66-5.66c1.13-1.13,2.63-1.75,4.24-1.75c1.61,0,3.11,0.62,4.24,1.75s1.75,2.63,1.75,4.24   S57.34,26.45,56.21,27.58z"/><path d="M41.49,36.64L29.34,48.79c-0.74,0.75-2.08,0.75-2.83,0c-0.39-0.39-1.02-0.39-1.41,0c-0.39,0.39-0.39,1.02,0,1.41   c0.75,0.75,1.75,1.16,2.83,1.16s2.08-0.41,2.83-1.16L42.9,38.06c0.39-0.39,0.39-1.02,0-1.41S41.88,36.25,41.49,36.64z"/><path d="M14.55,42.26l-4.37-1.74c-0.51-0.21-1.09,0.05-1.3,0.56c-0.2,0.51,0.05,1.09,0.56,1.3l4.37,1.74   c0.12,0.05,0.25,0.07,0.37,0.07c0.4,0,0.77-0.24,0.93-0.63C15.31,43.04,15.06,42.46,14.55,42.26z"/></g><text x="0" y="75.15" fill="#000000" font-size="5px" font-weight="bold" font-family="'Helvetica Neue', Helvetica, Arial-Unicode, Arial, Sans-serif">Created by Oliviu Stoian</text><text x="0" y="80.15" fill="#000000" font-size="5px" font-weight="bold" font-family="'Helvetica Neue', Helvetica, Arial-Unicode, Arial, Sans-serif">from the Noun Project</text></svg>