<svg xmlns="http://www.w3.org/2000/svg" xmlns:xlink="http://www.w3.org/1999/xlink" version="1.1" x="0px" y="0px" viewBox="0 0 100 125" enable-background="new 0 0 100 100" xml:space="preserve"><g><path d="M94.6,11.5c0-0.3-0.1-0.5-0.3-0.7l-5.5-5.5C88.7,5.1,88.4,5,88.2,5l-3.3,0c-0.5,0-0.8,0.3-0.9,0.7l-1.2,5.2l-11.2,9.6   c-3.7-2.2-7.5-2.9-9.7-3.2c-0.1,0-0.2,0-0.2,0c-1,0-1.9,0.7-2,1.8l0,0.2c-0.2,1.1,0.7,2.2,1.8,2.3c2.6,0.3,7.1,1.4,10.9,5.2   c4,4,5.4,9.1,6,11.9c0.2,1,1.1,1.7,2,1.7c0.2,0,0.3,0,0.5-0.1c1.1-0.3,1.7-1.4,1.5-2.4c-0.4-2.2-1.2-6-3.2-9.6L88.8,17l5.1-1.2   c0.4-0.1,0.8-0.5,0.7-1L94.6,11.5z"/><path d="M70.9,28.1c-1.5-1.5-3.1-2.5-4.6-3.2L8.9,84.7c-2.5,2.8-3.6,9.1-3.6,9.1L70.9,28.1C70.9,28.1,70.9,28.1,70.9,28.1z"/><path d="M6.5,95c0,0,6.3-1.1,9.1-3.6l59.4-57c-0.7-1.6-1.6-3.4-2.9-5L6.5,95z"/></g><text x="0" y="115" fill="#000000" font-size="5px" font-weight="bold" font-family="'Helvetica Neue', Helvetica, Arial-Unicode, Arial, Sans-serif">Created by parkjisun</text><text x="0" y="120" fill="#000000" font-size="5px" font-weight="bold" font-family="'Helvetica Neue', Helvetica, Arial-Unicode, Arial, Sans-serif">from the Noun Project</text></svg>