<svg xmlns="http://www.w3.org/2000/svg" xmlns:xlink="http://www.w3.org/1999/xlink" version="1.1" x="0px" y="0px" viewBox="0 0 100 125" enable-background="new 0 0 100 100" xml:space="preserve">
  <ellipse transform="matrix(0.7794 -0.6265 0.6265 0.7794 -27.5732 54.8715)" cx="64.139" cy="66.594" rx="2.449" ry="3.078"/>
  <path d="M86.719,77.138c-0.46-0.521-1.257-0.569-1.777-0.106l-4.427,3.923l-2.473-3.35c0.144-0.919-0.145-1.891-0.868-2.581  l-6.437-6.156c-1.172-1.121-3.032-1.081-4.154,0.092c-0.566,0.591-0.834,1.357-0.812,2.115l-1.27,1.596l-2.425-0.527l-6.722-6.211  c-0.419-0.387-1.076-0.362-1.464,0.057c-0.389,0.42-0.362,1.076,0.058,1.465l0.313,0.29l-2.718,1.602l3.107,3.17l0.761-3.708  l4.507,4.162c-0.143,0.678,0.287,1.343,0.962,1.491c0,0,4.027,0.868,4.117,0.868c0.379,0,0.744-0.172,0.985-0.476l1.084-1.364  l4.671,4.468l-1.795,2.161c-0.068,0.083-1.38,3.593-2.042,5.375c-2.826-2.76-11.418-6.32-14.438-6.916l-0.082-5.337l-3.674-2.305  l3.534-6.839l-0.154-10.104c1.127-0.776,2.108-1.749,2.876-2.881c1.514,0.734,3.214,1.138,5.009,1.097  c6.044-0.134,10.828-5.141,10.694-11.183c-0.084-3.758-2.056-7.029-4.982-8.931c0.384-1.159,0.589-2.397,0.561-3.686  c-0.117-5.22-3.875-9.497-8.789-10.477c-1.657-4.093-5.702-6.944-10.377-6.84c-2.156,0.048-4.146,0.725-5.813,1.838  c-1.465-0.674-3.097-1.046-4.818-1.008c-5.256,0.117-9.561,3.926-10.5,8.894c-4.159,1.626-7.066,5.704-6.96,10.426  c0.061,2.747,1.139,5.23,2.857,7.113c-1.546,1.937-2.452,4.401-2.392,7.073c0.137,6.039,5.141,10.826,11.182,10.692  c2.512-0.056,4.801-0.966,6.615-2.432l1.576,3.152l2.992,8.159c2.363,4.572,1.445,10.071,0.462,13.82  c-7.097,1.771-11.677,7.565-11.677,7.565c19.294,4.235,32.347,2.054,36.068,1.237c0.143,0.218,0.336,0.405,0.6,0.502  c0.144,0.053,0.289,0.077,0.435,0.077c0.513,0,0.994-0.315,1.182-0.825l2.133-5.814l1.586-1.912  c0.471,0.288,1.003,0.437,1.535,0.437c0.465,0,0.925-0.123,1.347-0.343l2.816,3.816c0.21,0.285,0.53,0.468,0.882,0.504  c0.044,0.006,0.088,0.007,0.132,0.007c0.307,0,0.604-0.111,0.835-0.315l5.457-4.839C87.133,78.454,87.181,77.658,86.719,77.138z   M47.719,60.242c-0.813-0.032-2.658-2.359-4.478-4.97c1.223,0.439,4.945,0.577,5.446,0.495  C47.905,59.208,47.739,60.064,47.719,60.242z"/>
  <text x="0" y="115" fill="#000000" font-size="5px" font-weight="bold" font-family="'Helvetica Neue', Helvetica, Arial-Unicode, Arial, Sans-serif">Created by Brand Mania</text>
  <text x="0" y="120" fill="#000000" font-size="5px" font-weight="bold" font-family="'Helvetica Neue', Helvetica, Arial-Unicode, Arial, Sans-serif">from the Noun Project</text>
</svg>
