<?xml version="1.0" encoding="UTF-8"?>
<svg xmlns="http://www.w3.org/2000/svg" xmlns:xlink="http://www.w3.org/1999/xlink" xml:space="preserve" version="1.1" style="shape-rendering:geometricPrecision;text-rendering:geometricPrecision;image-rendering:optimizeQuality;" viewBox="0 0 50000 62500" x="0px" y="0px" fill-rule="evenodd" clip-rule="evenodd">
  <defs>
    <style type="text/css">       .fil0 {fill:black;fill-rule:nonzero}     </style>
  </defs>
  <g>
    <path class="fil0" d="M48306 9362c469,1075 604,1919 495,2540 -82,465 -297,812 -611,1044 -307,227 -702,337 -1153,334 -758,-4 -1694,-331 -2635,-954 -8,-6 -13,-9 -35,-25 -19,-13 -6,-18 -25,-24 -475,-164 -1280,103 -2157,553 -1143,588 -2375,1482 -3199,2173 505,282 1091,745 1623,1333 594,656 1127,1473 1415,2378 294,920 335,1926 -64,2943 -272,691 -747,1384 -1486,2052l-9784 8853 831 1010c33,33 64,67 93,101 254,292 363,599 357,890 -6,299 -133,572 -349,790 -22,22 -46,44 -70,66l0 0 -3856 3541 0 0c-73,70 -135,131 -193,187 -100,99 -189,185 -277,262 -538,470 -861,490 -1663,-426l0 0 -915 -973 -2787 2626 -5 5c-189,168 -355,326 -517,480 -627,598 -1190,1134 -2121,1421 -315,97 -695,483 -1146,942 -1179,1202 -2799,2851 -5686,1976 -1010,-307 -1915,-950 -2568,-1786 -513,-658 -872,-1436 -1003,-2264l-517 523 -12 9c-24,20 -46,40 -66,59 -28,27 -56,53 -98,86 -80,62 -156,97 -250,104 -9,1 -18,2 -27,2 -181,194 -497,482 -819,758 -485,416 -1012,821 -1143,855 -48,12 -75,22 -86,33 -22,22 -44,70 -76,150 -161,415 -272,417 -496,421l-1 0c-27,1 -61,2 -104,18 -7,2 2,2 -8,11 -26,23 -51,47 -64,65 -82,105 -83,122 -85,195 -3,54 -5,121 -14,214 -29,295 -213,529 -380,742l-60 76c-8,11 -27,34 -46,56l1 0c-12,14 -23,27 -31,38 -9,13 -29,40 -50,68 -46,62 -96,128 -101,155 -19,92 -16,142 -14,178 10,185 12,236 -247,494 -29,29 -57,58 -83,84 -410,416 -556,564 -1136,213 -265,-161 -660,-539 -986,-928 -302,-361 -556,-747 -616,-1010 -10,-43 -24,-110 -32,-181 -10,-99 -6,-204 34,-290l1 0c42,-90 185,-266 331,-408 128,-125 272,-238 383,-274 178,-58 280,-33 384,-7 54,14 111,28 345,-132l74 -50c236,-162 348,-238 492,-285 131,-43 245,-47 460,-55 52,-1 111,-4 195,-8 38,-1 105,-24 165,-60 5,-3 7,6 9,15l5 10c5,-29 7,-55 9,-77 9,-118 15,-188 124,-331 103,-135 222,-164 360,-198 86,-22 192,-48 253,-171 173,-350 1083,-1096 1631,-1545 70,-57 133,-109 190,-156 -9,-94 23,-199 188,-324 513,-412 876,-764 1260,-1135 268,-260 546,-530 900,-843 187,-195 268,-434 353,-683 132,-387 271,-794 748,-1201l0 1c1199,-1049 2377,-2051 3547,-3046 1545,-1313 3078,-2617 4542,-3926 2828,-2528 5621,-5073 8421,-7709 2791,-2627 5576,-5333 8391,-8187 1210,-1226 2573,-2680 3553,-3960 921,-1203 1503,-2217 1257,-2640l-14 -24 -9 -26c-74,-218 -167,-439 -260,-661 -296,-708 -597,-1427 -452,-2285 69,-404 219,-743 468,-993 237,-239 555,-390 967,-434 770,-80 1603,192 2401,628 1069,583 2081,1460 2769,2149 532,531 1074,1171 1552,1850 440,626 829,1288 1111,1935zm-61 2443c91,-519 -34,-1253 -455,-2218 -265,-609 -635,-1238 -1056,-1836 -461,-654 -979,-1267 -1488,-1775 -661,-662 -1629,-1503 -2641,-2055 -707,-385 -1431,-628 -2075,-561 -274,29 -479,123 -625,270 -162,163 -262,399 -311,690 -119,698 151,1342 416,1976 93,223 186,444 265,673 354,671 -271,1878 -1312,3236 -996,1301 -2376,2773 -3599,4012 -2824,2863 -5614,5574 -8406,8203 -2784,2621 -5584,5172 -8432,7718 -1501,1343 -3021,2635 -4553,3937 -1188,1010 -2382,2025 -3543,3041l-2 2c-360,306 -473,638 -580,954 -107,311 -208,610 -487,898l-16 15c-341,301 -621,573 -892,835 -381,369 -742,719 -1245,1126 5,59 -9,125 -69,211l-22 30 -26 22c-63,54 -176,147 -311,258 -512,420 -1363,1117 -1483,1359 -177,358 -424,419 -624,468 -34,9 -29,-29 -46,-6 -8,9 -8,18 -10,33 -2,34 -5,73 -15,130 -27,155 -141,277 -281,361 -135,81 -312,134 -430,140 -67,3 -138,5 -199,8 -162,6 -247,9 -305,28 -69,22 -159,84 -350,214l-73 50c-443,302 -624,257 -797,214 -26,-6 -51,-12 -76,-4 -21,7 -89,68 -164,141 -101,98 -191,200 -212,239l7 -1c3,-3 6,-4 7,0 4,39 13,83 20,113 39,169 246,471 499,773 293,350 632,680 845,809 199,121 264,56 444,-126 27,-28 56,-57 87,-89 81,-80 82,-56 81,-66 -3,-64 -8,-153 25,-318 31,-152 120,-271 203,-382 11,-14 22,-28 42,-56 24,-35 41,-55 59,-76l1 0c4,-4 8,-9 27,-33 36,-48 50,-66 64,-84 119,-151 250,-318 263,-446 7,-77 10,-135 11,-180 9,-222 11,-273 203,-520 35,-46 89,-103 143,-149 57,-48 120,-91 180,-113 127,-46 217,-48 288,-50 28,0 -42,1 -17,-62 59,-152 115,-257 198,-342 95,-95 200,-147 351,-185 51,-13 481,-364 914,-736 399,-342 778,-689 843,-793l141 -227 179 99 11 -11c27,-25 54,-51 90,-80l578 -584c91,-119 147,-154 205,-175 26,-50 71,-108 174,-180l431 -299 11 525c20,924 374,1807 938,2530 583,747 1390,1321 2288,1594 2561,776 4043,-733 5122,-1832 505,-514 930,-947 1382,-1086 804,-248 1321,-741 1898,-1291 173,-164 350,-333 530,-493l0 0 3191 -3007 1301 1384 7 8c488,559 649,579 876,381 72,-63 157,-146 252,-240 64,-63 133,-131 203,-197l3 -3 3856 -3542 7 -5c15,-13 31,-28 46,-43 115,-116 183,-256 186,-404 3,-156 -64,-331 -220,-511 -22,-26 -47,-52 -73,-78l-9 -8 -1192 -1450 10182 -9212c668,-605 1096,-1226 1338,-1841 347,-884 310,-1763 54,-2568 -262,-821 -751,-1568 -1297,-2171 -622,-688 -1310,-1182 -1816,-1381l-426 -167 341 -304c823,-735 2289,-1838 3639,-2531 999,-514 1954,-806 2595,-585 56,20 117,63 164,95l24 16c850,564 1675,858 2327,862 329,2 609,-71 815,-224 198,-146 335,-375 390,-689zm-39042 29230c0,-1 18,-56 12,-38 -4,13 -8,25 -13,37l1 1zm-7489 3811c-7,14 2,1 8,-5l-7 1 -1 3 0 1zm2327 -1502c2,14 2,29 5,12l0 -2 -5 -10zm6993 -3978c-108,241 -180,442 -225,649 -47,216 -67,443 -68,729 -1,183 18,362 54,537 140,674 542,1264 1084,1687 545,426 1228,683 1924,686 193,1 388,-18 583,-58 840,-175 1854,-1140 2632,-1881 62,-59 122,-116 187,-177 -300,-375 -515,-831 -548,-1321 -37,-553 156,-1139 719,-1684 37,-36 70,-67 99,-93l1 1 4276 -3822 -2361 -2713c-148,125 -355,297 -606,506 -2035,1696 -7023,5854 -7751,6954zm-776 530c55,-254 141,-494 270,-779l7 -14 13 -21c733,-1147 5812,-5380 7877,-7102 408,-339 695,-579 812,-680l213 -186 3092 3554 -4692 4192 0 2c-34,30 -61,55 -82,75 -427,414 -575,844 -549,1243 27,408 233,794 510,1105 28,31 51,56 69,75l201 207 -212 195c-85,79 -229,216 -381,361 -828,789 -1908,1817 -2905,2024 -232,48 -466,71 -700,69 -824,-4 -1629,-305 -2268,-804 -643,-503 -1121,-1207 -1289,-2016 -44,-211 -67,-429 -65,-654 1,-332 24,-595 79,-846zm14996 -13101l2290 2631 7823 -7039 1 0c38,-35 56,-47 75,-61 4,-3 9,-6 17,-13 58,-52 103,-92 148,-133 364,-331 769,-700 1276,-822 182,-44 377,-50 563,-31 214,21 423,75 587,140l12 5c48,21 84,39 122,57 178,87 409,199 494,120l2 -3c727,-661 815,-1623 503,-2458 -123,-329 -308,-638 -540,-902 -228,-261 -504,-477 -813,-624 -746,-355 -1695,-294 -2649,549l-3 3 -9908 8581zm2053 3218l-2849 -3273 10336 -8952 0 0c1154,-1018 2327,-1081 3263,-635 377,179 714,444 994,762 276,315 496,684 643,1076 387,1035 269,2236 -651,3072l0 0c-367,341 -794,133 -1122,-27 -43,-20 -83,-40 -107,-51l0 0c-117,-45 -266,-83 -422,-98 -131,-13 -262,-10 -378,18 -362,87 -713,406 -1027,691 -57,52 -113,103 -153,139l-7 5c-23,20 -41,33 -57,44 -9,6 -17,12 -23,18l-3 4 -8249 7423 -188 -216zm-8190 10309c-116,104 -294,94 -397,-22 -104,-115 -94,-293 22,-396l4400 -3943c116,-103 294,-93 397,22 104,116 94,294 -22,397l-4400 3942zm9861 -8758c-114,107 -292,101 -398,-12 -107,-113 -101,-292 12,-398l10069 -9504c113,-107 291,-101 398,12 106,113 101,291 -13,398l-10068 9504zm-2437 3963c104,116 93,294 -23,398 -116,103 -294,93 -398,-23l-2342 -2635c-104,-117 -94,-295 23,-398 116,-104 294,-93 398,23l2342 2635zm-3335 -3776c107,113 101,291 -12,398 -113,106 -291,101 -398,-13l-1124 -1197c-107,-114 -101,-292 12,-398 113,-107 291,-102 398,12l1124 1198zm5108 2307c104,116 93,295 -23,398 -116,104 -295,93 -398,-23l-2329 -2613c-104,-117 -94,-295 23,-398 116,-104 294,-94 398,23l2329 2613zm-3289 -3702c103,116 92,294 -24,397 -116,103 -294,92 -397,-24l-1163 -1319c-103,-116 -92,-293 24,-396 116,-103 294,-92 397,24l1163 1318zm5194 5812c108,112 104,290 -8,398 -112,108 -290,105 -398,-7l-918 -950c-108,-112 -104,-290 8,-398 112,-108 290,-104 398,8l918 949zm-1719 1523c106,114 99,292 -15,397 -114,106 -292,99 -397,-15l-888 -960c-105,-114 -98,-291 15,-397 114,-105 292,-98 397,16l888 959zm9885 -22359c-495,-195 -1468,-35 -2511,335 -1073,381 -2198,983 -2951,1655l-16679 14875 -375 -421 16679 -14875c808,-721 2003,-1363 3139,-1766 1160,-411 2280,-575 2905,-327l-207 524zm-19148 15968l6097 -5318 370 423 -6097 5318 -370 -423zm20754 -22641c-83,132 -257,171 -388,88 -132,-82 -171,-256 -88,-388 283,-451 539,-1130 675,-1835 118,-608 145,-1225 19,-1714 -38,-151 53,-304 203,-342 150,-38 303,52 342,203 148,576 121,1279 -10,1959 -149,770 -435,1523 -753,2029zm3101 3772c-141,67 -308,6 -375,-134 -66,-141 -6,-309 135,-375 541,-255 1322,-448 2105,-503 691,-49 1393,9 1947,226 145,56 216,220 160,364 -57,145 -220,217 -365,160 -471,-183 -1087,-231 -1704,-188 -715,51 -1421,223 -1903,450zm-25440 16345l984 -860c102,-89 230,-128 354,-120 125,8 246,64 335,166l368 421 0 0 13 15c88,101 128,229 119,353 -8,119 -59,235 -152,322l1 1 -15 12 -984 860c-102,89 -230,128 -354,120 -124,-8 -246,-64 -335,-166l-380 -435c-89,-102 -128,-230 -120,-354 8,-124 64,-246 166,-335zm1299 -388l-873 763 283 323 872 -762 -282 -324zm566 -1244l970 -848 0 -1 14 -12c102,-89 230,-128 354,-119 119,8 235,59 322,152l1 -1 12 14 380 436c89,102 128,230 120,354 -8,124 -64,246 -166,334l-984 861c-102,89 -230,128 -354,120 -125,-9 -246,-65 -335,-166l-381 -436c-88,-102 -128,-229 -119,-354 8,-124 64,-246 166,-334zm1298 -388l-872 762 282 323 873 -762 -283 -323zm526 -1254l985 -860c101,-89 229,-129 354,-120 124,8 246,64 334,166l368 421 1 0 12 14c89,102 128,230 120,354 -8,119 -60,235 -152,322l0 1 -14 12 -985 860c-102,89 -230,128 -354,120 -124,-9 -246,-65 -334,-166l-381 -436c-89,-101 -128,-229 -120,-353 9,-125 65,-246 166,-335zm1299 -388l-872 762 282 324 872 -763 -282 -323zm-5565 2939c103,117 91,295 -26,397 -117,103 -295,91 -397,-26l-84 -96 0 0 -12 -14c-89,-101 -129,-229 -120,-353 7,-119 58,-235 151,-323l0 0 14 -13 983 -862c101,-88 229,-128 353,-120 125,8 247,64 336,166l96 110c102,117 91,294 -26,397 -117,102 -295,90 -397,-27l-47 -53 -871 763 47 54zm526 -734l859 954 -419 377 -859 -954 419 -377zm1389 -847c103,117 91,295 -26,397 -117,102 -295,90 -397,-27l-84 -95 0 0 -12 -15c-89,-101 -128,-228 -120,-352 7,-119 59,-236 151,-323l0 -1 14 -12 983 -862c102,-89 229,-128 353,-120 125,8 247,64 336,165l96 110c103,117 91,295 -26,397 -117,103 -295,91 -397,-26l-47 -54 -871 764 47 54zm526 -734l859 953 -419 377 -858 -953 418 -377zm1348 -823c102,117 90,295 -27,397 -117,102 -294,90 -397,-27l-84 -95 0 0 -12 -14c-89,-102 -128,-229 -120,-353 8,-119 59,-236 152,-323l-1 -1 15 -12 983 -862c101,-89 228,-128 352,-120 125,8 247,64 336,165l97 110c102,117 90,295 -27,397 -117,103 -295,91 -397,-26l-47 -54 -871 764 48 54zm526 -734l858 953 -419 377 -858 -953 419 -377zm7741 938c417,0 794,169 1068,442 273,274 442,651 442,1068 0,417 -169,794 -442,1068 -274,273 -651,442 -1068,442 -417,0 -794,-169 -1068,-442 -273,-274 -442,-651 -442,-1068 0,-417 169,-794 442,-1068 274,-273 651,-442 1068,-442zm669 841c-172,-171 -408,-277 -669,-277 -261,0 -498,106 -669,277 -171,171 -276,408 -276,669 0,261 105,497 276,668 171,172 408,277 669,277 261,0 497,-105 669,-277 171,-171 276,-407 276,-668 0,-261 -105,-498 -276,-669zm497 135c-115,104 -293,95 -397,-20 -104,-115 -95,-293 20,-397l2053 -1855c115,-104 293,-95 397,20 104,115 95,292 -20,397l-2053 1855zm3462 -3129c-115,104 -293,95 -397,-20 -104,-115 -95,-293 20,-397l662 -597c115,-105 293,-96 397,19 104,115 95,293 -20,397l-662 598zm-962 2109l-1551 -1761 1736 -1597 1578 1778 -421 373 -1197 -1349 -909 836 1187 1347 -423 373zm10274 -2954c-58,145 -221,216 -366,158 -145,-57 -216,-221 -159,-366 390,-987 465,-1839 357,-2592 -108,-757 -401,-1420 -746,-2019 -77,-135 -31,-306 104,-384 134,-77 306,-31 384,104 376,654 696,1381 816,2220 121,843 39,1791 -390,2879zm-126 -437l-1172 -306 142 -545 1171 307 -141 544zm260 -2110l-1293 100 -42 -563 1293 -100 42 563zm-17697 1244c114,-105 292,-97 397,18 104,114 97,292 -18,396l-1175 1075c-351,321 -454,621 -413,846 15,78 47,147 91,203 43,55 100,99 164,128 140,62 318,49 480,-75 123,-94 300,-71 394,53 95,123 71,300 -52,394 -344,264 -736,284 -1053,141 -144,-65 -273,-165 -374,-293 -100,-126 -171,-279 -203,-449 -73,-396 69,-890 586,-1363l1176 -1074zm-14094 18087l-2426 2324 -391 -406 2427 -2323 390 405zm17587 -7727c100,119 84,297 -36,397 -119,100 -297,84 -396,-35l-1661 -1981c-100,-119 -85,-297 35,-396 119,-100 297,-84 397,35l1661 1980zm-11311 10069c311,333 619,545 929,635 296,85 604,59 934,-78l216 520c-450,188 -883,220 -1307,98 -409,-119 -800,-382 -1182,-791l410 -384z"/>
  </g>
  <text x="0" y="50015" fill="#000000" font-size="5px" font-weight="bold" font-family="'Helvetica Neue', Helvetica, Arial-Unicode, Arial, Sans-serif">Created by Alexander Panasovsky</text>
  <text x="0" y="50020" fill="#000000" font-size="5px" font-weight="bold" font-family="'Helvetica Neue', Helvetica, Arial-Unicode, Arial, Sans-serif">from the Noun Project</text>
</svg>
