<!-- Interesting corner case - 2 groups -->
<?xml version="1.0" encoding="UTF-8"?>
<svg xmlns="http://www.w3.org/2000/svg" viewBox="0 0 35.75 33.4625" x="0px" y="0px">
  <title>Asset 104</title>
  <g data-name="Layer 2">
    <g data-name="Layer 1">
      <path d="M14.49,13,32.65,4.1a2.2,2.2,0,0,0,.79-3,2.2,2.2,0,0,0-3-.79L13.75,10.23l-.11-.39a3,3,0,0,1,0-.53v0s0,0,0,0a3,3,0,0,1,.18-1l1.53-3.88h.12a.7.7,0,0,0,0-1.4H10.22a.7.7,0,0,0-.5.21l-1.5,1.5-1.5-1.5A.7.7,0,0,0,6.23,3H.7a.7.7,0,1,0,0,1.4h.41L2.64,8.26a3,3,0,0,1,.19,1s0,0,0,.06,0,0,0,.05a2.78,2.78,0,0,1,0,.44L.07,20.05a4.88,4.88,0,0,0,.36,2.79l.86,1.94a3.36,3.36,0,0,0,3.06,2H12.1a3.36,3.36,0,0,0,3.06-2L16,22.84A4.89,4.89,0,0,0,16.37,20ZM31.14,1.51a.79.79,0,0,1,.4-.11l.21,0a.8.8,0,0,1,.57,1,.79.79,0,0,1-.33.46L14.46,11.44ZM2.62,4.38H5.94L7.73,6.17a.72.72,0,0,0,1,0l1.79-1.79h3.32L12.51,7.75a4.3,4.3,0,0,0-.22.83H4.17a4.36,4.36,0,0,0-.23-.83Zm1.57,5.69s0-.06,0-.09h8.06c0,.05,0,.1,0,.15L15,20.26H1.46Zm9.7,14.14a2,2,0,0,1-1.78,1.16H4.35a2,2,0,0,1-1.78-1.16L1.7,22.27a3.55,3.55,0,0,1-.2-.61H14.95a3.48,3.48,0,0,1-.2.61Z"/>
    </g>
  </g>
  <text x="0" y="41.769999999999996" fill="#000000" font-size="5px" font-weight="bold" font-family="'Helvetica Neue', Helvetica, Arial-Unicode, Arial, Sans-serif">Created by yusuf kara</text>
  <text x="0" y="46.769999999999996" fill="#000000" font-size="5px" font-weight="bold" font-family="'Helvetica Neue', Helvetica, Arial-Unicode, Arial, Sans-serif">from the Noun Project</text>
</svg>
