<svg xmlns="http://www.w3.org/2000/svg" xmlns:xlink="http://www.w3.org/1999/xlink" version="1.1" x="0px" y="0px" viewBox="0 0 100 125" enable-background="new 0 0 100 100" xml:space="preserve">
  <g>
    <path d="M76.738,33.65c-1.623,0-3.209,0.271-4.705,0.8c0.002-0.069,0.002-0.138,0.002-0.207c0-10.149-8.258-18.406-18.406-18.406   c-7.546,0-14.246,4.556-17.05,11.461c-0.496,0.09-0.979,0.216-1.455,0.361c-0.42,0.113-0.835,0.243-1.242,0.404   c-0.165,0.065-0.312,0.156-0.447,0.256c-2.156,1.012-4.014,2.602-5.338,4.652c-7.019,1.053-12.187,6.985-12.187,14.21   c0,7.709,6.592,13.983,14.694,13.983h1.017h1.832h14.665c0.199,0,0.389-0.039,0.57-0.094c0.182,0.055,0.37,0.094,0.569,0.094   c3.584,0,6.5-2.916,6.5-6.5s-2.916-6.5-6.5-6.5c-0.308,0-0.616,0.022-0.921,0.066c-1.094,0.156-1.853,1.17-1.695,2.264   c0.156,1.094,1.172,1.852,2.264,1.696c1.487-0.213,2.853,0.977,2.853,2.475c0,1.379-1.122,2.5-2.5,2.5   c-0.199,0-0.388,0.037-0.569,0.092c-0.182-0.055-0.371-0.092-0.57-0.092H33.453h-1.832h-1.017c-5.797,0-10.694-4.572-10.694-9.983   c0-5.474,4.109-9.92,9.558-10.343c0.682-0.053,1.288-0.449,1.609-1.052c1.144-2.14,3.072-3.668,5.336-4.328   c0.564-0.132,1.141-0.206,1.728-0.206c2.436,0,4.738,1.181,6.159,3.158c0.391,0.544,1.004,0.833,1.626,0.833   c0.403,0,0.812-0.122,1.165-0.376c0.896-0.645,1.102-1.894,0.457-2.791c-1.632-2.271-4.025-3.854-6.694-4.499   c2.448-4.709,7.329-7.741,12.776-7.741c3.975,0,7.58,1.619,10.189,4.232c0.076,0.134,0.164,0.263,0.273,0.38   c2.488,2.65,3.859,6.112,3.859,9.748c0,3.777-1.541,7.467-4.227,10.124c-0.785,0.777-0.791,2.044-0.014,2.829   c0.391,0.395,0.906,0.593,1.422,0.593c0.508,0,1.016-0.192,1.406-0.578c2.205-2.183,3.799-4.912,4.664-7.862   c1.646-1.079,3.547-1.652,5.535-1.652c5.592,0,10.141,4.549,10.141,10.141c0,5.344-4.416,9.374-10.275,9.374h-5.619l0,0h-0.422   c-1.105,0-2,0.896-2,2c0,1.105,0.895,2,2,2h1.223c0.004,0,0.006,0,0.01,0h4.809c8.139,0,14.275-5.75,14.275-13.374   C90.879,39.994,84.535,33.65,76.738,33.65z"/>
    <path d="M32.121,71.164h-8c-1.104,0-2,0.896-2,2c0,1.105,0.896,2,2,2h8c1.104,0,2-0.895,2-2   C34.121,72.061,33.225,71.164,32.121,71.164z"/>
    <path d="M61.121,68.164c1.104,0,2-0.896,2-2c0-1.105-0.896-2-2-2h-7c-1.105,0-2,0.895-2,2c0,1.104,0.895,2,2,2H61.121z"/>
    <path d="M73.566,71.219c-0.145-0.033-0.293-0.055-0.449-0.055h-0.34c-0.008,0-0.014,0-0.02,0s-0.01,0-0.014,0H39.121   c-1.104,0-2,0.896-2,2c0,1.105,0.896,2,2,2h32.618c0.215,0.043,0.438,0.059,0.666,0.025c1.482-0.213,2.854,0.977,2.854,2.475   c0,1.379-1.121,2.5-2.5,2.5c-1.105,0-2,0.895-2,2c0,1.104,0.895,2,2,2c3.584,0,6.5-2.916,6.5-6.5   C79.258,74.354,76.77,71.619,73.566,71.219z"/>
    <path d="M50.121,66.164c0-1.105-0.896-2-2-2h-37c-1.104,0-2,0.895-2,2c0,1.104,0.896,2,2,2h37   C49.225,68.164,50.121,67.268,50.121,66.164z"/>
  </g>
  <text x="0" y="115" fill="#000000" font-size="5px" font-weight="bold" font-family="'Helvetica Neue', Helvetica, Arial-Unicode, Arial, Sans-serif">Created by Nikita Kozin</text>
  <text x="0" y="120" fill="#000000" font-size="5px" font-weight="bold" font-family="'Helvetica Neue', Helvetica, Arial-Unicode, Arial, Sans-serif">from the Noun Project</text>
</svg>
