<?xml version="1.0" encoding="UTF-8"?>
<svg xmlns="http://www.w3.org/2000/svg" xmlns:xlink="http://www.w3.org/1999/xlink" version="1.1" x="0px" y="0px" viewBox="0 0 100 125" enable-background="new 0 0 100 100" xml:space="preserve">
  <g>
    <path fill="#000000" d="M93.194,50.889h-2.64c-0.139,0-0.27,0.023-0.397,0.057c-0.19-6.027-1.437-10.542-3.166-11.207   c-0.084-0.032-0.184-0.075-0.294-0.122c-0.524-0.223-1.316-0.561-2.121-0.561c-0.298,0-0.564,0.061-0.815,0.151   c-0.466-0.178-1.022-0.347-1.591-0.347c-1.193,0-2.006,0.726-2.438,2.148c-0.9,1.935-1.537,5.378-1.657,9.411   c-1.36,0.185-2.711,0.954-4.101,1.886c-0.397,0.267-0.797,0.543-1.201,0.825c-2.059,1.437-4.392,3.069-5.868,2.573   c-0.386-0.139-1.659-0.968-2.682-1.635c-0.993-0.647-1.952-1.261-2.879-1.82c-2.562-1.549-4.855-2.658-6.763-2.708   c-3.247-0.085-4.997-0.016-6.401,0.042c-0.683,0.028-1.289,0.053-1.97,0.053c-2.001,0-4.353,1.147-6.856,2.515   c-0.422,0.23-0.846,0.465-1.275,0.703c-2.038,1.132-5.443,3.023-6.485,2.73c-0.945-0.271-1.863-1.017-2.926-1.882   c-0.644-0.523-1.348-1.086-2.133-1.609c-1.604-1.071-3.57-1.97-6.234-1.97l-0.82-0.008c-0.143-3.897-0.768-7.216-1.644-9.102   c-0.433-1.424-1.246-2.151-2.439-2.151c-0.725,0-1.43,0.271-1.948,0.489c-0.333-0.188-0.711-0.292-1.144-0.292   c-0.805,0-1.597,0.337-2.121,0.56c-0.111,0.047-0.21,0.09-0.295,0.122c-1.674,0.644-2.896,4.895-3.146,10.633   c-0.099-0.02-0.201-0.031-0.305-0.031H3.799c-0.873,0-1.58,0.707-1.58,1.58c0,0.872,0.708,1.58,1.58,1.58h2.639   c0.092,0,0.181-0.012,0.268-0.027c0.124,5.957,1.443,11.815,3.587,11.815c0.077,0,0.185,0.011,0.316,0.024   c0.229,0.022,0.523,0.051,0.851,0.051c0.62,0,1.155-0.116,1.617-0.328c0.102,0.027,0.203,0.056,0.309,0.056   c0.077,0,0.185,0.012,0.317,0.024c0.232,0.022,0.521,0.051,0.851,0.051c1.839,0,2.989-0.939,3.416-2.791   c0.007-0.03,0.011-0.067,0.018-0.099c0.754-1.825,1.297-4.748,1.468-8.164l0.825,0.008c2.565,0,4.093,1.243,5.862,2.683   c1.287,1.047,2.618,2.129,4.353,2.624c2.627,0.757,5.979-1.108,9.524-3.079c2.178-1.21,4.888-2.715,6.19-2.715   c0.737,0,1.393-0.026,2.132-0.056c1.344-0.054,3.018-0.12,6.133-0.04c1.677,0.045,5.361,2.446,7.562,3.881   c1.816,1.185,2.802,1.814,3.602,2.079c0.613,0.204,1.226,0.295,1.832,0.295c2.745-0.001,5.389-1.846,7.59-3.384   c0.98-0.684,2.24-1.56,3.071-1.895c0.191,3.245,0.722,6.011,1.446,7.766c0.007,0.029,0.011,0.066,0.018,0.096   c0.427,1.852,1.576,2.791,3.415,2.791c0,0,0,0,0.001,0c0.329,0,0.631-0.029,0.851-0.051c0.047-0.005,0.071-0.005,0.111-0.009   c0.423,0.164,0.899,0.257,1.444,0.257c0.327,0,0.621-0.028,0.851-0.051c0.131-0.014,0.239-0.024,0.315-0.024   c2.082,0,3.388-5.522,3.575-11.296c0.127,0.032,0.257,0.056,0.395,0.056h2.64c0.873,0,1.58-0.707,1.58-1.58   S94.067,50.889,93.194,50.889z M89.686,52.562c0,7.313-1.604,12.227-3.101,12.227c-0.088,0-0.213,0.012-0.365,0.026   c-0.216,0.021-0.492,0.049-0.801,0.049c-0.173,0-0.335-0.014-0.493-0.032c1.8-1.248,2.854-6.938,2.854-12.466   c0-6.786-1.298-12.032-3.16-12.806c0.688,0.012,1.405,0.312,1.882,0.516c0.117,0.05,0.222,0.094,0.311,0.128   C88.24,40.754,89.686,45.175,89.686,52.562z M83.012,64.667c-0.633,0-1.161-0.129-1.597-0.378   c1.844-0.037,3.333-5.605,3.333-12.473c0-6.433-1.307-11.726-2.987-12.4c0.132-0.028,0.264-0.056,0.409-0.056   c0.702,0,1.438,0.313,1.925,0.521c0.117,0.05,0.222,0.094,0.311,0.128c1.429,0.549,2.874,4.97,2.874,12.357   c0,7.313-1.603,12.226-3.1,12.226c-0.089,0-0.213,0.012-0.365,0.026C83.598,64.64,83.32,64.667,83.012,64.667   C83.012,64.667,83.012,64.667,83.012,64.667z M10.293,64.789c-1.497,0-3.099-4.913-3.099-12.227c0-7.387,1.446-11.808,2.875-12.357   c0.089-0.034,0.193-0.079,0.311-0.128c0.487-0.208,1.222-0.521,1.925-0.521c0.185,0,0.357,0.025,0.52,0.071   c-1.795,0.952-3.037,6.105-3.037,12.739c0,5.386,1,10.921,2.716,12.358c-0.312,0.092-0.657,0.14-1.042,0.14   c-0.308,0-0.585-0.027-0.802-0.049C10.507,64.801,10.382,64.789,10.293,64.789z M10.287,52.366c0-7.387,1.446-11.808,2.874-12.357   c0.089-0.034,0.193-0.079,0.311-0.128c0.487-0.208,1.222-0.521,1.925-0.521c0.145,0,0.277,0.028,0.409,0.056   c-1.68,0.675-2.987,5.967-2.987,12.4c0,6.867,1.49,12.437,3.333,12.473c-0.436,0.249-0.964,0.378-1.597,0.378   c-0.308,0-0.586-0.027-0.802-0.049c-0.152-0.015-0.277-0.026-0.366-0.026C11.89,64.592,10.287,59.68,10.287,52.366z"/>
    <path fill="none" d="M12.503,64.725c-1.716-1.438-2.716-6.973-2.716-12.358c0-6.633,1.242-11.787,3.037-12.739   c-0.163-0.046-0.335-0.071-0.52-0.071c-0.703,0-1.438,0.313-1.925,0.521c-0.118,0.05-0.222,0.094-0.311,0.128   c-1.429,0.549-2.875,4.971-2.875,12.357c0,7.313,1.603,12.227,3.099,12.227c0.088,0,0.213,0.012,0.365,0.026   c0.216,0.021,0.494,0.049,0.802,0.049C11.846,64.864,12.191,64.816,12.503,64.725z"/>
    <path fill="none" d="M13.752,64.618c0.216,0.021,0.494,0.049,0.802,0.049c0.633,0,1.162-0.129,1.597-0.378   c-1.842-0.036-3.333-5.605-3.333-12.473c0-6.433,1.307-11.726,2.987-12.4c-0.132-0.028-0.264-0.056-0.409-0.056   c-0.703,0-1.438,0.313-1.925,0.521c-0.118,0.05-0.222,0.094-0.311,0.128c-1.428,0.549-2.874,4.971-2.874,12.357   c0,7.313,1.603,12.226,3.099,12.226C13.475,64.592,13.6,64.604,13.752,64.618z"/>
    <path fill="none" d="M86.812,40.205c-0.089-0.034-0.193-0.079-0.311-0.128c-0.477-0.204-1.193-0.504-1.882-0.516   c1.862,0.774,3.16,6.02,3.16,12.806c0,5.528-1.054,11.218-2.854,12.466c0.158,0.019,0.32,0.032,0.493,0.032   c0.309,0,0.585-0.027,0.801-0.049c0.152-0.015,0.277-0.026,0.365-0.026c1.497,0,3.101-4.913,3.101-12.227   C89.686,45.175,88.24,40.754,86.812,40.205z"/>
    <path fill="none" d="M83.814,64.618c0.152-0.015,0.276-0.026,0.365-0.026c1.497,0,3.1-4.912,3.1-12.226   c0-7.387-1.445-11.808-2.874-12.357c-0.089-0.034-0.193-0.079-0.311-0.128c-0.486-0.208-1.223-0.521-1.925-0.521   c-0.146,0-0.277,0.028-0.409,0.056c1.681,0.675,2.987,5.967,2.987,12.4c0,6.867-1.489,12.436-3.333,12.473   c0.436,0.249,0.964,0.378,1.597,0.378c0,0,0,0,0.001,0C83.32,64.667,83.598,64.64,83.814,64.618z"/>
  </g>
  <text x="0" y="115" fill="#000000" font-size="5px" font-weight="bold" font-family="'Helvetica Neue', Helvetica, Arial-Unicode, Arial, Sans-serif">Created by Dávid Gladiš</text>
  <text x="0" y="120" fill="#000000" font-size="5px" font-weight="bold" font-family="'Helvetica Neue', Helvetica, Arial-Unicode, Arial, Sans-serif">from the Noun Project</text>
</svg>
