<svg xmlns:x="http://ns.adobe.com/Extensibility/1.0/" xmlns:i="http://ns.adobe.com/AdobeIllustrator/10.0/" xmlns:graph="http://ns.adobe.com/Graphs/1.0/" xmlns="http://www.w3.org/2000/svg" xmlns:xlink="http://www.w3.org/1999/xlink" version="1.1" x="0px" y="0px" viewBox="0 0 100 125" enable-background="new 0 0 100 100" xml:space="preserve"><metadata><sfw xmlns="http://ns.adobe.com/SaveForWeb/1.0/"><slices/><sliceSourceBounds height="91.536" width="87.01" y="354.732" x="355.994" bottomLeftOrigin="true"/></sfw></metadata><g><path d="M92.885,35.047c-0.398-0.398-0.939-0.623-1.504-0.623h-5.396c-1.174,0-2.125,0.951-2.125,2.125v1.474h-1.147V36.55   c0-1.174-0.95-2.125-2.125-2.125h-7.196c-1.175,0-2.125,0.951-2.125,2.125v1.474h-1.146V36.55c0-1.062-0.779-1.943-1.799-2.1   v-1.741l5.854-5.855c0.398-0.398,0.621-0.939,0.621-1.502v-6.478c0-1.174-0.95-2.125-2.125-2.125h-6.478   c-1.174,0-2.125,0.951-2.125,2.125v1.114H61.84v-1.114c0-1.174-0.951-2.125-2.125-2.125H51.25v-4.75l15.08-1.676   c0.635-0.07,1.113-0.605,1.113-1.242c0-0.637-0.479-1.172-1.113-1.242L51.25,6.163V5.482c0-0.69-0.559-1.25-1.25-1.25   c-0.69,0-1.25,0.56-1.25,1.25v1.79c0,0.003-0.002,0.006-0.002,0.009v3.599c0,0.003,0.002,0.006,0.002,0.009v5.859h-8.467   c-1.174,0-2.125,0.951-2.125,2.125v1.114h-2.227v-1.114c0-1.174-0.951-2.125-2.125-2.125h-6.477c-1.174,0-2.125,0.951-2.125,2.125   v6.478c0,0.563,0.224,1.104,0.622,1.502l5.854,5.855v1.741c-1.019,0.157-1.799,1.038-1.799,2.1v1.474h-1.148V36.55   c0-1.174-0.951-2.125-2.125-2.125h-7.197c-1.174,0-2.125,0.951-2.125,2.125v1.474H16.14V36.55c0-1.174-0.951-2.125-2.125-2.125   H8.619c-1.174,0-2.125,0.951-2.125,2.125v7.782c0,0.557,0.219,1.092,0.609,1.489l4.789,4.875v42.947   c0,1.174,0.045,2.125,0.045,2.125h14.676h11.693h2.125v-2.125v-0.32h19.135v0.32v2.125h2.125h11.693h14.719   c0,0,0.004-0.951,0.004-2.125V50.632l4.859-5.475c0.346-0.389,0.535-0.89,0.535-1.41l0.002-7.197   C93.506,35.987,93.283,35.446,92.885,35.047z M32.008,37.8h2.878v6.115l-2.878,3.831l0,0l-1.25,1.664v1.662v10.537   c-1.303-0.441-2.693-0.693-4.144-0.693c-0.69,0-1.25,0.561-1.25,1.25l-0.001,30.229H15.267v-43.08l-5.398-5.494V37.8h2.898v3.599   h7.896V37.8h4.697v3.599h6.648v-1.25V37.8z M74.639,41.398V37.8h4.697v3.599h7.898V37.8h2.896l-0.002,5.473l-5.396,6.079v43.041   H74.637l-0.002-30.229c0-0.689-0.559-1.25-1.25-1.25c-1.449,0-2.84,0.252-4.143,0.693V51.07v-1.673l-1.25-1.607l0,0l-3.023-3.887   l0.002-6.104h3.021v2.349v1.25H74.639z M27.864,92.393l0.001-28.903c5.171,0.62,9.192,5.032,9.192,10.368v17.341v1.194h-6.299   H27.864z M41.534,23.362v-3.239h3.979v3.239h8.975v-3.239h3.978v3.239h8.979v-3.239h3.977v4.71l-6.477,6.478v3.126h-1.223   c-0.689,0-1.25,0.56-1.25,1.25l-0.002,8.645c0,0.278,0.094,0.548,0.264,0.768l2.211,2.843v1.878h-4.148   c-0.689,0-1.25,0.56-1.25,1.25v2.349H54.85V51.07c0-0.69-0.559-1.25-1.25-1.25h-7.197c-0.69,0-1.25,0.56-1.25,1.25v2.348h-4.695   V51.07c0-0.69-0.56-1.25-1.25-1.25H35.06v-1.971l2.078-2.766c0.15-0.2,0.251-0.498,0.251-0.751v-8.645c0-0.69-0.56-1.25-1.25-1.25   H35.06v-3.126l-6.477-6.478v-4.71h3.977v3.239H41.534z M62.943,91.197v-17.34c0-5.336,4.021-9.748,9.19-10.369l0.003,28.904h-2.896   h-6.3v-1.195H62.943z M37.956,54.668v1.25h1.25h7.195h1.25v-1.25V52.32h4.697v2.348v1.25h1.25h7.197h1.25v-1.25V52.32h4.697V62.77   c-2.188,1.316-3.951,3.254-5.049,5.574c-2.076-4.383-6.529-7.43-11.693-7.43s-9.617,3.047-11.693,7.432   c-1.099-2.32-2.861-4.26-5.049-5.574V52.32h4.697L37.956,54.668L37.956,54.668z M51.25,75.107v1.987c0,0.691-0.559,1.25-1.25,1.25   c-0.69,0-1.25-0.559-1.25-1.25v-1.987h-3.978v1.987c0,0.691-0.56,1.25-1.25,1.25s-1.25-0.559-1.25-1.25v-1.987h-2.716v-1.25   c0-0.424,0.033-0.84,0.082-1.25h2.634v-5.75c0.723-0.797,1.563-1.482,2.5-2.025v7.775h3.978v-9.111   c0.41-0.049,0.826-0.082,1.25-0.082s0.839,0.033,1.25,0.082v9.111h3.979v-7.775c0.937,0.543,1.777,1.229,2.5,2.027v5.748h2.633   c0.05,0.41,0.082,0.826,0.082,1.25v1.25h-2.715v1.987c0,0.691-0.561,1.25-1.25,1.25c-0.69,0-1.25-0.559-1.25-1.25v-1.987H51.25z"/><rect x="21.213" y="47.346" width="3.599" height="7.626"/><rect x="75.188" y="47.346" width="3.599" height="7.626"/><rect x="53.598" y="36.55" width="3.598" height="7.627"/><rect x="42.802" y="36.55" width="3.599" height="7.627"/></g><text x="0" y="115" fill="#000000" font-size="5px" font-weight="bold" font-family="'Helvetica Neue', Helvetica, Arial-Unicode, Arial, Sans-serif">Created by Jems Mayor</text><text x="0" y="120" fill="#000000" font-size="5px" font-weight="bold" font-family="'Helvetica Neue', Helvetica, Arial-Unicode, Arial, Sans-serif">from the Noun Project</text></svg>